G04 #@! TF.GenerationSoftware,KiCad,Pcbnew,(5.1.6)-1*
G04 #@! TF.CreationDate,2021-03-17T22:05:54+03:00*
G04 #@! TF.ProjectId,Power_filter,506f7765-725f-4666-996c-7465722e6b69,rev?*
G04 #@! TF.SameCoordinates,Original*
G04 #@! TF.FileFunction,Copper,L1,Top*
G04 #@! TF.FilePolarity,Positive*
%FSLAX46Y46*%
G04 Gerber Fmt 4.6, Leading zero omitted, Abs format (unit mm)*
G04 Created by KiCad (PCBNEW (5.1.6)-1) date 2021-03-17 22:05:54*
%MOMM*%
%LPD*%
G01*
G04 APERTURE LIST*
G04 #@! TA.AperFunction,ComponentPad*
%ADD10C,2.100000*%
G04 #@! TD*
G04 #@! TA.AperFunction,ComponentPad*
%ADD11R,2.100000X2.100000*%
G04 #@! TD*
G04 #@! TA.AperFunction,ComponentPad*
%ADD12C,2.000000*%
G04 #@! TD*
G04 #@! TA.AperFunction,ComponentPad*
%ADD13C,1.600000*%
G04 #@! TD*
G04 #@! TA.AperFunction,ComponentPad*
%ADD14C,2.400000*%
G04 #@! TD*
G04 #@! TA.AperFunction,ComponentPad*
%ADD15R,2.400000X2.400000*%
G04 #@! TD*
G04 #@! TA.AperFunction,ViaPad*
%ADD16C,7.000000*%
G04 #@! TD*
G04 APERTURE END LIST*
D10*
X165000000Y-123000000D03*
X165000000Y-118000000D03*
D11*
X165000000Y-113000000D03*
D10*
X101750000Y-123000000D03*
X101750000Y-118000000D03*
D11*
X101750000Y-113000000D03*
D12*
X116000000Y-103400000D03*
X106000000Y-103400000D03*
X106000000Y-96000000D03*
G04 #@! TA.AperFunction,ComponentPad*
G36*
G01*
X117000000Y-95500000D02*
X117000000Y-96500000D01*
G75*
G02*
X116500000Y-97000000I-500000J0D01*
G01*
X115500000Y-97000000D01*
G75*
G02*
X115000000Y-96500000I0J500000D01*
G01*
X115000000Y-95500000D01*
G75*
G02*
X115500000Y-95000000I500000J0D01*
G01*
X116500000Y-95000000D01*
G75*
G02*
X117000000Y-95500000I0J-500000D01*
G01*
G37*
G04 #@! TD.AperFunction*
X157000000Y-77600000D03*
X167000000Y-77600000D03*
X167000000Y-85000000D03*
G04 #@! TA.AperFunction,ComponentPad*
G36*
G01*
X156000000Y-85500000D02*
X156000000Y-84500000D01*
G75*
G02*
X156500000Y-84000000I500000J0D01*
G01*
X157500000Y-84000000D01*
G75*
G02*
X158000000Y-84500000I0J-500000D01*
G01*
X158000000Y-85500000D01*
G75*
G02*
X157500000Y-86000000I-500000J0D01*
G01*
X156500000Y-86000000D01*
G75*
G02*
X156000000Y-85500000I0J500000D01*
G01*
G37*
G04 #@! TD.AperFunction*
D13*
X154000000Y-121000000D03*
X154000000Y-116000000D03*
X149000000Y-121000000D03*
X149000000Y-116000000D03*
D14*
X136000000Y-122500000D03*
D15*
X136000000Y-115000000D03*
D14*
X117000000Y-122500000D03*
D15*
X117000000Y-115000000D03*
D13*
X125000000Y-102000000D03*
X125000000Y-97000000D03*
X131000000Y-102000000D03*
X131000000Y-97000000D03*
D14*
X143000000Y-103500000D03*
D15*
X143000000Y-96000000D03*
D14*
X162000000Y-103500000D03*
D15*
X162000000Y-96000000D03*
D13*
X148000000Y-79000000D03*
X148000000Y-84000000D03*
X142000000Y-79000000D03*
X142000000Y-84000000D03*
D14*
X130000000Y-78500000D03*
D15*
X130000000Y-86000000D03*
D14*
X111000000Y-78500000D03*
D15*
X111000000Y-86000000D03*
D16*
X92000000Y-132000000D03*
X175000000Y-132000000D03*
X175000000Y-68000000D03*
X92000000Y-68000000D03*
M02*
