M48
; DRILL file {KiCad (5.1.6)-1} date 03/17/21 22:06:10
; FORMAT={-:-/ absolute / inch / decimal}
; #@! TF.CreationDate,2021-03-17T22:06:10+03:00
; #@! TF.GenerationSoftware,Kicad,Pcbnew,(5.1.6)-1
; #@! TF.FileFunction,Plated,1,2,PTH
FMAT,2
INCH
T1C0.0315
T2C0.0394
T3C0.0433
T4C0.0472
T5C0.1260
%
G90
G05
T1
X6.063Y-4.5669
X4.9213Y-3.8189
X4.9213Y-4.0157
X5.8268Y-3.1102
X5.8268Y-3.3071
X5.5906Y-3.1102
X5.5906Y-3.3071
X5.1575Y-3.8189
X5.1575Y-4.0157
X5.8661Y-4.5669
X5.8661Y-4.7638
X6.063Y-4.7638
T2
X6.1811Y-3.0551
X6.1811Y-3.3465
X6.5748Y-3.0551
X6.5748Y-3.3465
X4.1732Y-3.7795
X4.1732Y-4.0709
X4.5669Y-3.7795
X4.5669Y-4.0709
T3
X4.0059Y-4.4488
X4.0059Y-4.6457
X4.0059Y-4.8425
X6.4961Y-4.4488
X6.4961Y-4.6457
X6.4961Y-4.8425
T4
X5.3543Y-4.5276
X5.3543Y-4.8228
X4.3701Y-3.0906
X4.3701Y-3.3858
X5.1181Y-3.0906
X5.1181Y-3.3858
X4.6063Y-4.5276
X4.6063Y-4.8228
X6.378Y-3.7795
X6.378Y-4.0748
X5.6299Y-3.7795
X5.6299Y-4.0748
T5
X3.622Y-2.6772
X3.622Y-5.1969
X6.8898Y-2.6772
X6.8898Y-5.1969
T0
M30
