G04 #@! TF.GenerationSoftware,KiCad,Pcbnew,(5.1.6)-1*
G04 #@! TF.CreationDate,2021-03-17T22:05:54+03:00*
G04 #@! TF.ProjectId,Power_filter,506f7765-725f-4666-996c-7465722e6b69,rev?*
G04 #@! TF.SameCoordinates,Original*
G04 #@! TF.FileFunction,Legend,Top*
G04 #@! TF.FilePolarity,Positive*
%FSLAX46Y46*%
G04 Gerber Fmt 4.6, Leading zero omitted, Abs format (unit mm)*
G04 Created by KiCad (PCBNEW (5.1.6)-1) date 2021-03-17 22:05:54*
%MOMM*%
%LPD*%
G01*
G04 APERTURE LIST*
%ADD10C,0.400000*%
%ADD11C,0.120000*%
%ADD12C,0.150000*%
G04 APERTURE END LIST*
D10*
X173476190Y-123285714D02*
X176523809Y-123285714D01*
X173476190Y-113285714D02*
X176523809Y-113285714D01*
X175000000Y-114809523D02*
X175000000Y-111761904D01*
X90476190Y-122285714D02*
X93523809Y-122285714D01*
X90476190Y-113285714D02*
X93523809Y-113285714D01*
X92000000Y-114809523D02*
X92000000Y-111761904D01*
D11*
X160650000Y-110200000D02*
X160650000Y-110800000D01*
X161490000Y-110200000D02*
X160650000Y-110200000D01*
X169050000Y-124250000D02*
X168050000Y-124250000D01*
X169050000Y-121750000D02*
X168050000Y-121750000D01*
X168050000Y-121750000D02*
X168050000Y-124250000D01*
X169050000Y-121750000D02*
X169050000Y-124250000D01*
X164177000Y-121972000D02*
X163931000Y-121726000D01*
X166275000Y-124070000D02*
X166064000Y-123859000D01*
X163925000Y-122130000D02*
X163726000Y-121931000D01*
X166069000Y-124275000D02*
X165823000Y-124029000D01*
X169050000Y-119250000D02*
X168050000Y-119250000D01*
X169050000Y-116750000D02*
X168050000Y-116750000D01*
X168050000Y-116750000D02*
X168050000Y-119250000D01*
X169050000Y-116750000D02*
X169050000Y-119250000D01*
X164177000Y-116972000D02*
X163931000Y-116726000D01*
X166275000Y-119070000D02*
X166064000Y-118859000D01*
X163925000Y-117130000D02*
X163726000Y-116931000D01*
X166069000Y-119275000D02*
X165823000Y-119029000D01*
X169050000Y-114250000D02*
X168050000Y-114250000D01*
X169050000Y-111750000D02*
X168050000Y-111750000D01*
X168050000Y-111750000D02*
X168050000Y-114250000D01*
X169050000Y-111750000D02*
X169050000Y-114250000D01*
X169110000Y-125560000D02*
X160890000Y-125560000D01*
X169110000Y-110440000D02*
X160890000Y-110440000D01*
X160890000Y-110440000D02*
X160890000Y-125560000D01*
X169110000Y-110440000D02*
X169110000Y-125560000D01*
X167050000Y-110440000D02*
X167050000Y-125560000D01*
X162150000Y-110440000D02*
X162150000Y-125560000D01*
X161550000Y-110440000D02*
X161550000Y-125560000D01*
X166680000Y-123000000D02*
G75*
G03*
X166680000Y-123000000I-1680000J0D01*
G01*
X166680000Y-118000000D02*
G75*
G03*
X166680000Y-118000000I-1680000J0D01*
G01*
X163319489Y-113028507D02*
G75*
G02*
X163713000Y-111919000I1680511J28507D01*
G01*
X163920266Y-111711937D02*
G75*
G02*
X166081000Y-111713000I1079734J-1288063D01*
G01*
X166287078Y-111920092D02*
G75*
G02*
X166287000Y-114080000I-1287078J-1079908D01*
G01*
X166079908Y-114287078D02*
G75*
G02*
X163920000Y-114287000I-1079908J1287078D01*
G01*
X163713045Y-114079883D02*
G75*
G02*
X163320000Y-113000000I1286955J1079883D01*
G01*
X97400000Y-110200000D02*
X97400000Y-110800000D01*
X98240000Y-110200000D02*
X97400000Y-110200000D01*
X105800000Y-124250000D02*
X104800000Y-124250000D01*
X105800000Y-121750000D02*
X104800000Y-121750000D01*
X104800000Y-121750000D02*
X104800000Y-124250000D01*
X105800000Y-121750000D02*
X105800000Y-124250000D01*
X100927000Y-121972000D02*
X100681000Y-121726000D01*
X103025000Y-124070000D02*
X102814000Y-123859000D01*
X100675000Y-122130000D02*
X100476000Y-121931000D01*
X102819000Y-124275000D02*
X102573000Y-124029000D01*
X105800000Y-119250000D02*
X104800000Y-119250000D01*
X105800000Y-116750000D02*
X104800000Y-116750000D01*
X104800000Y-116750000D02*
X104800000Y-119250000D01*
X105800000Y-116750000D02*
X105800000Y-119250000D01*
X100927000Y-116972000D02*
X100681000Y-116726000D01*
X103025000Y-119070000D02*
X102814000Y-118859000D01*
X100675000Y-117130000D02*
X100476000Y-116931000D01*
X102819000Y-119275000D02*
X102573000Y-119029000D01*
X105800000Y-114250000D02*
X104800000Y-114250000D01*
X105800000Y-111750000D02*
X104800000Y-111750000D01*
X104800000Y-111750000D02*
X104800000Y-114250000D01*
X105800000Y-111750000D02*
X105800000Y-114250000D01*
X105860000Y-125560000D02*
X97640000Y-125560000D01*
X105860000Y-110440000D02*
X97640000Y-110440000D01*
X97640000Y-110440000D02*
X97640000Y-125560000D01*
X105860000Y-110440000D02*
X105860000Y-125560000D01*
X103800000Y-110440000D02*
X103800000Y-125560000D01*
X98900000Y-110440000D02*
X98900000Y-125560000D01*
X98300000Y-110440000D02*
X98300000Y-125560000D01*
X103430000Y-123000000D02*
G75*
G03*
X103430000Y-123000000I-1680000J0D01*
G01*
X103430000Y-118000000D02*
G75*
G03*
X103430000Y-118000000I-1680000J0D01*
G01*
X100069489Y-113028507D02*
G75*
G02*
X100463000Y-111919000I1680511J28507D01*
G01*
X100670266Y-111711937D02*
G75*
G02*
X102831000Y-111713000I1079734J-1288063D01*
G01*
X103037078Y-111920092D02*
G75*
G02*
X103037000Y-114080000I-1287078J-1079908D01*
G01*
X102829908Y-114287078D02*
G75*
G02*
X100670000Y-114287000I-1079908J1287078D01*
G01*
X100463045Y-114079883D02*
G75*
G02*
X100070000Y-113000000I1286955J1079883D01*
G01*
X119000000Y-93700000D02*
X119000000Y-105700000D01*
X105000000Y-91700000D02*
X117000000Y-91700000D01*
X103000000Y-105700000D02*
X103000000Y-93700000D01*
X117000000Y-107700000D02*
X105000000Y-107700000D01*
X119000000Y-105700000D02*
G75*
G02*
X117000000Y-107700000I-2000000J0D01*
G01*
X105000000Y-107700000D02*
G75*
G02*
X103000000Y-105700000I0J2000000D01*
G01*
X103000000Y-93700000D02*
G75*
G02*
X105000000Y-91700000I2000000J0D01*
G01*
X117000000Y-91700000D02*
G75*
G02*
X119000000Y-93700000I0J-2000000D01*
G01*
X154000000Y-87300000D02*
X154000000Y-75300000D01*
X168000000Y-89300000D02*
X156000000Y-89300000D01*
X170000000Y-75300000D02*
X170000000Y-87300000D01*
X156000000Y-73300000D02*
X168000000Y-73300000D01*
X154000000Y-75300000D02*
G75*
G02*
X156000000Y-73300000I2000000J0D01*
G01*
X168000000Y-73300000D02*
G75*
G02*
X170000000Y-75300000I0J-2000000D01*
G01*
X170000000Y-87300000D02*
G75*
G02*
X168000000Y-89300000I-2000000J0D01*
G01*
X156000000Y-89300000D02*
G75*
G02*
X154000000Y-87300000I0J2000000D01*
G01*
X155370000Y-122120000D02*
X152630000Y-122120000D01*
X155370000Y-114880000D02*
X152630000Y-114880000D01*
X152630000Y-114880000D02*
X152630000Y-122120000D01*
X155370000Y-114880000D02*
X155370000Y-122120000D01*
X150870000Y-122120000D02*
X147130000Y-122120000D01*
X150870000Y-114880000D02*
X147130000Y-114880000D01*
X147130000Y-114880000D02*
X147130000Y-122120000D01*
X150870000Y-114880000D02*
X150870000Y-122120000D01*
X141355000Y-110860509D02*
X139755000Y-110860509D01*
X140555000Y-110060509D02*
X140555000Y-111660509D01*
X136765000Y-126831000D02*
X135235000Y-126831000D01*
X137098000Y-126791000D02*
X134902000Y-126791000D01*
X137351000Y-126751000D02*
X134649000Y-126751000D01*
X137564000Y-126711000D02*
X134436000Y-126711000D01*
X137752000Y-126671000D02*
X134248000Y-126671000D01*
X137920000Y-126631000D02*
X134080000Y-126631000D01*
X138074000Y-126591000D02*
X133926000Y-126591000D01*
X138218000Y-126551000D02*
X133782000Y-126551000D01*
X138351000Y-126511000D02*
X133649000Y-126511000D01*
X138478000Y-126471000D02*
X133522000Y-126471000D01*
X138597000Y-126431000D02*
X133403000Y-126431000D01*
X138711000Y-126391000D02*
X133289000Y-126391000D01*
X138820000Y-126351000D02*
X133180000Y-126351000D01*
X138924000Y-126311000D02*
X133076000Y-126311000D01*
X139024000Y-126271000D02*
X132976000Y-126271000D01*
X139120000Y-126231000D02*
X132880000Y-126231000D01*
X139213000Y-126191000D02*
X132787000Y-126191000D01*
X139303000Y-126151000D02*
X132697000Y-126151000D01*
X139390000Y-126111000D02*
X132610000Y-126111000D01*
X139475000Y-126071000D02*
X132525000Y-126071000D01*
X139557000Y-126031000D02*
X132443000Y-126031000D01*
X139637000Y-125991000D02*
X132363000Y-125991000D01*
X139715000Y-125951000D02*
X132285000Y-125951000D01*
X139790000Y-125911000D02*
X132210000Y-125911000D01*
X139864000Y-125871000D02*
X132136000Y-125871000D01*
X139936000Y-125831000D02*
X132064000Y-125831000D01*
X140007000Y-125791000D02*
X131993000Y-125791000D01*
X140076000Y-125751000D02*
X131924000Y-125751000D01*
X140143000Y-125711000D02*
X131857000Y-125711000D01*
X140209000Y-125671000D02*
X131791000Y-125671000D01*
X140273000Y-125631000D02*
X131727000Y-125631000D01*
X140336000Y-125591000D02*
X131664000Y-125591000D01*
X140398000Y-125551000D02*
X131602000Y-125551000D01*
X140459000Y-125511000D02*
X131541000Y-125511000D01*
X140519000Y-125471000D02*
X131481000Y-125471000D01*
X140577000Y-125431000D02*
X131423000Y-125431000D01*
X140634000Y-125391000D02*
X131366000Y-125391000D01*
X140691000Y-125351000D02*
X131309000Y-125351000D01*
X140746000Y-125311000D02*
X131254000Y-125311000D01*
X140800000Y-125271000D02*
X131200000Y-125271000D01*
X140854000Y-125231000D02*
X131146000Y-125231000D01*
X140906000Y-125191000D02*
X131094000Y-125191000D01*
X140958000Y-125151000D02*
X131042000Y-125151000D01*
X141009000Y-125111000D02*
X130991000Y-125111000D01*
X141059000Y-125071000D02*
X130941000Y-125071000D01*
X141108000Y-125031000D02*
X130892000Y-125031000D01*
X141156000Y-124991000D02*
X130844000Y-124991000D01*
X141204000Y-124951000D02*
X130796000Y-124951000D01*
X141251000Y-124911000D02*
X130749000Y-124911000D01*
X141297000Y-124871000D02*
X130703000Y-124871000D01*
X141343000Y-124831000D02*
X130657000Y-124831000D01*
X141388000Y-124791000D02*
X130612000Y-124791000D01*
X141432000Y-124751000D02*
X130568000Y-124751000D01*
X141475000Y-124711000D02*
X130525000Y-124711000D01*
X141518000Y-124671000D02*
X130482000Y-124671000D01*
X141560000Y-124631000D02*
X130440000Y-124631000D01*
X141602000Y-124591000D02*
X130398000Y-124591000D01*
X141643000Y-124551000D02*
X130357000Y-124551000D01*
X141684000Y-124511000D02*
X130316000Y-124511000D01*
X141724000Y-124471000D02*
X130276000Y-124471000D01*
X141763000Y-124431000D02*
X130237000Y-124431000D01*
X141802000Y-124391000D02*
X130198000Y-124391000D01*
X141840000Y-124351000D02*
X130160000Y-124351000D01*
X141878000Y-124311000D02*
X130122000Y-124311000D01*
X141916000Y-124271000D02*
X130084000Y-124271000D01*
X141952000Y-124231000D02*
X130048000Y-124231000D01*
X141989000Y-124191000D02*
X130011000Y-124191000D01*
X142025000Y-124151000D02*
X129975000Y-124151000D01*
X142060000Y-124111000D02*
X129940000Y-124111000D01*
X142095000Y-124071000D02*
X129905000Y-124071000D01*
X142129000Y-124031000D02*
X129871000Y-124031000D01*
X142163000Y-123991000D02*
X129837000Y-123991000D01*
X142197000Y-123951000D02*
X129803000Y-123951000D01*
X134560000Y-123911000D02*
X129770000Y-123911000D01*
X142230000Y-123911000D02*
X137440000Y-123911000D01*
X134560000Y-123871000D02*
X129737000Y-123871000D01*
X142263000Y-123871000D02*
X137440000Y-123871000D01*
X134560000Y-123831000D02*
X129705000Y-123831000D01*
X142295000Y-123831000D02*
X137440000Y-123831000D01*
X134560000Y-123791000D02*
X129673000Y-123791000D01*
X142327000Y-123791000D02*
X137440000Y-123791000D01*
X134560000Y-123751000D02*
X129642000Y-123751000D01*
X142358000Y-123751000D02*
X137440000Y-123751000D01*
X134560000Y-123711000D02*
X129610000Y-123711000D01*
X142390000Y-123711000D02*
X137440000Y-123711000D01*
X134560000Y-123671000D02*
X129580000Y-123671000D01*
X142420000Y-123671000D02*
X137440000Y-123671000D01*
X134560000Y-123631000D02*
X129550000Y-123631000D01*
X142450000Y-123631000D02*
X137440000Y-123631000D01*
X134560000Y-123591000D02*
X129520000Y-123591000D01*
X142480000Y-123591000D02*
X137440000Y-123591000D01*
X134560000Y-123551000D02*
X129490000Y-123551000D01*
X142510000Y-123551000D02*
X137440000Y-123551000D01*
X134560000Y-123511000D02*
X129461000Y-123511000D01*
X142539000Y-123511000D02*
X137440000Y-123511000D01*
X134560000Y-123471000D02*
X129432000Y-123471000D01*
X142568000Y-123471000D02*
X137440000Y-123471000D01*
X134560000Y-123431000D02*
X129404000Y-123431000D01*
X142596000Y-123431000D02*
X137440000Y-123431000D01*
X134560000Y-123391000D02*
X129376000Y-123391000D01*
X142624000Y-123391000D02*
X137440000Y-123391000D01*
X134560000Y-123351000D02*
X129348000Y-123351000D01*
X142652000Y-123351000D02*
X137440000Y-123351000D01*
X134560000Y-123311000D02*
X129321000Y-123311000D01*
X142679000Y-123311000D02*
X137440000Y-123311000D01*
X134560000Y-123271000D02*
X129294000Y-123271000D01*
X142706000Y-123271000D02*
X137440000Y-123271000D01*
X134560000Y-123231000D02*
X129267000Y-123231000D01*
X142733000Y-123231000D02*
X137440000Y-123231000D01*
X134560000Y-123191000D02*
X129241000Y-123191000D01*
X142759000Y-123191000D02*
X137440000Y-123191000D01*
X134560000Y-123151000D02*
X129215000Y-123151000D01*
X142785000Y-123151000D02*
X137440000Y-123151000D01*
X134560000Y-123111000D02*
X129189000Y-123111000D01*
X142811000Y-123111000D02*
X137440000Y-123111000D01*
X134560000Y-123071000D02*
X129164000Y-123071000D01*
X142836000Y-123071000D02*
X137440000Y-123071000D01*
X134560000Y-123031000D02*
X129139000Y-123031000D01*
X142861000Y-123031000D02*
X137440000Y-123031000D01*
X134560000Y-122991000D02*
X129114000Y-122991000D01*
X142886000Y-122991000D02*
X137440000Y-122991000D01*
X134560000Y-122951000D02*
X129090000Y-122951000D01*
X142910000Y-122951000D02*
X137440000Y-122951000D01*
X134560000Y-122911000D02*
X129066000Y-122911000D01*
X142934000Y-122911000D02*
X137440000Y-122911000D01*
X134560000Y-122871000D02*
X129042000Y-122871000D01*
X142958000Y-122871000D02*
X137440000Y-122871000D01*
X134560000Y-122831000D02*
X129019000Y-122831000D01*
X142981000Y-122831000D02*
X137440000Y-122831000D01*
X134560000Y-122791000D02*
X128996000Y-122791000D01*
X143004000Y-122791000D02*
X137440000Y-122791000D01*
X134560000Y-122751000D02*
X128973000Y-122751000D01*
X143027000Y-122751000D02*
X137440000Y-122751000D01*
X134560000Y-122711000D02*
X128951000Y-122711000D01*
X143049000Y-122711000D02*
X137440000Y-122711000D01*
X134560000Y-122671000D02*
X128928000Y-122671000D01*
X143072000Y-122671000D02*
X137440000Y-122671000D01*
X134560000Y-122631000D02*
X128906000Y-122631000D01*
X143094000Y-122631000D02*
X137440000Y-122631000D01*
X134560000Y-122591000D02*
X128885000Y-122591000D01*
X143115000Y-122591000D02*
X137440000Y-122591000D01*
X134560000Y-122551000D02*
X128864000Y-122551000D01*
X143136000Y-122551000D02*
X137440000Y-122551000D01*
X134560000Y-122511000D02*
X128843000Y-122511000D01*
X143157000Y-122511000D02*
X137440000Y-122511000D01*
X134560000Y-122471000D02*
X128822000Y-122471000D01*
X143178000Y-122471000D02*
X137440000Y-122471000D01*
X134560000Y-122431000D02*
X128801000Y-122431000D01*
X143199000Y-122431000D02*
X137440000Y-122431000D01*
X134560000Y-122391000D02*
X128781000Y-122391000D01*
X143219000Y-122391000D02*
X137440000Y-122391000D01*
X134560000Y-122351000D02*
X128761000Y-122351000D01*
X143239000Y-122351000D02*
X137440000Y-122351000D01*
X134560000Y-122311000D02*
X128742000Y-122311000D01*
X143258000Y-122311000D02*
X137440000Y-122311000D01*
X134560000Y-122271000D02*
X128722000Y-122271000D01*
X143278000Y-122271000D02*
X137440000Y-122271000D01*
X134560000Y-122231000D02*
X128703000Y-122231000D01*
X143297000Y-122231000D02*
X137440000Y-122231000D01*
X134560000Y-122191000D02*
X128684000Y-122191000D01*
X143316000Y-122191000D02*
X137440000Y-122191000D01*
X134560000Y-122151000D02*
X128666000Y-122151000D01*
X143334000Y-122151000D02*
X137440000Y-122151000D01*
X134560000Y-122111000D02*
X128647000Y-122111000D01*
X143353000Y-122111000D02*
X137440000Y-122111000D01*
X134560000Y-122071000D02*
X128629000Y-122071000D01*
X143371000Y-122071000D02*
X137440000Y-122071000D01*
X134560000Y-122031000D02*
X128611000Y-122031000D01*
X143389000Y-122031000D02*
X137440000Y-122031000D01*
X134560000Y-121991000D02*
X128594000Y-121991000D01*
X143406000Y-121991000D02*
X137440000Y-121991000D01*
X134560000Y-121951000D02*
X128577000Y-121951000D01*
X143423000Y-121951000D02*
X137440000Y-121951000D01*
X134560000Y-121911000D02*
X128560000Y-121911000D01*
X143440000Y-121911000D02*
X137440000Y-121911000D01*
X134560000Y-121871000D02*
X128543000Y-121871000D01*
X143457000Y-121871000D02*
X137440000Y-121871000D01*
X134560000Y-121831000D02*
X128526000Y-121831000D01*
X143474000Y-121831000D02*
X137440000Y-121831000D01*
X134560000Y-121791000D02*
X128510000Y-121791000D01*
X143490000Y-121791000D02*
X137440000Y-121791000D01*
X134560000Y-121751000D02*
X128494000Y-121751000D01*
X143506000Y-121751000D02*
X137440000Y-121751000D01*
X134560000Y-121711000D02*
X128478000Y-121711000D01*
X143522000Y-121711000D02*
X137440000Y-121711000D01*
X134560000Y-121671000D02*
X128463000Y-121671000D01*
X143537000Y-121671000D02*
X137440000Y-121671000D01*
X134560000Y-121631000D02*
X128447000Y-121631000D01*
X143553000Y-121631000D02*
X137440000Y-121631000D01*
X134560000Y-121591000D02*
X128432000Y-121591000D01*
X143568000Y-121591000D02*
X137440000Y-121591000D01*
X134560000Y-121551000D02*
X128418000Y-121551000D01*
X143582000Y-121551000D02*
X137440000Y-121551000D01*
X134560000Y-121511000D02*
X128403000Y-121511000D01*
X143597000Y-121511000D02*
X137440000Y-121511000D01*
X134560000Y-121471000D02*
X128389000Y-121471000D01*
X143611000Y-121471000D02*
X137440000Y-121471000D01*
X134560000Y-121431000D02*
X128375000Y-121431000D01*
X143625000Y-121431000D02*
X137440000Y-121431000D01*
X134560000Y-121391000D02*
X128361000Y-121391000D01*
X143639000Y-121391000D02*
X137440000Y-121391000D01*
X134560000Y-121351000D02*
X128347000Y-121351000D01*
X143653000Y-121351000D02*
X137440000Y-121351000D01*
X134560000Y-121311000D02*
X128334000Y-121311000D01*
X143666000Y-121311000D02*
X137440000Y-121311000D01*
X134560000Y-121271000D02*
X128320000Y-121271000D01*
X143680000Y-121271000D02*
X137440000Y-121271000D01*
X134560000Y-121231000D02*
X128307000Y-121231000D01*
X143693000Y-121231000D02*
X137440000Y-121231000D01*
X134560000Y-121191000D02*
X128295000Y-121191000D01*
X143705000Y-121191000D02*
X137440000Y-121191000D01*
X134560000Y-121151000D02*
X128282000Y-121151000D01*
X143718000Y-121151000D02*
X137440000Y-121151000D01*
X134560000Y-121111000D02*
X128270000Y-121111000D01*
X143730000Y-121111000D02*
X137440000Y-121111000D01*
X134560000Y-121071000D02*
X128258000Y-121071000D01*
X143742000Y-121071000D02*
X137440000Y-121071000D01*
X143754000Y-121031000D02*
X128246000Y-121031000D01*
X143765000Y-120991000D02*
X128235000Y-120991000D01*
X143777000Y-120951000D02*
X128223000Y-120951000D01*
X143788000Y-120911000D02*
X128212000Y-120911000D01*
X143799000Y-120871000D02*
X128201000Y-120871000D01*
X143810000Y-120831000D02*
X128190000Y-120831000D01*
X143820000Y-120791000D02*
X128180000Y-120791000D01*
X143830000Y-120751000D02*
X128170000Y-120751000D01*
X143840000Y-120711000D02*
X128160000Y-120711000D01*
X143850000Y-120671000D02*
X128150000Y-120671000D01*
X143860000Y-120631000D02*
X128140000Y-120631000D01*
X143869000Y-120591000D02*
X128131000Y-120591000D01*
X143878000Y-120551000D02*
X128122000Y-120551000D01*
X143887000Y-120511000D02*
X128113000Y-120511000D01*
X143896000Y-120471000D02*
X128104000Y-120471000D01*
X143905000Y-120431000D02*
X128095000Y-120431000D01*
X143913000Y-120391000D02*
X128087000Y-120391000D01*
X143921000Y-120351000D02*
X128079000Y-120351000D01*
X143929000Y-120311000D02*
X128071000Y-120311000D01*
X143937000Y-120271000D02*
X128063000Y-120271000D01*
X143944000Y-120231000D02*
X128056000Y-120231000D01*
X143952000Y-120191000D02*
X128048000Y-120191000D01*
X143959000Y-120151000D02*
X128041000Y-120151000D01*
X143966000Y-120111000D02*
X128034000Y-120111000D01*
X143972000Y-120071000D02*
X128028000Y-120071000D01*
X143979000Y-120031000D02*
X128021000Y-120031000D01*
X143985000Y-119991000D02*
X128015000Y-119991000D01*
X143991000Y-119951000D02*
X128009000Y-119951000D01*
X143997000Y-119911000D02*
X128003000Y-119911000D01*
X144003000Y-119871000D02*
X127997000Y-119871000D01*
X144008000Y-119831000D02*
X127992000Y-119831000D01*
X144014000Y-119791000D02*
X127986000Y-119791000D01*
X144019000Y-119751000D02*
X127981000Y-119751000D01*
X144024000Y-119711000D02*
X127976000Y-119711000D01*
X144028000Y-119671000D02*
X127972000Y-119671000D01*
X144033000Y-119631000D02*
X127967000Y-119631000D01*
X144037000Y-119591000D02*
X127963000Y-119591000D01*
X144041000Y-119551000D02*
X127959000Y-119551000D01*
X144045000Y-119511000D02*
X127955000Y-119511000D01*
X144049000Y-119471000D02*
X127951000Y-119471000D01*
X144052000Y-119430000D02*
X127948000Y-119430000D01*
X144055000Y-119390000D02*
X127945000Y-119390000D01*
X144058000Y-119350000D02*
X127942000Y-119350000D01*
X144061000Y-119310000D02*
X127939000Y-119310000D01*
X144064000Y-119270000D02*
X127936000Y-119270000D01*
X144066000Y-119230000D02*
X127934000Y-119230000D01*
X144069000Y-119190000D02*
X127931000Y-119190000D01*
X144071000Y-119150000D02*
X127929000Y-119150000D01*
X144073000Y-119110000D02*
X127927000Y-119110000D01*
X144074000Y-119070000D02*
X127926000Y-119070000D01*
X144076000Y-119030000D02*
X127924000Y-119030000D01*
X144077000Y-118990000D02*
X127923000Y-118990000D01*
X144078000Y-118950000D02*
X127922000Y-118950000D01*
X144079000Y-118910000D02*
X127921000Y-118910000D01*
X144080000Y-118870000D02*
X127920000Y-118870000D01*
X144080000Y-118830000D02*
X127920000Y-118830000D01*
X144080000Y-118790000D02*
X127920000Y-118790000D01*
X144081000Y-118750000D02*
X127919000Y-118750000D01*
X144120000Y-118750000D02*
G75*
G03*
X144120000Y-118750000I-8120000J0D01*
G01*
X122355000Y-110860509D02*
X120755000Y-110860509D01*
X121555000Y-110060509D02*
X121555000Y-111660509D01*
X117765000Y-126831000D02*
X116235000Y-126831000D01*
X118098000Y-126791000D02*
X115902000Y-126791000D01*
X118351000Y-126751000D02*
X115649000Y-126751000D01*
X118564000Y-126711000D02*
X115436000Y-126711000D01*
X118752000Y-126671000D02*
X115248000Y-126671000D01*
X118920000Y-126631000D02*
X115080000Y-126631000D01*
X119074000Y-126591000D02*
X114926000Y-126591000D01*
X119218000Y-126551000D02*
X114782000Y-126551000D01*
X119351000Y-126511000D02*
X114649000Y-126511000D01*
X119478000Y-126471000D02*
X114522000Y-126471000D01*
X119597000Y-126431000D02*
X114403000Y-126431000D01*
X119711000Y-126391000D02*
X114289000Y-126391000D01*
X119820000Y-126351000D02*
X114180000Y-126351000D01*
X119924000Y-126311000D02*
X114076000Y-126311000D01*
X120024000Y-126271000D02*
X113976000Y-126271000D01*
X120120000Y-126231000D02*
X113880000Y-126231000D01*
X120213000Y-126191000D02*
X113787000Y-126191000D01*
X120303000Y-126151000D02*
X113697000Y-126151000D01*
X120390000Y-126111000D02*
X113610000Y-126111000D01*
X120475000Y-126071000D02*
X113525000Y-126071000D01*
X120557000Y-126031000D02*
X113443000Y-126031000D01*
X120637000Y-125991000D02*
X113363000Y-125991000D01*
X120715000Y-125951000D02*
X113285000Y-125951000D01*
X120790000Y-125911000D02*
X113210000Y-125911000D01*
X120864000Y-125871000D02*
X113136000Y-125871000D01*
X120936000Y-125831000D02*
X113064000Y-125831000D01*
X121007000Y-125791000D02*
X112993000Y-125791000D01*
X121076000Y-125751000D02*
X112924000Y-125751000D01*
X121143000Y-125711000D02*
X112857000Y-125711000D01*
X121209000Y-125671000D02*
X112791000Y-125671000D01*
X121273000Y-125631000D02*
X112727000Y-125631000D01*
X121336000Y-125591000D02*
X112664000Y-125591000D01*
X121398000Y-125551000D02*
X112602000Y-125551000D01*
X121459000Y-125511000D02*
X112541000Y-125511000D01*
X121519000Y-125471000D02*
X112481000Y-125471000D01*
X121577000Y-125431000D02*
X112423000Y-125431000D01*
X121634000Y-125391000D02*
X112366000Y-125391000D01*
X121691000Y-125351000D02*
X112309000Y-125351000D01*
X121746000Y-125311000D02*
X112254000Y-125311000D01*
X121800000Y-125271000D02*
X112200000Y-125271000D01*
X121854000Y-125231000D02*
X112146000Y-125231000D01*
X121906000Y-125191000D02*
X112094000Y-125191000D01*
X121958000Y-125151000D02*
X112042000Y-125151000D01*
X122009000Y-125111000D02*
X111991000Y-125111000D01*
X122059000Y-125071000D02*
X111941000Y-125071000D01*
X122108000Y-125031000D02*
X111892000Y-125031000D01*
X122156000Y-124991000D02*
X111844000Y-124991000D01*
X122204000Y-124951000D02*
X111796000Y-124951000D01*
X122251000Y-124911000D02*
X111749000Y-124911000D01*
X122297000Y-124871000D02*
X111703000Y-124871000D01*
X122343000Y-124831000D02*
X111657000Y-124831000D01*
X122388000Y-124791000D02*
X111612000Y-124791000D01*
X122432000Y-124751000D02*
X111568000Y-124751000D01*
X122475000Y-124711000D02*
X111525000Y-124711000D01*
X122518000Y-124671000D02*
X111482000Y-124671000D01*
X122560000Y-124631000D02*
X111440000Y-124631000D01*
X122602000Y-124591000D02*
X111398000Y-124591000D01*
X122643000Y-124551000D02*
X111357000Y-124551000D01*
X122684000Y-124511000D02*
X111316000Y-124511000D01*
X122724000Y-124471000D02*
X111276000Y-124471000D01*
X122763000Y-124431000D02*
X111237000Y-124431000D01*
X122802000Y-124391000D02*
X111198000Y-124391000D01*
X122840000Y-124351000D02*
X111160000Y-124351000D01*
X122878000Y-124311000D02*
X111122000Y-124311000D01*
X122916000Y-124271000D02*
X111084000Y-124271000D01*
X122952000Y-124231000D02*
X111048000Y-124231000D01*
X122989000Y-124191000D02*
X111011000Y-124191000D01*
X123025000Y-124151000D02*
X110975000Y-124151000D01*
X123060000Y-124111000D02*
X110940000Y-124111000D01*
X123095000Y-124071000D02*
X110905000Y-124071000D01*
X123129000Y-124031000D02*
X110871000Y-124031000D01*
X123163000Y-123991000D02*
X110837000Y-123991000D01*
X123197000Y-123951000D02*
X110803000Y-123951000D01*
X115560000Y-123911000D02*
X110770000Y-123911000D01*
X123230000Y-123911000D02*
X118440000Y-123911000D01*
X115560000Y-123871000D02*
X110737000Y-123871000D01*
X123263000Y-123871000D02*
X118440000Y-123871000D01*
X115560000Y-123831000D02*
X110705000Y-123831000D01*
X123295000Y-123831000D02*
X118440000Y-123831000D01*
X115560000Y-123791000D02*
X110673000Y-123791000D01*
X123327000Y-123791000D02*
X118440000Y-123791000D01*
X115560000Y-123751000D02*
X110642000Y-123751000D01*
X123358000Y-123751000D02*
X118440000Y-123751000D01*
X115560000Y-123711000D02*
X110610000Y-123711000D01*
X123390000Y-123711000D02*
X118440000Y-123711000D01*
X115560000Y-123671000D02*
X110580000Y-123671000D01*
X123420000Y-123671000D02*
X118440000Y-123671000D01*
X115560000Y-123631000D02*
X110550000Y-123631000D01*
X123450000Y-123631000D02*
X118440000Y-123631000D01*
X115560000Y-123591000D02*
X110520000Y-123591000D01*
X123480000Y-123591000D02*
X118440000Y-123591000D01*
X115560000Y-123551000D02*
X110490000Y-123551000D01*
X123510000Y-123551000D02*
X118440000Y-123551000D01*
X115560000Y-123511000D02*
X110461000Y-123511000D01*
X123539000Y-123511000D02*
X118440000Y-123511000D01*
X115560000Y-123471000D02*
X110432000Y-123471000D01*
X123568000Y-123471000D02*
X118440000Y-123471000D01*
X115560000Y-123431000D02*
X110404000Y-123431000D01*
X123596000Y-123431000D02*
X118440000Y-123431000D01*
X115560000Y-123391000D02*
X110376000Y-123391000D01*
X123624000Y-123391000D02*
X118440000Y-123391000D01*
X115560000Y-123351000D02*
X110348000Y-123351000D01*
X123652000Y-123351000D02*
X118440000Y-123351000D01*
X115560000Y-123311000D02*
X110321000Y-123311000D01*
X123679000Y-123311000D02*
X118440000Y-123311000D01*
X115560000Y-123271000D02*
X110294000Y-123271000D01*
X123706000Y-123271000D02*
X118440000Y-123271000D01*
X115560000Y-123231000D02*
X110267000Y-123231000D01*
X123733000Y-123231000D02*
X118440000Y-123231000D01*
X115560000Y-123191000D02*
X110241000Y-123191000D01*
X123759000Y-123191000D02*
X118440000Y-123191000D01*
X115560000Y-123151000D02*
X110215000Y-123151000D01*
X123785000Y-123151000D02*
X118440000Y-123151000D01*
X115560000Y-123111000D02*
X110189000Y-123111000D01*
X123811000Y-123111000D02*
X118440000Y-123111000D01*
X115560000Y-123071000D02*
X110164000Y-123071000D01*
X123836000Y-123071000D02*
X118440000Y-123071000D01*
X115560000Y-123031000D02*
X110139000Y-123031000D01*
X123861000Y-123031000D02*
X118440000Y-123031000D01*
X115560000Y-122991000D02*
X110114000Y-122991000D01*
X123886000Y-122991000D02*
X118440000Y-122991000D01*
X115560000Y-122951000D02*
X110090000Y-122951000D01*
X123910000Y-122951000D02*
X118440000Y-122951000D01*
X115560000Y-122911000D02*
X110066000Y-122911000D01*
X123934000Y-122911000D02*
X118440000Y-122911000D01*
X115560000Y-122871000D02*
X110042000Y-122871000D01*
X123958000Y-122871000D02*
X118440000Y-122871000D01*
X115560000Y-122831000D02*
X110019000Y-122831000D01*
X123981000Y-122831000D02*
X118440000Y-122831000D01*
X115560000Y-122791000D02*
X109996000Y-122791000D01*
X124004000Y-122791000D02*
X118440000Y-122791000D01*
X115560000Y-122751000D02*
X109973000Y-122751000D01*
X124027000Y-122751000D02*
X118440000Y-122751000D01*
X115560000Y-122711000D02*
X109951000Y-122711000D01*
X124049000Y-122711000D02*
X118440000Y-122711000D01*
X115560000Y-122671000D02*
X109928000Y-122671000D01*
X124072000Y-122671000D02*
X118440000Y-122671000D01*
X115560000Y-122631000D02*
X109906000Y-122631000D01*
X124094000Y-122631000D02*
X118440000Y-122631000D01*
X115560000Y-122591000D02*
X109885000Y-122591000D01*
X124115000Y-122591000D02*
X118440000Y-122591000D01*
X115560000Y-122551000D02*
X109864000Y-122551000D01*
X124136000Y-122551000D02*
X118440000Y-122551000D01*
X115560000Y-122511000D02*
X109843000Y-122511000D01*
X124157000Y-122511000D02*
X118440000Y-122511000D01*
X115560000Y-122471000D02*
X109822000Y-122471000D01*
X124178000Y-122471000D02*
X118440000Y-122471000D01*
X115560000Y-122431000D02*
X109801000Y-122431000D01*
X124199000Y-122431000D02*
X118440000Y-122431000D01*
X115560000Y-122391000D02*
X109781000Y-122391000D01*
X124219000Y-122391000D02*
X118440000Y-122391000D01*
X115560000Y-122351000D02*
X109761000Y-122351000D01*
X124239000Y-122351000D02*
X118440000Y-122351000D01*
X115560000Y-122311000D02*
X109742000Y-122311000D01*
X124258000Y-122311000D02*
X118440000Y-122311000D01*
X115560000Y-122271000D02*
X109722000Y-122271000D01*
X124278000Y-122271000D02*
X118440000Y-122271000D01*
X115560000Y-122231000D02*
X109703000Y-122231000D01*
X124297000Y-122231000D02*
X118440000Y-122231000D01*
X115560000Y-122191000D02*
X109684000Y-122191000D01*
X124316000Y-122191000D02*
X118440000Y-122191000D01*
X115560000Y-122151000D02*
X109666000Y-122151000D01*
X124334000Y-122151000D02*
X118440000Y-122151000D01*
X115560000Y-122111000D02*
X109647000Y-122111000D01*
X124353000Y-122111000D02*
X118440000Y-122111000D01*
X115560000Y-122071000D02*
X109629000Y-122071000D01*
X124371000Y-122071000D02*
X118440000Y-122071000D01*
X115560000Y-122031000D02*
X109611000Y-122031000D01*
X124389000Y-122031000D02*
X118440000Y-122031000D01*
X115560000Y-121991000D02*
X109594000Y-121991000D01*
X124406000Y-121991000D02*
X118440000Y-121991000D01*
X115560000Y-121951000D02*
X109577000Y-121951000D01*
X124423000Y-121951000D02*
X118440000Y-121951000D01*
X115560000Y-121911000D02*
X109560000Y-121911000D01*
X124440000Y-121911000D02*
X118440000Y-121911000D01*
X115560000Y-121871000D02*
X109543000Y-121871000D01*
X124457000Y-121871000D02*
X118440000Y-121871000D01*
X115560000Y-121831000D02*
X109526000Y-121831000D01*
X124474000Y-121831000D02*
X118440000Y-121831000D01*
X115560000Y-121791000D02*
X109510000Y-121791000D01*
X124490000Y-121791000D02*
X118440000Y-121791000D01*
X115560000Y-121751000D02*
X109494000Y-121751000D01*
X124506000Y-121751000D02*
X118440000Y-121751000D01*
X115560000Y-121711000D02*
X109478000Y-121711000D01*
X124522000Y-121711000D02*
X118440000Y-121711000D01*
X115560000Y-121671000D02*
X109463000Y-121671000D01*
X124537000Y-121671000D02*
X118440000Y-121671000D01*
X115560000Y-121631000D02*
X109447000Y-121631000D01*
X124553000Y-121631000D02*
X118440000Y-121631000D01*
X115560000Y-121591000D02*
X109432000Y-121591000D01*
X124568000Y-121591000D02*
X118440000Y-121591000D01*
X115560000Y-121551000D02*
X109418000Y-121551000D01*
X124582000Y-121551000D02*
X118440000Y-121551000D01*
X115560000Y-121511000D02*
X109403000Y-121511000D01*
X124597000Y-121511000D02*
X118440000Y-121511000D01*
X115560000Y-121471000D02*
X109389000Y-121471000D01*
X124611000Y-121471000D02*
X118440000Y-121471000D01*
X115560000Y-121431000D02*
X109375000Y-121431000D01*
X124625000Y-121431000D02*
X118440000Y-121431000D01*
X115560000Y-121391000D02*
X109361000Y-121391000D01*
X124639000Y-121391000D02*
X118440000Y-121391000D01*
X115560000Y-121351000D02*
X109347000Y-121351000D01*
X124653000Y-121351000D02*
X118440000Y-121351000D01*
X115560000Y-121311000D02*
X109334000Y-121311000D01*
X124666000Y-121311000D02*
X118440000Y-121311000D01*
X115560000Y-121271000D02*
X109320000Y-121271000D01*
X124680000Y-121271000D02*
X118440000Y-121271000D01*
X115560000Y-121231000D02*
X109307000Y-121231000D01*
X124693000Y-121231000D02*
X118440000Y-121231000D01*
X115560000Y-121191000D02*
X109295000Y-121191000D01*
X124705000Y-121191000D02*
X118440000Y-121191000D01*
X115560000Y-121151000D02*
X109282000Y-121151000D01*
X124718000Y-121151000D02*
X118440000Y-121151000D01*
X115560000Y-121111000D02*
X109270000Y-121111000D01*
X124730000Y-121111000D02*
X118440000Y-121111000D01*
X115560000Y-121071000D02*
X109258000Y-121071000D01*
X124742000Y-121071000D02*
X118440000Y-121071000D01*
X124754000Y-121031000D02*
X109246000Y-121031000D01*
X124765000Y-120991000D02*
X109235000Y-120991000D01*
X124777000Y-120951000D02*
X109223000Y-120951000D01*
X124788000Y-120911000D02*
X109212000Y-120911000D01*
X124799000Y-120871000D02*
X109201000Y-120871000D01*
X124810000Y-120831000D02*
X109190000Y-120831000D01*
X124820000Y-120791000D02*
X109180000Y-120791000D01*
X124830000Y-120751000D02*
X109170000Y-120751000D01*
X124840000Y-120711000D02*
X109160000Y-120711000D01*
X124850000Y-120671000D02*
X109150000Y-120671000D01*
X124860000Y-120631000D02*
X109140000Y-120631000D01*
X124869000Y-120591000D02*
X109131000Y-120591000D01*
X124878000Y-120551000D02*
X109122000Y-120551000D01*
X124887000Y-120511000D02*
X109113000Y-120511000D01*
X124896000Y-120471000D02*
X109104000Y-120471000D01*
X124905000Y-120431000D02*
X109095000Y-120431000D01*
X124913000Y-120391000D02*
X109087000Y-120391000D01*
X124921000Y-120351000D02*
X109079000Y-120351000D01*
X124929000Y-120311000D02*
X109071000Y-120311000D01*
X124937000Y-120271000D02*
X109063000Y-120271000D01*
X124944000Y-120231000D02*
X109056000Y-120231000D01*
X124952000Y-120191000D02*
X109048000Y-120191000D01*
X124959000Y-120151000D02*
X109041000Y-120151000D01*
X124966000Y-120111000D02*
X109034000Y-120111000D01*
X124972000Y-120071000D02*
X109028000Y-120071000D01*
X124979000Y-120031000D02*
X109021000Y-120031000D01*
X124985000Y-119991000D02*
X109015000Y-119991000D01*
X124991000Y-119951000D02*
X109009000Y-119951000D01*
X124997000Y-119911000D02*
X109003000Y-119911000D01*
X125003000Y-119871000D02*
X108997000Y-119871000D01*
X125008000Y-119831000D02*
X108992000Y-119831000D01*
X125014000Y-119791000D02*
X108986000Y-119791000D01*
X125019000Y-119751000D02*
X108981000Y-119751000D01*
X125024000Y-119711000D02*
X108976000Y-119711000D01*
X125028000Y-119671000D02*
X108972000Y-119671000D01*
X125033000Y-119631000D02*
X108967000Y-119631000D01*
X125037000Y-119591000D02*
X108963000Y-119591000D01*
X125041000Y-119551000D02*
X108959000Y-119551000D01*
X125045000Y-119511000D02*
X108955000Y-119511000D01*
X125049000Y-119471000D02*
X108951000Y-119471000D01*
X125052000Y-119430000D02*
X108948000Y-119430000D01*
X125055000Y-119390000D02*
X108945000Y-119390000D01*
X125058000Y-119350000D02*
X108942000Y-119350000D01*
X125061000Y-119310000D02*
X108939000Y-119310000D01*
X125064000Y-119270000D02*
X108936000Y-119270000D01*
X125066000Y-119230000D02*
X108934000Y-119230000D01*
X125069000Y-119190000D02*
X108931000Y-119190000D01*
X125071000Y-119150000D02*
X108929000Y-119150000D01*
X125073000Y-119110000D02*
X108927000Y-119110000D01*
X125074000Y-119070000D02*
X108926000Y-119070000D01*
X125076000Y-119030000D02*
X108924000Y-119030000D01*
X125077000Y-118990000D02*
X108923000Y-118990000D01*
X125078000Y-118950000D02*
X108922000Y-118950000D01*
X125079000Y-118910000D02*
X108921000Y-118910000D01*
X125080000Y-118870000D02*
X108920000Y-118870000D01*
X125080000Y-118830000D02*
X108920000Y-118830000D01*
X125080000Y-118790000D02*
X108920000Y-118790000D01*
X125081000Y-118750000D02*
X108919000Y-118750000D01*
X125120000Y-118750000D02*
G75*
G03*
X125120000Y-118750000I-8120000J0D01*
G01*
X126370000Y-103120000D02*
X123630000Y-103120000D01*
X126370000Y-95880000D02*
X123630000Y-95880000D01*
X123630000Y-95880000D02*
X123630000Y-103120000D01*
X126370000Y-95880000D02*
X126370000Y-103120000D01*
X132870000Y-103120000D02*
X129130000Y-103120000D01*
X132870000Y-95880000D02*
X129130000Y-95880000D01*
X129130000Y-95880000D02*
X129130000Y-103120000D01*
X132870000Y-95880000D02*
X132870000Y-103120000D01*
X148355000Y-91860509D02*
X146755000Y-91860509D01*
X147555000Y-91060509D02*
X147555000Y-92660509D01*
X143765000Y-107831000D02*
X142235000Y-107831000D01*
X144098000Y-107791000D02*
X141902000Y-107791000D01*
X144351000Y-107751000D02*
X141649000Y-107751000D01*
X144564000Y-107711000D02*
X141436000Y-107711000D01*
X144752000Y-107671000D02*
X141248000Y-107671000D01*
X144920000Y-107631000D02*
X141080000Y-107631000D01*
X145074000Y-107591000D02*
X140926000Y-107591000D01*
X145218000Y-107551000D02*
X140782000Y-107551000D01*
X145351000Y-107511000D02*
X140649000Y-107511000D01*
X145478000Y-107471000D02*
X140522000Y-107471000D01*
X145597000Y-107431000D02*
X140403000Y-107431000D01*
X145711000Y-107391000D02*
X140289000Y-107391000D01*
X145820000Y-107351000D02*
X140180000Y-107351000D01*
X145924000Y-107311000D02*
X140076000Y-107311000D01*
X146024000Y-107271000D02*
X139976000Y-107271000D01*
X146120000Y-107231000D02*
X139880000Y-107231000D01*
X146213000Y-107191000D02*
X139787000Y-107191000D01*
X146303000Y-107151000D02*
X139697000Y-107151000D01*
X146390000Y-107111000D02*
X139610000Y-107111000D01*
X146475000Y-107071000D02*
X139525000Y-107071000D01*
X146557000Y-107031000D02*
X139443000Y-107031000D01*
X146637000Y-106991000D02*
X139363000Y-106991000D01*
X146715000Y-106951000D02*
X139285000Y-106951000D01*
X146790000Y-106911000D02*
X139210000Y-106911000D01*
X146864000Y-106871000D02*
X139136000Y-106871000D01*
X146936000Y-106831000D02*
X139064000Y-106831000D01*
X147007000Y-106791000D02*
X138993000Y-106791000D01*
X147076000Y-106751000D02*
X138924000Y-106751000D01*
X147143000Y-106711000D02*
X138857000Y-106711000D01*
X147209000Y-106671000D02*
X138791000Y-106671000D01*
X147273000Y-106631000D02*
X138727000Y-106631000D01*
X147336000Y-106591000D02*
X138664000Y-106591000D01*
X147398000Y-106551000D02*
X138602000Y-106551000D01*
X147459000Y-106511000D02*
X138541000Y-106511000D01*
X147519000Y-106471000D02*
X138481000Y-106471000D01*
X147577000Y-106431000D02*
X138423000Y-106431000D01*
X147634000Y-106391000D02*
X138366000Y-106391000D01*
X147691000Y-106351000D02*
X138309000Y-106351000D01*
X147746000Y-106311000D02*
X138254000Y-106311000D01*
X147800000Y-106271000D02*
X138200000Y-106271000D01*
X147854000Y-106231000D02*
X138146000Y-106231000D01*
X147906000Y-106191000D02*
X138094000Y-106191000D01*
X147958000Y-106151000D02*
X138042000Y-106151000D01*
X148009000Y-106111000D02*
X137991000Y-106111000D01*
X148059000Y-106071000D02*
X137941000Y-106071000D01*
X148108000Y-106031000D02*
X137892000Y-106031000D01*
X148156000Y-105991000D02*
X137844000Y-105991000D01*
X148204000Y-105951000D02*
X137796000Y-105951000D01*
X148251000Y-105911000D02*
X137749000Y-105911000D01*
X148297000Y-105871000D02*
X137703000Y-105871000D01*
X148343000Y-105831000D02*
X137657000Y-105831000D01*
X148388000Y-105791000D02*
X137612000Y-105791000D01*
X148432000Y-105751000D02*
X137568000Y-105751000D01*
X148475000Y-105711000D02*
X137525000Y-105711000D01*
X148518000Y-105671000D02*
X137482000Y-105671000D01*
X148560000Y-105631000D02*
X137440000Y-105631000D01*
X148602000Y-105591000D02*
X137398000Y-105591000D01*
X148643000Y-105551000D02*
X137357000Y-105551000D01*
X148684000Y-105511000D02*
X137316000Y-105511000D01*
X148724000Y-105471000D02*
X137276000Y-105471000D01*
X148763000Y-105431000D02*
X137237000Y-105431000D01*
X148802000Y-105391000D02*
X137198000Y-105391000D01*
X148840000Y-105351000D02*
X137160000Y-105351000D01*
X148878000Y-105311000D02*
X137122000Y-105311000D01*
X148916000Y-105271000D02*
X137084000Y-105271000D01*
X148952000Y-105231000D02*
X137048000Y-105231000D01*
X148989000Y-105191000D02*
X137011000Y-105191000D01*
X149025000Y-105151000D02*
X136975000Y-105151000D01*
X149060000Y-105111000D02*
X136940000Y-105111000D01*
X149095000Y-105071000D02*
X136905000Y-105071000D01*
X149129000Y-105031000D02*
X136871000Y-105031000D01*
X149163000Y-104991000D02*
X136837000Y-104991000D01*
X149197000Y-104951000D02*
X136803000Y-104951000D01*
X141560000Y-104911000D02*
X136770000Y-104911000D01*
X149230000Y-104911000D02*
X144440000Y-104911000D01*
X141560000Y-104871000D02*
X136737000Y-104871000D01*
X149263000Y-104871000D02*
X144440000Y-104871000D01*
X141560000Y-104831000D02*
X136705000Y-104831000D01*
X149295000Y-104831000D02*
X144440000Y-104831000D01*
X141560000Y-104791000D02*
X136673000Y-104791000D01*
X149327000Y-104791000D02*
X144440000Y-104791000D01*
X141560000Y-104751000D02*
X136642000Y-104751000D01*
X149358000Y-104751000D02*
X144440000Y-104751000D01*
X141560000Y-104711000D02*
X136610000Y-104711000D01*
X149390000Y-104711000D02*
X144440000Y-104711000D01*
X141560000Y-104671000D02*
X136580000Y-104671000D01*
X149420000Y-104671000D02*
X144440000Y-104671000D01*
X141560000Y-104631000D02*
X136550000Y-104631000D01*
X149450000Y-104631000D02*
X144440000Y-104631000D01*
X141560000Y-104591000D02*
X136520000Y-104591000D01*
X149480000Y-104591000D02*
X144440000Y-104591000D01*
X141560000Y-104551000D02*
X136490000Y-104551000D01*
X149510000Y-104551000D02*
X144440000Y-104551000D01*
X141560000Y-104511000D02*
X136461000Y-104511000D01*
X149539000Y-104511000D02*
X144440000Y-104511000D01*
X141560000Y-104471000D02*
X136432000Y-104471000D01*
X149568000Y-104471000D02*
X144440000Y-104471000D01*
X141560000Y-104431000D02*
X136404000Y-104431000D01*
X149596000Y-104431000D02*
X144440000Y-104431000D01*
X141560000Y-104391000D02*
X136376000Y-104391000D01*
X149624000Y-104391000D02*
X144440000Y-104391000D01*
X141560000Y-104351000D02*
X136348000Y-104351000D01*
X149652000Y-104351000D02*
X144440000Y-104351000D01*
X141560000Y-104311000D02*
X136321000Y-104311000D01*
X149679000Y-104311000D02*
X144440000Y-104311000D01*
X141560000Y-104271000D02*
X136294000Y-104271000D01*
X149706000Y-104271000D02*
X144440000Y-104271000D01*
X141560000Y-104231000D02*
X136267000Y-104231000D01*
X149733000Y-104231000D02*
X144440000Y-104231000D01*
X141560000Y-104191000D02*
X136241000Y-104191000D01*
X149759000Y-104191000D02*
X144440000Y-104191000D01*
X141560000Y-104151000D02*
X136215000Y-104151000D01*
X149785000Y-104151000D02*
X144440000Y-104151000D01*
X141560000Y-104111000D02*
X136189000Y-104111000D01*
X149811000Y-104111000D02*
X144440000Y-104111000D01*
X141560000Y-104071000D02*
X136164000Y-104071000D01*
X149836000Y-104071000D02*
X144440000Y-104071000D01*
X141560000Y-104031000D02*
X136139000Y-104031000D01*
X149861000Y-104031000D02*
X144440000Y-104031000D01*
X141560000Y-103991000D02*
X136114000Y-103991000D01*
X149886000Y-103991000D02*
X144440000Y-103991000D01*
X141560000Y-103951000D02*
X136090000Y-103951000D01*
X149910000Y-103951000D02*
X144440000Y-103951000D01*
X141560000Y-103911000D02*
X136066000Y-103911000D01*
X149934000Y-103911000D02*
X144440000Y-103911000D01*
X141560000Y-103871000D02*
X136042000Y-103871000D01*
X149958000Y-103871000D02*
X144440000Y-103871000D01*
X141560000Y-103831000D02*
X136019000Y-103831000D01*
X149981000Y-103831000D02*
X144440000Y-103831000D01*
X141560000Y-103791000D02*
X135996000Y-103791000D01*
X150004000Y-103791000D02*
X144440000Y-103791000D01*
X141560000Y-103751000D02*
X135973000Y-103751000D01*
X150027000Y-103751000D02*
X144440000Y-103751000D01*
X141560000Y-103711000D02*
X135951000Y-103711000D01*
X150049000Y-103711000D02*
X144440000Y-103711000D01*
X141560000Y-103671000D02*
X135928000Y-103671000D01*
X150072000Y-103671000D02*
X144440000Y-103671000D01*
X141560000Y-103631000D02*
X135906000Y-103631000D01*
X150094000Y-103631000D02*
X144440000Y-103631000D01*
X141560000Y-103591000D02*
X135885000Y-103591000D01*
X150115000Y-103591000D02*
X144440000Y-103591000D01*
X141560000Y-103551000D02*
X135864000Y-103551000D01*
X150136000Y-103551000D02*
X144440000Y-103551000D01*
X141560000Y-103511000D02*
X135843000Y-103511000D01*
X150157000Y-103511000D02*
X144440000Y-103511000D01*
X141560000Y-103471000D02*
X135822000Y-103471000D01*
X150178000Y-103471000D02*
X144440000Y-103471000D01*
X141560000Y-103431000D02*
X135801000Y-103431000D01*
X150199000Y-103431000D02*
X144440000Y-103431000D01*
X141560000Y-103391000D02*
X135781000Y-103391000D01*
X150219000Y-103391000D02*
X144440000Y-103391000D01*
X141560000Y-103351000D02*
X135761000Y-103351000D01*
X150239000Y-103351000D02*
X144440000Y-103351000D01*
X141560000Y-103311000D02*
X135742000Y-103311000D01*
X150258000Y-103311000D02*
X144440000Y-103311000D01*
X141560000Y-103271000D02*
X135722000Y-103271000D01*
X150278000Y-103271000D02*
X144440000Y-103271000D01*
X141560000Y-103231000D02*
X135703000Y-103231000D01*
X150297000Y-103231000D02*
X144440000Y-103231000D01*
X141560000Y-103191000D02*
X135684000Y-103191000D01*
X150316000Y-103191000D02*
X144440000Y-103191000D01*
X141560000Y-103151000D02*
X135666000Y-103151000D01*
X150334000Y-103151000D02*
X144440000Y-103151000D01*
X141560000Y-103111000D02*
X135647000Y-103111000D01*
X150353000Y-103111000D02*
X144440000Y-103111000D01*
X141560000Y-103071000D02*
X135629000Y-103071000D01*
X150371000Y-103071000D02*
X144440000Y-103071000D01*
X141560000Y-103031000D02*
X135611000Y-103031000D01*
X150389000Y-103031000D02*
X144440000Y-103031000D01*
X141560000Y-102991000D02*
X135594000Y-102991000D01*
X150406000Y-102991000D02*
X144440000Y-102991000D01*
X141560000Y-102951000D02*
X135577000Y-102951000D01*
X150423000Y-102951000D02*
X144440000Y-102951000D01*
X141560000Y-102911000D02*
X135560000Y-102911000D01*
X150440000Y-102911000D02*
X144440000Y-102911000D01*
X141560000Y-102871000D02*
X135543000Y-102871000D01*
X150457000Y-102871000D02*
X144440000Y-102871000D01*
X141560000Y-102831000D02*
X135526000Y-102831000D01*
X150474000Y-102831000D02*
X144440000Y-102831000D01*
X141560000Y-102791000D02*
X135510000Y-102791000D01*
X150490000Y-102791000D02*
X144440000Y-102791000D01*
X141560000Y-102751000D02*
X135494000Y-102751000D01*
X150506000Y-102751000D02*
X144440000Y-102751000D01*
X141560000Y-102711000D02*
X135478000Y-102711000D01*
X150522000Y-102711000D02*
X144440000Y-102711000D01*
X141560000Y-102671000D02*
X135463000Y-102671000D01*
X150537000Y-102671000D02*
X144440000Y-102671000D01*
X141560000Y-102631000D02*
X135447000Y-102631000D01*
X150553000Y-102631000D02*
X144440000Y-102631000D01*
X141560000Y-102591000D02*
X135432000Y-102591000D01*
X150568000Y-102591000D02*
X144440000Y-102591000D01*
X141560000Y-102551000D02*
X135418000Y-102551000D01*
X150582000Y-102551000D02*
X144440000Y-102551000D01*
X141560000Y-102511000D02*
X135403000Y-102511000D01*
X150597000Y-102511000D02*
X144440000Y-102511000D01*
X141560000Y-102471000D02*
X135389000Y-102471000D01*
X150611000Y-102471000D02*
X144440000Y-102471000D01*
X141560000Y-102431000D02*
X135375000Y-102431000D01*
X150625000Y-102431000D02*
X144440000Y-102431000D01*
X141560000Y-102391000D02*
X135361000Y-102391000D01*
X150639000Y-102391000D02*
X144440000Y-102391000D01*
X141560000Y-102351000D02*
X135347000Y-102351000D01*
X150653000Y-102351000D02*
X144440000Y-102351000D01*
X141560000Y-102311000D02*
X135334000Y-102311000D01*
X150666000Y-102311000D02*
X144440000Y-102311000D01*
X141560000Y-102271000D02*
X135320000Y-102271000D01*
X150680000Y-102271000D02*
X144440000Y-102271000D01*
X141560000Y-102231000D02*
X135307000Y-102231000D01*
X150693000Y-102231000D02*
X144440000Y-102231000D01*
X141560000Y-102191000D02*
X135295000Y-102191000D01*
X150705000Y-102191000D02*
X144440000Y-102191000D01*
X141560000Y-102151000D02*
X135282000Y-102151000D01*
X150718000Y-102151000D02*
X144440000Y-102151000D01*
X141560000Y-102111000D02*
X135270000Y-102111000D01*
X150730000Y-102111000D02*
X144440000Y-102111000D01*
X141560000Y-102071000D02*
X135258000Y-102071000D01*
X150742000Y-102071000D02*
X144440000Y-102071000D01*
X150754000Y-102031000D02*
X135246000Y-102031000D01*
X150765000Y-101991000D02*
X135235000Y-101991000D01*
X150777000Y-101951000D02*
X135223000Y-101951000D01*
X150788000Y-101911000D02*
X135212000Y-101911000D01*
X150799000Y-101871000D02*
X135201000Y-101871000D01*
X150810000Y-101831000D02*
X135190000Y-101831000D01*
X150820000Y-101791000D02*
X135180000Y-101791000D01*
X150830000Y-101751000D02*
X135170000Y-101751000D01*
X150840000Y-101711000D02*
X135160000Y-101711000D01*
X150850000Y-101671000D02*
X135150000Y-101671000D01*
X150860000Y-101631000D02*
X135140000Y-101631000D01*
X150869000Y-101591000D02*
X135131000Y-101591000D01*
X150878000Y-101551000D02*
X135122000Y-101551000D01*
X150887000Y-101511000D02*
X135113000Y-101511000D01*
X150896000Y-101471000D02*
X135104000Y-101471000D01*
X150905000Y-101431000D02*
X135095000Y-101431000D01*
X150913000Y-101391000D02*
X135087000Y-101391000D01*
X150921000Y-101351000D02*
X135079000Y-101351000D01*
X150929000Y-101311000D02*
X135071000Y-101311000D01*
X150937000Y-101271000D02*
X135063000Y-101271000D01*
X150944000Y-101231000D02*
X135056000Y-101231000D01*
X150952000Y-101191000D02*
X135048000Y-101191000D01*
X150959000Y-101151000D02*
X135041000Y-101151000D01*
X150966000Y-101111000D02*
X135034000Y-101111000D01*
X150972000Y-101071000D02*
X135028000Y-101071000D01*
X150979000Y-101031000D02*
X135021000Y-101031000D01*
X150985000Y-100991000D02*
X135015000Y-100991000D01*
X150991000Y-100951000D02*
X135009000Y-100951000D01*
X150997000Y-100911000D02*
X135003000Y-100911000D01*
X151003000Y-100871000D02*
X134997000Y-100871000D01*
X151008000Y-100831000D02*
X134992000Y-100831000D01*
X151014000Y-100791000D02*
X134986000Y-100791000D01*
X151019000Y-100751000D02*
X134981000Y-100751000D01*
X151024000Y-100711000D02*
X134976000Y-100711000D01*
X151028000Y-100671000D02*
X134972000Y-100671000D01*
X151033000Y-100631000D02*
X134967000Y-100631000D01*
X151037000Y-100591000D02*
X134963000Y-100591000D01*
X151041000Y-100551000D02*
X134959000Y-100551000D01*
X151045000Y-100511000D02*
X134955000Y-100511000D01*
X151049000Y-100471000D02*
X134951000Y-100471000D01*
X151052000Y-100430000D02*
X134948000Y-100430000D01*
X151055000Y-100390000D02*
X134945000Y-100390000D01*
X151058000Y-100350000D02*
X134942000Y-100350000D01*
X151061000Y-100310000D02*
X134939000Y-100310000D01*
X151064000Y-100270000D02*
X134936000Y-100270000D01*
X151066000Y-100230000D02*
X134934000Y-100230000D01*
X151069000Y-100190000D02*
X134931000Y-100190000D01*
X151071000Y-100150000D02*
X134929000Y-100150000D01*
X151073000Y-100110000D02*
X134927000Y-100110000D01*
X151074000Y-100070000D02*
X134926000Y-100070000D01*
X151076000Y-100030000D02*
X134924000Y-100030000D01*
X151077000Y-99990000D02*
X134923000Y-99990000D01*
X151078000Y-99950000D02*
X134922000Y-99950000D01*
X151079000Y-99910000D02*
X134921000Y-99910000D01*
X151080000Y-99870000D02*
X134920000Y-99870000D01*
X151080000Y-99830000D02*
X134920000Y-99830000D01*
X151080000Y-99790000D02*
X134920000Y-99790000D01*
X151081000Y-99750000D02*
X134919000Y-99750000D01*
X151120000Y-99750000D02*
G75*
G03*
X151120000Y-99750000I-8120000J0D01*
G01*
X167355000Y-91860509D02*
X165755000Y-91860509D01*
X166555000Y-91060509D02*
X166555000Y-92660509D01*
X162765000Y-107831000D02*
X161235000Y-107831000D01*
X163098000Y-107791000D02*
X160902000Y-107791000D01*
X163351000Y-107751000D02*
X160649000Y-107751000D01*
X163564000Y-107711000D02*
X160436000Y-107711000D01*
X163752000Y-107671000D02*
X160248000Y-107671000D01*
X163920000Y-107631000D02*
X160080000Y-107631000D01*
X164074000Y-107591000D02*
X159926000Y-107591000D01*
X164218000Y-107551000D02*
X159782000Y-107551000D01*
X164351000Y-107511000D02*
X159649000Y-107511000D01*
X164478000Y-107471000D02*
X159522000Y-107471000D01*
X164597000Y-107431000D02*
X159403000Y-107431000D01*
X164711000Y-107391000D02*
X159289000Y-107391000D01*
X164820000Y-107351000D02*
X159180000Y-107351000D01*
X164924000Y-107311000D02*
X159076000Y-107311000D01*
X165024000Y-107271000D02*
X158976000Y-107271000D01*
X165120000Y-107231000D02*
X158880000Y-107231000D01*
X165213000Y-107191000D02*
X158787000Y-107191000D01*
X165303000Y-107151000D02*
X158697000Y-107151000D01*
X165390000Y-107111000D02*
X158610000Y-107111000D01*
X165475000Y-107071000D02*
X158525000Y-107071000D01*
X165557000Y-107031000D02*
X158443000Y-107031000D01*
X165637000Y-106991000D02*
X158363000Y-106991000D01*
X165715000Y-106951000D02*
X158285000Y-106951000D01*
X165790000Y-106911000D02*
X158210000Y-106911000D01*
X165864000Y-106871000D02*
X158136000Y-106871000D01*
X165936000Y-106831000D02*
X158064000Y-106831000D01*
X166007000Y-106791000D02*
X157993000Y-106791000D01*
X166076000Y-106751000D02*
X157924000Y-106751000D01*
X166143000Y-106711000D02*
X157857000Y-106711000D01*
X166209000Y-106671000D02*
X157791000Y-106671000D01*
X166273000Y-106631000D02*
X157727000Y-106631000D01*
X166336000Y-106591000D02*
X157664000Y-106591000D01*
X166398000Y-106551000D02*
X157602000Y-106551000D01*
X166459000Y-106511000D02*
X157541000Y-106511000D01*
X166519000Y-106471000D02*
X157481000Y-106471000D01*
X166577000Y-106431000D02*
X157423000Y-106431000D01*
X166634000Y-106391000D02*
X157366000Y-106391000D01*
X166691000Y-106351000D02*
X157309000Y-106351000D01*
X166746000Y-106311000D02*
X157254000Y-106311000D01*
X166800000Y-106271000D02*
X157200000Y-106271000D01*
X166854000Y-106231000D02*
X157146000Y-106231000D01*
X166906000Y-106191000D02*
X157094000Y-106191000D01*
X166958000Y-106151000D02*
X157042000Y-106151000D01*
X167009000Y-106111000D02*
X156991000Y-106111000D01*
X167059000Y-106071000D02*
X156941000Y-106071000D01*
X167108000Y-106031000D02*
X156892000Y-106031000D01*
X167156000Y-105991000D02*
X156844000Y-105991000D01*
X167204000Y-105951000D02*
X156796000Y-105951000D01*
X167251000Y-105911000D02*
X156749000Y-105911000D01*
X167297000Y-105871000D02*
X156703000Y-105871000D01*
X167343000Y-105831000D02*
X156657000Y-105831000D01*
X167388000Y-105791000D02*
X156612000Y-105791000D01*
X167432000Y-105751000D02*
X156568000Y-105751000D01*
X167475000Y-105711000D02*
X156525000Y-105711000D01*
X167518000Y-105671000D02*
X156482000Y-105671000D01*
X167560000Y-105631000D02*
X156440000Y-105631000D01*
X167602000Y-105591000D02*
X156398000Y-105591000D01*
X167643000Y-105551000D02*
X156357000Y-105551000D01*
X167684000Y-105511000D02*
X156316000Y-105511000D01*
X167724000Y-105471000D02*
X156276000Y-105471000D01*
X167763000Y-105431000D02*
X156237000Y-105431000D01*
X167802000Y-105391000D02*
X156198000Y-105391000D01*
X167840000Y-105351000D02*
X156160000Y-105351000D01*
X167878000Y-105311000D02*
X156122000Y-105311000D01*
X167916000Y-105271000D02*
X156084000Y-105271000D01*
X167952000Y-105231000D02*
X156048000Y-105231000D01*
X167989000Y-105191000D02*
X156011000Y-105191000D01*
X168025000Y-105151000D02*
X155975000Y-105151000D01*
X168060000Y-105111000D02*
X155940000Y-105111000D01*
X168095000Y-105071000D02*
X155905000Y-105071000D01*
X168129000Y-105031000D02*
X155871000Y-105031000D01*
X168163000Y-104991000D02*
X155837000Y-104991000D01*
X168197000Y-104951000D02*
X155803000Y-104951000D01*
X160560000Y-104911000D02*
X155770000Y-104911000D01*
X168230000Y-104911000D02*
X163440000Y-104911000D01*
X160560000Y-104871000D02*
X155737000Y-104871000D01*
X168263000Y-104871000D02*
X163440000Y-104871000D01*
X160560000Y-104831000D02*
X155705000Y-104831000D01*
X168295000Y-104831000D02*
X163440000Y-104831000D01*
X160560000Y-104791000D02*
X155673000Y-104791000D01*
X168327000Y-104791000D02*
X163440000Y-104791000D01*
X160560000Y-104751000D02*
X155642000Y-104751000D01*
X168358000Y-104751000D02*
X163440000Y-104751000D01*
X160560000Y-104711000D02*
X155610000Y-104711000D01*
X168390000Y-104711000D02*
X163440000Y-104711000D01*
X160560000Y-104671000D02*
X155580000Y-104671000D01*
X168420000Y-104671000D02*
X163440000Y-104671000D01*
X160560000Y-104631000D02*
X155550000Y-104631000D01*
X168450000Y-104631000D02*
X163440000Y-104631000D01*
X160560000Y-104591000D02*
X155520000Y-104591000D01*
X168480000Y-104591000D02*
X163440000Y-104591000D01*
X160560000Y-104551000D02*
X155490000Y-104551000D01*
X168510000Y-104551000D02*
X163440000Y-104551000D01*
X160560000Y-104511000D02*
X155461000Y-104511000D01*
X168539000Y-104511000D02*
X163440000Y-104511000D01*
X160560000Y-104471000D02*
X155432000Y-104471000D01*
X168568000Y-104471000D02*
X163440000Y-104471000D01*
X160560000Y-104431000D02*
X155404000Y-104431000D01*
X168596000Y-104431000D02*
X163440000Y-104431000D01*
X160560000Y-104391000D02*
X155376000Y-104391000D01*
X168624000Y-104391000D02*
X163440000Y-104391000D01*
X160560000Y-104351000D02*
X155348000Y-104351000D01*
X168652000Y-104351000D02*
X163440000Y-104351000D01*
X160560000Y-104311000D02*
X155321000Y-104311000D01*
X168679000Y-104311000D02*
X163440000Y-104311000D01*
X160560000Y-104271000D02*
X155294000Y-104271000D01*
X168706000Y-104271000D02*
X163440000Y-104271000D01*
X160560000Y-104231000D02*
X155267000Y-104231000D01*
X168733000Y-104231000D02*
X163440000Y-104231000D01*
X160560000Y-104191000D02*
X155241000Y-104191000D01*
X168759000Y-104191000D02*
X163440000Y-104191000D01*
X160560000Y-104151000D02*
X155215000Y-104151000D01*
X168785000Y-104151000D02*
X163440000Y-104151000D01*
X160560000Y-104111000D02*
X155189000Y-104111000D01*
X168811000Y-104111000D02*
X163440000Y-104111000D01*
X160560000Y-104071000D02*
X155164000Y-104071000D01*
X168836000Y-104071000D02*
X163440000Y-104071000D01*
X160560000Y-104031000D02*
X155139000Y-104031000D01*
X168861000Y-104031000D02*
X163440000Y-104031000D01*
X160560000Y-103991000D02*
X155114000Y-103991000D01*
X168886000Y-103991000D02*
X163440000Y-103991000D01*
X160560000Y-103951000D02*
X155090000Y-103951000D01*
X168910000Y-103951000D02*
X163440000Y-103951000D01*
X160560000Y-103911000D02*
X155066000Y-103911000D01*
X168934000Y-103911000D02*
X163440000Y-103911000D01*
X160560000Y-103871000D02*
X155042000Y-103871000D01*
X168958000Y-103871000D02*
X163440000Y-103871000D01*
X160560000Y-103831000D02*
X155019000Y-103831000D01*
X168981000Y-103831000D02*
X163440000Y-103831000D01*
X160560000Y-103791000D02*
X154996000Y-103791000D01*
X169004000Y-103791000D02*
X163440000Y-103791000D01*
X160560000Y-103751000D02*
X154973000Y-103751000D01*
X169027000Y-103751000D02*
X163440000Y-103751000D01*
X160560000Y-103711000D02*
X154951000Y-103711000D01*
X169049000Y-103711000D02*
X163440000Y-103711000D01*
X160560000Y-103671000D02*
X154928000Y-103671000D01*
X169072000Y-103671000D02*
X163440000Y-103671000D01*
X160560000Y-103631000D02*
X154906000Y-103631000D01*
X169094000Y-103631000D02*
X163440000Y-103631000D01*
X160560000Y-103591000D02*
X154885000Y-103591000D01*
X169115000Y-103591000D02*
X163440000Y-103591000D01*
X160560000Y-103551000D02*
X154864000Y-103551000D01*
X169136000Y-103551000D02*
X163440000Y-103551000D01*
X160560000Y-103511000D02*
X154843000Y-103511000D01*
X169157000Y-103511000D02*
X163440000Y-103511000D01*
X160560000Y-103471000D02*
X154822000Y-103471000D01*
X169178000Y-103471000D02*
X163440000Y-103471000D01*
X160560000Y-103431000D02*
X154801000Y-103431000D01*
X169199000Y-103431000D02*
X163440000Y-103431000D01*
X160560000Y-103391000D02*
X154781000Y-103391000D01*
X169219000Y-103391000D02*
X163440000Y-103391000D01*
X160560000Y-103351000D02*
X154761000Y-103351000D01*
X169239000Y-103351000D02*
X163440000Y-103351000D01*
X160560000Y-103311000D02*
X154742000Y-103311000D01*
X169258000Y-103311000D02*
X163440000Y-103311000D01*
X160560000Y-103271000D02*
X154722000Y-103271000D01*
X169278000Y-103271000D02*
X163440000Y-103271000D01*
X160560000Y-103231000D02*
X154703000Y-103231000D01*
X169297000Y-103231000D02*
X163440000Y-103231000D01*
X160560000Y-103191000D02*
X154684000Y-103191000D01*
X169316000Y-103191000D02*
X163440000Y-103191000D01*
X160560000Y-103151000D02*
X154666000Y-103151000D01*
X169334000Y-103151000D02*
X163440000Y-103151000D01*
X160560000Y-103111000D02*
X154647000Y-103111000D01*
X169353000Y-103111000D02*
X163440000Y-103111000D01*
X160560000Y-103071000D02*
X154629000Y-103071000D01*
X169371000Y-103071000D02*
X163440000Y-103071000D01*
X160560000Y-103031000D02*
X154611000Y-103031000D01*
X169389000Y-103031000D02*
X163440000Y-103031000D01*
X160560000Y-102991000D02*
X154594000Y-102991000D01*
X169406000Y-102991000D02*
X163440000Y-102991000D01*
X160560000Y-102951000D02*
X154577000Y-102951000D01*
X169423000Y-102951000D02*
X163440000Y-102951000D01*
X160560000Y-102911000D02*
X154560000Y-102911000D01*
X169440000Y-102911000D02*
X163440000Y-102911000D01*
X160560000Y-102871000D02*
X154543000Y-102871000D01*
X169457000Y-102871000D02*
X163440000Y-102871000D01*
X160560000Y-102831000D02*
X154526000Y-102831000D01*
X169474000Y-102831000D02*
X163440000Y-102831000D01*
X160560000Y-102791000D02*
X154510000Y-102791000D01*
X169490000Y-102791000D02*
X163440000Y-102791000D01*
X160560000Y-102751000D02*
X154494000Y-102751000D01*
X169506000Y-102751000D02*
X163440000Y-102751000D01*
X160560000Y-102711000D02*
X154478000Y-102711000D01*
X169522000Y-102711000D02*
X163440000Y-102711000D01*
X160560000Y-102671000D02*
X154463000Y-102671000D01*
X169537000Y-102671000D02*
X163440000Y-102671000D01*
X160560000Y-102631000D02*
X154447000Y-102631000D01*
X169553000Y-102631000D02*
X163440000Y-102631000D01*
X160560000Y-102591000D02*
X154432000Y-102591000D01*
X169568000Y-102591000D02*
X163440000Y-102591000D01*
X160560000Y-102551000D02*
X154418000Y-102551000D01*
X169582000Y-102551000D02*
X163440000Y-102551000D01*
X160560000Y-102511000D02*
X154403000Y-102511000D01*
X169597000Y-102511000D02*
X163440000Y-102511000D01*
X160560000Y-102471000D02*
X154389000Y-102471000D01*
X169611000Y-102471000D02*
X163440000Y-102471000D01*
X160560000Y-102431000D02*
X154375000Y-102431000D01*
X169625000Y-102431000D02*
X163440000Y-102431000D01*
X160560000Y-102391000D02*
X154361000Y-102391000D01*
X169639000Y-102391000D02*
X163440000Y-102391000D01*
X160560000Y-102351000D02*
X154347000Y-102351000D01*
X169653000Y-102351000D02*
X163440000Y-102351000D01*
X160560000Y-102311000D02*
X154334000Y-102311000D01*
X169666000Y-102311000D02*
X163440000Y-102311000D01*
X160560000Y-102271000D02*
X154320000Y-102271000D01*
X169680000Y-102271000D02*
X163440000Y-102271000D01*
X160560000Y-102231000D02*
X154307000Y-102231000D01*
X169693000Y-102231000D02*
X163440000Y-102231000D01*
X160560000Y-102191000D02*
X154295000Y-102191000D01*
X169705000Y-102191000D02*
X163440000Y-102191000D01*
X160560000Y-102151000D02*
X154282000Y-102151000D01*
X169718000Y-102151000D02*
X163440000Y-102151000D01*
X160560000Y-102111000D02*
X154270000Y-102111000D01*
X169730000Y-102111000D02*
X163440000Y-102111000D01*
X160560000Y-102071000D02*
X154258000Y-102071000D01*
X169742000Y-102071000D02*
X163440000Y-102071000D01*
X169754000Y-102031000D02*
X154246000Y-102031000D01*
X169765000Y-101991000D02*
X154235000Y-101991000D01*
X169777000Y-101951000D02*
X154223000Y-101951000D01*
X169788000Y-101911000D02*
X154212000Y-101911000D01*
X169799000Y-101871000D02*
X154201000Y-101871000D01*
X169810000Y-101831000D02*
X154190000Y-101831000D01*
X169820000Y-101791000D02*
X154180000Y-101791000D01*
X169830000Y-101751000D02*
X154170000Y-101751000D01*
X169840000Y-101711000D02*
X154160000Y-101711000D01*
X169850000Y-101671000D02*
X154150000Y-101671000D01*
X169860000Y-101631000D02*
X154140000Y-101631000D01*
X169869000Y-101591000D02*
X154131000Y-101591000D01*
X169878000Y-101551000D02*
X154122000Y-101551000D01*
X169887000Y-101511000D02*
X154113000Y-101511000D01*
X169896000Y-101471000D02*
X154104000Y-101471000D01*
X169905000Y-101431000D02*
X154095000Y-101431000D01*
X169913000Y-101391000D02*
X154087000Y-101391000D01*
X169921000Y-101351000D02*
X154079000Y-101351000D01*
X169929000Y-101311000D02*
X154071000Y-101311000D01*
X169937000Y-101271000D02*
X154063000Y-101271000D01*
X169944000Y-101231000D02*
X154056000Y-101231000D01*
X169952000Y-101191000D02*
X154048000Y-101191000D01*
X169959000Y-101151000D02*
X154041000Y-101151000D01*
X169966000Y-101111000D02*
X154034000Y-101111000D01*
X169972000Y-101071000D02*
X154028000Y-101071000D01*
X169979000Y-101031000D02*
X154021000Y-101031000D01*
X169985000Y-100991000D02*
X154015000Y-100991000D01*
X169991000Y-100951000D02*
X154009000Y-100951000D01*
X169997000Y-100911000D02*
X154003000Y-100911000D01*
X170003000Y-100871000D02*
X153997000Y-100871000D01*
X170008000Y-100831000D02*
X153992000Y-100831000D01*
X170014000Y-100791000D02*
X153986000Y-100791000D01*
X170019000Y-100751000D02*
X153981000Y-100751000D01*
X170024000Y-100711000D02*
X153976000Y-100711000D01*
X170028000Y-100671000D02*
X153972000Y-100671000D01*
X170033000Y-100631000D02*
X153967000Y-100631000D01*
X170037000Y-100591000D02*
X153963000Y-100591000D01*
X170041000Y-100551000D02*
X153959000Y-100551000D01*
X170045000Y-100511000D02*
X153955000Y-100511000D01*
X170049000Y-100471000D02*
X153951000Y-100471000D01*
X170052000Y-100430000D02*
X153948000Y-100430000D01*
X170055000Y-100390000D02*
X153945000Y-100390000D01*
X170058000Y-100350000D02*
X153942000Y-100350000D01*
X170061000Y-100310000D02*
X153939000Y-100310000D01*
X170064000Y-100270000D02*
X153936000Y-100270000D01*
X170066000Y-100230000D02*
X153934000Y-100230000D01*
X170069000Y-100190000D02*
X153931000Y-100190000D01*
X170071000Y-100150000D02*
X153929000Y-100150000D01*
X170073000Y-100110000D02*
X153927000Y-100110000D01*
X170074000Y-100070000D02*
X153926000Y-100070000D01*
X170076000Y-100030000D02*
X153924000Y-100030000D01*
X170077000Y-99990000D02*
X153923000Y-99990000D01*
X170078000Y-99950000D02*
X153922000Y-99950000D01*
X170079000Y-99910000D02*
X153921000Y-99910000D01*
X170080000Y-99870000D02*
X153920000Y-99870000D01*
X170080000Y-99830000D02*
X153920000Y-99830000D01*
X170080000Y-99790000D02*
X153920000Y-99790000D01*
X170081000Y-99750000D02*
X153919000Y-99750000D01*
X170120000Y-99750000D02*
G75*
G03*
X170120000Y-99750000I-8120000J0D01*
G01*
X146630000Y-77880000D02*
X149370000Y-77880000D01*
X146630000Y-85120000D02*
X149370000Y-85120000D01*
X149370000Y-85120000D02*
X149370000Y-77880000D01*
X146630000Y-85120000D02*
X146630000Y-77880000D01*
X140130000Y-77880000D02*
X143870000Y-77880000D01*
X140130000Y-85120000D02*
X143870000Y-85120000D01*
X143870000Y-85120000D02*
X143870000Y-77880000D01*
X140130000Y-85120000D02*
X140130000Y-77880000D01*
X124645000Y-90139491D02*
X126245000Y-90139491D01*
X125445000Y-90939491D02*
X125445000Y-89339491D01*
X129235000Y-74169000D02*
X130765000Y-74169000D01*
X128902000Y-74209000D02*
X131098000Y-74209000D01*
X128649000Y-74249000D02*
X131351000Y-74249000D01*
X128436000Y-74289000D02*
X131564000Y-74289000D01*
X128248000Y-74329000D02*
X131752000Y-74329000D01*
X128080000Y-74369000D02*
X131920000Y-74369000D01*
X127926000Y-74409000D02*
X132074000Y-74409000D01*
X127782000Y-74449000D02*
X132218000Y-74449000D01*
X127649000Y-74489000D02*
X132351000Y-74489000D01*
X127522000Y-74529000D02*
X132478000Y-74529000D01*
X127403000Y-74569000D02*
X132597000Y-74569000D01*
X127289000Y-74609000D02*
X132711000Y-74609000D01*
X127180000Y-74649000D02*
X132820000Y-74649000D01*
X127076000Y-74689000D02*
X132924000Y-74689000D01*
X126976000Y-74729000D02*
X133024000Y-74729000D01*
X126880000Y-74769000D02*
X133120000Y-74769000D01*
X126787000Y-74809000D02*
X133213000Y-74809000D01*
X126697000Y-74849000D02*
X133303000Y-74849000D01*
X126610000Y-74889000D02*
X133390000Y-74889000D01*
X126525000Y-74929000D02*
X133475000Y-74929000D01*
X126443000Y-74969000D02*
X133557000Y-74969000D01*
X126363000Y-75009000D02*
X133637000Y-75009000D01*
X126285000Y-75049000D02*
X133715000Y-75049000D01*
X126210000Y-75089000D02*
X133790000Y-75089000D01*
X126136000Y-75129000D02*
X133864000Y-75129000D01*
X126064000Y-75169000D02*
X133936000Y-75169000D01*
X125993000Y-75209000D02*
X134007000Y-75209000D01*
X125924000Y-75249000D02*
X134076000Y-75249000D01*
X125857000Y-75289000D02*
X134143000Y-75289000D01*
X125791000Y-75329000D02*
X134209000Y-75329000D01*
X125727000Y-75369000D02*
X134273000Y-75369000D01*
X125664000Y-75409000D02*
X134336000Y-75409000D01*
X125602000Y-75449000D02*
X134398000Y-75449000D01*
X125541000Y-75489000D02*
X134459000Y-75489000D01*
X125481000Y-75529000D02*
X134519000Y-75529000D01*
X125423000Y-75569000D02*
X134577000Y-75569000D01*
X125366000Y-75609000D02*
X134634000Y-75609000D01*
X125309000Y-75649000D02*
X134691000Y-75649000D01*
X125254000Y-75689000D02*
X134746000Y-75689000D01*
X125200000Y-75729000D02*
X134800000Y-75729000D01*
X125146000Y-75769000D02*
X134854000Y-75769000D01*
X125094000Y-75809000D02*
X134906000Y-75809000D01*
X125042000Y-75849000D02*
X134958000Y-75849000D01*
X124991000Y-75889000D02*
X135009000Y-75889000D01*
X124941000Y-75929000D02*
X135059000Y-75929000D01*
X124892000Y-75969000D02*
X135108000Y-75969000D01*
X124844000Y-76009000D02*
X135156000Y-76009000D01*
X124796000Y-76049000D02*
X135204000Y-76049000D01*
X124749000Y-76089000D02*
X135251000Y-76089000D01*
X124703000Y-76129000D02*
X135297000Y-76129000D01*
X124657000Y-76169000D02*
X135343000Y-76169000D01*
X124612000Y-76209000D02*
X135388000Y-76209000D01*
X124568000Y-76249000D02*
X135432000Y-76249000D01*
X124525000Y-76289000D02*
X135475000Y-76289000D01*
X124482000Y-76329000D02*
X135518000Y-76329000D01*
X124440000Y-76369000D02*
X135560000Y-76369000D01*
X124398000Y-76409000D02*
X135602000Y-76409000D01*
X124357000Y-76449000D02*
X135643000Y-76449000D01*
X124316000Y-76489000D02*
X135684000Y-76489000D01*
X124276000Y-76529000D02*
X135724000Y-76529000D01*
X124237000Y-76569000D02*
X135763000Y-76569000D01*
X124198000Y-76609000D02*
X135802000Y-76609000D01*
X124160000Y-76649000D02*
X135840000Y-76649000D01*
X124122000Y-76689000D02*
X135878000Y-76689000D01*
X124084000Y-76729000D02*
X135916000Y-76729000D01*
X124048000Y-76769000D02*
X135952000Y-76769000D01*
X124011000Y-76809000D02*
X135989000Y-76809000D01*
X123975000Y-76849000D02*
X136025000Y-76849000D01*
X123940000Y-76889000D02*
X136060000Y-76889000D01*
X123905000Y-76929000D02*
X136095000Y-76929000D01*
X123871000Y-76969000D02*
X136129000Y-76969000D01*
X123837000Y-77009000D02*
X136163000Y-77009000D01*
X123803000Y-77049000D02*
X136197000Y-77049000D01*
X131440000Y-77089000D02*
X136230000Y-77089000D01*
X123770000Y-77089000D02*
X128560000Y-77089000D01*
X131440000Y-77129000D02*
X136263000Y-77129000D01*
X123737000Y-77129000D02*
X128560000Y-77129000D01*
X131440000Y-77169000D02*
X136295000Y-77169000D01*
X123705000Y-77169000D02*
X128560000Y-77169000D01*
X131440000Y-77209000D02*
X136327000Y-77209000D01*
X123673000Y-77209000D02*
X128560000Y-77209000D01*
X131440000Y-77249000D02*
X136358000Y-77249000D01*
X123642000Y-77249000D02*
X128560000Y-77249000D01*
X131440000Y-77289000D02*
X136390000Y-77289000D01*
X123610000Y-77289000D02*
X128560000Y-77289000D01*
X131440000Y-77329000D02*
X136420000Y-77329000D01*
X123580000Y-77329000D02*
X128560000Y-77329000D01*
X131440000Y-77369000D02*
X136450000Y-77369000D01*
X123550000Y-77369000D02*
X128560000Y-77369000D01*
X131440000Y-77409000D02*
X136480000Y-77409000D01*
X123520000Y-77409000D02*
X128560000Y-77409000D01*
X131440000Y-77449000D02*
X136510000Y-77449000D01*
X123490000Y-77449000D02*
X128560000Y-77449000D01*
X131440000Y-77489000D02*
X136539000Y-77489000D01*
X123461000Y-77489000D02*
X128560000Y-77489000D01*
X131440000Y-77529000D02*
X136568000Y-77529000D01*
X123432000Y-77529000D02*
X128560000Y-77529000D01*
X131440000Y-77569000D02*
X136596000Y-77569000D01*
X123404000Y-77569000D02*
X128560000Y-77569000D01*
X131440000Y-77609000D02*
X136624000Y-77609000D01*
X123376000Y-77609000D02*
X128560000Y-77609000D01*
X131440000Y-77649000D02*
X136652000Y-77649000D01*
X123348000Y-77649000D02*
X128560000Y-77649000D01*
X131440000Y-77689000D02*
X136679000Y-77689000D01*
X123321000Y-77689000D02*
X128560000Y-77689000D01*
X131440000Y-77729000D02*
X136706000Y-77729000D01*
X123294000Y-77729000D02*
X128560000Y-77729000D01*
X131440000Y-77769000D02*
X136733000Y-77769000D01*
X123267000Y-77769000D02*
X128560000Y-77769000D01*
X131440000Y-77809000D02*
X136759000Y-77809000D01*
X123241000Y-77809000D02*
X128560000Y-77809000D01*
X131440000Y-77849000D02*
X136785000Y-77849000D01*
X123215000Y-77849000D02*
X128560000Y-77849000D01*
X131440000Y-77889000D02*
X136811000Y-77889000D01*
X123189000Y-77889000D02*
X128560000Y-77889000D01*
X131440000Y-77929000D02*
X136836000Y-77929000D01*
X123164000Y-77929000D02*
X128560000Y-77929000D01*
X131440000Y-77969000D02*
X136861000Y-77969000D01*
X123139000Y-77969000D02*
X128560000Y-77969000D01*
X131440000Y-78009000D02*
X136886000Y-78009000D01*
X123114000Y-78009000D02*
X128560000Y-78009000D01*
X131440000Y-78049000D02*
X136910000Y-78049000D01*
X123090000Y-78049000D02*
X128560000Y-78049000D01*
X131440000Y-78089000D02*
X136934000Y-78089000D01*
X123066000Y-78089000D02*
X128560000Y-78089000D01*
X131440000Y-78129000D02*
X136958000Y-78129000D01*
X123042000Y-78129000D02*
X128560000Y-78129000D01*
X131440000Y-78169000D02*
X136981000Y-78169000D01*
X123019000Y-78169000D02*
X128560000Y-78169000D01*
X131440000Y-78209000D02*
X137004000Y-78209000D01*
X122996000Y-78209000D02*
X128560000Y-78209000D01*
X131440000Y-78249000D02*
X137027000Y-78249000D01*
X122973000Y-78249000D02*
X128560000Y-78249000D01*
X131440000Y-78289000D02*
X137049000Y-78289000D01*
X122951000Y-78289000D02*
X128560000Y-78289000D01*
X131440000Y-78329000D02*
X137072000Y-78329000D01*
X122928000Y-78329000D02*
X128560000Y-78329000D01*
X131440000Y-78369000D02*
X137094000Y-78369000D01*
X122906000Y-78369000D02*
X128560000Y-78369000D01*
X131440000Y-78409000D02*
X137115000Y-78409000D01*
X122885000Y-78409000D02*
X128560000Y-78409000D01*
X131440000Y-78449000D02*
X137136000Y-78449000D01*
X122864000Y-78449000D02*
X128560000Y-78449000D01*
X131440000Y-78489000D02*
X137157000Y-78489000D01*
X122843000Y-78489000D02*
X128560000Y-78489000D01*
X131440000Y-78529000D02*
X137178000Y-78529000D01*
X122822000Y-78529000D02*
X128560000Y-78529000D01*
X131440000Y-78569000D02*
X137199000Y-78569000D01*
X122801000Y-78569000D02*
X128560000Y-78569000D01*
X131440000Y-78609000D02*
X137219000Y-78609000D01*
X122781000Y-78609000D02*
X128560000Y-78609000D01*
X131440000Y-78649000D02*
X137239000Y-78649000D01*
X122761000Y-78649000D02*
X128560000Y-78649000D01*
X131440000Y-78689000D02*
X137258000Y-78689000D01*
X122742000Y-78689000D02*
X128560000Y-78689000D01*
X131440000Y-78729000D02*
X137278000Y-78729000D01*
X122722000Y-78729000D02*
X128560000Y-78729000D01*
X131440000Y-78769000D02*
X137297000Y-78769000D01*
X122703000Y-78769000D02*
X128560000Y-78769000D01*
X131440000Y-78809000D02*
X137316000Y-78809000D01*
X122684000Y-78809000D02*
X128560000Y-78809000D01*
X131440000Y-78849000D02*
X137334000Y-78849000D01*
X122666000Y-78849000D02*
X128560000Y-78849000D01*
X131440000Y-78889000D02*
X137353000Y-78889000D01*
X122647000Y-78889000D02*
X128560000Y-78889000D01*
X131440000Y-78929000D02*
X137371000Y-78929000D01*
X122629000Y-78929000D02*
X128560000Y-78929000D01*
X131440000Y-78969000D02*
X137389000Y-78969000D01*
X122611000Y-78969000D02*
X128560000Y-78969000D01*
X131440000Y-79009000D02*
X137406000Y-79009000D01*
X122594000Y-79009000D02*
X128560000Y-79009000D01*
X131440000Y-79049000D02*
X137423000Y-79049000D01*
X122577000Y-79049000D02*
X128560000Y-79049000D01*
X131440000Y-79089000D02*
X137440000Y-79089000D01*
X122560000Y-79089000D02*
X128560000Y-79089000D01*
X131440000Y-79129000D02*
X137457000Y-79129000D01*
X122543000Y-79129000D02*
X128560000Y-79129000D01*
X131440000Y-79169000D02*
X137474000Y-79169000D01*
X122526000Y-79169000D02*
X128560000Y-79169000D01*
X131440000Y-79209000D02*
X137490000Y-79209000D01*
X122510000Y-79209000D02*
X128560000Y-79209000D01*
X131440000Y-79249000D02*
X137506000Y-79249000D01*
X122494000Y-79249000D02*
X128560000Y-79249000D01*
X131440000Y-79289000D02*
X137522000Y-79289000D01*
X122478000Y-79289000D02*
X128560000Y-79289000D01*
X131440000Y-79329000D02*
X137537000Y-79329000D01*
X122463000Y-79329000D02*
X128560000Y-79329000D01*
X131440000Y-79369000D02*
X137553000Y-79369000D01*
X122447000Y-79369000D02*
X128560000Y-79369000D01*
X131440000Y-79409000D02*
X137568000Y-79409000D01*
X122432000Y-79409000D02*
X128560000Y-79409000D01*
X131440000Y-79449000D02*
X137582000Y-79449000D01*
X122418000Y-79449000D02*
X128560000Y-79449000D01*
X131440000Y-79489000D02*
X137597000Y-79489000D01*
X122403000Y-79489000D02*
X128560000Y-79489000D01*
X131440000Y-79529000D02*
X137611000Y-79529000D01*
X122389000Y-79529000D02*
X128560000Y-79529000D01*
X131440000Y-79569000D02*
X137625000Y-79569000D01*
X122375000Y-79569000D02*
X128560000Y-79569000D01*
X131440000Y-79609000D02*
X137639000Y-79609000D01*
X122361000Y-79609000D02*
X128560000Y-79609000D01*
X131440000Y-79649000D02*
X137653000Y-79649000D01*
X122347000Y-79649000D02*
X128560000Y-79649000D01*
X131440000Y-79689000D02*
X137666000Y-79689000D01*
X122334000Y-79689000D02*
X128560000Y-79689000D01*
X131440000Y-79729000D02*
X137680000Y-79729000D01*
X122320000Y-79729000D02*
X128560000Y-79729000D01*
X131440000Y-79769000D02*
X137693000Y-79769000D01*
X122307000Y-79769000D02*
X128560000Y-79769000D01*
X131440000Y-79809000D02*
X137705000Y-79809000D01*
X122295000Y-79809000D02*
X128560000Y-79809000D01*
X131440000Y-79849000D02*
X137718000Y-79849000D01*
X122282000Y-79849000D02*
X128560000Y-79849000D01*
X131440000Y-79889000D02*
X137730000Y-79889000D01*
X122270000Y-79889000D02*
X128560000Y-79889000D01*
X131440000Y-79929000D02*
X137742000Y-79929000D01*
X122258000Y-79929000D02*
X128560000Y-79929000D01*
X122246000Y-79969000D02*
X137754000Y-79969000D01*
X122235000Y-80009000D02*
X137765000Y-80009000D01*
X122223000Y-80049000D02*
X137777000Y-80049000D01*
X122212000Y-80089000D02*
X137788000Y-80089000D01*
X122201000Y-80129000D02*
X137799000Y-80129000D01*
X122190000Y-80169000D02*
X137810000Y-80169000D01*
X122180000Y-80209000D02*
X137820000Y-80209000D01*
X122170000Y-80249000D02*
X137830000Y-80249000D01*
X122160000Y-80289000D02*
X137840000Y-80289000D01*
X122150000Y-80329000D02*
X137850000Y-80329000D01*
X122140000Y-80369000D02*
X137860000Y-80369000D01*
X122131000Y-80409000D02*
X137869000Y-80409000D01*
X122122000Y-80449000D02*
X137878000Y-80449000D01*
X122113000Y-80489000D02*
X137887000Y-80489000D01*
X122104000Y-80529000D02*
X137896000Y-80529000D01*
X122095000Y-80569000D02*
X137905000Y-80569000D01*
X122087000Y-80609000D02*
X137913000Y-80609000D01*
X122079000Y-80649000D02*
X137921000Y-80649000D01*
X122071000Y-80689000D02*
X137929000Y-80689000D01*
X122063000Y-80729000D02*
X137937000Y-80729000D01*
X122056000Y-80769000D02*
X137944000Y-80769000D01*
X122048000Y-80809000D02*
X137952000Y-80809000D01*
X122041000Y-80849000D02*
X137959000Y-80849000D01*
X122034000Y-80889000D02*
X137966000Y-80889000D01*
X122028000Y-80929000D02*
X137972000Y-80929000D01*
X122021000Y-80969000D02*
X137979000Y-80969000D01*
X122015000Y-81009000D02*
X137985000Y-81009000D01*
X122009000Y-81049000D02*
X137991000Y-81049000D01*
X122003000Y-81089000D02*
X137997000Y-81089000D01*
X121997000Y-81129000D02*
X138003000Y-81129000D01*
X121992000Y-81169000D02*
X138008000Y-81169000D01*
X121986000Y-81209000D02*
X138014000Y-81209000D01*
X121981000Y-81249000D02*
X138019000Y-81249000D01*
X121976000Y-81289000D02*
X138024000Y-81289000D01*
X121972000Y-81329000D02*
X138028000Y-81329000D01*
X121967000Y-81369000D02*
X138033000Y-81369000D01*
X121963000Y-81409000D02*
X138037000Y-81409000D01*
X121959000Y-81449000D02*
X138041000Y-81449000D01*
X121955000Y-81489000D02*
X138045000Y-81489000D01*
X121951000Y-81529000D02*
X138049000Y-81529000D01*
X121948000Y-81570000D02*
X138052000Y-81570000D01*
X121945000Y-81610000D02*
X138055000Y-81610000D01*
X121942000Y-81650000D02*
X138058000Y-81650000D01*
X121939000Y-81690000D02*
X138061000Y-81690000D01*
X121936000Y-81730000D02*
X138064000Y-81730000D01*
X121934000Y-81770000D02*
X138066000Y-81770000D01*
X121931000Y-81810000D02*
X138069000Y-81810000D01*
X121929000Y-81850000D02*
X138071000Y-81850000D01*
X121927000Y-81890000D02*
X138073000Y-81890000D01*
X121926000Y-81930000D02*
X138074000Y-81930000D01*
X121924000Y-81970000D02*
X138076000Y-81970000D01*
X121923000Y-82010000D02*
X138077000Y-82010000D01*
X121922000Y-82050000D02*
X138078000Y-82050000D01*
X121921000Y-82090000D02*
X138079000Y-82090000D01*
X121920000Y-82130000D02*
X138080000Y-82130000D01*
X121920000Y-82170000D02*
X138080000Y-82170000D01*
X121920000Y-82210000D02*
X138080000Y-82210000D01*
X121919000Y-82250000D02*
X138081000Y-82250000D01*
X138120000Y-82250000D02*
G75*
G03*
X138120000Y-82250000I-8120000J0D01*
G01*
X105645000Y-90139491D02*
X107245000Y-90139491D01*
X106445000Y-90939491D02*
X106445000Y-89339491D01*
X110235000Y-74169000D02*
X111765000Y-74169000D01*
X109902000Y-74209000D02*
X112098000Y-74209000D01*
X109649000Y-74249000D02*
X112351000Y-74249000D01*
X109436000Y-74289000D02*
X112564000Y-74289000D01*
X109248000Y-74329000D02*
X112752000Y-74329000D01*
X109080000Y-74369000D02*
X112920000Y-74369000D01*
X108926000Y-74409000D02*
X113074000Y-74409000D01*
X108782000Y-74449000D02*
X113218000Y-74449000D01*
X108649000Y-74489000D02*
X113351000Y-74489000D01*
X108522000Y-74529000D02*
X113478000Y-74529000D01*
X108403000Y-74569000D02*
X113597000Y-74569000D01*
X108289000Y-74609000D02*
X113711000Y-74609000D01*
X108180000Y-74649000D02*
X113820000Y-74649000D01*
X108076000Y-74689000D02*
X113924000Y-74689000D01*
X107976000Y-74729000D02*
X114024000Y-74729000D01*
X107880000Y-74769000D02*
X114120000Y-74769000D01*
X107787000Y-74809000D02*
X114213000Y-74809000D01*
X107697000Y-74849000D02*
X114303000Y-74849000D01*
X107610000Y-74889000D02*
X114390000Y-74889000D01*
X107525000Y-74929000D02*
X114475000Y-74929000D01*
X107443000Y-74969000D02*
X114557000Y-74969000D01*
X107363000Y-75009000D02*
X114637000Y-75009000D01*
X107285000Y-75049000D02*
X114715000Y-75049000D01*
X107210000Y-75089000D02*
X114790000Y-75089000D01*
X107136000Y-75129000D02*
X114864000Y-75129000D01*
X107064000Y-75169000D02*
X114936000Y-75169000D01*
X106993000Y-75209000D02*
X115007000Y-75209000D01*
X106924000Y-75249000D02*
X115076000Y-75249000D01*
X106857000Y-75289000D02*
X115143000Y-75289000D01*
X106791000Y-75329000D02*
X115209000Y-75329000D01*
X106727000Y-75369000D02*
X115273000Y-75369000D01*
X106664000Y-75409000D02*
X115336000Y-75409000D01*
X106602000Y-75449000D02*
X115398000Y-75449000D01*
X106541000Y-75489000D02*
X115459000Y-75489000D01*
X106481000Y-75529000D02*
X115519000Y-75529000D01*
X106423000Y-75569000D02*
X115577000Y-75569000D01*
X106366000Y-75609000D02*
X115634000Y-75609000D01*
X106309000Y-75649000D02*
X115691000Y-75649000D01*
X106254000Y-75689000D02*
X115746000Y-75689000D01*
X106200000Y-75729000D02*
X115800000Y-75729000D01*
X106146000Y-75769000D02*
X115854000Y-75769000D01*
X106094000Y-75809000D02*
X115906000Y-75809000D01*
X106042000Y-75849000D02*
X115958000Y-75849000D01*
X105991000Y-75889000D02*
X116009000Y-75889000D01*
X105941000Y-75929000D02*
X116059000Y-75929000D01*
X105892000Y-75969000D02*
X116108000Y-75969000D01*
X105844000Y-76009000D02*
X116156000Y-76009000D01*
X105796000Y-76049000D02*
X116204000Y-76049000D01*
X105749000Y-76089000D02*
X116251000Y-76089000D01*
X105703000Y-76129000D02*
X116297000Y-76129000D01*
X105657000Y-76169000D02*
X116343000Y-76169000D01*
X105612000Y-76209000D02*
X116388000Y-76209000D01*
X105568000Y-76249000D02*
X116432000Y-76249000D01*
X105525000Y-76289000D02*
X116475000Y-76289000D01*
X105482000Y-76329000D02*
X116518000Y-76329000D01*
X105440000Y-76369000D02*
X116560000Y-76369000D01*
X105398000Y-76409000D02*
X116602000Y-76409000D01*
X105357000Y-76449000D02*
X116643000Y-76449000D01*
X105316000Y-76489000D02*
X116684000Y-76489000D01*
X105276000Y-76529000D02*
X116724000Y-76529000D01*
X105237000Y-76569000D02*
X116763000Y-76569000D01*
X105198000Y-76609000D02*
X116802000Y-76609000D01*
X105160000Y-76649000D02*
X116840000Y-76649000D01*
X105122000Y-76689000D02*
X116878000Y-76689000D01*
X105084000Y-76729000D02*
X116916000Y-76729000D01*
X105048000Y-76769000D02*
X116952000Y-76769000D01*
X105011000Y-76809000D02*
X116989000Y-76809000D01*
X104975000Y-76849000D02*
X117025000Y-76849000D01*
X104940000Y-76889000D02*
X117060000Y-76889000D01*
X104905000Y-76929000D02*
X117095000Y-76929000D01*
X104871000Y-76969000D02*
X117129000Y-76969000D01*
X104837000Y-77009000D02*
X117163000Y-77009000D01*
X104803000Y-77049000D02*
X117197000Y-77049000D01*
X112440000Y-77089000D02*
X117230000Y-77089000D01*
X104770000Y-77089000D02*
X109560000Y-77089000D01*
X112440000Y-77129000D02*
X117263000Y-77129000D01*
X104737000Y-77129000D02*
X109560000Y-77129000D01*
X112440000Y-77169000D02*
X117295000Y-77169000D01*
X104705000Y-77169000D02*
X109560000Y-77169000D01*
X112440000Y-77209000D02*
X117327000Y-77209000D01*
X104673000Y-77209000D02*
X109560000Y-77209000D01*
X112440000Y-77249000D02*
X117358000Y-77249000D01*
X104642000Y-77249000D02*
X109560000Y-77249000D01*
X112440000Y-77289000D02*
X117390000Y-77289000D01*
X104610000Y-77289000D02*
X109560000Y-77289000D01*
X112440000Y-77329000D02*
X117420000Y-77329000D01*
X104580000Y-77329000D02*
X109560000Y-77329000D01*
X112440000Y-77369000D02*
X117450000Y-77369000D01*
X104550000Y-77369000D02*
X109560000Y-77369000D01*
X112440000Y-77409000D02*
X117480000Y-77409000D01*
X104520000Y-77409000D02*
X109560000Y-77409000D01*
X112440000Y-77449000D02*
X117510000Y-77449000D01*
X104490000Y-77449000D02*
X109560000Y-77449000D01*
X112440000Y-77489000D02*
X117539000Y-77489000D01*
X104461000Y-77489000D02*
X109560000Y-77489000D01*
X112440000Y-77529000D02*
X117568000Y-77529000D01*
X104432000Y-77529000D02*
X109560000Y-77529000D01*
X112440000Y-77569000D02*
X117596000Y-77569000D01*
X104404000Y-77569000D02*
X109560000Y-77569000D01*
X112440000Y-77609000D02*
X117624000Y-77609000D01*
X104376000Y-77609000D02*
X109560000Y-77609000D01*
X112440000Y-77649000D02*
X117652000Y-77649000D01*
X104348000Y-77649000D02*
X109560000Y-77649000D01*
X112440000Y-77689000D02*
X117679000Y-77689000D01*
X104321000Y-77689000D02*
X109560000Y-77689000D01*
X112440000Y-77729000D02*
X117706000Y-77729000D01*
X104294000Y-77729000D02*
X109560000Y-77729000D01*
X112440000Y-77769000D02*
X117733000Y-77769000D01*
X104267000Y-77769000D02*
X109560000Y-77769000D01*
X112440000Y-77809000D02*
X117759000Y-77809000D01*
X104241000Y-77809000D02*
X109560000Y-77809000D01*
X112440000Y-77849000D02*
X117785000Y-77849000D01*
X104215000Y-77849000D02*
X109560000Y-77849000D01*
X112440000Y-77889000D02*
X117811000Y-77889000D01*
X104189000Y-77889000D02*
X109560000Y-77889000D01*
X112440000Y-77929000D02*
X117836000Y-77929000D01*
X104164000Y-77929000D02*
X109560000Y-77929000D01*
X112440000Y-77969000D02*
X117861000Y-77969000D01*
X104139000Y-77969000D02*
X109560000Y-77969000D01*
X112440000Y-78009000D02*
X117886000Y-78009000D01*
X104114000Y-78009000D02*
X109560000Y-78009000D01*
X112440000Y-78049000D02*
X117910000Y-78049000D01*
X104090000Y-78049000D02*
X109560000Y-78049000D01*
X112440000Y-78089000D02*
X117934000Y-78089000D01*
X104066000Y-78089000D02*
X109560000Y-78089000D01*
X112440000Y-78129000D02*
X117958000Y-78129000D01*
X104042000Y-78129000D02*
X109560000Y-78129000D01*
X112440000Y-78169000D02*
X117981000Y-78169000D01*
X104019000Y-78169000D02*
X109560000Y-78169000D01*
X112440000Y-78209000D02*
X118004000Y-78209000D01*
X103996000Y-78209000D02*
X109560000Y-78209000D01*
X112440000Y-78249000D02*
X118027000Y-78249000D01*
X103973000Y-78249000D02*
X109560000Y-78249000D01*
X112440000Y-78289000D02*
X118049000Y-78289000D01*
X103951000Y-78289000D02*
X109560000Y-78289000D01*
X112440000Y-78329000D02*
X118072000Y-78329000D01*
X103928000Y-78329000D02*
X109560000Y-78329000D01*
X112440000Y-78369000D02*
X118094000Y-78369000D01*
X103906000Y-78369000D02*
X109560000Y-78369000D01*
X112440000Y-78409000D02*
X118115000Y-78409000D01*
X103885000Y-78409000D02*
X109560000Y-78409000D01*
X112440000Y-78449000D02*
X118136000Y-78449000D01*
X103864000Y-78449000D02*
X109560000Y-78449000D01*
X112440000Y-78489000D02*
X118157000Y-78489000D01*
X103843000Y-78489000D02*
X109560000Y-78489000D01*
X112440000Y-78529000D02*
X118178000Y-78529000D01*
X103822000Y-78529000D02*
X109560000Y-78529000D01*
X112440000Y-78569000D02*
X118199000Y-78569000D01*
X103801000Y-78569000D02*
X109560000Y-78569000D01*
X112440000Y-78609000D02*
X118219000Y-78609000D01*
X103781000Y-78609000D02*
X109560000Y-78609000D01*
X112440000Y-78649000D02*
X118239000Y-78649000D01*
X103761000Y-78649000D02*
X109560000Y-78649000D01*
X112440000Y-78689000D02*
X118258000Y-78689000D01*
X103742000Y-78689000D02*
X109560000Y-78689000D01*
X112440000Y-78729000D02*
X118278000Y-78729000D01*
X103722000Y-78729000D02*
X109560000Y-78729000D01*
X112440000Y-78769000D02*
X118297000Y-78769000D01*
X103703000Y-78769000D02*
X109560000Y-78769000D01*
X112440000Y-78809000D02*
X118316000Y-78809000D01*
X103684000Y-78809000D02*
X109560000Y-78809000D01*
X112440000Y-78849000D02*
X118334000Y-78849000D01*
X103666000Y-78849000D02*
X109560000Y-78849000D01*
X112440000Y-78889000D02*
X118353000Y-78889000D01*
X103647000Y-78889000D02*
X109560000Y-78889000D01*
X112440000Y-78929000D02*
X118371000Y-78929000D01*
X103629000Y-78929000D02*
X109560000Y-78929000D01*
X112440000Y-78969000D02*
X118389000Y-78969000D01*
X103611000Y-78969000D02*
X109560000Y-78969000D01*
X112440000Y-79009000D02*
X118406000Y-79009000D01*
X103594000Y-79009000D02*
X109560000Y-79009000D01*
X112440000Y-79049000D02*
X118423000Y-79049000D01*
X103577000Y-79049000D02*
X109560000Y-79049000D01*
X112440000Y-79089000D02*
X118440000Y-79089000D01*
X103560000Y-79089000D02*
X109560000Y-79089000D01*
X112440000Y-79129000D02*
X118457000Y-79129000D01*
X103543000Y-79129000D02*
X109560000Y-79129000D01*
X112440000Y-79169000D02*
X118474000Y-79169000D01*
X103526000Y-79169000D02*
X109560000Y-79169000D01*
X112440000Y-79209000D02*
X118490000Y-79209000D01*
X103510000Y-79209000D02*
X109560000Y-79209000D01*
X112440000Y-79249000D02*
X118506000Y-79249000D01*
X103494000Y-79249000D02*
X109560000Y-79249000D01*
X112440000Y-79289000D02*
X118522000Y-79289000D01*
X103478000Y-79289000D02*
X109560000Y-79289000D01*
X112440000Y-79329000D02*
X118537000Y-79329000D01*
X103463000Y-79329000D02*
X109560000Y-79329000D01*
X112440000Y-79369000D02*
X118553000Y-79369000D01*
X103447000Y-79369000D02*
X109560000Y-79369000D01*
X112440000Y-79409000D02*
X118568000Y-79409000D01*
X103432000Y-79409000D02*
X109560000Y-79409000D01*
X112440000Y-79449000D02*
X118582000Y-79449000D01*
X103418000Y-79449000D02*
X109560000Y-79449000D01*
X112440000Y-79489000D02*
X118597000Y-79489000D01*
X103403000Y-79489000D02*
X109560000Y-79489000D01*
X112440000Y-79529000D02*
X118611000Y-79529000D01*
X103389000Y-79529000D02*
X109560000Y-79529000D01*
X112440000Y-79569000D02*
X118625000Y-79569000D01*
X103375000Y-79569000D02*
X109560000Y-79569000D01*
X112440000Y-79609000D02*
X118639000Y-79609000D01*
X103361000Y-79609000D02*
X109560000Y-79609000D01*
X112440000Y-79649000D02*
X118653000Y-79649000D01*
X103347000Y-79649000D02*
X109560000Y-79649000D01*
X112440000Y-79689000D02*
X118666000Y-79689000D01*
X103334000Y-79689000D02*
X109560000Y-79689000D01*
X112440000Y-79729000D02*
X118680000Y-79729000D01*
X103320000Y-79729000D02*
X109560000Y-79729000D01*
X112440000Y-79769000D02*
X118693000Y-79769000D01*
X103307000Y-79769000D02*
X109560000Y-79769000D01*
X112440000Y-79809000D02*
X118705000Y-79809000D01*
X103295000Y-79809000D02*
X109560000Y-79809000D01*
X112440000Y-79849000D02*
X118718000Y-79849000D01*
X103282000Y-79849000D02*
X109560000Y-79849000D01*
X112440000Y-79889000D02*
X118730000Y-79889000D01*
X103270000Y-79889000D02*
X109560000Y-79889000D01*
X112440000Y-79929000D02*
X118742000Y-79929000D01*
X103258000Y-79929000D02*
X109560000Y-79929000D01*
X103246000Y-79969000D02*
X118754000Y-79969000D01*
X103235000Y-80009000D02*
X118765000Y-80009000D01*
X103223000Y-80049000D02*
X118777000Y-80049000D01*
X103212000Y-80089000D02*
X118788000Y-80089000D01*
X103201000Y-80129000D02*
X118799000Y-80129000D01*
X103190000Y-80169000D02*
X118810000Y-80169000D01*
X103180000Y-80209000D02*
X118820000Y-80209000D01*
X103170000Y-80249000D02*
X118830000Y-80249000D01*
X103160000Y-80289000D02*
X118840000Y-80289000D01*
X103150000Y-80329000D02*
X118850000Y-80329000D01*
X103140000Y-80369000D02*
X118860000Y-80369000D01*
X103131000Y-80409000D02*
X118869000Y-80409000D01*
X103122000Y-80449000D02*
X118878000Y-80449000D01*
X103113000Y-80489000D02*
X118887000Y-80489000D01*
X103104000Y-80529000D02*
X118896000Y-80529000D01*
X103095000Y-80569000D02*
X118905000Y-80569000D01*
X103087000Y-80609000D02*
X118913000Y-80609000D01*
X103079000Y-80649000D02*
X118921000Y-80649000D01*
X103071000Y-80689000D02*
X118929000Y-80689000D01*
X103063000Y-80729000D02*
X118937000Y-80729000D01*
X103056000Y-80769000D02*
X118944000Y-80769000D01*
X103048000Y-80809000D02*
X118952000Y-80809000D01*
X103041000Y-80849000D02*
X118959000Y-80849000D01*
X103034000Y-80889000D02*
X118966000Y-80889000D01*
X103028000Y-80929000D02*
X118972000Y-80929000D01*
X103021000Y-80969000D02*
X118979000Y-80969000D01*
X103015000Y-81009000D02*
X118985000Y-81009000D01*
X103009000Y-81049000D02*
X118991000Y-81049000D01*
X103003000Y-81089000D02*
X118997000Y-81089000D01*
X102997000Y-81129000D02*
X119003000Y-81129000D01*
X102992000Y-81169000D02*
X119008000Y-81169000D01*
X102986000Y-81209000D02*
X119014000Y-81209000D01*
X102981000Y-81249000D02*
X119019000Y-81249000D01*
X102976000Y-81289000D02*
X119024000Y-81289000D01*
X102972000Y-81329000D02*
X119028000Y-81329000D01*
X102967000Y-81369000D02*
X119033000Y-81369000D01*
X102963000Y-81409000D02*
X119037000Y-81409000D01*
X102959000Y-81449000D02*
X119041000Y-81449000D01*
X102955000Y-81489000D02*
X119045000Y-81489000D01*
X102951000Y-81529000D02*
X119049000Y-81529000D01*
X102948000Y-81570000D02*
X119052000Y-81570000D01*
X102945000Y-81610000D02*
X119055000Y-81610000D01*
X102942000Y-81650000D02*
X119058000Y-81650000D01*
X102939000Y-81690000D02*
X119061000Y-81690000D01*
X102936000Y-81730000D02*
X119064000Y-81730000D01*
X102934000Y-81770000D02*
X119066000Y-81770000D01*
X102931000Y-81810000D02*
X119069000Y-81810000D01*
X102929000Y-81850000D02*
X119071000Y-81850000D01*
X102927000Y-81890000D02*
X119073000Y-81890000D01*
X102926000Y-81930000D02*
X119074000Y-81930000D01*
X102924000Y-81970000D02*
X119076000Y-81970000D01*
X102923000Y-82010000D02*
X119077000Y-82010000D01*
X102922000Y-82050000D02*
X119078000Y-82050000D01*
X102921000Y-82090000D02*
X119079000Y-82090000D01*
X102920000Y-82130000D02*
X119080000Y-82130000D01*
X102920000Y-82170000D02*
X119080000Y-82170000D01*
X102920000Y-82210000D02*
X119080000Y-82210000D01*
X102919000Y-82250000D02*
X119081000Y-82250000D01*
X119120000Y-82250000D02*
G75*
G03*
X119120000Y-82250000I-8120000J0D01*
G01*
D12*
X169562380Y-118809523D02*
X170562380Y-118142857D01*
X169562380Y-118142857D02*
X170562380Y-118809523D01*
X169657619Y-117809523D02*
X169610000Y-117761904D01*
X169562380Y-117666666D01*
X169562380Y-117428571D01*
X169610000Y-117333333D01*
X169657619Y-117285714D01*
X169752857Y-117238095D01*
X169848095Y-117238095D01*
X169990952Y-117285714D01*
X170562380Y-117857142D01*
X170562380Y-117238095D01*
X106312380Y-118809523D02*
X107312380Y-118142857D01*
X106312380Y-118142857D02*
X107312380Y-118809523D01*
X107312380Y-117238095D02*
X107312380Y-117809523D01*
X107312380Y-117523809D02*
X106312380Y-117523809D01*
X106455238Y-117619047D01*
X106550476Y-117714285D01*
X106598095Y-117809523D01*
X110433333Y-93852380D02*
X109957142Y-93852380D01*
X109957142Y-92852380D01*
X110719047Y-92947619D02*
X110766666Y-92900000D01*
X110861904Y-92852380D01*
X111100000Y-92852380D01*
X111195238Y-92900000D01*
X111242857Y-92947619D01*
X111290476Y-93042857D01*
X111290476Y-93138095D01*
X111242857Y-93280952D01*
X110671428Y-93852380D01*
X111290476Y-93852380D01*
X162233333Y-88052380D02*
X161757142Y-88052380D01*
X161757142Y-87052380D01*
X163090476Y-88052380D02*
X162519047Y-88052380D01*
X162804761Y-88052380D02*
X162804761Y-87052380D01*
X162709523Y-87195238D01*
X162614285Y-87290476D01*
X162519047Y-87338095D01*
X156857142Y-119142857D02*
X156904761Y-119190476D01*
X156952380Y-119333333D01*
X156952380Y-119428571D01*
X156904761Y-119571428D01*
X156809523Y-119666666D01*
X156714285Y-119714285D01*
X156523809Y-119761904D01*
X156380952Y-119761904D01*
X156190476Y-119714285D01*
X156095238Y-119666666D01*
X156000000Y-119571428D01*
X155952380Y-119428571D01*
X155952380Y-119333333D01*
X156000000Y-119190476D01*
X156047619Y-119142857D01*
X156952380Y-118190476D02*
X156952380Y-118761904D01*
X156952380Y-118476190D02*
X155952380Y-118476190D01*
X156095238Y-118571428D01*
X156190476Y-118666666D01*
X156238095Y-118761904D01*
X156047619Y-117809523D02*
X156000000Y-117761904D01*
X155952380Y-117666666D01*
X155952380Y-117428571D01*
X156000000Y-117333333D01*
X156047619Y-117285714D01*
X156142857Y-117238095D01*
X156238095Y-117238095D01*
X156380952Y-117285714D01*
X156952380Y-117857142D01*
X156952380Y-117238095D01*
X152357142Y-119142857D02*
X152404761Y-119190476D01*
X152452380Y-119333333D01*
X152452380Y-119428571D01*
X152404761Y-119571428D01*
X152309523Y-119666666D01*
X152214285Y-119714285D01*
X152023809Y-119761904D01*
X151880952Y-119761904D01*
X151690476Y-119714285D01*
X151595238Y-119666666D01*
X151500000Y-119571428D01*
X151452380Y-119428571D01*
X151452380Y-119333333D01*
X151500000Y-119190476D01*
X151547619Y-119142857D01*
X152452380Y-118190476D02*
X152452380Y-118761904D01*
X152452380Y-118476190D02*
X151452380Y-118476190D01*
X151595238Y-118571428D01*
X151690476Y-118666666D01*
X151738095Y-118761904D01*
X152452380Y-117238095D02*
X152452380Y-117809523D01*
X152452380Y-117523809D02*
X151452380Y-117523809D01*
X151595238Y-117619047D01*
X151690476Y-117714285D01*
X151738095Y-117809523D01*
X145607142Y-119392857D02*
X145654761Y-119440476D01*
X145702380Y-119583333D01*
X145702380Y-119678571D01*
X145654761Y-119821428D01*
X145559523Y-119916666D01*
X145464285Y-119964285D01*
X145273809Y-120011904D01*
X145130952Y-120011904D01*
X144940476Y-119964285D01*
X144845238Y-119916666D01*
X144750000Y-119821428D01*
X144702380Y-119678571D01*
X144702380Y-119583333D01*
X144750000Y-119440476D01*
X144797619Y-119392857D01*
X145702380Y-118440476D02*
X145702380Y-119011904D01*
X145702380Y-118726190D02*
X144702380Y-118726190D01*
X144845238Y-118821428D01*
X144940476Y-118916666D01*
X144988095Y-119011904D01*
X144702380Y-117821428D02*
X144702380Y-117726190D01*
X144750000Y-117630952D01*
X144797619Y-117583333D01*
X144892857Y-117535714D01*
X145083333Y-117488095D01*
X145321428Y-117488095D01*
X145511904Y-117535714D01*
X145607142Y-117583333D01*
X145654761Y-117630952D01*
X145702380Y-117726190D01*
X145702380Y-117821428D01*
X145654761Y-117916666D01*
X145607142Y-117964285D01*
X145511904Y-118011904D01*
X145321428Y-118059523D01*
X145083333Y-118059523D01*
X144892857Y-118011904D01*
X144797619Y-117964285D01*
X144750000Y-117916666D01*
X144702380Y-117821428D01*
X126607142Y-118916666D02*
X126654761Y-118964285D01*
X126702380Y-119107142D01*
X126702380Y-119202380D01*
X126654761Y-119345238D01*
X126559523Y-119440476D01*
X126464285Y-119488095D01*
X126273809Y-119535714D01*
X126130952Y-119535714D01*
X125940476Y-119488095D01*
X125845238Y-119440476D01*
X125750000Y-119345238D01*
X125702380Y-119202380D01*
X125702380Y-119107142D01*
X125750000Y-118964285D01*
X125797619Y-118916666D01*
X126702380Y-118440476D02*
X126702380Y-118250000D01*
X126654761Y-118154761D01*
X126607142Y-118107142D01*
X126464285Y-118011904D01*
X126273809Y-117964285D01*
X125892857Y-117964285D01*
X125797619Y-118011904D01*
X125750000Y-118059523D01*
X125702380Y-118154761D01*
X125702380Y-118345238D01*
X125750000Y-118440476D01*
X125797619Y-118488095D01*
X125892857Y-118535714D01*
X126130952Y-118535714D01*
X126226190Y-118488095D01*
X126273809Y-118440476D01*
X126321428Y-118345238D01*
X126321428Y-118154761D01*
X126273809Y-118059523D01*
X126226190Y-118011904D01*
X126130952Y-117964285D01*
X127857142Y-99666666D02*
X127904761Y-99714285D01*
X127952380Y-99857142D01*
X127952380Y-99952380D01*
X127904761Y-100095238D01*
X127809523Y-100190476D01*
X127714285Y-100238095D01*
X127523809Y-100285714D01*
X127380952Y-100285714D01*
X127190476Y-100238095D01*
X127095238Y-100190476D01*
X127000000Y-100095238D01*
X126952380Y-99952380D01*
X126952380Y-99857142D01*
X127000000Y-99714285D01*
X127047619Y-99666666D01*
X127380952Y-99095238D02*
X127333333Y-99190476D01*
X127285714Y-99238095D01*
X127190476Y-99285714D01*
X127142857Y-99285714D01*
X127047619Y-99238095D01*
X127000000Y-99190476D01*
X126952380Y-99095238D01*
X126952380Y-98904761D01*
X127000000Y-98809523D01*
X127047619Y-98761904D01*
X127142857Y-98714285D01*
X127190476Y-98714285D01*
X127285714Y-98761904D01*
X127333333Y-98809523D01*
X127380952Y-98904761D01*
X127380952Y-99095238D01*
X127428571Y-99190476D01*
X127476190Y-99238095D01*
X127571428Y-99285714D01*
X127761904Y-99285714D01*
X127857142Y-99238095D01*
X127904761Y-99190476D01*
X127952380Y-99095238D01*
X127952380Y-98904761D01*
X127904761Y-98809523D01*
X127857142Y-98761904D01*
X127761904Y-98714285D01*
X127571428Y-98714285D01*
X127476190Y-98761904D01*
X127428571Y-98809523D01*
X127380952Y-98904761D01*
X134357142Y-99666666D02*
X134404761Y-99714285D01*
X134452380Y-99857142D01*
X134452380Y-99952380D01*
X134404761Y-100095238D01*
X134309523Y-100190476D01*
X134214285Y-100238095D01*
X134023809Y-100285714D01*
X133880952Y-100285714D01*
X133690476Y-100238095D01*
X133595238Y-100190476D01*
X133500000Y-100095238D01*
X133452380Y-99952380D01*
X133452380Y-99857142D01*
X133500000Y-99714285D01*
X133547619Y-99666666D01*
X133452380Y-99333333D02*
X133452380Y-98666666D01*
X134452380Y-99095238D01*
X152607142Y-99916666D02*
X152654761Y-99964285D01*
X152702380Y-100107142D01*
X152702380Y-100202380D01*
X152654761Y-100345238D01*
X152559523Y-100440476D01*
X152464285Y-100488095D01*
X152273809Y-100535714D01*
X152130952Y-100535714D01*
X151940476Y-100488095D01*
X151845238Y-100440476D01*
X151750000Y-100345238D01*
X151702380Y-100202380D01*
X151702380Y-100107142D01*
X151750000Y-99964285D01*
X151797619Y-99916666D01*
X151702380Y-99059523D02*
X151702380Y-99250000D01*
X151750000Y-99345238D01*
X151797619Y-99392857D01*
X151940476Y-99488095D01*
X152130952Y-99535714D01*
X152511904Y-99535714D01*
X152607142Y-99488095D01*
X152654761Y-99440476D01*
X152702380Y-99345238D01*
X152702380Y-99154761D01*
X152654761Y-99059523D01*
X152607142Y-99011904D01*
X152511904Y-98964285D01*
X152273809Y-98964285D01*
X152178571Y-99011904D01*
X152130952Y-99059523D01*
X152083333Y-99154761D01*
X152083333Y-99345238D01*
X152130952Y-99440476D01*
X152178571Y-99488095D01*
X152273809Y-99535714D01*
X171607142Y-99916666D02*
X171654761Y-99964285D01*
X171702380Y-100107142D01*
X171702380Y-100202380D01*
X171654761Y-100345238D01*
X171559523Y-100440476D01*
X171464285Y-100488095D01*
X171273809Y-100535714D01*
X171130952Y-100535714D01*
X170940476Y-100488095D01*
X170845238Y-100440476D01*
X170750000Y-100345238D01*
X170702380Y-100202380D01*
X170702380Y-100107142D01*
X170750000Y-99964285D01*
X170797619Y-99916666D01*
X170702380Y-99011904D02*
X170702380Y-99488095D01*
X171178571Y-99535714D01*
X171130952Y-99488095D01*
X171083333Y-99392857D01*
X171083333Y-99154761D01*
X171130952Y-99059523D01*
X171178571Y-99011904D01*
X171273809Y-98964285D01*
X171511904Y-98964285D01*
X171607142Y-99011904D01*
X171654761Y-99059523D01*
X171702380Y-99154761D01*
X171702380Y-99392857D01*
X171654761Y-99488095D01*
X171607142Y-99535714D01*
X145857142Y-81666666D02*
X145904761Y-81714285D01*
X145952380Y-81857142D01*
X145952380Y-81952380D01*
X145904761Y-82095238D01*
X145809523Y-82190476D01*
X145714285Y-82238095D01*
X145523809Y-82285714D01*
X145380952Y-82285714D01*
X145190476Y-82238095D01*
X145095238Y-82190476D01*
X145000000Y-82095238D01*
X144952380Y-81952380D01*
X144952380Y-81857142D01*
X145000000Y-81714285D01*
X145047619Y-81666666D01*
X145285714Y-80809523D02*
X145952380Y-80809523D01*
X144904761Y-81047619D02*
X145619047Y-81285714D01*
X145619047Y-80666666D01*
X139357142Y-81666666D02*
X139404761Y-81714285D01*
X139452380Y-81857142D01*
X139452380Y-81952380D01*
X139404761Y-82095238D01*
X139309523Y-82190476D01*
X139214285Y-82238095D01*
X139023809Y-82285714D01*
X138880952Y-82285714D01*
X138690476Y-82238095D01*
X138595238Y-82190476D01*
X138500000Y-82095238D01*
X138452380Y-81952380D01*
X138452380Y-81857142D01*
X138500000Y-81714285D01*
X138547619Y-81666666D01*
X138452380Y-81333333D02*
X138452380Y-80714285D01*
X138833333Y-81047619D01*
X138833333Y-80904761D01*
X138880952Y-80809523D01*
X138928571Y-80761904D01*
X139023809Y-80714285D01*
X139261904Y-80714285D01*
X139357142Y-80761904D01*
X139404761Y-80809523D01*
X139452380Y-80904761D01*
X139452380Y-81190476D01*
X139404761Y-81285714D01*
X139357142Y-81333333D01*
X121107142Y-82416666D02*
X121154761Y-82464285D01*
X121202380Y-82607142D01*
X121202380Y-82702380D01*
X121154761Y-82845238D01*
X121059523Y-82940476D01*
X120964285Y-82988095D01*
X120773809Y-83035714D01*
X120630952Y-83035714D01*
X120440476Y-82988095D01*
X120345238Y-82940476D01*
X120250000Y-82845238D01*
X120202380Y-82702380D01*
X120202380Y-82607142D01*
X120250000Y-82464285D01*
X120297619Y-82416666D01*
X120297619Y-82035714D02*
X120250000Y-81988095D01*
X120202380Y-81892857D01*
X120202380Y-81654761D01*
X120250000Y-81559523D01*
X120297619Y-81511904D01*
X120392857Y-81464285D01*
X120488095Y-81464285D01*
X120630952Y-81511904D01*
X121202380Y-82083333D01*
X121202380Y-81464285D01*
X102107142Y-82416666D02*
X102154761Y-82464285D01*
X102202380Y-82607142D01*
X102202380Y-82702380D01*
X102154761Y-82845238D01*
X102059523Y-82940476D01*
X101964285Y-82988095D01*
X101773809Y-83035714D01*
X101630952Y-83035714D01*
X101440476Y-82988095D01*
X101345238Y-82940476D01*
X101250000Y-82845238D01*
X101202380Y-82702380D01*
X101202380Y-82607142D01*
X101250000Y-82464285D01*
X101297619Y-82416666D01*
X102202380Y-81464285D02*
X102202380Y-82035714D01*
X102202380Y-81750000D02*
X101202380Y-81750000D01*
X101345238Y-81845238D01*
X101440476Y-81940476D01*
X101488095Y-82035714D01*
M02*
