G04 #@! TF.GenerationSoftware,KiCad,Pcbnew,(5.1.6)-1*
G04 #@! TF.CreationDate,2021-03-17T22:05:54+03:00*
G04 #@! TF.ProjectId,Power_filter,506f7765-725f-4666-996c-7465722e6b69,rev?*
G04 #@! TF.SameCoordinates,Original*
G04 #@! TF.FileFunction,Soldermask,Top*
G04 #@! TF.FilePolarity,Negative*
%FSLAX46Y46*%
G04 Gerber Fmt 4.6, Leading zero omitted, Abs format (unit mm)*
G04 Created by KiCad (PCBNEW (5.1.6)-1) date 2021-03-17 22:05:54*
%MOMM*%
%LPD*%
G01*
G04 APERTURE LIST*
%ADD10C,2.200000*%
%ADD11R,2.200000X2.200000*%
%ADD12C,2.100000*%
%ADD13C,1.700000*%
%ADD14C,2.500000*%
%ADD15R,2.500000X2.500000*%
G04 APERTURE END LIST*
D10*
X165000000Y-123000000D03*
X165000000Y-118000000D03*
D11*
X165000000Y-113000000D03*
D10*
X101750000Y-123000000D03*
X101750000Y-118000000D03*
D11*
X101750000Y-113000000D03*
D12*
X116000000Y-103400000D03*
X106000000Y-103400000D03*
X106000000Y-96000000D03*
G36*
G01*
X117050000Y-95475000D02*
X117050000Y-96525000D01*
G75*
G02*
X116525000Y-97050000I-525000J0D01*
G01*
X115475000Y-97050000D01*
G75*
G02*
X114950000Y-96525000I0J525000D01*
G01*
X114950000Y-95475000D01*
G75*
G02*
X115475000Y-94950000I525000J0D01*
G01*
X116525000Y-94950000D01*
G75*
G02*
X117050000Y-95475000I0J-525000D01*
G01*
G37*
X157000000Y-77600000D03*
X167000000Y-77600000D03*
X167000000Y-85000000D03*
G36*
G01*
X155950000Y-85525000D02*
X155950000Y-84475000D01*
G75*
G02*
X156475000Y-83950000I525000J0D01*
G01*
X157525000Y-83950000D01*
G75*
G02*
X158050000Y-84475000I0J-525000D01*
G01*
X158050000Y-85525000D01*
G75*
G02*
X157525000Y-86050000I-525000J0D01*
G01*
X156475000Y-86050000D01*
G75*
G02*
X155950000Y-85525000I0J525000D01*
G01*
G37*
D13*
X154000000Y-121000000D03*
X154000000Y-116000000D03*
X149000000Y-121000000D03*
X149000000Y-116000000D03*
D14*
X136000000Y-122500000D03*
D15*
X136000000Y-115000000D03*
D14*
X117000000Y-122500000D03*
D15*
X117000000Y-115000000D03*
D13*
X125000000Y-102000000D03*
X125000000Y-97000000D03*
X131000000Y-102000000D03*
X131000000Y-97000000D03*
D14*
X143000000Y-103500000D03*
D15*
X143000000Y-96000000D03*
D14*
X162000000Y-103500000D03*
D15*
X162000000Y-96000000D03*
D13*
X148000000Y-79000000D03*
X148000000Y-84000000D03*
X142000000Y-79000000D03*
X142000000Y-84000000D03*
D14*
X130000000Y-78500000D03*
D15*
X130000000Y-86000000D03*
D14*
X111000000Y-78500000D03*
D15*
X111000000Y-86000000D03*
M02*
