G04 #@! TF.GenerationSoftware,KiCad,Pcbnew,(5.1.6)-1*
G04 #@! TF.CreationDate,2021-05-04T19:23:38+03:00*
G04 #@! TF.ProjectId,APC,4150432e-6b69-4636-9164-5f7063625858,rev?*
G04 #@! TF.SameCoordinates,Original*
G04 #@! TF.FileFunction,Paste,Bot*
G04 #@! TF.FilePolarity,Positive*
%FSLAX46Y46*%
G04 Gerber Fmt 4.6, Leading zero omitted, Abs format (unit mm)*
G04 Created by KiCad (PCBNEW (5.1.6)-1) date 2021-05-04 19:23:38*
%MOMM*%
%LPD*%
G01*
G04 APERTURE LIST*
%ADD10R,1.500000X0.550000*%
%ADD11R,0.550000X1.500000*%
G04 APERTURE END LIST*
G36*
G01*
X115700001Y-90800000D02*
X114799999Y-90800000D01*
G75*
G02*
X114550000Y-90550001I0J249999D01*
G01*
X114550000Y-89899999D01*
G75*
G02*
X114799999Y-89650000I249999J0D01*
G01*
X115700001Y-89650000D01*
G75*
G02*
X115950000Y-89899999I0J-249999D01*
G01*
X115950000Y-90550001D01*
G75*
G02*
X115700001Y-90800000I-249999J0D01*
G01*
G37*
G36*
G01*
X115700001Y-92850000D02*
X114799999Y-92850000D01*
G75*
G02*
X114550000Y-92600001I0J249999D01*
G01*
X114550000Y-91949999D01*
G75*
G02*
X114799999Y-91700000I249999J0D01*
G01*
X115700001Y-91700000D01*
G75*
G02*
X115950000Y-91949999I0J-249999D01*
G01*
X115950000Y-92600001D01*
G75*
G02*
X115700001Y-92850000I-249999J0D01*
G01*
G37*
G36*
G01*
X112700001Y-86300000D02*
X111799999Y-86300000D01*
G75*
G02*
X111550000Y-86050001I0J249999D01*
G01*
X111550000Y-85399999D01*
G75*
G02*
X111799999Y-85150000I249999J0D01*
G01*
X112700001Y-85150000D01*
G75*
G02*
X112950000Y-85399999I0J-249999D01*
G01*
X112950000Y-86050001D01*
G75*
G02*
X112700001Y-86300000I-249999J0D01*
G01*
G37*
G36*
G01*
X112700001Y-88350000D02*
X111799999Y-88350000D01*
G75*
G02*
X111550000Y-88100001I0J249999D01*
G01*
X111550000Y-87449999D01*
G75*
G02*
X111799999Y-87200000I249999J0D01*
G01*
X112700001Y-87200000D01*
G75*
G02*
X112950000Y-87449999I0J-249999D01*
G01*
X112950000Y-88100001D01*
G75*
G02*
X112700001Y-88350000I-249999J0D01*
G01*
G37*
G36*
G01*
X129950001Y-85300000D02*
X129049999Y-85300000D01*
G75*
G02*
X128800000Y-85050001I0J249999D01*
G01*
X128800000Y-84399999D01*
G75*
G02*
X129049999Y-84150000I249999J0D01*
G01*
X129950001Y-84150000D01*
G75*
G02*
X130200000Y-84399999I0J-249999D01*
G01*
X130200000Y-85050001D01*
G75*
G02*
X129950001Y-85300000I-249999J0D01*
G01*
G37*
G36*
G01*
X129950001Y-87350000D02*
X129049999Y-87350000D01*
G75*
G02*
X128800000Y-87100001I0J249999D01*
G01*
X128800000Y-86449999D01*
G75*
G02*
X129049999Y-86200000I249999J0D01*
G01*
X129950001Y-86200000D01*
G75*
G02*
X130200000Y-86449999I0J-249999D01*
G01*
X130200000Y-87100001D01*
G75*
G02*
X129950001Y-87350000I-249999J0D01*
G01*
G37*
G36*
G01*
X118950000Y-72450001D02*
X118950000Y-71549999D01*
G75*
G02*
X119199999Y-71300000I249999J0D01*
G01*
X119850001Y-71300000D01*
G75*
G02*
X120100000Y-71549999I0J-249999D01*
G01*
X120100000Y-72450001D01*
G75*
G02*
X119850001Y-72700000I-249999J0D01*
G01*
X119199999Y-72700000D01*
G75*
G02*
X118950000Y-72450001I0J249999D01*
G01*
G37*
G36*
G01*
X116900000Y-72450001D02*
X116900000Y-71549999D01*
G75*
G02*
X117149999Y-71300000I249999J0D01*
G01*
X117800001Y-71300000D01*
G75*
G02*
X118050000Y-71549999I0J-249999D01*
G01*
X118050000Y-72450001D01*
G75*
G02*
X117800001Y-72700000I-249999J0D01*
G01*
X117149999Y-72700000D01*
G75*
G02*
X116900000Y-72450001I0J249999D01*
G01*
G37*
D10*
X114550000Y-78000000D03*
X114550000Y-78800000D03*
X114550000Y-79600000D03*
X114550000Y-80400000D03*
X114550000Y-81200000D03*
X114550000Y-82000000D03*
X114550000Y-82800000D03*
X114550000Y-83600000D03*
X114550000Y-84400000D03*
X114550000Y-85200000D03*
X114550000Y-86000000D03*
D11*
X116250000Y-87700000D03*
X117050000Y-87700000D03*
X117850000Y-87700000D03*
X118650000Y-87700000D03*
X119450000Y-87700000D03*
X120250000Y-87700000D03*
X121050000Y-87700000D03*
X121850000Y-87700000D03*
X122650000Y-87700000D03*
X123450000Y-87700000D03*
X124250000Y-87700000D03*
D10*
X125950000Y-86000000D03*
X125950000Y-85200000D03*
X125950000Y-84400000D03*
X125950000Y-83600000D03*
X125950000Y-82800000D03*
X125950000Y-82000000D03*
X125950000Y-81200000D03*
X125950000Y-80400000D03*
X125950000Y-79600000D03*
X125950000Y-78800000D03*
X125950000Y-78000000D03*
D11*
X124250000Y-76300000D03*
X123450000Y-76300000D03*
X122650000Y-76300000D03*
X121850000Y-76300000D03*
X121050000Y-76300000D03*
X120250000Y-76300000D03*
X119450000Y-76300000D03*
X118650000Y-76300000D03*
X117850000Y-76300000D03*
X117050000Y-76300000D03*
X116250000Y-76300000D03*
G36*
G01*
X131799999Y-77900000D02*
X132700001Y-77900000D01*
G75*
G02*
X132950000Y-78149999I0J-249999D01*
G01*
X132950000Y-78850001D01*
G75*
G02*
X132700001Y-79100000I-249999J0D01*
G01*
X131799999Y-79100000D01*
G75*
G02*
X131550000Y-78850001I0J249999D01*
G01*
X131550000Y-78149999D01*
G75*
G02*
X131799999Y-77900000I249999J0D01*
G01*
G37*
G36*
G01*
X131799999Y-75900000D02*
X132700001Y-75900000D01*
G75*
G02*
X132950000Y-76149999I0J-249999D01*
G01*
X132950000Y-76850001D01*
G75*
G02*
X132700001Y-77100000I-249999J0D01*
G01*
X131799999Y-77100000D01*
G75*
G02*
X131550000Y-76850001I0J249999D01*
G01*
X131550000Y-76149999D01*
G75*
G02*
X131799999Y-75900000I249999J0D01*
G01*
G37*
G36*
G01*
X133799999Y-77900000D02*
X134700001Y-77900000D01*
G75*
G02*
X134950000Y-78149999I0J-249999D01*
G01*
X134950000Y-78850001D01*
G75*
G02*
X134700001Y-79100000I-249999J0D01*
G01*
X133799999Y-79100000D01*
G75*
G02*
X133550000Y-78850001I0J249999D01*
G01*
X133550000Y-78149999D01*
G75*
G02*
X133799999Y-77900000I249999J0D01*
G01*
G37*
G36*
G01*
X133799999Y-75900000D02*
X134700001Y-75900000D01*
G75*
G02*
X134950000Y-76149999I0J-249999D01*
G01*
X134950000Y-76850001D01*
G75*
G02*
X134700001Y-77100000I-249999J0D01*
G01*
X133799999Y-77100000D01*
G75*
G02*
X133550000Y-76850001I0J249999D01*
G01*
X133550000Y-76149999D01*
G75*
G02*
X133799999Y-75900000I249999J0D01*
G01*
G37*
G36*
G01*
X99350000Y-88049999D02*
X99350000Y-88950001D01*
G75*
G02*
X99100001Y-89200000I-249999J0D01*
G01*
X98399999Y-89200000D01*
G75*
G02*
X98150000Y-88950001I0J249999D01*
G01*
X98150000Y-88049999D01*
G75*
G02*
X98399999Y-87800000I249999J0D01*
G01*
X99100001Y-87800000D01*
G75*
G02*
X99350000Y-88049999I0J-249999D01*
G01*
G37*
G36*
G01*
X101350000Y-88049999D02*
X101350000Y-88950001D01*
G75*
G02*
X101100001Y-89200000I-249999J0D01*
G01*
X100399999Y-89200000D01*
G75*
G02*
X100150000Y-88950001I0J249999D01*
G01*
X100150000Y-88049999D01*
G75*
G02*
X100399999Y-87800000I249999J0D01*
G01*
X101100001Y-87800000D01*
G75*
G02*
X101350000Y-88049999I0J-249999D01*
G01*
G37*
G36*
G01*
X99350000Y-90049999D02*
X99350000Y-90950001D01*
G75*
G02*
X99100001Y-91200000I-249999J0D01*
G01*
X98399999Y-91200000D01*
G75*
G02*
X98150000Y-90950001I0J249999D01*
G01*
X98150000Y-90049999D01*
G75*
G02*
X98399999Y-89800000I249999J0D01*
G01*
X99100001Y-89800000D01*
G75*
G02*
X99350000Y-90049999I0J-249999D01*
G01*
G37*
G36*
G01*
X101350000Y-90049999D02*
X101350000Y-90950001D01*
G75*
G02*
X101100001Y-91200000I-249999J0D01*
G01*
X100399999Y-91200000D01*
G75*
G02*
X100150000Y-90950001I0J249999D01*
G01*
X100150000Y-90049999D01*
G75*
G02*
X100399999Y-89800000I249999J0D01*
G01*
X101100001Y-89800000D01*
G75*
G02*
X101350000Y-90049999I0J-249999D01*
G01*
G37*
G36*
G01*
X109150000Y-83450001D02*
X109150000Y-82549999D01*
G75*
G02*
X109399999Y-82300000I249999J0D01*
G01*
X110100001Y-82300000D01*
G75*
G02*
X110350000Y-82549999I0J-249999D01*
G01*
X110350000Y-83450001D01*
G75*
G02*
X110100001Y-83700000I-249999J0D01*
G01*
X109399999Y-83700000D01*
G75*
G02*
X109150000Y-83450001I0J249999D01*
G01*
G37*
G36*
G01*
X107150000Y-83450001D02*
X107150000Y-82549999D01*
G75*
G02*
X107399999Y-82300000I249999J0D01*
G01*
X108100001Y-82300000D01*
G75*
G02*
X108350000Y-82549999I0J-249999D01*
G01*
X108350000Y-83450001D01*
G75*
G02*
X108100001Y-83700000I-249999J0D01*
G01*
X107399999Y-83700000D01*
G75*
G02*
X107150000Y-83450001I0J249999D01*
G01*
G37*
G36*
G01*
X98400000Y-82950001D02*
X98400000Y-82049999D01*
G75*
G02*
X98649999Y-81800000I249999J0D01*
G01*
X99350001Y-81800000D01*
G75*
G02*
X99600000Y-82049999I0J-249999D01*
G01*
X99600000Y-82950001D01*
G75*
G02*
X99350001Y-83200000I-249999J0D01*
G01*
X98649999Y-83200000D01*
G75*
G02*
X98400000Y-82950001I0J249999D01*
G01*
G37*
G36*
G01*
X96400000Y-82950001D02*
X96400000Y-82049999D01*
G75*
G02*
X96649999Y-81800000I249999J0D01*
G01*
X97350001Y-81800000D01*
G75*
G02*
X97600000Y-82049999I0J-249999D01*
G01*
X97600000Y-82950001D01*
G75*
G02*
X97350001Y-83200000I-249999J0D01*
G01*
X96649999Y-83200000D01*
G75*
G02*
X96400000Y-82950001I0J249999D01*
G01*
G37*
G36*
G01*
X136799999Y-59150000D02*
X137700001Y-59150000D01*
G75*
G02*
X137950000Y-59399999I0J-249999D01*
G01*
X137950000Y-60100001D01*
G75*
G02*
X137700001Y-60350000I-249999J0D01*
G01*
X136799999Y-60350000D01*
G75*
G02*
X136550000Y-60100001I0J249999D01*
G01*
X136550000Y-59399999D01*
G75*
G02*
X136799999Y-59150000I249999J0D01*
G01*
G37*
G36*
G01*
X136799999Y-57150000D02*
X137700001Y-57150000D01*
G75*
G02*
X137950000Y-57399999I0J-249999D01*
G01*
X137950000Y-58100001D01*
G75*
G02*
X137700001Y-58350000I-249999J0D01*
G01*
X136799999Y-58350000D01*
G75*
G02*
X136550000Y-58100001I0J249999D01*
G01*
X136550000Y-57399999D01*
G75*
G02*
X136799999Y-57150000I249999J0D01*
G01*
G37*
M02*
