G04 #@! TF.GenerationSoftware,KiCad,Pcbnew,(5.1.6)-1*
G04 #@! TF.CreationDate,2021-05-04T19:37:33+03:00*
G04 #@! TF.ProjectId,APC,4150432e-6b69-4636-9164-5f7063625858,rev?*
G04 #@! TF.SameCoordinates,Original*
G04 #@! TF.FileFunction,Soldermask,Bot*
G04 #@! TF.FilePolarity,Negative*
%FSLAX46Y46*%
G04 Gerber Fmt 4.6, Leading zero omitted, Abs format (unit mm)*
G04 Created by KiCad (PCBNEW (5.1.6)-1) date 2021-05-04 19:37:33*
%MOMM*%
%LPD*%
G01*
G04 APERTURE LIST*
%ADD10O,1.700000X1.700000*%
%ADD11R,1.700000X1.700000*%
%ADD12O,1.800000X1.800000*%
%ADD13R,1.800000X1.800000*%
%ADD14O,2.100000X1.800000*%
%ADD15C,2.400000*%
%ADD16R,2.400000X2.100000*%
%ADD17R,1.600000X0.650000*%
%ADD18R,0.650000X1.600000*%
%ADD19O,2.600000X2.600000*%
%ADD20R,2.600000X2.600000*%
%ADD21C,2.600000*%
%ADD22O,1.800000X2.050000*%
%ADD23C,2.100000*%
%ADD24R,2.100000X2.100000*%
G04 APERTURE END LIST*
D10*
X109500000Y-92870000D03*
X106960000Y-85250000D03*
X106960000Y-92870000D03*
D11*
X109500000Y-85250000D03*
D12*
X114090000Y-98040000D03*
X114090000Y-95500000D03*
X116630000Y-98040000D03*
X116630000Y-95500000D03*
X119170000Y-98040000D03*
X119170000Y-95500000D03*
X121710000Y-98040000D03*
X121710000Y-95500000D03*
X124250000Y-98040000D03*
D13*
X124250000Y-95500000D03*
G36*
G01*
X115728262Y-90850000D02*
X114771738Y-90850000D01*
G75*
G02*
X114500000Y-90578262I0J271738D01*
G01*
X114500000Y-89871738D01*
G75*
G02*
X114771738Y-89600000I271738J0D01*
G01*
X115728262Y-89600000D01*
G75*
G02*
X116000000Y-89871738I0J-271738D01*
G01*
X116000000Y-90578262D01*
G75*
G02*
X115728262Y-90850000I-271738J0D01*
G01*
G37*
G36*
G01*
X115728262Y-92900000D02*
X114771738Y-92900000D01*
G75*
G02*
X114500000Y-92628262I0J271738D01*
G01*
X114500000Y-91921738D01*
G75*
G02*
X114771738Y-91650000I271738J0D01*
G01*
X115728262Y-91650000D01*
G75*
G02*
X116000000Y-91921738I0J-271738D01*
G01*
X116000000Y-92628262D01*
G75*
G02*
X115728262Y-92900000I-271738J0D01*
G01*
G37*
G36*
G01*
X112728262Y-86350000D02*
X111771738Y-86350000D01*
G75*
G02*
X111500000Y-86078262I0J271738D01*
G01*
X111500000Y-85371738D01*
G75*
G02*
X111771738Y-85100000I271738J0D01*
G01*
X112728262Y-85100000D01*
G75*
G02*
X113000000Y-85371738I0J-271738D01*
G01*
X113000000Y-86078262D01*
G75*
G02*
X112728262Y-86350000I-271738J0D01*
G01*
G37*
G36*
G01*
X112728262Y-88400000D02*
X111771738Y-88400000D01*
G75*
G02*
X111500000Y-88128262I0J271738D01*
G01*
X111500000Y-87421738D01*
G75*
G02*
X111771738Y-87150000I271738J0D01*
G01*
X112728262Y-87150000D01*
G75*
G02*
X113000000Y-87421738I0J-271738D01*
G01*
X113000000Y-88128262D01*
G75*
G02*
X112728262Y-88400000I-271738J0D01*
G01*
G37*
G36*
G01*
X129978262Y-85350000D02*
X129021738Y-85350000D01*
G75*
G02*
X128750000Y-85078262I0J271738D01*
G01*
X128750000Y-84371738D01*
G75*
G02*
X129021738Y-84100000I271738J0D01*
G01*
X129978262Y-84100000D01*
G75*
G02*
X130250000Y-84371738I0J-271738D01*
G01*
X130250000Y-85078262D01*
G75*
G02*
X129978262Y-85350000I-271738J0D01*
G01*
G37*
G36*
G01*
X129978262Y-87400000D02*
X129021738Y-87400000D01*
G75*
G02*
X128750000Y-87128262I0J271738D01*
G01*
X128750000Y-86421738D01*
G75*
G02*
X129021738Y-86150000I271738J0D01*
G01*
X129978262Y-86150000D01*
G75*
G02*
X130250000Y-86421738I0J-271738D01*
G01*
X130250000Y-87128262D01*
G75*
G02*
X129978262Y-87400000I-271738J0D01*
G01*
G37*
G36*
G01*
X118900000Y-72478262D02*
X118900000Y-71521738D01*
G75*
G02*
X119171738Y-71250000I271738J0D01*
G01*
X119878262Y-71250000D01*
G75*
G02*
X120150000Y-71521738I0J-271738D01*
G01*
X120150000Y-72478262D01*
G75*
G02*
X119878262Y-72750000I-271738J0D01*
G01*
X119171738Y-72750000D01*
G75*
G02*
X118900000Y-72478262I0J271738D01*
G01*
G37*
G36*
G01*
X116850000Y-72478262D02*
X116850000Y-71521738D01*
G75*
G02*
X117121738Y-71250000I271738J0D01*
G01*
X117828262Y-71250000D01*
G75*
G02*
X118100000Y-71521738I0J-271738D01*
G01*
X118100000Y-72478262D01*
G75*
G02*
X117828262Y-72750000I-271738J0D01*
G01*
X117121738Y-72750000D01*
G75*
G02*
X116850000Y-72478262I0J271738D01*
G01*
G37*
D10*
X122370000Y-60500000D03*
D11*
X114750000Y-60500000D03*
D12*
X136000000Y-86540000D03*
D13*
X136000000Y-84000000D03*
D14*
X141250000Y-78500000D03*
G36*
G01*
X140464706Y-75100000D02*
X142035294Y-75100000D01*
G75*
G02*
X142300000Y-75364706I0J-264706D01*
G01*
X142300000Y-76635294D01*
G75*
G02*
X142035294Y-76900000I-264706J0D01*
G01*
X140464706Y-76900000D01*
G75*
G02*
X140200000Y-76635294I0J264706D01*
G01*
X140200000Y-75364706D01*
G75*
G02*
X140464706Y-75100000I264706J0D01*
G01*
G37*
D15*
X110000000Y-75170000D03*
X110000000Y-80250000D03*
X92220000Y-54850000D03*
D16*
X92220000Y-49770000D03*
D15*
X92220000Y-80250000D03*
D10*
X129130000Y-79750000D03*
X136750000Y-77210000D03*
X129130000Y-77210000D03*
D11*
X136750000Y-79750000D03*
D10*
X97500000Y-85130000D03*
X100040000Y-92750000D03*
X100040000Y-85130000D03*
D11*
X97500000Y-92750000D03*
D17*
X114550000Y-78000000D03*
X114550000Y-78800000D03*
X114550000Y-79600000D03*
X114550000Y-80400000D03*
X114550000Y-81200000D03*
X114550000Y-82000000D03*
X114550000Y-82800000D03*
X114550000Y-83600000D03*
X114550000Y-84400000D03*
X114550000Y-85200000D03*
X114550000Y-86000000D03*
D18*
X116250000Y-87700000D03*
X117050000Y-87700000D03*
X117850000Y-87700000D03*
X118650000Y-87700000D03*
X119450000Y-87700000D03*
X120250000Y-87700000D03*
X121050000Y-87700000D03*
X121850000Y-87700000D03*
X122650000Y-87700000D03*
X123450000Y-87700000D03*
X124250000Y-87700000D03*
D17*
X125950000Y-86000000D03*
X125950000Y-85200000D03*
X125950000Y-84400000D03*
X125950000Y-83600000D03*
X125950000Y-82800000D03*
X125950000Y-82000000D03*
X125950000Y-81200000D03*
X125950000Y-80400000D03*
X125950000Y-79600000D03*
X125950000Y-78800000D03*
X125950000Y-78000000D03*
D18*
X124250000Y-76300000D03*
X123450000Y-76300000D03*
X122650000Y-76300000D03*
X121850000Y-76300000D03*
X121050000Y-76300000D03*
X120250000Y-76300000D03*
X119450000Y-76300000D03*
X118650000Y-76300000D03*
X117850000Y-76300000D03*
X117050000Y-76300000D03*
X116250000Y-76300000D03*
G36*
G01*
X131770832Y-77850000D02*
X132729168Y-77850000D01*
G75*
G02*
X133000000Y-78120832I0J-270832D01*
G01*
X133000000Y-78879168D01*
G75*
G02*
X132729168Y-79150000I-270832J0D01*
G01*
X131770832Y-79150000D01*
G75*
G02*
X131500000Y-78879168I0J270832D01*
G01*
X131500000Y-78120832D01*
G75*
G02*
X131770832Y-77850000I270832J0D01*
G01*
G37*
G36*
G01*
X131770832Y-75850000D02*
X132729168Y-75850000D01*
G75*
G02*
X133000000Y-76120832I0J-270832D01*
G01*
X133000000Y-76879168D01*
G75*
G02*
X132729168Y-77150000I-270832J0D01*
G01*
X131770832Y-77150000D01*
G75*
G02*
X131500000Y-76879168I0J270832D01*
G01*
X131500000Y-76120832D01*
G75*
G02*
X131770832Y-75850000I270832J0D01*
G01*
G37*
G36*
G01*
X133770832Y-77850000D02*
X134729168Y-77850000D01*
G75*
G02*
X135000000Y-78120832I0J-270832D01*
G01*
X135000000Y-78879168D01*
G75*
G02*
X134729168Y-79150000I-270832J0D01*
G01*
X133770832Y-79150000D01*
G75*
G02*
X133500000Y-78879168I0J270832D01*
G01*
X133500000Y-78120832D01*
G75*
G02*
X133770832Y-77850000I270832J0D01*
G01*
G37*
G36*
G01*
X133770832Y-75850000D02*
X134729168Y-75850000D01*
G75*
G02*
X135000000Y-76120832I0J-270832D01*
G01*
X135000000Y-76879168D01*
G75*
G02*
X134729168Y-77150000I-270832J0D01*
G01*
X133770832Y-77150000D01*
G75*
G02*
X133500000Y-76879168I0J270832D01*
G01*
X133500000Y-76120832D01*
G75*
G02*
X133770832Y-75850000I270832J0D01*
G01*
G37*
G36*
G01*
X99400000Y-88020832D02*
X99400000Y-88979168D01*
G75*
G02*
X99129168Y-89250000I-270832J0D01*
G01*
X98370832Y-89250000D01*
G75*
G02*
X98100000Y-88979168I0J270832D01*
G01*
X98100000Y-88020832D01*
G75*
G02*
X98370832Y-87750000I270832J0D01*
G01*
X99129168Y-87750000D01*
G75*
G02*
X99400000Y-88020832I0J-270832D01*
G01*
G37*
G36*
G01*
X101400000Y-88020832D02*
X101400000Y-88979168D01*
G75*
G02*
X101129168Y-89250000I-270832J0D01*
G01*
X100370832Y-89250000D01*
G75*
G02*
X100100000Y-88979168I0J270832D01*
G01*
X100100000Y-88020832D01*
G75*
G02*
X100370832Y-87750000I270832J0D01*
G01*
X101129168Y-87750000D01*
G75*
G02*
X101400000Y-88020832I0J-270832D01*
G01*
G37*
G36*
G01*
X99400000Y-90020832D02*
X99400000Y-90979168D01*
G75*
G02*
X99129168Y-91250000I-270832J0D01*
G01*
X98370832Y-91250000D01*
G75*
G02*
X98100000Y-90979168I0J270832D01*
G01*
X98100000Y-90020832D01*
G75*
G02*
X98370832Y-89750000I270832J0D01*
G01*
X99129168Y-89750000D01*
G75*
G02*
X99400000Y-90020832I0J-270832D01*
G01*
G37*
G36*
G01*
X101400000Y-90020832D02*
X101400000Y-90979168D01*
G75*
G02*
X101129168Y-91250000I-270832J0D01*
G01*
X100370832Y-91250000D01*
G75*
G02*
X100100000Y-90979168I0J270832D01*
G01*
X100100000Y-90020832D01*
G75*
G02*
X100370832Y-89750000I270832J0D01*
G01*
X101129168Y-89750000D01*
G75*
G02*
X101400000Y-90020832I0J-270832D01*
G01*
G37*
G36*
G01*
X109100000Y-83479168D02*
X109100000Y-82520832D01*
G75*
G02*
X109370832Y-82250000I270832J0D01*
G01*
X110129168Y-82250000D01*
G75*
G02*
X110400000Y-82520832I0J-270832D01*
G01*
X110400000Y-83479168D01*
G75*
G02*
X110129168Y-83750000I-270832J0D01*
G01*
X109370832Y-83750000D01*
G75*
G02*
X109100000Y-83479168I0J270832D01*
G01*
G37*
G36*
G01*
X107100000Y-83479168D02*
X107100000Y-82520832D01*
G75*
G02*
X107370832Y-82250000I270832J0D01*
G01*
X108129168Y-82250000D01*
G75*
G02*
X108400000Y-82520832I0J-270832D01*
G01*
X108400000Y-83479168D01*
G75*
G02*
X108129168Y-83750000I-270832J0D01*
G01*
X107370832Y-83750000D01*
G75*
G02*
X107100000Y-83479168I0J270832D01*
G01*
G37*
G36*
G01*
X98350000Y-82979168D02*
X98350000Y-82020832D01*
G75*
G02*
X98620832Y-81750000I270832J0D01*
G01*
X99379168Y-81750000D01*
G75*
G02*
X99650000Y-82020832I0J-270832D01*
G01*
X99650000Y-82979168D01*
G75*
G02*
X99379168Y-83250000I-270832J0D01*
G01*
X98620832Y-83250000D01*
G75*
G02*
X98350000Y-82979168I0J270832D01*
G01*
G37*
G36*
G01*
X96350000Y-82979168D02*
X96350000Y-82020832D01*
G75*
G02*
X96620832Y-81750000I270832J0D01*
G01*
X97379168Y-81750000D01*
G75*
G02*
X97650000Y-82020832I0J-270832D01*
G01*
X97650000Y-82979168D01*
G75*
G02*
X97379168Y-83250000I-270832J0D01*
G01*
X96620832Y-83250000D01*
G75*
G02*
X96350000Y-82979168I0J270832D01*
G01*
G37*
G36*
G01*
X136770832Y-59100000D02*
X137729168Y-59100000D01*
G75*
G02*
X138000000Y-59370832I0J-270832D01*
G01*
X138000000Y-60129168D01*
G75*
G02*
X137729168Y-60400000I-270832J0D01*
G01*
X136770832Y-60400000D01*
G75*
G02*
X136500000Y-60129168I0J270832D01*
G01*
X136500000Y-59370832D01*
G75*
G02*
X136770832Y-59100000I270832J0D01*
G01*
G37*
G36*
G01*
X136770832Y-57100000D02*
X137729168Y-57100000D01*
G75*
G02*
X138000000Y-57370832I0J-270832D01*
G01*
X138000000Y-58129168D01*
G75*
G02*
X137729168Y-58400000I-270832J0D01*
G01*
X136770832Y-58400000D01*
G75*
G02*
X136500000Y-58129168I0J270832D01*
G01*
X136500000Y-57370832D01*
G75*
G02*
X136770832Y-57100000I270832J0D01*
G01*
G37*
D19*
X131750000Y-56250000D03*
X119550000Y-56250000D03*
X119550000Y-44250000D03*
X131750000Y-44250000D03*
D20*
X133750000Y-50250000D03*
D21*
X117500000Y-37000000D03*
X122500000Y-37000000D03*
D20*
X127500000Y-37000000D03*
D14*
X141250000Y-69250000D03*
G36*
G01*
X140464706Y-65850000D02*
X142035294Y-65850000D01*
G75*
G02*
X142300000Y-66114706I0J-264706D01*
G01*
X142300000Y-67385294D01*
G75*
G02*
X142035294Y-67650000I-264706J0D01*
G01*
X140464706Y-67650000D01*
G75*
G02*
X140200000Y-67385294I0J264706D01*
G01*
X140200000Y-66114706D01*
G75*
G02*
X140464706Y-65850000I264706J0D01*
G01*
G37*
D12*
X136080000Y-73500000D03*
X133540000Y-73500000D03*
D13*
X131000000Y-73500000D03*
D22*
X92000000Y-97750000D03*
X94500000Y-97750000D03*
G36*
G01*
X97900000Y-96989706D02*
X97900000Y-98510294D01*
G75*
G02*
X97635294Y-98775000I-264706J0D01*
G01*
X96364706Y-98775000D01*
G75*
G02*
X96100000Y-98510294I0J264706D01*
G01*
X96100000Y-96989706D01*
G75*
G02*
X96364706Y-96725000I264706J0D01*
G01*
X97635294Y-96725000D01*
G75*
G02*
X97900000Y-96989706I0J-264706D01*
G01*
G37*
D12*
X103500000Y-91080000D03*
X103500000Y-88540000D03*
D13*
X103500000Y-86000000D03*
D22*
X103500000Y-97750000D03*
X106000000Y-97750000D03*
G36*
G01*
X109400000Y-96989706D02*
X109400000Y-98510294D01*
G75*
G02*
X109135294Y-98775000I-264706J0D01*
G01*
X107864706Y-98775000D01*
G75*
G02*
X107600000Y-98510294I0J264706D01*
G01*
X107600000Y-96989706D01*
G75*
G02*
X107864706Y-96725000I264706J0D01*
G01*
X109135294Y-96725000D01*
G75*
G02*
X109400000Y-96989706I0J-264706D01*
G01*
G37*
D21*
X100750000Y-37000000D03*
X105750000Y-37000000D03*
D20*
X110750000Y-37000000D03*
D14*
X141250000Y-97000000D03*
G36*
G01*
X140464706Y-93600000D02*
X142035294Y-93600000D01*
G75*
G02*
X142300000Y-93864706I0J-264706D01*
G01*
X142300000Y-95135294D01*
G75*
G02*
X142035294Y-95400000I-264706J0D01*
G01*
X140464706Y-95400000D01*
G75*
G02*
X140200000Y-95135294I0J264706D01*
G01*
X140200000Y-93864706D01*
G75*
G02*
X140464706Y-93600000I264706J0D01*
G01*
G37*
X141250000Y-87750000D03*
G36*
G01*
X140464706Y-84350000D02*
X142035294Y-84350000D01*
G75*
G02*
X142300000Y-84614706I0J-264706D01*
G01*
X142300000Y-85885294D01*
G75*
G02*
X142035294Y-86150000I-264706J0D01*
G01*
X140464706Y-86150000D01*
G75*
G02*
X140200000Y-85885294I0J264706D01*
G01*
X140200000Y-84614706D01*
G75*
G02*
X140464706Y-84350000I264706J0D01*
G01*
G37*
X141250000Y-60000000D03*
G36*
G01*
X140464706Y-56600000D02*
X142035294Y-56600000D01*
G75*
G02*
X142300000Y-56864706I0J-264706D01*
G01*
X142300000Y-58135294D01*
G75*
G02*
X142035294Y-58400000I-264706J0D01*
G01*
X140464706Y-58400000D01*
G75*
G02*
X140200000Y-58135294I0J264706D01*
G01*
X140200000Y-56864706D01*
G75*
G02*
X140464706Y-56600000I264706J0D01*
G01*
G37*
D23*
X125650000Y-65250000D03*
D24*
X133250000Y-65250000D03*
M02*
