G04 #@! TF.GenerationSoftware,KiCad,Pcbnew,(5.1.6)-1*
G04 #@! TF.CreationDate,2021-05-04T19:23:38+03:00*
G04 #@! TF.ProjectId,APC,4150432e-6b69-4636-9164-5f7063625858,rev?*
G04 #@! TF.SameCoordinates,Original*
G04 #@! TF.FileFunction,Paste,Top*
G04 #@! TF.FilePolarity,Positive*
%FSLAX46Y46*%
G04 Gerber Fmt 4.6, Leading zero omitted, Abs format (unit mm)*
G04 Created by KiCad (PCBNEW (5.1.6)-1) date 2021-05-04 19:23:38*
%MOMM*%
%LPD*%
G01*
G04 APERTURE LIST*
%ADD10R,0.800000X0.900000*%
G04 APERTURE END LIST*
G36*
G01*
X136700001Y-95550000D02*
X135799999Y-95550000D01*
G75*
G02*
X135550000Y-95300001I0J249999D01*
G01*
X135550000Y-94649999D01*
G75*
G02*
X135799999Y-94400000I249999J0D01*
G01*
X136700001Y-94400000D01*
G75*
G02*
X136950000Y-94649999I0J-249999D01*
G01*
X136950000Y-95300001D01*
G75*
G02*
X136700001Y-95550000I-249999J0D01*
G01*
G37*
G36*
G01*
X136700001Y-97600000D02*
X135799999Y-97600000D01*
G75*
G02*
X135550000Y-97350001I0J249999D01*
G01*
X135550000Y-96699999D01*
G75*
G02*
X135799999Y-96450000I249999J0D01*
G01*
X136700001Y-96450000D01*
G75*
G02*
X136950000Y-96699999I0J-249999D01*
G01*
X136950000Y-97350001D01*
G75*
G02*
X136700001Y-97600000I-249999J0D01*
G01*
G37*
G36*
G01*
X133450001Y-87300000D02*
X132549999Y-87300000D01*
G75*
G02*
X132300000Y-87050001I0J249999D01*
G01*
X132300000Y-86399999D01*
G75*
G02*
X132549999Y-86150000I249999J0D01*
G01*
X133450001Y-86150000D01*
G75*
G02*
X133700000Y-86399999I0J-249999D01*
G01*
X133700000Y-87050001D01*
G75*
G02*
X133450001Y-87300000I-249999J0D01*
G01*
G37*
G36*
G01*
X133450001Y-89350000D02*
X132549999Y-89350000D01*
G75*
G02*
X132300000Y-89100001I0J249999D01*
G01*
X132300000Y-88449999D01*
G75*
G02*
X132549999Y-88200000I249999J0D01*
G01*
X133450001Y-88200000D01*
G75*
G02*
X133700000Y-88449999I0J-249999D01*
G01*
X133700000Y-89100001D01*
G75*
G02*
X133450001Y-89350000I-249999J0D01*
G01*
G37*
G36*
G01*
X119299999Y-87700000D02*
X120200001Y-87700000D01*
G75*
G02*
X120450000Y-87949999I0J-249999D01*
G01*
X120450000Y-88600001D01*
G75*
G02*
X120200001Y-88850000I-249999J0D01*
G01*
X119299999Y-88850000D01*
G75*
G02*
X119050000Y-88600001I0J249999D01*
G01*
X119050000Y-87949999D01*
G75*
G02*
X119299999Y-87700000I249999J0D01*
G01*
G37*
G36*
G01*
X119299999Y-85650000D02*
X120200001Y-85650000D01*
G75*
G02*
X120450000Y-85899999I0J-249999D01*
G01*
X120450000Y-86550001D01*
G75*
G02*
X120200001Y-86800000I-249999J0D01*
G01*
X119299999Y-86800000D01*
G75*
G02*
X119050000Y-86550001I0J249999D01*
G01*
X119050000Y-85899999D01*
G75*
G02*
X119299999Y-85650000I249999J0D01*
G01*
G37*
G36*
G01*
X122550000Y-84049999D02*
X122550000Y-84950001D01*
G75*
G02*
X122300001Y-85200000I-249999J0D01*
G01*
X121649999Y-85200000D01*
G75*
G02*
X121400000Y-84950001I0J249999D01*
G01*
X121400000Y-84049999D01*
G75*
G02*
X121649999Y-83800000I249999J0D01*
G01*
X122300001Y-83800000D01*
G75*
G02*
X122550000Y-84049999I0J-249999D01*
G01*
G37*
G36*
G01*
X124600000Y-84049999D02*
X124600000Y-84950001D01*
G75*
G02*
X124350001Y-85200000I-249999J0D01*
G01*
X123699999Y-85200000D01*
G75*
G02*
X123450000Y-84950001I0J249999D01*
G01*
X123450000Y-84049999D01*
G75*
G02*
X123699999Y-83800000I249999J0D01*
G01*
X124350001Y-83800000D01*
G75*
G02*
X124600000Y-84049999I0J-249999D01*
G01*
G37*
G36*
G01*
X111799999Y-90900000D02*
X112700001Y-90900000D01*
G75*
G02*
X112950000Y-91149999I0J-249999D01*
G01*
X112950000Y-91850001D01*
G75*
G02*
X112700001Y-92100000I-249999J0D01*
G01*
X111799999Y-92100000D01*
G75*
G02*
X111550000Y-91850001I0J249999D01*
G01*
X111550000Y-91149999D01*
G75*
G02*
X111799999Y-90900000I249999J0D01*
G01*
G37*
G36*
G01*
X111799999Y-88900000D02*
X112700001Y-88900000D01*
G75*
G02*
X112950000Y-89149999I0J-249999D01*
G01*
X112950000Y-89850001D01*
G75*
G02*
X112700001Y-90100000I-249999J0D01*
G01*
X111799999Y-90100000D01*
G75*
G02*
X111550000Y-89850001I0J249999D01*
G01*
X111550000Y-89149999D01*
G75*
G02*
X111799999Y-88900000I249999J0D01*
G01*
G37*
G36*
G01*
X131200001Y-83350000D02*
X130299999Y-83350000D01*
G75*
G02*
X130050000Y-83100001I0J249999D01*
G01*
X130050000Y-82399999D01*
G75*
G02*
X130299999Y-82150000I249999J0D01*
G01*
X131200001Y-82150000D01*
G75*
G02*
X131450000Y-82399999I0J-249999D01*
G01*
X131450000Y-83100001D01*
G75*
G02*
X131200001Y-83350000I-249999J0D01*
G01*
G37*
G36*
G01*
X131200001Y-85350000D02*
X130299999Y-85350000D01*
G75*
G02*
X130050000Y-85100001I0J249999D01*
G01*
X130050000Y-84399999D01*
G75*
G02*
X130299999Y-84150000I249999J0D01*
G01*
X131200001Y-84150000D01*
G75*
G02*
X131450000Y-84399999I0J-249999D01*
G01*
X131450000Y-85100001D01*
G75*
G02*
X131200001Y-85350000I-249999J0D01*
G01*
G37*
G36*
G01*
X136700001Y-91350000D02*
X135799999Y-91350000D01*
G75*
G02*
X135550000Y-91100001I0J249999D01*
G01*
X135550000Y-90399999D01*
G75*
G02*
X135799999Y-90150000I249999J0D01*
G01*
X136700001Y-90150000D01*
G75*
G02*
X136950000Y-90399999I0J-249999D01*
G01*
X136950000Y-91100001D01*
G75*
G02*
X136700001Y-91350000I-249999J0D01*
G01*
G37*
G36*
G01*
X136700001Y-93350000D02*
X135799999Y-93350000D01*
G75*
G02*
X135550000Y-93100001I0J249999D01*
G01*
X135550000Y-92399999D01*
G75*
G02*
X135799999Y-92150000I249999J0D01*
G01*
X136700001Y-92150000D01*
G75*
G02*
X136950000Y-92399999I0J-249999D01*
G01*
X136950000Y-93100001D01*
G75*
G02*
X136700001Y-93350000I-249999J0D01*
G01*
G37*
G36*
G01*
X133450001Y-83350000D02*
X132549999Y-83350000D01*
G75*
G02*
X132300000Y-83100001I0J249999D01*
G01*
X132300000Y-82399999D01*
G75*
G02*
X132549999Y-82150000I249999J0D01*
G01*
X133450001Y-82150000D01*
G75*
G02*
X133700000Y-82399999I0J-249999D01*
G01*
X133700000Y-83100001D01*
G75*
G02*
X133450001Y-83350000I-249999J0D01*
G01*
G37*
G36*
G01*
X133450001Y-85350000D02*
X132549999Y-85350000D01*
G75*
G02*
X132300000Y-85100001I0J249999D01*
G01*
X132300000Y-84399999D01*
G75*
G02*
X132549999Y-84150000I249999J0D01*
G01*
X133450001Y-84150000D01*
G75*
G02*
X133700000Y-84399999I0J-249999D01*
G01*
X133700000Y-85100001D01*
G75*
G02*
X133450001Y-85350000I-249999J0D01*
G01*
G37*
G36*
G01*
X121150000Y-80700001D02*
X121150000Y-79799999D01*
G75*
G02*
X121399999Y-79550000I249999J0D01*
G01*
X122100001Y-79550000D01*
G75*
G02*
X122350000Y-79799999I0J-249999D01*
G01*
X122350000Y-80700001D01*
G75*
G02*
X122100001Y-80950000I-249999J0D01*
G01*
X121399999Y-80950000D01*
G75*
G02*
X121150000Y-80700001I0J249999D01*
G01*
G37*
G36*
G01*
X119150000Y-80700001D02*
X119150000Y-79799999D01*
G75*
G02*
X119399999Y-79550000I249999J0D01*
G01*
X120100001Y-79550000D01*
G75*
G02*
X120350000Y-79799999I0J-249999D01*
G01*
X120350000Y-80700001D01*
G75*
G02*
X120100001Y-80950000I-249999J0D01*
G01*
X119399999Y-80950000D01*
G75*
G02*
X119150000Y-80700001I0J249999D01*
G01*
G37*
G36*
G01*
X120100000Y-71799999D02*
X120100000Y-72700001D01*
G75*
G02*
X119850001Y-72950000I-249999J0D01*
G01*
X119149999Y-72950000D01*
G75*
G02*
X118900000Y-72700001I0J249999D01*
G01*
X118900000Y-71799999D01*
G75*
G02*
X119149999Y-71550000I249999J0D01*
G01*
X119850001Y-71550000D01*
G75*
G02*
X120100000Y-71799999I0J-249999D01*
G01*
G37*
G36*
G01*
X122100000Y-71799999D02*
X122100000Y-72700001D01*
G75*
G02*
X121850001Y-72950000I-249999J0D01*
G01*
X121149999Y-72950000D01*
G75*
G02*
X120900000Y-72700001I0J249999D01*
G01*
X120900000Y-71799999D01*
G75*
G02*
X121149999Y-71550000I249999J0D01*
G01*
X121850001Y-71550000D01*
G75*
G02*
X122100000Y-71799999I0J-249999D01*
G01*
G37*
G36*
G01*
X120350000Y-81799999D02*
X120350000Y-82700001D01*
G75*
G02*
X120100001Y-82950000I-249999J0D01*
G01*
X119399999Y-82950000D01*
G75*
G02*
X119150000Y-82700001I0J249999D01*
G01*
X119150000Y-81799999D01*
G75*
G02*
X119399999Y-81550000I249999J0D01*
G01*
X120100001Y-81550000D01*
G75*
G02*
X120350000Y-81799999I0J-249999D01*
G01*
G37*
G36*
G01*
X122350000Y-81799999D02*
X122350000Y-82700001D01*
G75*
G02*
X122100001Y-82950000I-249999J0D01*
G01*
X121399999Y-82950000D01*
G75*
G02*
X121150000Y-82700001I0J249999D01*
G01*
X121150000Y-81799999D01*
G75*
G02*
X121399999Y-81550000I249999J0D01*
G01*
X122100001Y-81550000D01*
G75*
G02*
X122350000Y-81799999I0J-249999D01*
G01*
G37*
G36*
G01*
X117299999Y-75650000D02*
X118200001Y-75650000D01*
G75*
G02*
X118450000Y-75899999I0J-249999D01*
G01*
X118450000Y-76600001D01*
G75*
G02*
X118200001Y-76850000I-249999J0D01*
G01*
X117299999Y-76850000D01*
G75*
G02*
X117050000Y-76600001I0J249999D01*
G01*
X117050000Y-75899999D01*
G75*
G02*
X117299999Y-75650000I249999J0D01*
G01*
G37*
G36*
G01*
X117299999Y-73650000D02*
X118200001Y-73650000D01*
G75*
G02*
X118450000Y-73899999I0J-249999D01*
G01*
X118450000Y-74600001D01*
G75*
G02*
X118200001Y-74850000I-249999J0D01*
G01*
X117299999Y-74850000D01*
G75*
G02*
X117050000Y-74600001I0J249999D01*
G01*
X117050000Y-73899999D01*
G75*
G02*
X117299999Y-73650000I249999J0D01*
G01*
G37*
G36*
G01*
X121150000Y-76700001D02*
X121150000Y-75799999D01*
G75*
G02*
X121399999Y-75550000I249999J0D01*
G01*
X122100001Y-75550000D01*
G75*
G02*
X122350000Y-75799999I0J-249999D01*
G01*
X122350000Y-76700001D01*
G75*
G02*
X122100001Y-76950000I-249999J0D01*
G01*
X121399999Y-76950000D01*
G75*
G02*
X121150000Y-76700001I0J249999D01*
G01*
G37*
G36*
G01*
X119150000Y-76700001D02*
X119150000Y-75799999D01*
G75*
G02*
X119399999Y-75550000I249999J0D01*
G01*
X120100001Y-75550000D01*
G75*
G02*
X120350000Y-75799999I0J-249999D01*
G01*
X120350000Y-76700001D01*
G75*
G02*
X120100001Y-76950000I-249999J0D01*
G01*
X119399999Y-76950000D01*
G75*
G02*
X119150000Y-76700001I0J249999D01*
G01*
G37*
G36*
G01*
X120350000Y-77799999D02*
X120350000Y-78700001D01*
G75*
G02*
X120100001Y-78950000I-249999J0D01*
G01*
X119399999Y-78950000D01*
G75*
G02*
X119150000Y-78700001I0J249999D01*
G01*
X119150000Y-77799999D01*
G75*
G02*
X119399999Y-77550000I249999J0D01*
G01*
X120100001Y-77550000D01*
G75*
G02*
X120350000Y-77799999I0J-249999D01*
G01*
G37*
G36*
G01*
X122350000Y-77799999D02*
X122350000Y-78700001D01*
G75*
G02*
X122100001Y-78950000I-249999J0D01*
G01*
X121399999Y-78950000D01*
G75*
G02*
X121150000Y-78700001I0J249999D01*
G01*
X121150000Y-77799999D01*
G75*
G02*
X121399999Y-77550000I249999J0D01*
G01*
X122100001Y-77550000D01*
G75*
G02*
X122350000Y-77799999I0J-249999D01*
G01*
G37*
G36*
G01*
X123400000Y-86950001D02*
X123400000Y-86049999D01*
G75*
G02*
X123649999Y-85800000I249999J0D01*
G01*
X124350001Y-85800000D01*
G75*
G02*
X124600000Y-86049999I0J-249999D01*
G01*
X124600000Y-86950001D01*
G75*
G02*
X124350001Y-87200000I-249999J0D01*
G01*
X123649999Y-87200000D01*
G75*
G02*
X123400000Y-86950001I0J249999D01*
G01*
G37*
G36*
G01*
X121400000Y-86950001D02*
X121400000Y-86049999D01*
G75*
G02*
X121649999Y-85800000I249999J0D01*
G01*
X122350001Y-85800000D01*
G75*
G02*
X122600000Y-86049999I0J-249999D01*
G01*
X122600000Y-86950001D01*
G75*
G02*
X122350001Y-87200000I-249999J0D01*
G01*
X121649999Y-87200000D01*
G75*
G02*
X121400000Y-86950001I0J249999D01*
G01*
G37*
D10*
X124750000Y-78250000D03*
X125700000Y-80250000D03*
X123800000Y-80250000D03*
X120500000Y-68250000D03*
X121450000Y-70250000D03*
X119550000Y-70250000D03*
X124250000Y-72500000D03*
X125200000Y-74500000D03*
X123300000Y-74500000D03*
G36*
G01*
X115575000Y-69625000D02*
X117425000Y-69625000D01*
G75*
G02*
X117675000Y-69875000I0J-250000D01*
G01*
X117675000Y-70875000D01*
G75*
G02*
X117425000Y-71125000I-250000J0D01*
G01*
X115575000Y-71125000D01*
G75*
G02*
X115325000Y-70875000I0J250000D01*
G01*
X115325000Y-69875000D01*
G75*
G02*
X115575000Y-69625000I250000J0D01*
G01*
G37*
G36*
G01*
X115575000Y-66375000D02*
X117425000Y-66375000D01*
G75*
G02*
X117675000Y-66625000I0J-250000D01*
G01*
X117675000Y-67625000D01*
G75*
G02*
X117425000Y-67875000I-250000J0D01*
G01*
X115575000Y-67875000D01*
G75*
G02*
X115325000Y-67625000I0J250000D01*
G01*
X115325000Y-66625000D01*
G75*
G02*
X115575000Y-66375000I250000J0D01*
G01*
G37*
M02*
