G04 #@! TF.GenerationSoftware,KiCad,Pcbnew,(5.1.6)-1*
G04 #@! TF.CreationDate,2021-05-04T19:37:33+03:00*
G04 #@! TF.ProjectId,APC,4150432e-6b69-4636-9164-5f7063625858,rev?*
G04 #@! TF.SameCoordinates,Original*
G04 #@! TF.FileFunction,Legend,Top*
G04 #@! TF.FilePolarity,Positive*
%FSLAX46Y46*%
G04 Gerber Fmt 4.6, Leading zero omitted, Abs format (unit mm)*
G04 Created by KiCad (PCBNEW (5.1.6)-1) date 2021-05-04 19:37:33*
%MOMM*%
%LPD*%
G01*
G04 APERTURE LIST*
%ADD10C,0.120000*%
%ADD11C,0.300000*%
%ADD12C,0.150000*%
%ADD13C,0.500000*%
%ADD14O,1.700000X1.700000*%
%ADD15R,1.700000X1.700000*%
%ADD16O,1.800000X1.800000*%
%ADD17R,1.800000X1.800000*%
%ADD18O,2.100000X1.800000*%
%ADD19C,2.400000*%
%ADD20R,2.400000X2.100000*%
%ADD21R,0.900000X1.000000*%
%ADD22O,2.600000X2.600000*%
%ADD23R,2.600000X2.600000*%
%ADD24C,2.600000*%
%ADD25O,1.800000X2.050000*%
%ADD26C,2.100000*%
%ADD27R,2.100000X2.100000*%
G04 APERTURE END LIST*
D10*
X114250000Y-88750000D02*
X113250000Y-89000000D01*
X114250000Y-89250000D02*
X114250000Y-88750000D01*
X113250000Y-89000000D02*
X114250000Y-89250000D01*
X114750000Y-89000000D02*
X113250000Y-89000000D01*
X122250000Y-68500000D02*
X123250000Y-68750000D01*
X122500000Y-68000000D02*
X122250000Y-68500000D01*
X123250000Y-68750000D02*
X122500000Y-68000000D01*
X118000000Y-65750000D02*
X123250000Y-68750000D01*
X118000000Y-62750000D02*
X118000000Y-65750000D01*
D11*
X127964285Y-32404761D02*
X127250000Y-32404761D01*
X127250000Y-30404761D01*
X122071428Y-32404761D02*
X122071428Y-30404761D01*
X122928571Y-32404761D01*
X122928571Y-30404761D01*
X117178571Y-31357142D02*
X117678571Y-31357142D01*
X117892857Y-32404761D02*
X117178571Y-32404761D01*
X117178571Y-30404761D01*
X117892857Y-30404761D01*
X100428571Y-31357142D02*
X100928571Y-31357142D01*
X101142857Y-32404761D02*
X100428571Y-32404761D01*
X100428571Y-30404761D01*
X101142857Y-30404761D01*
X105321428Y-32404761D02*
X105321428Y-30404761D01*
X106178571Y-32404761D01*
X106178571Y-30404761D01*
X111214285Y-32404761D02*
X110500000Y-32404761D01*
X110500000Y-30404761D01*
D12*
X119928571Y-64619047D02*
X119928571Y-65190476D01*
X119928571Y-64904761D02*
X118428571Y-64904761D01*
X118642857Y-65000000D01*
X118785714Y-65095238D01*
X118857142Y-65190476D01*
X118571428Y-64238095D02*
X118500000Y-64190476D01*
X118428571Y-64095238D01*
X118428571Y-63857142D01*
X118500000Y-63761904D01*
X118571428Y-63714285D01*
X118714285Y-63666666D01*
X118857142Y-63666666D01*
X119071428Y-63714285D01*
X119928571Y-64285714D01*
X119928571Y-63666666D01*
X118428571Y-63380952D02*
X119928571Y-63047619D01*
X118428571Y-62714285D01*
X116321428Y-65190476D02*
X116250000Y-65142857D01*
X116178571Y-65047619D01*
X116178571Y-64809523D01*
X116250000Y-64714285D01*
X116321428Y-64666666D01*
X116464285Y-64619047D01*
X116607142Y-64619047D01*
X116821428Y-64666666D01*
X117678571Y-65238095D01*
X117678571Y-64619047D01*
X116678571Y-63761904D02*
X117678571Y-63761904D01*
X116107142Y-64000000D02*
X117178571Y-64238095D01*
X117178571Y-63619047D01*
X116178571Y-63380952D02*
X117678571Y-63047619D01*
X116178571Y-62714285D01*
D10*
X128500000Y-73750000D02*
X129250000Y-73500000D01*
X128500000Y-73250000D02*
X128500000Y-73750000D01*
X129250000Y-73500000D02*
X128500000Y-73250000D01*
X128000000Y-73500000D02*
X129250000Y-73500000D01*
X128500000Y-86000000D02*
X129250000Y-85750000D01*
X128500000Y-85500000D02*
X128500000Y-86000000D01*
X129250000Y-85750000D02*
X128500000Y-85500000D01*
X129250000Y-85750000D02*
X128000000Y-85750000D01*
D12*
X115011904Y-89428571D02*
X115630952Y-89428571D01*
X115297619Y-90000000D01*
X115440476Y-90000000D01*
X115535714Y-90071428D01*
X115583333Y-90142857D01*
X115630952Y-90285714D01*
X115630952Y-90642857D01*
X115583333Y-90785714D01*
X115535714Y-90857142D01*
X115440476Y-90928571D01*
X115154761Y-90928571D01*
X115059523Y-90857142D01*
X115011904Y-90785714D01*
X115916666Y-89428571D02*
X116250000Y-90928571D01*
X116583333Y-89428571D01*
X116821428Y-89428571D02*
X117440476Y-89428571D01*
X117107142Y-90000000D01*
X117250000Y-90000000D01*
X117345238Y-90071428D01*
X117392857Y-90142857D01*
X117440476Y-90285714D01*
X117440476Y-90642857D01*
X117392857Y-90785714D01*
X117345238Y-90857142D01*
X117250000Y-90928571D01*
X116964285Y-90928571D01*
X116869047Y-90857142D01*
X116821428Y-90785714D01*
X115583333Y-87178571D02*
X115107142Y-87178571D01*
X115059523Y-87892857D01*
X115107142Y-87821428D01*
X115202380Y-87750000D01*
X115440476Y-87750000D01*
X115535714Y-87821428D01*
X115583333Y-87892857D01*
X115630952Y-88035714D01*
X115630952Y-88392857D01*
X115583333Y-88535714D01*
X115535714Y-88607142D01*
X115440476Y-88678571D01*
X115202380Y-88678571D01*
X115107142Y-88607142D01*
X115059523Y-88535714D01*
X115916666Y-87178571D02*
X116250000Y-88678571D01*
X116583333Y-87178571D01*
X117107142Y-87178571D02*
X117202380Y-87178571D01*
X117297619Y-87250000D01*
X117345238Y-87321428D01*
X117392857Y-87464285D01*
X117440476Y-87750000D01*
X117440476Y-88107142D01*
X117392857Y-88392857D01*
X117345238Y-88535714D01*
X117297619Y-88607142D01*
X117202380Y-88678571D01*
X117107142Y-88678571D01*
X117011904Y-88607142D01*
X116964285Y-88535714D01*
X116916666Y-88392857D01*
X116869047Y-88107142D01*
X116869047Y-87750000D01*
X116916666Y-87464285D01*
X116964285Y-87321428D01*
X117011904Y-87250000D01*
X117107142Y-87178571D01*
D10*
X110830000Y-88060000D02*
X110830000Y-86410000D01*
X110830000Y-86410000D02*
X105630000Y-86410000D01*
X105630000Y-86410000D02*
X105630000Y-91710000D01*
X105630000Y-91710000D02*
X110830000Y-91710000D01*
X110830000Y-91710000D02*
X110830000Y-90060000D01*
X110830000Y-90060000D02*
G75*
G02*
X110830000Y-88060000I0J1000000D01*
G01*
X112760000Y-94170000D02*
X112760000Y-99370000D01*
X122980000Y-94170000D02*
X112760000Y-94170000D01*
X125580000Y-99370000D02*
X112760000Y-99370000D01*
X122980000Y-94170000D02*
X122980000Y-96770000D01*
X122980000Y-96770000D02*
X125580000Y-96770000D01*
X125580000Y-96770000D02*
X125580000Y-99370000D01*
X124250000Y-94170000D02*
X125580000Y-94170000D01*
X125580000Y-94170000D02*
X125580000Y-95500000D01*
X135540000Y-96261252D02*
X135540000Y-95738748D01*
X136960000Y-96261252D02*
X136960000Y-95738748D01*
X132290000Y-88011252D02*
X132290000Y-87488748D01*
X133710000Y-88011252D02*
X133710000Y-87488748D01*
X120460000Y-86988748D02*
X120460000Y-87511252D01*
X119040000Y-86988748D02*
X119040000Y-87511252D01*
X123261252Y-85210000D02*
X122738748Y-85210000D01*
X123261252Y-83790000D02*
X122738748Y-83790000D01*
X116440000Y-59380000D02*
X116440000Y-61620000D01*
X116440000Y-61620000D02*
X120680000Y-61620000D01*
X120680000Y-61620000D02*
X120680000Y-59380000D01*
X120680000Y-59380000D02*
X116440000Y-59380000D01*
X115790000Y-60500000D02*
X116440000Y-60500000D01*
X121330000Y-60500000D02*
X120680000Y-60500000D01*
X117160000Y-59380000D02*
X117160000Y-61620000D01*
X117280000Y-59380000D02*
X117280000Y-61620000D01*
X117040000Y-59380000D02*
X117040000Y-61620000D01*
X134670000Y-87870000D02*
X137330000Y-87870000D01*
X134670000Y-85270000D02*
X134670000Y-87870000D01*
X137330000Y-85270000D02*
X137330000Y-87870000D01*
X134670000Y-85270000D02*
X137330000Y-85270000D01*
X134670000Y-84000000D02*
X134670000Y-82670000D01*
X134670000Y-82670000D02*
X136000000Y-82670000D01*
X142960000Y-73390000D02*
X138940000Y-73390000D01*
X138940000Y-73390000D02*
X138940000Y-81110000D01*
X138940000Y-81110000D02*
X142960000Y-81110000D01*
X142960000Y-81110000D02*
X142960000Y-73390000D01*
X141250000Y-73390000D02*
X141250000Y-73890000D01*
X141250000Y-73890000D02*
X142460000Y-73890000D01*
X142460000Y-73890000D02*
X142460000Y-80610000D01*
X142460000Y-80610000D02*
X141250000Y-80610000D01*
X141250000Y-80610000D02*
X141250000Y-81110000D01*
X140440000Y-73390000D02*
X140440000Y-74390000D01*
X140440000Y-74390000D02*
X138940000Y-74390000D01*
X140440000Y-81110000D02*
X140440000Y-80110000D01*
X140440000Y-80110000D02*
X138940000Y-80110000D01*
X141140000Y-73090000D02*
X138640000Y-73090000D01*
X138640000Y-73090000D02*
X138640000Y-75590000D01*
X113230000Y-46390000D02*
X88990000Y-46390000D01*
X88990000Y-83630000D02*
X113230000Y-83630000D01*
X88990000Y-46390000D02*
X88990000Y-83630000D01*
X113230000Y-46390000D02*
X113230000Y-83630000D01*
X88610000Y-47770000D02*
X88610000Y-53770000D01*
X133940000Y-81080000D02*
X135590000Y-81080000D01*
X135590000Y-81080000D02*
X135590000Y-75880000D01*
X135590000Y-75880000D02*
X130290000Y-75880000D01*
X130290000Y-75880000D02*
X130290000Y-81080000D01*
X130290000Y-81080000D02*
X131940000Y-81080000D01*
X131940000Y-81080000D02*
G75*
G02*
X133940000Y-81080000I1000000J0D01*
G01*
X96170000Y-89940000D02*
X96170000Y-91590000D01*
X96170000Y-91590000D02*
X101370000Y-91590000D01*
X101370000Y-91590000D02*
X101370000Y-86290000D01*
X101370000Y-86290000D02*
X96170000Y-86290000D01*
X96170000Y-86290000D02*
X96170000Y-87940000D01*
X96170000Y-87940000D02*
G75*
G02*
X96170000Y-89940000I0J-1000000D01*
G01*
X112985000Y-90272936D02*
X112985000Y-90727064D01*
X111515000Y-90272936D02*
X111515000Y-90727064D01*
X130015000Y-83977064D02*
X130015000Y-83522936D01*
X131485000Y-83977064D02*
X131485000Y-83522936D01*
X135515000Y-91977064D02*
X135515000Y-91522936D01*
X136985000Y-91977064D02*
X136985000Y-91522936D01*
X132265000Y-83977064D02*
X132265000Y-83522936D01*
X133735000Y-83977064D02*
X133735000Y-83522936D01*
X120522936Y-79515000D02*
X120977064Y-79515000D01*
X120522936Y-80985000D02*
X120977064Y-80985000D01*
X120727064Y-72985000D02*
X120272936Y-72985000D01*
X120727064Y-71515000D02*
X120272936Y-71515000D01*
X120977064Y-82985000D02*
X120522936Y-82985000D01*
X120977064Y-81515000D02*
X120522936Y-81515000D01*
X118485000Y-75022936D02*
X118485000Y-75477064D01*
X117015000Y-75022936D02*
X117015000Y-75477064D01*
X120522936Y-75515000D02*
X120977064Y-75515000D01*
X120522936Y-76985000D02*
X120977064Y-76985000D01*
X120977064Y-78985000D02*
X120522936Y-78985000D01*
X120977064Y-77515000D02*
X120522936Y-77515000D01*
X122772936Y-85765000D02*
X123227064Y-85765000D01*
X122772936Y-87235000D02*
X123227064Y-87235000D01*
X126330000Y-78490000D02*
X125400000Y-78490000D01*
X123170000Y-78490000D02*
X124100000Y-78490000D01*
X123170000Y-78490000D02*
X123170000Y-80650000D01*
X126330000Y-78490000D02*
X126330000Y-79950000D01*
X122080000Y-68490000D02*
X121150000Y-68490000D01*
X118920000Y-68490000D02*
X119850000Y-68490000D01*
X118920000Y-68490000D02*
X118920000Y-70650000D01*
X122080000Y-68490000D02*
X122080000Y-69950000D01*
X125830000Y-72740000D02*
X124900000Y-72740000D01*
X122670000Y-72740000D02*
X123600000Y-72740000D01*
X122670000Y-72740000D02*
X122670000Y-74900000D01*
X125830000Y-72740000D02*
X125830000Y-74200000D01*
X113700000Y-58600000D02*
X136400000Y-58600000D01*
X136400000Y-58600000D02*
X136400000Y-41900000D01*
X136400000Y-41900000D02*
X113700000Y-41900000D01*
X113700000Y-41900000D02*
X113700000Y-58600000D01*
X131350000Y-49900000D02*
X131750000Y-50600000D01*
X130950000Y-50600000D02*
X132150000Y-50600000D01*
X132150000Y-50600000D02*
X132150000Y-49900000D01*
X132150000Y-49900000D02*
X130950000Y-49900000D01*
X130950000Y-49900000D02*
X130950000Y-50600000D01*
X136660000Y-49250000D02*
X136660000Y-51250000D01*
X131550000Y-45750000D02*
X131550000Y-48900000D01*
X131550000Y-51600000D02*
X131550000Y-54750000D01*
X128050000Y-40000000D02*
G75*
G03*
X128050000Y-40000000I-550000J0D01*
G01*
X124180000Y-37000000D02*
G75*
G03*
X124180000Y-37000000I-1680000J0D01*
G01*
X123050000Y-40000000D02*
G75*
G03*
X123050000Y-40000000I-550000J0D01*
G01*
X119180000Y-37000000D02*
G75*
G03*
X119180000Y-37000000I-1680000J0D01*
G01*
X118050000Y-40000000D02*
G75*
G03*
X118050000Y-40000000I-550000J0D01*
G01*
X130060000Y-34100000D02*
X114940000Y-34100000D01*
X130060000Y-34700000D02*
X114940000Y-34700000D01*
X130060000Y-39400000D02*
X114940000Y-39400000D01*
X130060000Y-41160000D02*
X114940000Y-41160000D01*
X130060000Y-33439000D02*
X114940000Y-33439000D01*
X130060000Y-41160000D02*
X130060000Y-33439000D01*
X114940000Y-41160000D02*
X114940000Y-33439000D01*
X121225000Y-38069000D02*
X121319000Y-37976000D01*
X123510000Y-35784000D02*
X123569000Y-35726000D01*
X121430000Y-38275000D02*
X121489000Y-38216000D01*
X123680000Y-36024000D02*
X123774000Y-35931000D01*
X116225000Y-38069000D02*
X116319000Y-37976000D01*
X118510000Y-35784000D02*
X118569000Y-35726000D01*
X116430000Y-38275000D02*
X116489000Y-38216000D01*
X118680000Y-36024000D02*
X118774000Y-35931000D01*
X130300000Y-34040000D02*
X130300000Y-33200000D01*
X130300000Y-33200000D02*
X129700000Y-33200000D01*
X127470617Y-35319550D02*
G75*
G02*
X128289000Y-35516000I29383J-1680450D01*
G01*
X128983953Y-36210912D02*
G75*
G02*
X128984000Y-37789000I-1483953J-789088D01*
G01*
X128289088Y-38483953D02*
G75*
G02*
X126711000Y-38484000I-789088J1483953D01*
G01*
X126016047Y-37789088D02*
G75*
G02*
X126016000Y-36211000I1483953J789088D01*
G01*
X126711288Y-35516648D02*
G75*
G02*
X127500000Y-35320000I788712J-1483352D01*
G01*
X142960000Y-64140000D02*
X138940000Y-64140000D01*
X138940000Y-64140000D02*
X138940000Y-71860000D01*
X138940000Y-71860000D02*
X142960000Y-71860000D01*
X142960000Y-71860000D02*
X142960000Y-64140000D01*
X141250000Y-64140000D02*
X141250000Y-64640000D01*
X141250000Y-64640000D02*
X142460000Y-64640000D01*
X142460000Y-64640000D02*
X142460000Y-71360000D01*
X142460000Y-71360000D02*
X141250000Y-71360000D01*
X141250000Y-71360000D02*
X141250000Y-71860000D01*
X140440000Y-64140000D02*
X140440000Y-65140000D01*
X140440000Y-65140000D02*
X138940000Y-65140000D01*
X140440000Y-71860000D02*
X140440000Y-70860000D01*
X140440000Y-70860000D02*
X138940000Y-70860000D01*
X141140000Y-63840000D02*
X138640000Y-63840000D01*
X138640000Y-63840000D02*
X138640000Y-66340000D01*
X137410000Y-74830000D02*
X137410000Y-72170000D01*
X132270000Y-74830000D02*
X137410000Y-74830000D01*
X132270000Y-72170000D02*
X137410000Y-72170000D01*
X132270000Y-74830000D02*
X132270000Y-72170000D01*
X131000000Y-74830000D02*
X129670000Y-74830000D01*
X129670000Y-74830000D02*
X129670000Y-73500000D01*
X99610000Y-99460000D02*
X99610000Y-95440000D01*
X99610000Y-95440000D02*
X89390000Y-95440000D01*
X89390000Y-95440000D02*
X89390000Y-99460000D01*
X89390000Y-99460000D02*
X99610000Y-99460000D01*
X99610000Y-97750000D02*
X99110000Y-97750000D01*
X99110000Y-97750000D02*
X99110000Y-98960000D01*
X99110000Y-98960000D02*
X89890000Y-98960000D01*
X89890000Y-98960000D02*
X89890000Y-97750000D01*
X89890000Y-97750000D02*
X89390000Y-97750000D01*
X99610000Y-96940000D02*
X98610000Y-96940000D01*
X98610000Y-96940000D02*
X98610000Y-95440000D01*
X89390000Y-96940000D02*
X90390000Y-96940000D01*
X90390000Y-96940000D02*
X90390000Y-95440000D01*
X99910000Y-97640000D02*
X99910000Y-95140000D01*
X99910000Y-95140000D02*
X97410000Y-95140000D01*
X102170000Y-92410000D02*
X104830000Y-92410000D01*
X102170000Y-87270000D02*
X102170000Y-92410000D01*
X104830000Y-87270000D02*
X104830000Y-92410000D01*
X102170000Y-87270000D02*
X104830000Y-87270000D01*
X102170000Y-86000000D02*
X102170000Y-84670000D01*
X102170000Y-84670000D02*
X103500000Y-84670000D01*
X111110000Y-99460000D02*
X111110000Y-95440000D01*
X111110000Y-95440000D02*
X100890000Y-95440000D01*
X100890000Y-95440000D02*
X100890000Y-99460000D01*
X100890000Y-99460000D02*
X111110000Y-99460000D01*
X111110000Y-97750000D02*
X110610000Y-97750000D01*
X110610000Y-97750000D02*
X110610000Y-98960000D01*
X110610000Y-98960000D02*
X101390000Y-98960000D01*
X101390000Y-98960000D02*
X101390000Y-97750000D01*
X101390000Y-97750000D02*
X100890000Y-97750000D01*
X111110000Y-96940000D02*
X110110000Y-96940000D01*
X110110000Y-96940000D02*
X110110000Y-95440000D01*
X100890000Y-96940000D02*
X101890000Y-96940000D01*
X101890000Y-96940000D02*
X101890000Y-95440000D01*
X111410000Y-97640000D02*
X111410000Y-95140000D01*
X111410000Y-95140000D02*
X108910000Y-95140000D01*
X111300000Y-40000000D02*
G75*
G03*
X111300000Y-40000000I-550000J0D01*
G01*
X107430000Y-37000000D02*
G75*
G03*
X107430000Y-37000000I-1680000J0D01*
G01*
X106300000Y-40000000D02*
G75*
G03*
X106300000Y-40000000I-550000J0D01*
G01*
X102430000Y-37000000D02*
G75*
G03*
X102430000Y-37000000I-1680000J0D01*
G01*
X101300000Y-40000000D02*
G75*
G03*
X101300000Y-40000000I-550000J0D01*
G01*
X113310000Y-34100000D02*
X98190000Y-34100000D01*
X113310000Y-34700000D02*
X98190000Y-34700000D01*
X113310000Y-39400000D02*
X98190000Y-39400000D01*
X113310000Y-41160000D02*
X98190000Y-41160000D01*
X113310000Y-33439000D02*
X98190000Y-33439000D01*
X113310000Y-41160000D02*
X113310000Y-33439000D01*
X98190000Y-41160000D02*
X98190000Y-33439000D01*
X104475000Y-38069000D02*
X104569000Y-37976000D01*
X106760000Y-35784000D02*
X106819000Y-35726000D01*
X104680000Y-38275000D02*
X104739000Y-38216000D01*
X106930000Y-36024000D02*
X107024000Y-35931000D01*
X99475000Y-38069000D02*
X99569000Y-37976000D01*
X101760000Y-35784000D02*
X101819000Y-35726000D01*
X99680000Y-38275000D02*
X99739000Y-38216000D01*
X101930000Y-36024000D02*
X102024000Y-35931000D01*
X113550000Y-34040000D02*
X113550000Y-33200000D01*
X113550000Y-33200000D02*
X112950000Y-33200000D01*
X110720617Y-35319550D02*
G75*
G02*
X111539000Y-35516000I29383J-1680450D01*
G01*
X112233953Y-36210912D02*
G75*
G02*
X112234000Y-37789000I-1483953J-789088D01*
G01*
X111539088Y-38483953D02*
G75*
G02*
X109961000Y-38484000I-789088J1483953D01*
G01*
X109266047Y-37789088D02*
G75*
G02*
X109266000Y-36211000I1483953J789088D01*
G01*
X109961288Y-35516648D02*
G75*
G02*
X110750000Y-35320000I788712J-1483352D01*
G01*
X142960000Y-91890000D02*
X138940000Y-91890000D01*
X138940000Y-91890000D02*
X138940000Y-99610000D01*
X138940000Y-99610000D02*
X142960000Y-99610000D01*
X142960000Y-99610000D02*
X142960000Y-91890000D01*
X141250000Y-91890000D02*
X141250000Y-92390000D01*
X141250000Y-92390000D02*
X142460000Y-92390000D01*
X142460000Y-92390000D02*
X142460000Y-99110000D01*
X142460000Y-99110000D02*
X141250000Y-99110000D01*
X141250000Y-99110000D02*
X141250000Y-99610000D01*
X140440000Y-91890000D02*
X140440000Y-92890000D01*
X140440000Y-92890000D02*
X138940000Y-92890000D01*
X140440000Y-99610000D02*
X140440000Y-98610000D01*
X140440000Y-98610000D02*
X138940000Y-98610000D01*
X141140000Y-91590000D02*
X138640000Y-91590000D01*
X138640000Y-91590000D02*
X138640000Y-94090000D01*
X142960000Y-82640000D02*
X138940000Y-82640000D01*
X138940000Y-82640000D02*
X138940000Y-90360000D01*
X138940000Y-90360000D02*
X142960000Y-90360000D01*
X142960000Y-90360000D02*
X142960000Y-82640000D01*
X141250000Y-82640000D02*
X141250000Y-83140000D01*
X141250000Y-83140000D02*
X142460000Y-83140000D01*
X142460000Y-83140000D02*
X142460000Y-89860000D01*
X142460000Y-89860000D02*
X141250000Y-89860000D01*
X141250000Y-89860000D02*
X141250000Y-90360000D01*
X140440000Y-82640000D02*
X140440000Y-83640000D01*
X140440000Y-83640000D02*
X138940000Y-83640000D01*
X140440000Y-90360000D02*
X140440000Y-89360000D01*
X140440000Y-89360000D02*
X138940000Y-89360000D01*
X141140000Y-82340000D02*
X138640000Y-82340000D01*
X138640000Y-82340000D02*
X138640000Y-84840000D01*
X142960000Y-54890000D02*
X138940000Y-54890000D01*
X138940000Y-54890000D02*
X138940000Y-62610000D01*
X138940000Y-62610000D02*
X142960000Y-62610000D01*
X142960000Y-62610000D02*
X142960000Y-54890000D01*
X141250000Y-54890000D02*
X141250000Y-55390000D01*
X141250000Y-55390000D02*
X142460000Y-55390000D01*
X142460000Y-55390000D02*
X142460000Y-62110000D01*
X142460000Y-62110000D02*
X141250000Y-62110000D01*
X141250000Y-62110000D02*
X141250000Y-62610000D01*
X140440000Y-54890000D02*
X140440000Y-55890000D01*
X140440000Y-55890000D02*
X138940000Y-55890000D01*
X140440000Y-62610000D02*
X140440000Y-61610000D01*
X140440000Y-61610000D02*
X138940000Y-61610000D01*
X141140000Y-54590000D02*
X138640000Y-54590000D01*
X138640000Y-54590000D02*
X138640000Y-57090000D01*
X118010000Y-70500000D02*
X118010000Y-66115000D01*
X118010000Y-66115000D02*
X114990000Y-66115000D01*
X114990000Y-66115000D02*
X114990000Y-70500000D01*
X135550000Y-65250000D02*
G75*
G03*
X135550000Y-65250000I-6100000J0D01*
G01*
D12*
X120833333Y-92952380D02*
X120833333Y-93666666D01*
X120785714Y-93809523D01*
X120690476Y-93904761D01*
X120547619Y-93952380D01*
X120452380Y-93952380D01*
X121166666Y-92952380D02*
X121738095Y-92952380D01*
X121452380Y-93952380D02*
X121452380Y-92952380D01*
X122023809Y-93666666D02*
X122500000Y-93666666D01*
X121928571Y-93952380D02*
X122261904Y-92952380D01*
X122595238Y-93952380D01*
X123452380Y-93000000D02*
X123357142Y-92952380D01*
X123214285Y-92952380D01*
X123071428Y-93000000D01*
X122976190Y-93095238D01*
X122928571Y-93190476D01*
X122880952Y-93380952D01*
X122880952Y-93523809D01*
X122928571Y-93714285D01*
X122976190Y-93809523D01*
X123071428Y-93904761D01*
X123214285Y-93952380D01*
X123309523Y-93952380D01*
X123452380Y-93904761D01*
X123500000Y-93857142D01*
X123500000Y-93523809D01*
X123309523Y-93523809D01*
X114488095Y-59152380D02*
X114488095Y-58152380D01*
X115059523Y-59152380D02*
X114630952Y-58580952D01*
X115059523Y-58152380D02*
X114488095Y-58723809D01*
X127178571Y-91071428D02*
X127178571Y-90738095D01*
X127702380Y-90595238D02*
X127702380Y-91071428D01*
X126702380Y-91071428D01*
X126702380Y-90595238D01*
X127702380Y-90166666D02*
X126702380Y-90166666D01*
X127416666Y-89833333D01*
X126702380Y-89500000D01*
X127702380Y-89500000D01*
X127797619Y-89261904D02*
X127797619Y-88500000D01*
X127654761Y-88309523D02*
X127702380Y-88166666D01*
X127702380Y-87928571D01*
X127654761Y-87833333D01*
X127607142Y-87785714D01*
X127511904Y-87738095D01*
X127416666Y-87738095D01*
X127321428Y-87785714D01*
X127273809Y-87833333D01*
X127226190Y-87928571D01*
X127178571Y-88119047D01*
X127130952Y-88214285D01*
X127083333Y-88261904D01*
X126988095Y-88309523D01*
X126892857Y-88309523D01*
X126797619Y-88261904D01*
X126750000Y-88214285D01*
X126702380Y-88119047D01*
X126702380Y-87880952D01*
X126750000Y-87738095D01*
X126702380Y-87452380D02*
X126702380Y-86880952D01*
X127702380Y-87166666D02*
X126702380Y-87166666D01*
X126702380Y-86357142D02*
X126702380Y-86166666D01*
X126750000Y-86071428D01*
X126845238Y-85976190D01*
X127035714Y-85928571D01*
X127369047Y-85928571D01*
X127559523Y-85976190D01*
X127654761Y-86071428D01*
X127702380Y-86166666D01*
X127702380Y-86357142D01*
X127654761Y-86452380D01*
X127559523Y-86547619D01*
X127369047Y-86595238D01*
X127035714Y-86595238D01*
X126845238Y-86547619D01*
X126750000Y-86452380D01*
X126702380Y-86357142D01*
X127702380Y-85500000D02*
X126702380Y-85500000D01*
X126702380Y-85119047D01*
X126750000Y-85023809D01*
X126797619Y-84976190D01*
X126892857Y-84928571D01*
X127035714Y-84928571D01*
X127130952Y-84976190D01*
X127178571Y-85023809D01*
X127226190Y-85119047D01*
X127226190Y-85500000D01*
X127797619Y-84738095D02*
X127797619Y-83976190D01*
X127702380Y-83738095D02*
X126702380Y-83738095D01*
X127702380Y-83261904D02*
X126702380Y-83261904D01*
X127702380Y-82690476D01*
X126702380Y-82690476D01*
X126702380Y-82357142D02*
X126702380Y-81785714D01*
X127702380Y-82071428D02*
X126702380Y-82071428D01*
X138702380Y-81321428D02*
X137702380Y-81321428D01*
X137702380Y-80940476D01*
X137750000Y-80845238D01*
X137797619Y-80797619D01*
X137892857Y-80750000D01*
X138035714Y-80750000D01*
X138130952Y-80797619D01*
X138178571Y-80845238D01*
X138226190Y-80940476D01*
X138226190Y-81321428D01*
X137702380Y-80416666D02*
X138702380Y-80178571D01*
X137988095Y-79988095D01*
X138702380Y-79797619D01*
X137702380Y-79559523D01*
X138702380Y-78607142D02*
X138226190Y-78940476D01*
X138702380Y-79178571D02*
X137702380Y-79178571D01*
X137702380Y-78797619D01*
X137750000Y-78702380D01*
X137797619Y-78654761D01*
X137892857Y-78607142D01*
X138035714Y-78607142D01*
X138130952Y-78654761D01*
X138178571Y-78702380D01*
X138226190Y-78797619D01*
X138226190Y-79178571D01*
X138797619Y-78416666D02*
X138797619Y-77654761D01*
X138702380Y-76940476D02*
X138702380Y-77416666D01*
X137702380Y-77416666D01*
X138178571Y-76607142D02*
X138178571Y-76273809D01*
X138702380Y-76130952D02*
X138702380Y-76607142D01*
X137702380Y-76607142D01*
X137702380Y-76130952D01*
X138702380Y-75702380D02*
X137702380Y-75702380D01*
X137702380Y-75464285D01*
X137750000Y-75321428D01*
X137845238Y-75226190D01*
X137940476Y-75178571D01*
X138130952Y-75130952D01*
X138273809Y-75130952D01*
X138464285Y-75178571D01*
X138559523Y-75226190D01*
X138654761Y-75321428D01*
X138702380Y-75464285D01*
X138702380Y-75702380D01*
D13*
X131154761Y-38392857D02*
X131250000Y-38250000D01*
X131440476Y-38107142D01*
X131916666Y-38107142D01*
X132107142Y-38250000D01*
X132202380Y-38392857D01*
X132297619Y-38678571D01*
X132297619Y-38964285D01*
X132202380Y-39392857D01*
X131059523Y-41107142D01*
X132297619Y-41107142D01*
X133059523Y-38392857D02*
X133154761Y-38250000D01*
X133345238Y-38107142D01*
X133821428Y-38107142D01*
X134011904Y-38250000D01*
X134107142Y-38392857D01*
X134202380Y-38678571D01*
X134202380Y-38964285D01*
X134107142Y-39392857D01*
X132964285Y-41107142D01*
X134202380Y-41107142D01*
X135440476Y-38107142D02*
X135630952Y-38107142D01*
X135821428Y-38250000D01*
X135916666Y-38392857D01*
X136011904Y-38678571D01*
X136107142Y-39250000D01*
X136107142Y-39964285D01*
X136011904Y-40535714D01*
X135916666Y-40821428D01*
X135821428Y-40964285D01*
X135630952Y-41107142D01*
X135440476Y-41107142D01*
X135250000Y-40964285D01*
X135154761Y-40821428D01*
X135059523Y-40535714D01*
X134964285Y-39964285D01*
X134964285Y-39250000D01*
X135059523Y-38678571D01*
X135154761Y-38392857D01*
X135250000Y-38250000D01*
X135440476Y-38107142D01*
X136488095Y-41392857D02*
X138011904Y-41392857D01*
X138869047Y-38107142D02*
X139250000Y-38107142D01*
X139440476Y-38250000D01*
X139630952Y-38535714D01*
X139726190Y-39107142D01*
X139726190Y-40107142D01*
X139630952Y-40678571D01*
X139440476Y-40964285D01*
X139250000Y-41107142D01*
X138869047Y-41107142D01*
X138678571Y-40964285D01*
X138488095Y-40678571D01*
X138392857Y-40107142D01*
X138392857Y-39107142D01*
X138488095Y-38535714D01*
X138678571Y-38250000D01*
X138869047Y-38107142D01*
X140583333Y-38107142D02*
X140583333Y-40535714D01*
X140678571Y-40821428D01*
X140773809Y-40964285D01*
X140964285Y-41107142D01*
X141345238Y-41107142D01*
X141535714Y-40964285D01*
X141630952Y-40821428D01*
X141726190Y-40535714D01*
X141726190Y-38107142D01*
X142392857Y-38107142D02*
X143535714Y-38107142D01*
X142964285Y-41107142D02*
X142964285Y-38107142D01*
D12*
X137952380Y-70095238D02*
X137952380Y-70666666D01*
X137952380Y-70380952D02*
X136952380Y-70380952D01*
X137095238Y-70476190D01*
X137190476Y-70571428D01*
X137238095Y-70666666D01*
X137047619Y-69714285D02*
X137000000Y-69666666D01*
X136952380Y-69571428D01*
X136952380Y-69333333D01*
X137000000Y-69238095D01*
X137047619Y-69190476D01*
X137142857Y-69142857D01*
X137238095Y-69142857D01*
X137380952Y-69190476D01*
X137952380Y-69761904D01*
X137952380Y-69142857D01*
X136904761Y-68000000D02*
X138190476Y-68857142D01*
X137047619Y-67714285D02*
X137000000Y-67666666D01*
X136952380Y-67571428D01*
X136952380Y-67333333D01*
X137000000Y-67238095D01*
X137047619Y-67190476D01*
X137142857Y-67142857D01*
X137238095Y-67142857D01*
X137380952Y-67190476D01*
X137952380Y-67761904D01*
X137952380Y-67142857D01*
X137285714Y-66285714D02*
X137952380Y-66285714D01*
X136904761Y-66523809D02*
X137619047Y-66761904D01*
X137619047Y-66142857D01*
X136952380Y-65904761D02*
X137952380Y-65571428D01*
X136952380Y-65238095D01*
X127952380Y-79607142D02*
X126952380Y-79607142D01*
X126952380Y-79226190D01*
X127000000Y-79130952D01*
X127047619Y-79083333D01*
X127142857Y-79035714D01*
X127285714Y-79035714D01*
X127380952Y-79083333D01*
X127428571Y-79130952D01*
X127476190Y-79226190D01*
X127476190Y-79607142D01*
X126952380Y-78702380D02*
X127952380Y-78464285D01*
X127238095Y-78273809D01*
X127952380Y-78083333D01*
X126952380Y-77845238D01*
X127952380Y-76892857D02*
X127476190Y-77226190D01*
X127952380Y-77464285D02*
X126952380Y-77464285D01*
X126952380Y-77083333D01*
X127000000Y-76988095D01*
X127047619Y-76940476D01*
X127142857Y-76892857D01*
X127285714Y-76892857D01*
X127380952Y-76940476D01*
X127428571Y-76988095D01*
X127476190Y-77083333D01*
X127476190Y-77464285D01*
X128047619Y-76702380D02*
X128047619Y-75940476D01*
X126952380Y-75845238D02*
X127952380Y-75511904D01*
X126952380Y-75178571D01*
X128047619Y-75083333D02*
X128047619Y-74321428D01*
X127904761Y-74130952D02*
X127952380Y-73988095D01*
X127952380Y-73750000D01*
X127904761Y-73654761D01*
X127857142Y-73607142D01*
X127761904Y-73559523D01*
X127666666Y-73559523D01*
X127571428Y-73607142D01*
X127523809Y-73654761D01*
X127476190Y-73750000D01*
X127428571Y-73940476D01*
X127380952Y-74035714D01*
X127333333Y-74083333D01*
X127238095Y-74130952D01*
X127142857Y-74130952D01*
X127047619Y-74083333D01*
X127000000Y-74035714D01*
X126952380Y-73940476D01*
X126952380Y-73702380D01*
X127000000Y-73559523D01*
X127428571Y-73130952D02*
X127428571Y-72797619D01*
X127952380Y-72654761D02*
X127952380Y-73130952D01*
X126952380Y-73130952D01*
X126952380Y-72654761D01*
X127952380Y-71750000D02*
X127952380Y-72226190D01*
X126952380Y-72226190D01*
X89595238Y-94857142D02*
X89547619Y-94904761D01*
X89404761Y-94952380D01*
X89309523Y-94952380D01*
X89166666Y-94904761D01*
X89071428Y-94809523D01*
X89023809Y-94714285D01*
X88976190Y-94523809D01*
X88976190Y-94380952D01*
X89023809Y-94190476D01*
X89071428Y-94095238D01*
X89166666Y-94000000D01*
X89309523Y-93952380D01*
X89404761Y-93952380D01*
X89547619Y-94000000D01*
X89595238Y-94047619D01*
X90023809Y-94952380D02*
X90023809Y-93952380D01*
X90357142Y-94666666D01*
X90690476Y-93952380D01*
X90690476Y-94952380D01*
X91166666Y-94952380D02*
X91166666Y-93952380D01*
X91404761Y-93952380D01*
X91547619Y-94000000D01*
X91642857Y-94095238D01*
X91690476Y-94190476D01*
X91738095Y-94380952D01*
X91738095Y-94523809D01*
X91690476Y-94714285D01*
X91642857Y-94809523D01*
X91547619Y-94904761D01*
X91404761Y-94952380D01*
X91166666Y-94952380D01*
X91928571Y-95047619D02*
X92690476Y-95047619D01*
X92928571Y-94952380D02*
X92928571Y-93952380D01*
X93404761Y-94952380D02*
X93404761Y-93952380D01*
X93976190Y-94952380D01*
X93976190Y-93952380D01*
X114714285Y-92357142D02*
X114666666Y-92404761D01*
X114523809Y-92452380D01*
X114428571Y-92452380D01*
X114285714Y-92404761D01*
X114190476Y-92309523D01*
X114142857Y-92214285D01*
X114095238Y-92023809D01*
X114095238Y-91880952D01*
X114142857Y-91690476D01*
X114190476Y-91595238D01*
X114285714Y-91500000D01*
X114428571Y-91452380D01*
X114523809Y-91452380D01*
X114666666Y-91500000D01*
X114714285Y-91547619D01*
X115142857Y-92452380D02*
X115142857Y-91452380D01*
X115476190Y-92166666D01*
X115809523Y-91452380D01*
X115809523Y-92452380D01*
X116285714Y-92452380D02*
X116285714Y-91452380D01*
X116523809Y-91452380D01*
X116666666Y-91500000D01*
X116761904Y-91595238D01*
X116809523Y-91690476D01*
X116857142Y-91880952D01*
X116857142Y-92023809D01*
X116809523Y-92214285D01*
X116761904Y-92309523D01*
X116666666Y-92404761D01*
X116523809Y-92452380D01*
X116285714Y-92452380D01*
X117047619Y-92547619D02*
X117809523Y-92547619D01*
X117904761Y-91452380D02*
X118238095Y-92452380D01*
X118571428Y-91452380D01*
X118666666Y-92547619D02*
X119428571Y-92547619D01*
X119619047Y-92404761D02*
X119761904Y-92452380D01*
X120000000Y-92452380D01*
X120095238Y-92404761D01*
X120142857Y-92357142D01*
X120190476Y-92261904D01*
X120190476Y-92166666D01*
X120142857Y-92071428D01*
X120095238Y-92023809D01*
X120000000Y-91976190D01*
X119809523Y-91928571D01*
X119714285Y-91880952D01*
X119666666Y-91833333D01*
X119619047Y-91738095D01*
X119619047Y-91642857D01*
X119666666Y-91547619D01*
X119714285Y-91500000D01*
X119809523Y-91452380D01*
X120047619Y-91452380D01*
X120190476Y-91500000D01*
X120619047Y-91928571D02*
X120952380Y-91928571D01*
X121095238Y-92452380D02*
X120619047Y-92452380D01*
X120619047Y-91452380D01*
X121095238Y-91452380D01*
X122000000Y-92452380D02*
X121523809Y-92452380D01*
X121523809Y-91452380D01*
X104428571Y-94857142D02*
X104380952Y-94904761D01*
X104238095Y-94952380D01*
X104142857Y-94952380D01*
X104000000Y-94904761D01*
X103904761Y-94809523D01*
X103857142Y-94714285D01*
X103809523Y-94523809D01*
X103809523Y-94380952D01*
X103857142Y-94190476D01*
X103904761Y-94095238D01*
X104000000Y-94000000D01*
X104142857Y-93952380D01*
X104238095Y-93952380D01*
X104380952Y-94000000D01*
X104428571Y-94047619D01*
X104857142Y-94952380D02*
X104857142Y-93952380D01*
X105190476Y-94666666D01*
X105523809Y-93952380D01*
X105523809Y-94952380D01*
X106000000Y-94952380D02*
X106000000Y-93952380D01*
X106238095Y-93952380D01*
X106380952Y-94000000D01*
X106476190Y-94095238D01*
X106523809Y-94190476D01*
X106571428Y-94380952D01*
X106571428Y-94523809D01*
X106523809Y-94714285D01*
X106476190Y-94809523D01*
X106380952Y-94904761D01*
X106238095Y-94952380D01*
X106000000Y-94952380D01*
X106761904Y-95047619D02*
X107523809Y-95047619D01*
X107952380Y-93952380D02*
X108142857Y-93952380D01*
X108238095Y-94000000D01*
X108333333Y-94095238D01*
X108380952Y-94285714D01*
X108380952Y-94619047D01*
X108333333Y-94809523D01*
X108238095Y-94904761D01*
X108142857Y-94952380D01*
X107952380Y-94952380D01*
X107857142Y-94904761D01*
X107761904Y-94809523D01*
X107714285Y-94619047D01*
X107714285Y-94285714D01*
X107761904Y-94095238D01*
X107857142Y-94000000D01*
X107952380Y-93952380D01*
X108809523Y-93952380D02*
X108809523Y-94761904D01*
X108857142Y-94857142D01*
X108904761Y-94904761D01*
X109000000Y-94952380D01*
X109190476Y-94952380D01*
X109285714Y-94904761D01*
X109333333Y-94857142D01*
X109380952Y-94761904D01*
X109380952Y-93952380D01*
X109714285Y-93952380D02*
X110285714Y-93952380D01*
X110000000Y-94952380D02*
X110000000Y-93952380D01*
D13*
X99488095Y-42642857D02*
X99583333Y-42500000D01*
X99773809Y-42357142D01*
X100250000Y-42357142D01*
X100440476Y-42500000D01*
X100535714Y-42642857D01*
X100630952Y-42928571D01*
X100630952Y-43214285D01*
X100535714Y-43642857D01*
X99392857Y-45357142D01*
X100630952Y-45357142D01*
X101392857Y-42642857D02*
X101488095Y-42500000D01*
X101678571Y-42357142D01*
X102154761Y-42357142D01*
X102345238Y-42500000D01*
X102440476Y-42642857D01*
X102535714Y-42928571D01*
X102535714Y-43214285D01*
X102440476Y-43642857D01*
X101297619Y-45357142D01*
X102535714Y-45357142D01*
X103773809Y-42357142D02*
X103964285Y-42357142D01*
X104154761Y-42500000D01*
X104250000Y-42642857D01*
X104345238Y-42928571D01*
X104440476Y-43500000D01*
X104440476Y-44214285D01*
X104345238Y-44785714D01*
X104250000Y-45071428D01*
X104154761Y-45214285D01*
X103964285Y-45357142D01*
X103773809Y-45357142D01*
X103583333Y-45214285D01*
X103488095Y-45071428D01*
X103392857Y-44785714D01*
X103297619Y-44214285D01*
X103297619Y-43500000D01*
X103392857Y-42928571D01*
X103488095Y-42642857D01*
X103583333Y-42500000D01*
X103773809Y-42357142D01*
X106821428Y-45357142D02*
X106821428Y-42357142D01*
X107773809Y-45357142D02*
X107773809Y-42357142D01*
X108916666Y-45357142D01*
X108916666Y-42357142D01*
D12*
X138452380Y-97869047D02*
X137452380Y-97869047D01*
X137452380Y-97488095D01*
X137500000Y-97392857D01*
X137547619Y-97345238D01*
X137642857Y-97297619D01*
X137785714Y-97297619D01*
X137880952Y-97345238D01*
X137928571Y-97392857D01*
X137976190Y-97488095D01*
X137976190Y-97869047D01*
X137452380Y-96964285D02*
X138452380Y-96726190D01*
X137738095Y-96535714D01*
X138452380Y-96345238D01*
X137452380Y-96107142D01*
X138452380Y-95154761D02*
X137976190Y-95488095D01*
X138452380Y-95726190D02*
X137452380Y-95726190D01*
X137452380Y-95345238D01*
X137500000Y-95250000D01*
X137547619Y-95202380D01*
X137642857Y-95154761D01*
X137785714Y-95154761D01*
X137880952Y-95202380D01*
X137928571Y-95250000D01*
X137976190Y-95345238D01*
X137976190Y-95726190D01*
X138547619Y-94964285D02*
X138547619Y-94202380D01*
X137928571Y-93630952D02*
X137976190Y-93488095D01*
X138023809Y-93440476D01*
X138119047Y-93392857D01*
X138261904Y-93392857D01*
X138357142Y-93440476D01*
X138404761Y-93488095D01*
X138452380Y-93583333D01*
X138452380Y-93964285D01*
X137452380Y-93964285D01*
X137452380Y-93630952D01*
X137500000Y-93535714D01*
X137547619Y-93488095D01*
X137642857Y-93440476D01*
X137738095Y-93440476D01*
X137833333Y-93488095D01*
X137880952Y-93535714D01*
X137928571Y-93630952D01*
X137928571Y-93964285D01*
X137452380Y-93107142D02*
X137452380Y-92535714D01*
X138452380Y-92821428D02*
X137452380Y-92821428D01*
X138452380Y-92202380D02*
X137452380Y-92202380D01*
X138452380Y-91630952D01*
X137452380Y-91630952D01*
X137928571Y-88797619D02*
X137928571Y-88464285D01*
X138452380Y-88321428D02*
X138452380Y-88797619D01*
X137452380Y-88797619D01*
X137452380Y-88321428D01*
X138452380Y-87892857D02*
X137452380Y-87892857D01*
X138166666Y-87559523D01*
X137452380Y-87226190D01*
X138452380Y-87226190D01*
X138547619Y-86988095D02*
X138547619Y-86226190D01*
X138404761Y-86035714D02*
X138452380Y-85892857D01*
X138452380Y-85654761D01*
X138404761Y-85559523D01*
X138357142Y-85511904D01*
X138261904Y-85464285D01*
X138166666Y-85464285D01*
X138071428Y-85511904D01*
X138023809Y-85559523D01*
X137976190Y-85654761D01*
X137928571Y-85845238D01*
X137880952Y-85940476D01*
X137833333Y-85988095D01*
X137738095Y-86035714D01*
X137642857Y-86035714D01*
X137547619Y-85988095D01*
X137500000Y-85940476D01*
X137452380Y-85845238D01*
X137452380Y-85607142D01*
X137500000Y-85464285D01*
X137452380Y-85178571D02*
X137452380Y-84607142D01*
X138452380Y-84892857D02*
X137452380Y-84892857D01*
X137452380Y-84083333D02*
X137452380Y-83892857D01*
X137500000Y-83797619D01*
X137595238Y-83702380D01*
X137785714Y-83654761D01*
X138119047Y-83654761D01*
X138309523Y-83702380D01*
X138404761Y-83797619D01*
X138452380Y-83892857D01*
X138452380Y-84083333D01*
X138404761Y-84178571D01*
X138309523Y-84273809D01*
X138119047Y-84321428D01*
X137785714Y-84321428D01*
X137595238Y-84273809D01*
X137500000Y-84178571D01*
X137452380Y-84083333D01*
X138452380Y-83226190D02*
X137452380Y-83226190D01*
X137452380Y-82845238D01*
X137500000Y-82750000D01*
X137547619Y-82702380D01*
X137642857Y-82654761D01*
X137785714Y-82654761D01*
X137880952Y-82702380D01*
X137928571Y-82750000D01*
X137976190Y-82845238D01*
X137976190Y-83226190D01*
X138154761Y-62964285D02*
X138202380Y-62821428D01*
X138202380Y-62583333D01*
X138154761Y-62488095D01*
X138107142Y-62440476D01*
X138011904Y-62392857D01*
X137916666Y-62392857D01*
X137821428Y-62440476D01*
X137773809Y-62488095D01*
X137726190Y-62583333D01*
X137678571Y-62773809D01*
X137630952Y-62869047D01*
X137583333Y-62916666D01*
X137488095Y-62964285D01*
X137392857Y-62964285D01*
X137297619Y-62916666D01*
X137250000Y-62869047D01*
X137202380Y-62773809D01*
X137202380Y-62535714D01*
X137250000Y-62392857D01*
X137202380Y-62107142D02*
X137202380Y-61535714D01*
X138202380Y-61821428D02*
X137202380Y-61821428D01*
X137916666Y-61250000D02*
X137916666Y-60773809D01*
X138202380Y-61345238D02*
X137202380Y-61011904D01*
X138202380Y-60678571D01*
X137202380Y-60488095D02*
X137202380Y-59916666D01*
X138202380Y-60202380D02*
X137202380Y-60202380D01*
X137202380Y-59583333D02*
X138011904Y-59583333D01*
X138107142Y-59535714D01*
X138154761Y-59488095D01*
X138202380Y-59392857D01*
X138202380Y-59202380D01*
X138154761Y-59107142D01*
X138107142Y-59059523D01*
X138011904Y-59011904D01*
X137202380Y-59011904D01*
X138154761Y-58583333D02*
X138202380Y-58440476D01*
X138202380Y-58202380D01*
X138154761Y-58107142D01*
X138107142Y-58059523D01*
X138011904Y-58011904D01*
X137916666Y-58011904D01*
X137821428Y-58059523D01*
X137773809Y-58107142D01*
X137726190Y-58202380D01*
X137678571Y-58392857D01*
X137630952Y-58488095D01*
X137583333Y-58535714D01*
X137488095Y-58583333D01*
X137392857Y-58583333D01*
X137297619Y-58535714D01*
X137250000Y-58488095D01*
X137202380Y-58392857D01*
X137202380Y-58154761D01*
X137250000Y-58011904D01*
X138297619Y-57821428D02*
X138297619Y-57059523D01*
X138202380Y-56345238D02*
X138202380Y-56821428D01*
X137202380Y-56821428D01*
X137678571Y-56011904D02*
X137678571Y-55678571D01*
X138202380Y-55535714D02*
X138202380Y-56011904D01*
X137202380Y-56011904D01*
X137202380Y-55535714D01*
X138202380Y-55107142D02*
X137202380Y-55107142D01*
X137202380Y-54869047D01*
X137250000Y-54726190D01*
X137345238Y-54630952D01*
X137440476Y-54583333D01*
X137630952Y-54535714D01*
X137773809Y-54535714D01*
X137964285Y-54583333D01*
X138059523Y-54630952D01*
X138154761Y-54726190D01*
X138202380Y-54869047D01*
X138202380Y-55107142D01*
X132879047Y-67861428D02*
X133640952Y-67861428D01*
X133260000Y-68242380D02*
X133260000Y-67480476D01*
%LPC*%
D14*
X109500000Y-92870000D03*
X106960000Y-85250000D03*
X106960000Y-92870000D03*
D15*
X109500000Y-85250000D03*
D16*
X114090000Y-98040000D03*
X114090000Y-95500000D03*
X116630000Y-98040000D03*
X116630000Y-95500000D03*
X119170000Y-98040000D03*
X119170000Y-95500000D03*
X121710000Y-98040000D03*
X121710000Y-95500000D03*
X124250000Y-98040000D03*
D17*
X124250000Y-95500000D03*
G36*
G01*
X136728262Y-95600000D02*
X135771738Y-95600000D01*
G75*
G02*
X135500000Y-95328262I0J271738D01*
G01*
X135500000Y-94621738D01*
G75*
G02*
X135771738Y-94350000I271738J0D01*
G01*
X136728262Y-94350000D01*
G75*
G02*
X137000000Y-94621738I0J-271738D01*
G01*
X137000000Y-95328262D01*
G75*
G02*
X136728262Y-95600000I-271738J0D01*
G01*
G37*
G36*
G01*
X136728262Y-97650000D02*
X135771738Y-97650000D01*
G75*
G02*
X135500000Y-97378262I0J271738D01*
G01*
X135500000Y-96671738D01*
G75*
G02*
X135771738Y-96400000I271738J0D01*
G01*
X136728262Y-96400000D01*
G75*
G02*
X137000000Y-96671738I0J-271738D01*
G01*
X137000000Y-97378262D01*
G75*
G02*
X136728262Y-97650000I-271738J0D01*
G01*
G37*
G36*
G01*
X133478262Y-87350000D02*
X132521738Y-87350000D01*
G75*
G02*
X132250000Y-87078262I0J271738D01*
G01*
X132250000Y-86371738D01*
G75*
G02*
X132521738Y-86100000I271738J0D01*
G01*
X133478262Y-86100000D01*
G75*
G02*
X133750000Y-86371738I0J-271738D01*
G01*
X133750000Y-87078262D01*
G75*
G02*
X133478262Y-87350000I-271738J0D01*
G01*
G37*
G36*
G01*
X133478262Y-89400000D02*
X132521738Y-89400000D01*
G75*
G02*
X132250000Y-89128262I0J271738D01*
G01*
X132250000Y-88421738D01*
G75*
G02*
X132521738Y-88150000I271738J0D01*
G01*
X133478262Y-88150000D01*
G75*
G02*
X133750000Y-88421738I0J-271738D01*
G01*
X133750000Y-89128262D01*
G75*
G02*
X133478262Y-89400000I-271738J0D01*
G01*
G37*
G36*
G01*
X119271738Y-87650000D02*
X120228262Y-87650000D01*
G75*
G02*
X120500000Y-87921738I0J-271738D01*
G01*
X120500000Y-88628262D01*
G75*
G02*
X120228262Y-88900000I-271738J0D01*
G01*
X119271738Y-88900000D01*
G75*
G02*
X119000000Y-88628262I0J271738D01*
G01*
X119000000Y-87921738D01*
G75*
G02*
X119271738Y-87650000I271738J0D01*
G01*
G37*
G36*
G01*
X119271738Y-85600000D02*
X120228262Y-85600000D01*
G75*
G02*
X120500000Y-85871738I0J-271738D01*
G01*
X120500000Y-86578262D01*
G75*
G02*
X120228262Y-86850000I-271738J0D01*
G01*
X119271738Y-86850000D01*
G75*
G02*
X119000000Y-86578262I0J271738D01*
G01*
X119000000Y-85871738D01*
G75*
G02*
X119271738Y-85600000I271738J0D01*
G01*
G37*
G36*
G01*
X122600000Y-84021738D02*
X122600000Y-84978262D01*
G75*
G02*
X122328262Y-85250000I-271738J0D01*
G01*
X121621738Y-85250000D01*
G75*
G02*
X121350000Y-84978262I0J271738D01*
G01*
X121350000Y-84021738D01*
G75*
G02*
X121621738Y-83750000I271738J0D01*
G01*
X122328262Y-83750000D01*
G75*
G02*
X122600000Y-84021738I0J-271738D01*
G01*
G37*
G36*
G01*
X124650000Y-84021738D02*
X124650000Y-84978262D01*
G75*
G02*
X124378262Y-85250000I-271738J0D01*
G01*
X123671738Y-85250000D01*
G75*
G02*
X123400000Y-84978262I0J271738D01*
G01*
X123400000Y-84021738D01*
G75*
G02*
X123671738Y-83750000I271738J0D01*
G01*
X124378262Y-83750000D01*
G75*
G02*
X124650000Y-84021738I0J-271738D01*
G01*
G37*
D14*
X122370000Y-60500000D03*
D15*
X114750000Y-60500000D03*
D16*
X136000000Y-86540000D03*
D17*
X136000000Y-84000000D03*
D18*
X141250000Y-78500000D03*
G36*
G01*
X140464706Y-75100000D02*
X142035294Y-75100000D01*
G75*
G02*
X142300000Y-75364706I0J-264706D01*
G01*
X142300000Y-76635294D01*
G75*
G02*
X142035294Y-76900000I-264706J0D01*
G01*
X140464706Y-76900000D01*
G75*
G02*
X140200000Y-76635294I0J264706D01*
G01*
X140200000Y-75364706D01*
G75*
G02*
X140464706Y-75100000I264706J0D01*
G01*
G37*
D19*
X110000000Y-75170000D03*
X110000000Y-80250000D03*
X92220000Y-54850000D03*
D20*
X92220000Y-49770000D03*
D19*
X92220000Y-80250000D03*
D14*
X129130000Y-79750000D03*
X136750000Y-77210000D03*
X129130000Y-77210000D03*
D15*
X136750000Y-79750000D03*
D14*
X97500000Y-85130000D03*
X100040000Y-92750000D03*
X100040000Y-85130000D03*
D15*
X97500000Y-92750000D03*
G36*
G01*
X111770832Y-90850000D02*
X112729168Y-90850000D01*
G75*
G02*
X113000000Y-91120832I0J-270832D01*
G01*
X113000000Y-91879168D01*
G75*
G02*
X112729168Y-92150000I-270832J0D01*
G01*
X111770832Y-92150000D01*
G75*
G02*
X111500000Y-91879168I0J270832D01*
G01*
X111500000Y-91120832D01*
G75*
G02*
X111770832Y-90850000I270832J0D01*
G01*
G37*
G36*
G01*
X111770832Y-88850000D02*
X112729168Y-88850000D01*
G75*
G02*
X113000000Y-89120832I0J-270832D01*
G01*
X113000000Y-89879168D01*
G75*
G02*
X112729168Y-90150000I-270832J0D01*
G01*
X111770832Y-90150000D01*
G75*
G02*
X111500000Y-89879168I0J270832D01*
G01*
X111500000Y-89120832D01*
G75*
G02*
X111770832Y-88850000I270832J0D01*
G01*
G37*
G36*
G01*
X131229168Y-83400000D02*
X130270832Y-83400000D01*
G75*
G02*
X130000000Y-83129168I0J270832D01*
G01*
X130000000Y-82370832D01*
G75*
G02*
X130270832Y-82100000I270832J0D01*
G01*
X131229168Y-82100000D01*
G75*
G02*
X131500000Y-82370832I0J-270832D01*
G01*
X131500000Y-83129168D01*
G75*
G02*
X131229168Y-83400000I-270832J0D01*
G01*
G37*
G36*
G01*
X131229168Y-85400000D02*
X130270832Y-85400000D01*
G75*
G02*
X130000000Y-85129168I0J270832D01*
G01*
X130000000Y-84370832D01*
G75*
G02*
X130270832Y-84100000I270832J0D01*
G01*
X131229168Y-84100000D01*
G75*
G02*
X131500000Y-84370832I0J-270832D01*
G01*
X131500000Y-85129168D01*
G75*
G02*
X131229168Y-85400000I-270832J0D01*
G01*
G37*
G36*
G01*
X136729168Y-91400000D02*
X135770832Y-91400000D01*
G75*
G02*
X135500000Y-91129168I0J270832D01*
G01*
X135500000Y-90370832D01*
G75*
G02*
X135770832Y-90100000I270832J0D01*
G01*
X136729168Y-90100000D01*
G75*
G02*
X137000000Y-90370832I0J-270832D01*
G01*
X137000000Y-91129168D01*
G75*
G02*
X136729168Y-91400000I-270832J0D01*
G01*
G37*
G36*
G01*
X136729168Y-93400000D02*
X135770832Y-93400000D01*
G75*
G02*
X135500000Y-93129168I0J270832D01*
G01*
X135500000Y-92370832D01*
G75*
G02*
X135770832Y-92100000I270832J0D01*
G01*
X136729168Y-92100000D01*
G75*
G02*
X137000000Y-92370832I0J-270832D01*
G01*
X137000000Y-93129168D01*
G75*
G02*
X136729168Y-93400000I-270832J0D01*
G01*
G37*
G36*
G01*
X133479168Y-83400000D02*
X132520832Y-83400000D01*
G75*
G02*
X132250000Y-83129168I0J270832D01*
G01*
X132250000Y-82370832D01*
G75*
G02*
X132520832Y-82100000I270832J0D01*
G01*
X133479168Y-82100000D01*
G75*
G02*
X133750000Y-82370832I0J-270832D01*
G01*
X133750000Y-83129168D01*
G75*
G02*
X133479168Y-83400000I-270832J0D01*
G01*
G37*
G36*
G01*
X133479168Y-85400000D02*
X132520832Y-85400000D01*
G75*
G02*
X132250000Y-85129168I0J270832D01*
G01*
X132250000Y-84370832D01*
G75*
G02*
X132520832Y-84100000I270832J0D01*
G01*
X133479168Y-84100000D01*
G75*
G02*
X133750000Y-84370832I0J-270832D01*
G01*
X133750000Y-85129168D01*
G75*
G02*
X133479168Y-85400000I-270832J0D01*
G01*
G37*
G36*
G01*
X121100000Y-80729168D02*
X121100000Y-79770832D01*
G75*
G02*
X121370832Y-79500000I270832J0D01*
G01*
X122129168Y-79500000D01*
G75*
G02*
X122400000Y-79770832I0J-270832D01*
G01*
X122400000Y-80729168D01*
G75*
G02*
X122129168Y-81000000I-270832J0D01*
G01*
X121370832Y-81000000D01*
G75*
G02*
X121100000Y-80729168I0J270832D01*
G01*
G37*
G36*
G01*
X119100000Y-80729168D02*
X119100000Y-79770832D01*
G75*
G02*
X119370832Y-79500000I270832J0D01*
G01*
X120129168Y-79500000D01*
G75*
G02*
X120400000Y-79770832I0J-270832D01*
G01*
X120400000Y-80729168D01*
G75*
G02*
X120129168Y-81000000I-270832J0D01*
G01*
X119370832Y-81000000D01*
G75*
G02*
X119100000Y-80729168I0J270832D01*
G01*
G37*
G36*
G01*
X120150000Y-71770832D02*
X120150000Y-72729168D01*
G75*
G02*
X119879168Y-73000000I-270832J0D01*
G01*
X119120832Y-73000000D01*
G75*
G02*
X118850000Y-72729168I0J270832D01*
G01*
X118850000Y-71770832D01*
G75*
G02*
X119120832Y-71500000I270832J0D01*
G01*
X119879168Y-71500000D01*
G75*
G02*
X120150000Y-71770832I0J-270832D01*
G01*
G37*
G36*
G01*
X122150000Y-71770832D02*
X122150000Y-72729168D01*
G75*
G02*
X121879168Y-73000000I-270832J0D01*
G01*
X121120832Y-73000000D01*
G75*
G02*
X120850000Y-72729168I0J270832D01*
G01*
X120850000Y-71770832D01*
G75*
G02*
X121120832Y-71500000I270832J0D01*
G01*
X121879168Y-71500000D01*
G75*
G02*
X122150000Y-71770832I0J-270832D01*
G01*
G37*
G36*
G01*
X120400000Y-81770832D02*
X120400000Y-82729168D01*
G75*
G02*
X120129168Y-83000000I-270832J0D01*
G01*
X119370832Y-83000000D01*
G75*
G02*
X119100000Y-82729168I0J270832D01*
G01*
X119100000Y-81770832D01*
G75*
G02*
X119370832Y-81500000I270832J0D01*
G01*
X120129168Y-81500000D01*
G75*
G02*
X120400000Y-81770832I0J-270832D01*
G01*
G37*
G36*
G01*
X122400000Y-81770832D02*
X122400000Y-82729168D01*
G75*
G02*
X122129168Y-83000000I-270832J0D01*
G01*
X121370832Y-83000000D01*
G75*
G02*
X121100000Y-82729168I0J270832D01*
G01*
X121100000Y-81770832D01*
G75*
G02*
X121370832Y-81500000I270832J0D01*
G01*
X122129168Y-81500000D01*
G75*
G02*
X122400000Y-81770832I0J-270832D01*
G01*
G37*
G36*
G01*
X117270832Y-75600000D02*
X118229168Y-75600000D01*
G75*
G02*
X118500000Y-75870832I0J-270832D01*
G01*
X118500000Y-76629168D01*
G75*
G02*
X118229168Y-76900000I-270832J0D01*
G01*
X117270832Y-76900000D01*
G75*
G02*
X117000000Y-76629168I0J270832D01*
G01*
X117000000Y-75870832D01*
G75*
G02*
X117270832Y-75600000I270832J0D01*
G01*
G37*
G36*
G01*
X117270832Y-73600000D02*
X118229168Y-73600000D01*
G75*
G02*
X118500000Y-73870832I0J-270832D01*
G01*
X118500000Y-74629168D01*
G75*
G02*
X118229168Y-74900000I-270832J0D01*
G01*
X117270832Y-74900000D01*
G75*
G02*
X117000000Y-74629168I0J270832D01*
G01*
X117000000Y-73870832D01*
G75*
G02*
X117270832Y-73600000I270832J0D01*
G01*
G37*
G36*
G01*
X121100000Y-76729168D02*
X121100000Y-75770832D01*
G75*
G02*
X121370832Y-75500000I270832J0D01*
G01*
X122129168Y-75500000D01*
G75*
G02*
X122400000Y-75770832I0J-270832D01*
G01*
X122400000Y-76729168D01*
G75*
G02*
X122129168Y-77000000I-270832J0D01*
G01*
X121370832Y-77000000D01*
G75*
G02*
X121100000Y-76729168I0J270832D01*
G01*
G37*
G36*
G01*
X119100000Y-76729168D02*
X119100000Y-75770832D01*
G75*
G02*
X119370832Y-75500000I270832J0D01*
G01*
X120129168Y-75500000D01*
G75*
G02*
X120400000Y-75770832I0J-270832D01*
G01*
X120400000Y-76729168D01*
G75*
G02*
X120129168Y-77000000I-270832J0D01*
G01*
X119370832Y-77000000D01*
G75*
G02*
X119100000Y-76729168I0J270832D01*
G01*
G37*
G36*
G01*
X120400000Y-77770832D02*
X120400000Y-78729168D01*
G75*
G02*
X120129168Y-79000000I-270832J0D01*
G01*
X119370832Y-79000000D01*
G75*
G02*
X119100000Y-78729168I0J270832D01*
G01*
X119100000Y-77770832D01*
G75*
G02*
X119370832Y-77500000I270832J0D01*
G01*
X120129168Y-77500000D01*
G75*
G02*
X120400000Y-77770832I0J-270832D01*
G01*
G37*
G36*
G01*
X122400000Y-77770832D02*
X122400000Y-78729168D01*
G75*
G02*
X122129168Y-79000000I-270832J0D01*
G01*
X121370832Y-79000000D01*
G75*
G02*
X121100000Y-78729168I0J270832D01*
G01*
X121100000Y-77770832D01*
G75*
G02*
X121370832Y-77500000I270832J0D01*
G01*
X122129168Y-77500000D01*
G75*
G02*
X122400000Y-77770832I0J-270832D01*
G01*
G37*
G36*
G01*
X123350000Y-86979168D02*
X123350000Y-86020832D01*
G75*
G02*
X123620832Y-85750000I270832J0D01*
G01*
X124379168Y-85750000D01*
G75*
G02*
X124650000Y-86020832I0J-270832D01*
G01*
X124650000Y-86979168D01*
G75*
G02*
X124379168Y-87250000I-270832J0D01*
G01*
X123620832Y-87250000D01*
G75*
G02*
X123350000Y-86979168I0J270832D01*
G01*
G37*
G36*
G01*
X121350000Y-86979168D02*
X121350000Y-86020832D01*
G75*
G02*
X121620832Y-85750000I270832J0D01*
G01*
X122379168Y-85750000D01*
G75*
G02*
X122650000Y-86020832I0J-270832D01*
G01*
X122650000Y-86979168D01*
G75*
G02*
X122379168Y-87250000I-270832J0D01*
G01*
X121620832Y-87250000D01*
G75*
G02*
X121350000Y-86979168I0J270832D01*
G01*
G37*
D21*
X124750000Y-78250000D03*
X125700000Y-80250000D03*
X123800000Y-80250000D03*
X120500000Y-68250000D03*
X121450000Y-70250000D03*
X119550000Y-70250000D03*
X124250000Y-72500000D03*
X125200000Y-74500000D03*
X123300000Y-74500000D03*
D22*
X131750000Y-56250000D03*
X119550000Y-56250000D03*
X119550000Y-44250000D03*
X131750000Y-44250000D03*
D23*
X133750000Y-50250000D03*
D24*
X117500000Y-37000000D03*
X122500000Y-37000000D03*
D23*
X127500000Y-37000000D03*
D18*
X141250000Y-69250000D03*
G36*
G01*
X140464706Y-65850000D02*
X142035294Y-65850000D01*
G75*
G02*
X142300000Y-66114706I0J-264706D01*
G01*
X142300000Y-67385294D01*
G75*
G02*
X142035294Y-67650000I-264706J0D01*
G01*
X140464706Y-67650000D01*
G75*
G02*
X140200000Y-67385294I0J264706D01*
G01*
X140200000Y-66114706D01*
G75*
G02*
X140464706Y-65850000I264706J0D01*
G01*
G37*
D16*
X136080000Y-73500000D03*
X133540000Y-73500000D03*
D17*
X131000000Y-73500000D03*
D25*
X92000000Y-97750000D03*
X94500000Y-97750000D03*
G36*
G01*
X97900000Y-96989706D02*
X97900000Y-98510294D01*
G75*
G02*
X97635294Y-98775000I-264706J0D01*
G01*
X96364706Y-98775000D01*
G75*
G02*
X96100000Y-98510294I0J264706D01*
G01*
X96100000Y-96989706D01*
G75*
G02*
X96364706Y-96725000I264706J0D01*
G01*
X97635294Y-96725000D01*
G75*
G02*
X97900000Y-96989706I0J-264706D01*
G01*
G37*
D16*
X103500000Y-91080000D03*
X103500000Y-88540000D03*
D17*
X103500000Y-86000000D03*
D25*
X103500000Y-97750000D03*
X106000000Y-97750000D03*
G36*
G01*
X109400000Y-96989706D02*
X109400000Y-98510294D01*
G75*
G02*
X109135294Y-98775000I-264706J0D01*
G01*
X107864706Y-98775000D01*
G75*
G02*
X107600000Y-98510294I0J264706D01*
G01*
X107600000Y-96989706D01*
G75*
G02*
X107864706Y-96725000I264706J0D01*
G01*
X109135294Y-96725000D01*
G75*
G02*
X109400000Y-96989706I0J-264706D01*
G01*
G37*
D24*
X100750000Y-37000000D03*
X105750000Y-37000000D03*
D23*
X110750000Y-37000000D03*
D18*
X141250000Y-97000000D03*
G36*
G01*
X140464706Y-93600000D02*
X142035294Y-93600000D01*
G75*
G02*
X142300000Y-93864706I0J-264706D01*
G01*
X142300000Y-95135294D01*
G75*
G02*
X142035294Y-95400000I-264706J0D01*
G01*
X140464706Y-95400000D01*
G75*
G02*
X140200000Y-95135294I0J264706D01*
G01*
X140200000Y-93864706D01*
G75*
G02*
X140464706Y-93600000I264706J0D01*
G01*
G37*
X141250000Y-87750000D03*
G36*
G01*
X140464706Y-84350000D02*
X142035294Y-84350000D01*
G75*
G02*
X142300000Y-84614706I0J-264706D01*
G01*
X142300000Y-85885294D01*
G75*
G02*
X142035294Y-86150000I-264706J0D01*
G01*
X140464706Y-86150000D01*
G75*
G02*
X140200000Y-85885294I0J264706D01*
G01*
X140200000Y-84614706D01*
G75*
G02*
X140464706Y-84350000I264706J0D01*
G01*
G37*
X141250000Y-60000000D03*
G36*
G01*
X140464706Y-56600000D02*
X142035294Y-56600000D01*
G75*
G02*
X142300000Y-56864706I0J-264706D01*
G01*
X142300000Y-58135294D01*
G75*
G02*
X142035294Y-58400000I-264706J0D01*
G01*
X140464706Y-58400000D01*
G75*
G02*
X140200000Y-58135294I0J264706D01*
G01*
X140200000Y-56864706D01*
G75*
G02*
X140464706Y-56600000I264706J0D01*
G01*
G37*
G36*
G01*
X115541667Y-69575000D02*
X117458333Y-69575000D01*
G75*
G02*
X117725000Y-69841667I0J-266667D01*
G01*
X117725000Y-70908333D01*
G75*
G02*
X117458333Y-71175000I-266667J0D01*
G01*
X115541667Y-71175000D01*
G75*
G02*
X115275000Y-70908333I0J266667D01*
G01*
X115275000Y-69841667D01*
G75*
G02*
X115541667Y-69575000I266667J0D01*
G01*
G37*
G36*
G01*
X115541667Y-66325000D02*
X117458333Y-66325000D01*
G75*
G02*
X117725000Y-66591667I0J-266667D01*
G01*
X117725000Y-67658333D01*
G75*
G02*
X117458333Y-67925000I-266667J0D01*
G01*
X115541667Y-67925000D01*
G75*
G02*
X115275000Y-67658333I0J266667D01*
G01*
X115275000Y-66591667D01*
G75*
G02*
X115541667Y-66325000I266667J0D01*
G01*
G37*
D26*
X125650000Y-65250000D03*
D27*
X133250000Y-65250000D03*
M02*
