G04 #@! TF.GenerationSoftware,KiCad,Pcbnew,(5.1.6)-1*
G04 #@! TF.CreationDate,2021-05-04T19:23:39+03:00*
G04 #@! TF.ProjectId,APC,4150432e-6b69-4636-9164-5f7063625858,rev?*
G04 #@! TF.SameCoordinates,Original*
G04 #@! TF.FileFunction,Profile,NP*
%FSLAX46Y46*%
G04 Gerber Fmt 4.6, Leading zero omitted, Abs format (unit mm)*
G04 Created by KiCad (PCBNEW (5.1.6)-1) date 2021-05-04 19:23:39*
%MOMM*%
%LPD*%
G01*
G04 APERTURE LIST*
G04 #@! TA.AperFunction,Profile*
%ADD10C,0.050000*%
G04 #@! TD*
G04 APERTURE END LIST*
D10*
X116500000Y-59000000D02*
G75*
G02*
X116500000Y-58000000I0J500000D01*
G01*
X122500000Y-58000000D02*
G75*
G02*
X122500000Y-59000000I0J-500000D01*
G01*
X116500000Y-59000000D02*
X119500000Y-59000000D01*
X119500000Y-58000000D02*
X116500000Y-58000000D01*
X122500000Y-58000000D02*
X119500000Y-58000000D01*
X119500000Y-59000000D02*
X122500000Y-59000000D01*
X89250000Y-100500000D02*
G75*
G02*
X88250000Y-99500000I0J1000000D01*
G01*
X144000000Y-99500000D02*
G75*
G02*
X143000000Y-100500000I-1000000J0D01*
G01*
X93850000Y-34000000D02*
G75*
G03*
X93850000Y-34000000I-1600000J0D01*
G01*
X141600000Y-34000000D02*
G75*
G03*
X141600000Y-34000000I-1600000J0D01*
G01*
X93850000Y-91000000D02*
G75*
G03*
X93850000Y-91000000I-1600000J0D01*
G01*
X92250000Y-30000000D02*
X140000000Y-30000000D01*
X88250000Y-34000000D02*
G75*
G02*
X92250000Y-30000000I4000000J0D01*
G01*
X88250000Y-99500000D02*
X88250000Y-34000000D01*
X89250000Y-100500000D02*
X143000000Y-100500000D01*
X140000000Y-30000000D02*
G75*
G02*
X144000000Y-34000000I0J-4000000D01*
G01*
X144000000Y-99500000D02*
X144000000Y-34000000D01*
X131850000Y-96500000D02*
G75*
G03*
X131850000Y-96500000I-1600000J0D01*
G01*
X136000000Y-51750000D02*
G75*
G02*
X135500000Y-52250000I-500000J0D01*
G01*
X135500000Y-48250000D02*
G75*
G02*
X136000000Y-48750000I0J-500000D01*
G01*
X136000000Y-51750000D02*
X136000000Y-48750000D01*
X136000000Y-46750000D02*
G75*
G02*
X137500000Y-48250000I0J-1500000D01*
G01*
X137500000Y-52250000D02*
G75*
G02*
X136000000Y-53750000I-1500000J0D01*
G01*
X129500000Y-53750000D02*
G75*
G02*
X129500000Y-52250000I0J750000D01*
G01*
X129500000Y-48250000D02*
G75*
G02*
X129500000Y-46750000I0J750000D01*
G01*
X136000000Y-53750000D02*
X129500000Y-53750000D01*
X137500000Y-48250000D02*
X137500000Y-52250000D01*
X129500000Y-46750000D02*
X136000000Y-46750000D01*
X135500000Y-52250000D02*
X129500000Y-52250000D01*
X129500000Y-48250000D02*
X135500000Y-48250000D01*
M02*
