G04 #@! TF.GenerationSoftware,KiCad,Pcbnew,(5.1.6)-1*
G04 #@! TF.CreationDate,2021-05-04T19:23:38+03:00*
G04 #@! TF.ProjectId,APC,4150432e-6b69-4636-9164-5f7063625858,rev?*
G04 #@! TF.SameCoordinates,Original*
G04 #@! TF.FileFunction,Soldermask,Top*
G04 #@! TF.FilePolarity,Negative*
%FSLAX46Y46*%
G04 Gerber Fmt 4.6, Leading zero omitted, Abs format (unit mm)*
G04 Created by KiCad (PCBNEW (5.1.6)-1) date 2021-05-04 19:23:38*
%MOMM*%
%LPD*%
G01*
G04 APERTURE LIST*
%ADD10O,1.700000X1.700000*%
%ADD11R,1.700000X1.700000*%
%ADD12O,1.800000X1.800000*%
%ADD13R,1.800000X1.800000*%
%ADD14O,2.100000X1.800000*%
%ADD15C,2.400000*%
%ADD16R,2.400000X2.100000*%
%ADD17R,0.900000X1.000000*%
%ADD18O,2.600000X2.600000*%
%ADD19R,2.600000X2.600000*%
%ADD20C,2.600000*%
%ADD21O,1.800000X2.050000*%
%ADD22C,2.100000*%
%ADD23R,2.100000X2.100000*%
G04 APERTURE END LIST*
D10*
X109500000Y-92870000D03*
X106960000Y-85250000D03*
X106960000Y-92870000D03*
D11*
X109500000Y-85250000D03*
D12*
X114090000Y-98040000D03*
X114090000Y-95500000D03*
X116630000Y-98040000D03*
X116630000Y-95500000D03*
X119170000Y-98040000D03*
X119170000Y-95500000D03*
X121710000Y-98040000D03*
X121710000Y-95500000D03*
X124250000Y-98040000D03*
D13*
X124250000Y-95500000D03*
G36*
G01*
X136728262Y-95600000D02*
X135771738Y-95600000D01*
G75*
G02*
X135500000Y-95328262I0J271738D01*
G01*
X135500000Y-94621738D01*
G75*
G02*
X135771738Y-94350000I271738J0D01*
G01*
X136728262Y-94350000D01*
G75*
G02*
X137000000Y-94621738I0J-271738D01*
G01*
X137000000Y-95328262D01*
G75*
G02*
X136728262Y-95600000I-271738J0D01*
G01*
G37*
G36*
G01*
X136728262Y-97650000D02*
X135771738Y-97650000D01*
G75*
G02*
X135500000Y-97378262I0J271738D01*
G01*
X135500000Y-96671738D01*
G75*
G02*
X135771738Y-96400000I271738J0D01*
G01*
X136728262Y-96400000D01*
G75*
G02*
X137000000Y-96671738I0J-271738D01*
G01*
X137000000Y-97378262D01*
G75*
G02*
X136728262Y-97650000I-271738J0D01*
G01*
G37*
G36*
G01*
X133478262Y-87350000D02*
X132521738Y-87350000D01*
G75*
G02*
X132250000Y-87078262I0J271738D01*
G01*
X132250000Y-86371738D01*
G75*
G02*
X132521738Y-86100000I271738J0D01*
G01*
X133478262Y-86100000D01*
G75*
G02*
X133750000Y-86371738I0J-271738D01*
G01*
X133750000Y-87078262D01*
G75*
G02*
X133478262Y-87350000I-271738J0D01*
G01*
G37*
G36*
G01*
X133478262Y-89400000D02*
X132521738Y-89400000D01*
G75*
G02*
X132250000Y-89128262I0J271738D01*
G01*
X132250000Y-88421738D01*
G75*
G02*
X132521738Y-88150000I271738J0D01*
G01*
X133478262Y-88150000D01*
G75*
G02*
X133750000Y-88421738I0J-271738D01*
G01*
X133750000Y-89128262D01*
G75*
G02*
X133478262Y-89400000I-271738J0D01*
G01*
G37*
G36*
G01*
X119271738Y-87650000D02*
X120228262Y-87650000D01*
G75*
G02*
X120500000Y-87921738I0J-271738D01*
G01*
X120500000Y-88628262D01*
G75*
G02*
X120228262Y-88900000I-271738J0D01*
G01*
X119271738Y-88900000D01*
G75*
G02*
X119000000Y-88628262I0J271738D01*
G01*
X119000000Y-87921738D01*
G75*
G02*
X119271738Y-87650000I271738J0D01*
G01*
G37*
G36*
G01*
X119271738Y-85600000D02*
X120228262Y-85600000D01*
G75*
G02*
X120500000Y-85871738I0J-271738D01*
G01*
X120500000Y-86578262D01*
G75*
G02*
X120228262Y-86850000I-271738J0D01*
G01*
X119271738Y-86850000D01*
G75*
G02*
X119000000Y-86578262I0J271738D01*
G01*
X119000000Y-85871738D01*
G75*
G02*
X119271738Y-85600000I271738J0D01*
G01*
G37*
G36*
G01*
X122600000Y-84021738D02*
X122600000Y-84978262D01*
G75*
G02*
X122328262Y-85250000I-271738J0D01*
G01*
X121621738Y-85250000D01*
G75*
G02*
X121350000Y-84978262I0J271738D01*
G01*
X121350000Y-84021738D01*
G75*
G02*
X121621738Y-83750000I271738J0D01*
G01*
X122328262Y-83750000D01*
G75*
G02*
X122600000Y-84021738I0J-271738D01*
G01*
G37*
G36*
G01*
X124650000Y-84021738D02*
X124650000Y-84978262D01*
G75*
G02*
X124378262Y-85250000I-271738J0D01*
G01*
X123671738Y-85250000D01*
G75*
G02*
X123400000Y-84978262I0J271738D01*
G01*
X123400000Y-84021738D01*
G75*
G02*
X123671738Y-83750000I271738J0D01*
G01*
X124378262Y-83750000D01*
G75*
G02*
X124650000Y-84021738I0J-271738D01*
G01*
G37*
D10*
X122370000Y-60500000D03*
D11*
X114750000Y-60500000D03*
D12*
X136000000Y-86540000D03*
D13*
X136000000Y-84000000D03*
D14*
X141250000Y-78500000D03*
G36*
G01*
X140464706Y-75100000D02*
X142035294Y-75100000D01*
G75*
G02*
X142300000Y-75364706I0J-264706D01*
G01*
X142300000Y-76635294D01*
G75*
G02*
X142035294Y-76900000I-264706J0D01*
G01*
X140464706Y-76900000D01*
G75*
G02*
X140200000Y-76635294I0J264706D01*
G01*
X140200000Y-75364706D01*
G75*
G02*
X140464706Y-75100000I264706J0D01*
G01*
G37*
D15*
X110000000Y-75170000D03*
X110000000Y-80250000D03*
X92220000Y-54850000D03*
D16*
X92220000Y-49770000D03*
D15*
X92220000Y-80250000D03*
D10*
X129130000Y-79750000D03*
X136750000Y-77210000D03*
X129130000Y-77210000D03*
D11*
X136750000Y-79750000D03*
D10*
X97500000Y-85130000D03*
X100040000Y-92750000D03*
X100040000Y-85130000D03*
D11*
X97500000Y-92750000D03*
G36*
G01*
X111770832Y-90850000D02*
X112729168Y-90850000D01*
G75*
G02*
X113000000Y-91120832I0J-270832D01*
G01*
X113000000Y-91879168D01*
G75*
G02*
X112729168Y-92150000I-270832J0D01*
G01*
X111770832Y-92150000D01*
G75*
G02*
X111500000Y-91879168I0J270832D01*
G01*
X111500000Y-91120832D01*
G75*
G02*
X111770832Y-90850000I270832J0D01*
G01*
G37*
G36*
G01*
X111770832Y-88850000D02*
X112729168Y-88850000D01*
G75*
G02*
X113000000Y-89120832I0J-270832D01*
G01*
X113000000Y-89879168D01*
G75*
G02*
X112729168Y-90150000I-270832J0D01*
G01*
X111770832Y-90150000D01*
G75*
G02*
X111500000Y-89879168I0J270832D01*
G01*
X111500000Y-89120832D01*
G75*
G02*
X111770832Y-88850000I270832J0D01*
G01*
G37*
G36*
G01*
X131229168Y-83400000D02*
X130270832Y-83400000D01*
G75*
G02*
X130000000Y-83129168I0J270832D01*
G01*
X130000000Y-82370832D01*
G75*
G02*
X130270832Y-82100000I270832J0D01*
G01*
X131229168Y-82100000D01*
G75*
G02*
X131500000Y-82370832I0J-270832D01*
G01*
X131500000Y-83129168D01*
G75*
G02*
X131229168Y-83400000I-270832J0D01*
G01*
G37*
G36*
G01*
X131229168Y-85400000D02*
X130270832Y-85400000D01*
G75*
G02*
X130000000Y-85129168I0J270832D01*
G01*
X130000000Y-84370832D01*
G75*
G02*
X130270832Y-84100000I270832J0D01*
G01*
X131229168Y-84100000D01*
G75*
G02*
X131500000Y-84370832I0J-270832D01*
G01*
X131500000Y-85129168D01*
G75*
G02*
X131229168Y-85400000I-270832J0D01*
G01*
G37*
G36*
G01*
X136729168Y-91400000D02*
X135770832Y-91400000D01*
G75*
G02*
X135500000Y-91129168I0J270832D01*
G01*
X135500000Y-90370832D01*
G75*
G02*
X135770832Y-90100000I270832J0D01*
G01*
X136729168Y-90100000D01*
G75*
G02*
X137000000Y-90370832I0J-270832D01*
G01*
X137000000Y-91129168D01*
G75*
G02*
X136729168Y-91400000I-270832J0D01*
G01*
G37*
G36*
G01*
X136729168Y-93400000D02*
X135770832Y-93400000D01*
G75*
G02*
X135500000Y-93129168I0J270832D01*
G01*
X135500000Y-92370832D01*
G75*
G02*
X135770832Y-92100000I270832J0D01*
G01*
X136729168Y-92100000D01*
G75*
G02*
X137000000Y-92370832I0J-270832D01*
G01*
X137000000Y-93129168D01*
G75*
G02*
X136729168Y-93400000I-270832J0D01*
G01*
G37*
G36*
G01*
X133479168Y-83400000D02*
X132520832Y-83400000D01*
G75*
G02*
X132250000Y-83129168I0J270832D01*
G01*
X132250000Y-82370832D01*
G75*
G02*
X132520832Y-82100000I270832J0D01*
G01*
X133479168Y-82100000D01*
G75*
G02*
X133750000Y-82370832I0J-270832D01*
G01*
X133750000Y-83129168D01*
G75*
G02*
X133479168Y-83400000I-270832J0D01*
G01*
G37*
G36*
G01*
X133479168Y-85400000D02*
X132520832Y-85400000D01*
G75*
G02*
X132250000Y-85129168I0J270832D01*
G01*
X132250000Y-84370832D01*
G75*
G02*
X132520832Y-84100000I270832J0D01*
G01*
X133479168Y-84100000D01*
G75*
G02*
X133750000Y-84370832I0J-270832D01*
G01*
X133750000Y-85129168D01*
G75*
G02*
X133479168Y-85400000I-270832J0D01*
G01*
G37*
G36*
G01*
X121100000Y-80729168D02*
X121100000Y-79770832D01*
G75*
G02*
X121370832Y-79500000I270832J0D01*
G01*
X122129168Y-79500000D01*
G75*
G02*
X122400000Y-79770832I0J-270832D01*
G01*
X122400000Y-80729168D01*
G75*
G02*
X122129168Y-81000000I-270832J0D01*
G01*
X121370832Y-81000000D01*
G75*
G02*
X121100000Y-80729168I0J270832D01*
G01*
G37*
G36*
G01*
X119100000Y-80729168D02*
X119100000Y-79770832D01*
G75*
G02*
X119370832Y-79500000I270832J0D01*
G01*
X120129168Y-79500000D01*
G75*
G02*
X120400000Y-79770832I0J-270832D01*
G01*
X120400000Y-80729168D01*
G75*
G02*
X120129168Y-81000000I-270832J0D01*
G01*
X119370832Y-81000000D01*
G75*
G02*
X119100000Y-80729168I0J270832D01*
G01*
G37*
G36*
G01*
X120150000Y-71770832D02*
X120150000Y-72729168D01*
G75*
G02*
X119879168Y-73000000I-270832J0D01*
G01*
X119120832Y-73000000D01*
G75*
G02*
X118850000Y-72729168I0J270832D01*
G01*
X118850000Y-71770832D01*
G75*
G02*
X119120832Y-71500000I270832J0D01*
G01*
X119879168Y-71500000D01*
G75*
G02*
X120150000Y-71770832I0J-270832D01*
G01*
G37*
G36*
G01*
X122150000Y-71770832D02*
X122150000Y-72729168D01*
G75*
G02*
X121879168Y-73000000I-270832J0D01*
G01*
X121120832Y-73000000D01*
G75*
G02*
X120850000Y-72729168I0J270832D01*
G01*
X120850000Y-71770832D01*
G75*
G02*
X121120832Y-71500000I270832J0D01*
G01*
X121879168Y-71500000D01*
G75*
G02*
X122150000Y-71770832I0J-270832D01*
G01*
G37*
G36*
G01*
X120400000Y-81770832D02*
X120400000Y-82729168D01*
G75*
G02*
X120129168Y-83000000I-270832J0D01*
G01*
X119370832Y-83000000D01*
G75*
G02*
X119100000Y-82729168I0J270832D01*
G01*
X119100000Y-81770832D01*
G75*
G02*
X119370832Y-81500000I270832J0D01*
G01*
X120129168Y-81500000D01*
G75*
G02*
X120400000Y-81770832I0J-270832D01*
G01*
G37*
G36*
G01*
X122400000Y-81770832D02*
X122400000Y-82729168D01*
G75*
G02*
X122129168Y-83000000I-270832J0D01*
G01*
X121370832Y-83000000D01*
G75*
G02*
X121100000Y-82729168I0J270832D01*
G01*
X121100000Y-81770832D01*
G75*
G02*
X121370832Y-81500000I270832J0D01*
G01*
X122129168Y-81500000D01*
G75*
G02*
X122400000Y-81770832I0J-270832D01*
G01*
G37*
G36*
G01*
X117270832Y-75600000D02*
X118229168Y-75600000D01*
G75*
G02*
X118500000Y-75870832I0J-270832D01*
G01*
X118500000Y-76629168D01*
G75*
G02*
X118229168Y-76900000I-270832J0D01*
G01*
X117270832Y-76900000D01*
G75*
G02*
X117000000Y-76629168I0J270832D01*
G01*
X117000000Y-75870832D01*
G75*
G02*
X117270832Y-75600000I270832J0D01*
G01*
G37*
G36*
G01*
X117270832Y-73600000D02*
X118229168Y-73600000D01*
G75*
G02*
X118500000Y-73870832I0J-270832D01*
G01*
X118500000Y-74629168D01*
G75*
G02*
X118229168Y-74900000I-270832J0D01*
G01*
X117270832Y-74900000D01*
G75*
G02*
X117000000Y-74629168I0J270832D01*
G01*
X117000000Y-73870832D01*
G75*
G02*
X117270832Y-73600000I270832J0D01*
G01*
G37*
G36*
G01*
X121100000Y-76729168D02*
X121100000Y-75770832D01*
G75*
G02*
X121370832Y-75500000I270832J0D01*
G01*
X122129168Y-75500000D01*
G75*
G02*
X122400000Y-75770832I0J-270832D01*
G01*
X122400000Y-76729168D01*
G75*
G02*
X122129168Y-77000000I-270832J0D01*
G01*
X121370832Y-77000000D01*
G75*
G02*
X121100000Y-76729168I0J270832D01*
G01*
G37*
G36*
G01*
X119100000Y-76729168D02*
X119100000Y-75770832D01*
G75*
G02*
X119370832Y-75500000I270832J0D01*
G01*
X120129168Y-75500000D01*
G75*
G02*
X120400000Y-75770832I0J-270832D01*
G01*
X120400000Y-76729168D01*
G75*
G02*
X120129168Y-77000000I-270832J0D01*
G01*
X119370832Y-77000000D01*
G75*
G02*
X119100000Y-76729168I0J270832D01*
G01*
G37*
G36*
G01*
X120400000Y-77770832D02*
X120400000Y-78729168D01*
G75*
G02*
X120129168Y-79000000I-270832J0D01*
G01*
X119370832Y-79000000D01*
G75*
G02*
X119100000Y-78729168I0J270832D01*
G01*
X119100000Y-77770832D01*
G75*
G02*
X119370832Y-77500000I270832J0D01*
G01*
X120129168Y-77500000D01*
G75*
G02*
X120400000Y-77770832I0J-270832D01*
G01*
G37*
G36*
G01*
X122400000Y-77770832D02*
X122400000Y-78729168D01*
G75*
G02*
X122129168Y-79000000I-270832J0D01*
G01*
X121370832Y-79000000D01*
G75*
G02*
X121100000Y-78729168I0J270832D01*
G01*
X121100000Y-77770832D01*
G75*
G02*
X121370832Y-77500000I270832J0D01*
G01*
X122129168Y-77500000D01*
G75*
G02*
X122400000Y-77770832I0J-270832D01*
G01*
G37*
G36*
G01*
X123350000Y-86979168D02*
X123350000Y-86020832D01*
G75*
G02*
X123620832Y-85750000I270832J0D01*
G01*
X124379168Y-85750000D01*
G75*
G02*
X124650000Y-86020832I0J-270832D01*
G01*
X124650000Y-86979168D01*
G75*
G02*
X124379168Y-87250000I-270832J0D01*
G01*
X123620832Y-87250000D01*
G75*
G02*
X123350000Y-86979168I0J270832D01*
G01*
G37*
G36*
G01*
X121350000Y-86979168D02*
X121350000Y-86020832D01*
G75*
G02*
X121620832Y-85750000I270832J0D01*
G01*
X122379168Y-85750000D01*
G75*
G02*
X122650000Y-86020832I0J-270832D01*
G01*
X122650000Y-86979168D01*
G75*
G02*
X122379168Y-87250000I-270832J0D01*
G01*
X121620832Y-87250000D01*
G75*
G02*
X121350000Y-86979168I0J270832D01*
G01*
G37*
D17*
X124750000Y-78250000D03*
X125700000Y-80250000D03*
X123800000Y-80250000D03*
X120500000Y-68250000D03*
X121450000Y-70250000D03*
X119550000Y-70250000D03*
X124250000Y-72500000D03*
X125200000Y-74500000D03*
X123300000Y-74500000D03*
D18*
X131750000Y-56250000D03*
X119550000Y-56250000D03*
X119550000Y-44250000D03*
X131750000Y-44250000D03*
D19*
X133750000Y-50250000D03*
D20*
X117500000Y-37000000D03*
X122500000Y-37000000D03*
D19*
X127500000Y-37000000D03*
D14*
X141250000Y-69250000D03*
G36*
G01*
X140464706Y-65850000D02*
X142035294Y-65850000D01*
G75*
G02*
X142300000Y-66114706I0J-264706D01*
G01*
X142300000Y-67385294D01*
G75*
G02*
X142035294Y-67650000I-264706J0D01*
G01*
X140464706Y-67650000D01*
G75*
G02*
X140200000Y-67385294I0J264706D01*
G01*
X140200000Y-66114706D01*
G75*
G02*
X140464706Y-65850000I264706J0D01*
G01*
G37*
D12*
X136080000Y-73500000D03*
X133540000Y-73500000D03*
D13*
X131000000Y-73500000D03*
D21*
X92000000Y-97750000D03*
X94500000Y-97750000D03*
G36*
G01*
X97900000Y-96989706D02*
X97900000Y-98510294D01*
G75*
G02*
X97635294Y-98775000I-264706J0D01*
G01*
X96364706Y-98775000D01*
G75*
G02*
X96100000Y-98510294I0J264706D01*
G01*
X96100000Y-96989706D01*
G75*
G02*
X96364706Y-96725000I264706J0D01*
G01*
X97635294Y-96725000D01*
G75*
G02*
X97900000Y-96989706I0J-264706D01*
G01*
G37*
D12*
X103500000Y-91080000D03*
X103500000Y-88540000D03*
D13*
X103500000Y-86000000D03*
D21*
X103500000Y-97750000D03*
X106000000Y-97750000D03*
G36*
G01*
X109400000Y-96989706D02*
X109400000Y-98510294D01*
G75*
G02*
X109135294Y-98775000I-264706J0D01*
G01*
X107864706Y-98775000D01*
G75*
G02*
X107600000Y-98510294I0J264706D01*
G01*
X107600000Y-96989706D01*
G75*
G02*
X107864706Y-96725000I264706J0D01*
G01*
X109135294Y-96725000D01*
G75*
G02*
X109400000Y-96989706I0J-264706D01*
G01*
G37*
D20*
X100750000Y-37000000D03*
X105750000Y-37000000D03*
D19*
X110750000Y-37000000D03*
D14*
X141250000Y-97000000D03*
G36*
G01*
X140464706Y-93600000D02*
X142035294Y-93600000D01*
G75*
G02*
X142300000Y-93864706I0J-264706D01*
G01*
X142300000Y-95135294D01*
G75*
G02*
X142035294Y-95400000I-264706J0D01*
G01*
X140464706Y-95400000D01*
G75*
G02*
X140200000Y-95135294I0J264706D01*
G01*
X140200000Y-93864706D01*
G75*
G02*
X140464706Y-93600000I264706J0D01*
G01*
G37*
X141250000Y-87750000D03*
G36*
G01*
X140464706Y-84350000D02*
X142035294Y-84350000D01*
G75*
G02*
X142300000Y-84614706I0J-264706D01*
G01*
X142300000Y-85885294D01*
G75*
G02*
X142035294Y-86150000I-264706J0D01*
G01*
X140464706Y-86150000D01*
G75*
G02*
X140200000Y-85885294I0J264706D01*
G01*
X140200000Y-84614706D01*
G75*
G02*
X140464706Y-84350000I264706J0D01*
G01*
G37*
X141250000Y-60000000D03*
G36*
G01*
X140464706Y-56600000D02*
X142035294Y-56600000D01*
G75*
G02*
X142300000Y-56864706I0J-264706D01*
G01*
X142300000Y-58135294D01*
G75*
G02*
X142035294Y-58400000I-264706J0D01*
G01*
X140464706Y-58400000D01*
G75*
G02*
X140200000Y-58135294I0J264706D01*
G01*
X140200000Y-56864706D01*
G75*
G02*
X140464706Y-56600000I264706J0D01*
G01*
G37*
G36*
G01*
X115541667Y-69575000D02*
X117458333Y-69575000D01*
G75*
G02*
X117725000Y-69841667I0J-266667D01*
G01*
X117725000Y-70908333D01*
G75*
G02*
X117458333Y-71175000I-266667J0D01*
G01*
X115541667Y-71175000D01*
G75*
G02*
X115275000Y-70908333I0J266667D01*
G01*
X115275000Y-69841667D01*
G75*
G02*
X115541667Y-69575000I266667J0D01*
G01*
G37*
G36*
G01*
X115541667Y-66325000D02*
X117458333Y-66325000D01*
G75*
G02*
X117725000Y-66591667I0J-266667D01*
G01*
X117725000Y-67658333D01*
G75*
G02*
X117458333Y-67925000I-266667J0D01*
G01*
X115541667Y-67925000D01*
G75*
G02*
X115275000Y-67658333I0J266667D01*
G01*
X115275000Y-66591667D01*
G75*
G02*
X115541667Y-66325000I266667J0D01*
G01*
G37*
D22*
X125650000Y-65250000D03*
D23*
X133250000Y-65250000D03*
M02*
