G04 #@! TF.GenerationSoftware,KiCad,Pcbnew,(5.1.6)-1*
G04 #@! TF.CreationDate,2021-05-04T19:23:38+03:00*
G04 #@! TF.ProjectId,APC,4150432e-6b69-4636-9164-5f7063625858,rev?*
G04 #@! TF.SameCoordinates,Original*
G04 #@! TF.FileFunction,Copper,L2,Inr*
G04 #@! TF.FilePolarity,Positive*
%FSLAX46Y46*%
G04 Gerber Fmt 4.6, Leading zero omitted, Abs format (unit mm)*
G04 Created by KiCad (PCBNEW (5.1.6)-1) date 2021-05-04 19:23:38*
%MOMM*%
%LPD*%
G01*
G04 APERTURE LIST*
G04 #@! TA.AperFunction,ViaPad*
%ADD10O,1.600000X1.600000*%
G04 #@! TD*
G04 #@! TA.AperFunction,ViaPad*
%ADD11R,1.600000X1.600000*%
G04 #@! TD*
G04 #@! TA.AperFunction,ViaPad*
%ADD12O,1.700000X1.700000*%
G04 #@! TD*
G04 #@! TA.AperFunction,ViaPad*
%ADD13R,1.700000X1.700000*%
G04 #@! TD*
G04 #@! TA.AperFunction,ViaPad*
%ADD14O,2.000000X1.700000*%
G04 #@! TD*
G04 #@! TA.AperFunction,ViaPad*
%ADD15C,2.300000*%
G04 #@! TD*
G04 #@! TA.AperFunction,ViaPad*
%ADD16R,2.300000X2.000000*%
G04 #@! TD*
G04 #@! TA.AperFunction,ViaPad*
%ADD17O,2.500000X2.500000*%
G04 #@! TD*
G04 #@! TA.AperFunction,ViaPad*
%ADD18R,2.500000X2.500000*%
G04 #@! TD*
G04 #@! TA.AperFunction,ViaPad*
%ADD19C,2.500000*%
G04 #@! TD*
G04 #@! TA.AperFunction,ViaPad*
%ADD20O,1.700000X1.950000*%
G04 #@! TD*
G04 #@! TA.AperFunction,ViaPad*
%ADD21C,2.000000*%
G04 #@! TD*
G04 #@! TA.AperFunction,ViaPad*
%ADD22R,2.000000X2.000000*%
G04 #@! TD*
G04 #@! TA.AperFunction,ViaPad*
%ADD23C,0.800000*%
G04 #@! TD*
G04 #@! TA.AperFunction,Conductor*
%ADD24C,0.100000*%
G04 #@! TD*
G04 APERTURE END LIST*
D10*
X109500000Y-92870000D03*
X106960000Y-85250000D03*
X106960000Y-92870000D03*
D11*
X109500000Y-85250000D03*
D12*
X114090000Y-98040000D03*
X114090000Y-95500000D03*
X116630000Y-98040000D03*
X116630000Y-95500000D03*
X119170000Y-98040000D03*
X119170000Y-95500000D03*
X121710000Y-98040000D03*
X121710000Y-95500000D03*
X124250000Y-98040000D03*
D13*
X124250000Y-95500000D03*
D10*
X122370000Y-60500000D03*
D11*
X114750000Y-60500000D03*
D12*
X136000000Y-86540000D03*
D13*
X136000000Y-84000000D03*
D14*
X141250000Y-78500000D03*
G04 #@! TA.AperFunction,ViaPad*
G36*
G01*
X140500000Y-75150000D02*
X142000000Y-75150000D01*
G75*
G02*
X142250000Y-75400000I0J-250000D01*
G01*
X142250000Y-76600000D01*
G75*
G02*
X142000000Y-76850000I-250000J0D01*
G01*
X140500000Y-76850000D01*
G75*
G02*
X140250000Y-76600000I0J250000D01*
G01*
X140250000Y-75400000D01*
G75*
G02*
X140500000Y-75150000I250000J0D01*
G01*
G37*
G04 #@! TD.AperFunction*
D15*
X110000000Y-75170000D03*
X110000000Y-80250000D03*
X92220000Y-54850000D03*
D16*
X92220000Y-49770000D03*
D15*
X92220000Y-80250000D03*
D10*
X129130000Y-79750000D03*
X136750000Y-77210000D03*
X129130000Y-77210000D03*
D11*
X136750000Y-79750000D03*
D10*
X97500000Y-85130000D03*
X100040000Y-92750000D03*
X100040000Y-85130000D03*
D11*
X97500000Y-92750000D03*
D17*
X131750000Y-56250000D03*
X119550000Y-56250000D03*
X119550000Y-44250000D03*
X131750000Y-44250000D03*
D18*
X133750000Y-50250000D03*
D19*
X117500000Y-37000000D03*
X122500000Y-37000000D03*
D18*
X127500000Y-37000000D03*
D14*
X141250000Y-69250000D03*
G04 #@! TA.AperFunction,ViaPad*
G36*
G01*
X140500000Y-65900000D02*
X142000000Y-65900000D01*
G75*
G02*
X142250000Y-66150000I0J-250000D01*
G01*
X142250000Y-67350000D01*
G75*
G02*
X142000000Y-67600000I-250000J0D01*
G01*
X140500000Y-67600000D01*
G75*
G02*
X140250000Y-67350000I0J250000D01*
G01*
X140250000Y-66150000D01*
G75*
G02*
X140500000Y-65900000I250000J0D01*
G01*
G37*
G04 #@! TD.AperFunction*
D12*
X136080000Y-73500000D03*
X133540000Y-73500000D03*
D13*
X131000000Y-73500000D03*
D20*
X92000000Y-97750000D03*
X94500000Y-97750000D03*
G04 #@! TA.AperFunction,ViaPad*
G36*
G01*
X97850000Y-97025000D02*
X97850000Y-98475000D01*
G75*
G02*
X97600000Y-98725000I-250000J0D01*
G01*
X96400000Y-98725000D01*
G75*
G02*
X96150000Y-98475000I0J250000D01*
G01*
X96150000Y-97025000D01*
G75*
G02*
X96400000Y-96775000I250000J0D01*
G01*
X97600000Y-96775000D01*
G75*
G02*
X97850000Y-97025000I0J-250000D01*
G01*
G37*
G04 #@! TD.AperFunction*
D12*
X103500000Y-91080000D03*
X103500000Y-88540000D03*
D13*
X103500000Y-86000000D03*
D20*
X103500000Y-97750000D03*
X106000000Y-97750000D03*
G04 #@! TA.AperFunction,ViaPad*
G36*
G01*
X109350000Y-97025000D02*
X109350000Y-98475000D01*
G75*
G02*
X109100000Y-98725000I-250000J0D01*
G01*
X107900000Y-98725000D01*
G75*
G02*
X107650000Y-98475000I0J250000D01*
G01*
X107650000Y-97025000D01*
G75*
G02*
X107900000Y-96775000I250000J0D01*
G01*
X109100000Y-96775000D01*
G75*
G02*
X109350000Y-97025000I0J-250000D01*
G01*
G37*
G04 #@! TD.AperFunction*
D19*
X100750000Y-37000000D03*
X105750000Y-37000000D03*
D18*
X110750000Y-37000000D03*
D14*
X141250000Y-97000000D03*
G04 #@! TA.AperFunction,ViaPad*
G36*
G01*
X140500000Y-93650000D02*
X142000000Y-93650000D01*
G75*
G02*
X142250000Y-93900000I0J-250000D01*
G01*
X142250000Y-95100000D01*
G75*
G02*
X142000000Y-95350000I-250000J0D01*
G01*
X140500000Y-95350000D01*
G75*
G02*
X140250000Y-95100000I0J250000D01*
G01*
X140250000Y-93900000D01*
G75*
G02*
X140500000Y-93650000I250000J0D01*
G01*
G37*
G04 #@! TD.AperFunction*
X141250000Y-87750000D03*
G04 #@! TA.AperFunction,ViaPad*
G36*
G01*
X140500000Y-84400000D02*
X142000000Y-84400000D01*
G75*
G02*
X142250000Y-84650000I0J-250000D01*
G01*
X142250000Y-85850000D01*
G75*
G02*
X142000000Y-86100000I-250000J0D01*
G01*
X140500000Y-86100000D01*
G75*
G02*
X140250000Y-85850000I0J250000D01*
G01*
X140250000Y-84650000D01*
G75*
G02*
X140500000Y-84400000I250000J0D01*
G01*
G37*
G04 #@! TD.AperFunction*
X141250000Y-60000000D03*
G04 #@! TA.AperFunction,ViaPad*
G36*
G01*
X140500000Y-56650000D02*
X142000000Y-56650000D01*
G75*
G02*
X142250000Y-56900000I0J-250000D01*
G01*
X142250000Y-58100000D01*
G75*
G02*
X142000000Y-58350000I-250000J0D01*
G01*
X140500000Y-58350000D01*
G75*
G02*
X140250000Y-58100000I0J250000D01*
G01*
X140250000Y-56900000D01*
G75*
G02*
X140500000Y-56650000I250000J0D01*
G01*
G37*
G04 #@! TD.AperFunction*
D21*
X125650000Y-65250000D03*
D22*
X133250000Y-65250000D03*
D23*
X113750000Y-90250000D03*
X130750000Y-81000000D03*
X136250000Y-89250000D03*
X136000000Y-61250000D03*
X120500000Y-66500000D03*
X124750000Y-90500000D03*
X134000000Y-61000000D03*
X121250000Y-74500000D03*
X100500000Y-82500000D03*
X109750000Y-87250000D03*
X120750000Y-84500000D03*
X119500000Y-84500000D03*
X118250000Y-84500000D03*
X116750000Y-85750000D03*
X118000000Y-85750000D03*
X116500000Y-82500000D03*
X116500000Y-80000000D03*
X123250000Y-78250000D03*
X124000000Y-83000000D03*
X114500000Y-87750000D03*
X131250000Y-88750000D03*
X133000000Y-90500000D03*
X123000000Y-71250000D03*
X123000000Y-70000000D03*
X115750000Y-72000000D03*
X114500000Y-72000000D03*
X114000000Y-70500000D03*
X126250000Y-73250000D03*
X126250000Y-72000000D03*
X128750000Y-75250000D03*
X126250000Y-74500000D03*
X114500000Y-73250000D03*
X114500000Y-74500000D03*
X113250000Y-74500000D03*
X113250000Y-73250000D03*
X113250000Y-72000000D03*
X118750000Y-68750000D03*
X115500000Y-94000000D03*
X118000000Y-94000000D03*
X134750000Y-88750000D03*
X136250000Y-98750000D03*
X134750000Y-98750000D03*
X137750000Y-98750000D03*
X115750000Y-73250000D03*
X115750000Y-74500000D03*
X123750000Y-92000000D03*
X129250000Y-91250000D03*
X134250000Y-90500000D03*
X134500000Y-95000000D03*
X137750000Y-89250000D03*
X107500000Y-80000000D03*
X107500000Y-81250000D03*
X107500000Y-78750000D03*
X107500000Y-77500000D03*
X108750000Y-77500000D03*
X110000000Y-77500000D03*
X111250000Y-77500000D03*
X116500000Y-81250000D03*
X117500000Y-83250000D03*
X126250000Y-77000000D03*
X128750000Y-72750000D03*
X132500000Y-81000000D03*
X134000000Y-81000000D03*
X135500000Y-81750000D03*
X137500000Y-81750000D03*
X109750000Y-88500000D03*
X108000000Y-87250000D03*
X108000000Y-88500000D03*
X108000000Y-90000000D03*
X106500000Y-90000000D03*
X106500000Y-88500000D03*
X106500000Y-87250000D03*
X129250000Y-92500000D03*
X130750000Y-92500000D03*
X132250000Y-92500000D03*
X134500000Y-96500000D03*
X134500000Y-97750000D03*
X134500000Y-93750000D03*
X118250000Y-89375000D03*
X127750000Y-81000000D03*
X123250000Y-82000000D03*
X119500000Y-93250000D03*
X126000000Y-88000000D03*
X110750000Y-46750000D03*
X116750000Y-78250000D03*
X114750000Y-76250000D03*
X118500000Y-82250000D03*
X116500000Y-84000000D03*
D24*
G36*
X140139184Y-59358003D02*
G01*
X140032398Y-59557785D01*
X139966640Y-59774561D01*
X139944436Y-60000000D01*
X139966640Y-60225439D01*
X140032398Y-60442215D01*
X140139184Y-60641997D01*
X140282893Y-60817107D01*
X140458003Y-60960816D01*
X140657785Y-61067602D01*
X140874561Y-61133360D01*
X141043508Y-61150000D01*
X141456492Y-61150000D01*
X141625439Y-61133360D01*
X141842215Y-61067602D01*
X142041997Y-60960816D01*
X142217107Y-60817107D01*
X142360816Y-60641997D01*
X142467602Y-60442215D01*
X142533360Y-60225439D01*
X142555564Y-60000000D01*
X142533360Y-59774561D01*
X142467602Y-59557785D01*
X142360816Y-59358003D01*
X142318989Y-59307037D01*
X142435288Y-59318491D01*
X142613456Y-59372537D01*
X142777655Y-59460303D01*
X142921580Y-59578420D01*
X143039697Y-59722345D01*
X143127463Y-59886544D01*
X143181509Y-60064712D01*
X143200000Y-60252454D01*
X143200000Y-98997546D01*
X143181509Y-99185288D01*
X143127463Y-99363456D01*
X143039697Y-99527655D01*
X142921580Y-99671580D01*
X142777655Y-99789697D01*
X142613456Y-99877463D01*
X142435288Y-99931509D01*
X142247546Y-99950000D01*
X133800000Y-99950000D01*
X133800000Y-97253593D01*
X139978309Y-97253593D01*
X140008837Y-97370795D01*
X140102142Y-97576546D01*
X140233794Y-97760140D01*
X140398734Y-97914522D01*
X140590623Y-98033760D01*
X140802087Y-98113271D01*
X141025000Y-98150000D01*
X141175000Y-98150000D01*
X141175000Y-97075000D01*
X141325000Y-97075000D01*
X141325000Y-98150000D01*
X141475000Y-98150000D01*
X141697913Y-98113271D01*
X141909377Y-98033760D01*
X142101266Y-97914522D01*
X142266206Y-97760140D01*
X142397858Y-97576546D01*
X142491163Y-97370795D01*
X142521691Y-97253593D01*
X142472381Y-97075000D01*
X141325000Y-97075000D01*
X141175000Y-97075000D01*
X140027619Y-97075000D01*
X139978309Y-97253593D01*
X133800000Y-97253593D01*
X133800000Y-96746407D01*
X139978309Y-96746407D01*
X140027619Y-96925000D01*
X141175000Y-96925000D01*
X141175000Y-95850000D01*
X141325000Y-95850000D01*
X141325000Y-96925000D01*
X142472381Y-96925000D01*
X142521691Y-96746407D01*
X142491163Y-96629205D01*
X142397858Y-96423454D01*
X142266206Y-96239860D01*
X142101266Y-96085478D01*
X141909377Y-95966240D01*
X141697913Y-95886729D01*
X141475000Y-95850000D01*
X141325000Y-95850000D01*
X141175000Y-95850000D01*
X141025000Y-95850000D01*
X140802087Y-95886729D01*
X140590623Y-95966240D01*
X140398734Y-96085478D01*
X140233794Y-96239860D01*
X140102142Y-96423454D01*
X140008837Y-96629205D01*
X139978309Y-96746407D01*
X133800000Y-96746407D01*
X133800000Y-93900000D01*
X139948549Y-93900000D01*
X139948549Y-95100000D01*
X139959145Y-95207583D01*
X139990526Y-95311031D01*
X140041485Y-95406370D01*
X140110065Y-95489935D01*
X140193630Y-95558515D01*
X140288969Y-95609474D01*
X140392417Y-95640855D01*
X140500000Y-95651451D01*
X142000000Y-95651451D01*
X142107583Y-95640855D01*
X142211031Y-95609474D01*
X142306370Y-95558515D01*
X142389935Y-95489935D01*
X142458515Y-95406370D01*
X142509474Y-95311031D01*
X142540855Y-95207583D01*
X142551451Y-95100000D01*
X142551451Y-93900000D01*
X142540855Y-93792417D01*
X142509474Y-93688969D01*
X142458515Y-93593630D01*
X142389935Y-93510065D01*
X142306370Y-93441485D01*
X142211031Y-93390526D01*
X142107583Y-93359145D01*
X142000000Y-93348549D01*
X140500000Y-93348549D01*
X140392417Y-93359145D01*
X140288969Y-93390526D01*
X140193630Y-93441485D01*
X140110065Y-93510065D01*
X140041485Y-93593630D01*
X139990526Y-93688969D01*
X139959145Y-93792417D01*
X139948549Y-93900000D01*
X133800000Y-93900000D01*
X133800000Y-93250000D01*
X133799039Y-93240245D01*
X133796194Y-93230866D01*
X133791573Y-93222221D01*
X133785355Y-93214645D01*
X133535355Y-92964645D01*
X133527779Y-92958427D01*
X133519134Y-92953806D01*
X133509755Y-92950961D01*
X133500000Y-92950000D01*
X127000000Y-92950000D01*
X126990245Y-92950961D01*
X126980866Y-92953806D01*
X126972221Y-92958427D01*
X126964645Y-92964645D01*
X126714645Y-93214645D01*
X126708427Y-93222221D01*
X126703806Y-93230866D01*
X126700961Y-93240245D01*
X126700000Y-93250000D01*
X126700000Y-99950000D01*
X89752454Y-99950000D01*
X89564712Y-99931509D01*
X89386544Y-99877463D01*
X89222345Y-99789697D01*
X89078420Y-99671580D01*
X88960303Y-99527655D01*
X88872537Y-99363456D01*
X88818491Y-99185288D01*
X88800000Y-98997546D01*
X88800000Y-97568508D01*
X90850000Y-97568508D01*
X90850000Y-97931491D01*
X90866640Y-98100438D01*
X90932398Y-98317214D01*
X91039184Y-98516996D01*
X91182893Y-98692107D01*
X91358003Y-98835816D01*
X91557785Y-98942602D01*
X91774561Y-99008360D01*
X92000000Y-99030564D01*
X92225438Y-99008360D01*
X92442214Y-98942602D01*
X92641996Y-98835816D01*
X92817107Y-98692107D01*
X92960816Y-98516997D01*
X93067602Y-98317215D01*
X93133360Y-98100439D01*
X93150000Y-97931492D01*
X93150000Y-97568509D01*
X93150000Y-97568508D01*
X93350000Y-97568508D01*
X93350000Y-97931491D01*
X93366640Y-98100438D01*
X93432398Y-98317214D01*
X93539184Y-98516996D01*
X93682893Y-98692107D01*
X93858003Y-98835816D01*
X94057785Y-98942602D01*
X94274561Y-99008360D01*
X94500000Y-99030564D01*
X94725438Y-99008360D01*
X94942214Y-98942602D01*
X95141996Y-98835816D01*
X95317107Y-98692107D01*
X95460816Y-98516997D01*
X95567602Y-98317215D01*
X95633360Y-98100439D01*
X95650000Y-97931492D01*
X95650000Y-97568509D01*
X95633360Y-97399562D01*
X95567602Y-97182786D01*
X95483264Y-97025000D01*
X95848549Y-97025000D01*
X95848549Y-98475000D01*
X95859145Y-98582583D01*
X95890526Y-98686031D01*
X95941485Y-98781370D01*
X96010065Y-98864935D01*
X96093630Y-98933515D01*
X96188969Y-98984474D01*
X96292417Y-99015855D01*
X96400000Y-99026451D01*
X97600000Y-99026451D01*
X97707583Y-99015855D01*
X97811031Y-98984474D01*
X97906370Y-98933515D01*
X97989935Y-98864935D01*
X98058515Y-98781370D01*
X98109474Y-98686031D01*
X98140855Y-98582583D01*
X98151451Y-98475000D01*
X98151451Y-97568508D01*
X102350000Y-97568508D01*
X102350000Y-97931491D01*
X102366640Y-98100438D01*
X102432398Y-98317214D01*
X102539184Y-98516996D01*
X102682893Y-98692107D01*
X102858003Y-98835816D01*
X103057785Y-98942602D01*
X103274561Y-99008360D01*
X103500000Y-99030564D01*
X103725438Y-99008360D01*
X103942214Y-98942602D01*
X104141996Y-98835816D01*
X104317107Y-98692107D01*
X104460816Y-98516997D01*
X104567602Y-98317215D01*
X104633360Y-98100439D01*
X104650000Y-97931492D01*
X104650000Y-97568509D01*
X104650000Y-97568508D01*
X104850000Y-97568508D01*
X104850000Y-97931491D01*
X104866640Y-98100438D01*
X104932398Y-98317214D01*
X105039184Y-98516996D01*
X105182893Y-98692107D01*
X105358003Y-98835816D01*
X105557785Y-98942602D01*
X105774561Y-99008360D01*
X106000000Y-99030564D01*
X106225438Y-99008360D01*
X106442214Y-98942602D01*
X106641996Y-98835816D01*
X106817107Y-98692107D01*
X106960816Y-98516997D01*
X107067602Y-98317215D01*
X107133360Y-98100439D01*
X107150000Y-97931492D01*
X107150000Y-97568509D01*
X107133360Y-97399562D01*
X107067602Y-97182786D01*
X106983264Y-97025000D01*
X107348549Y-97025000D01*
X107348549Y-98475000D01*
X107359145Y-98582583D01*
X107390526Y-98686031D01*
X107441485Y-98781370D01*
X107510065Y-98864935D01*
X107593630Y-98933515D01*
X107688969Y-98984474D01*
X107792417Y-99015855D01*
X107900000Y-99026451D01*
X109100000Y-99026451D01*
X109207583Y-99015855D01*
X109311031Y-98984474D01*
X109406370Y-98933515D01*
X109489935Y-98864935D01*
X109558515Y-98781370D01*
X109609474Y-98686031D01*
X109640855Y-98582583D01*
X109651451Y-98475000D01*
X109651451Y-98293594D01*
X112968306Y-98293594D01*
X113039333Y-98507553D01*
X113150736Y-98703544D01*
X113298235Y-98874036D01*
X113476161Y-99012476D01*
X113677676Y-99113544D01*
X113836407Y-99161691D01*
X114015000Y-99112381D01*
X114015000Y-98115000D01*
X114165000Y-98115000D01*
X114165000Y-99112381D01*
X114343593Y-99161691D01*
X114502324Y-99113544D01*
X114703839Y-99012476D01*
X114881765Y-98874036D01*
X115029264Y-98703544D01*
X115140667Y-98507553D01*
X115211694Y-98293594D01*
X115162555Y-98115000D01*
X114165000Y-98115000D01*
X114015000Y-98115000D01*
X113017445Y-98115000D01*
X112968306Y-98293594D01*
X109651451Y-98293594D01*
X109651451Y-97786406D01*
X112968306Y-97786406D01*
X113017445Y-97965000D01*
X114015000Y-97965000D01*
X114015000Y-96967619D01*
X114165000Y-96967619D01*
X114165000Y-97965000D01*
X115162555Y-97965000D01*
X115173083Y-97926735D01*
X115480000Y-97926735D01*
X115480000Y-98153265D01*
X115524194Y-98375443D01*
X115610884Y-98584729D01*
X115736737Y-98773082D01*
X115896918Y-98933263D01*
X116085271Y-99059116D01*
X116294557Y-99145806D01*
X116516735Y-99190000D01*
X116743265Y-99190000D01*
X116965443Y-99145806D01*
X117174729Y-99059116D01*
X117363082Y-98933263D01*
X117523263Y-98773082D01*
X117649116Y-98584729D01*
X117735806Y-98375443D01*
X117780000Y-98153265D01*
X117780000Y-97926735D01*
X118020000Y-97926735D01*
X118020000Y-98153265D01*
X118064194Y-98375443D01*
X118150884Y-98584729D01*
X118276737Y-98773082D01*
X118436918Y-98933263D01*
X118625271Y-99059116D01*
X118834557Y-99145806D01*
X119056735Y-99190000D01*
X119283265Y-99190000D01*
X119505443Y-99145806D01*
X119714729Y-99059116D01*
X119903082Y-98933263D01*
X120063263Y-98773082D01*
X120189116Y-98584729D01*
X120275806Y-98375443D01*
X120320000Y-98153265D01*
X120320000Y-97926735D01*
X120560000Y-97926735D01*
X120560000Y-98153265D01*
X120604194Y-98375443D01*
X120690884Y-98584729D01*
X120816737Y-98773082D01*
X120976918Y-98933263D01*
X121165271Y-99059116D01*
X121374557Y-99145806D01*
X121596735Y-99190000D01*
X121823265Y-99190000D01*
X122045443Y-99145806D01*
X122254729Y-99059116D01*
X122443082Y-98933263D01*
X122603263Y-98773082D01*
X122729116Y-98584729D01*
X122815806Y-98375443D01*
X122832086Y-98293594D01*
X123128306Y-98293594D01*
X123199333Y-98507553D01*
X123310736Y-98703544D01*
X123458235Y-98874036D01*
X123636161Y-99012476D01*
X123837676Y-99113544D01*
X123996407Y-99161691D01*
X124175000Y-99112381D01*
X124175000Y-98115000D01*
X124325000Y-98115000D01*
X124325000Y-99112381D01*
X124503593Y-99161691D01*
X124662324Y-99113544D01*
X124863839Y-99012476D01*
X125041765Y-98874036D01*
X125189264Y-98703544D01*
X125300667Y-98507553D01*
X125371694Y-98293594D01*
X125322555Y-98115000D01*
X124325000Y-98115000D01*
X124175000Y-98115000D01*
X123177445Y-98115000D01*
X123128306Y-98293594D01*
X122832086Y-98293594D01*
X122860000Y-98153265D01*
X122860000Y-97926735D01*
X122832087Y-97786406D01*
X123128306Y-97786406D01*
X123177445Y-97965000D01*
X124175000Y-97965000D01*
X124175000Y-96967619D01*
X124325000Y-96967619D01*
X124325000Y-97965000D01*
X125322555Y-97965000D01*
X125371694Y-97786406D01*
X125300667Y-97572447D01*
X125189264Y-97376456D01*
X125041765Y-97205964D01*
X124863839Y-97067524D01*
X124662324Y-96966456D01*
X124503593Y-96918309D01*
X124325000Y-96967619D01*
X124175000Y-96967619D01*
X123996407Y-96918309D01*
X123837676Y-96966456D01*
X123636161Y-97067524D01*
X123458235Y-97205964D01*
X123310736Y-97376456D01*
X123199333Y-97572447D01*
X123128306Y-97786406D01*
X122832087Y-97786406D01*
X122815806Y-97704557D01*
X122729116Y-97495271D01*
X122603263Y-97306918D01*
X122443082Y-97146737D01*
X122254729Y-97020884D01*
X122045443Y-96934194D01*
X121823265Y-96890000D01*
X121596735Y-96890000D01*
X121374557Y-96934194D01*
X121165271Y-97020884D01*
X120976918Y-97146737D01*
X120816737Y-97306918D01*
X120690884Y-97495271D01*
X120604194Y-97704557D01*
X120560000Y-97926735D01*
X120320000Y-97926735D01*
X120275806Y-97704557D01*
X120189116Y-97495271D01*
X120063263Y-97306918D01*
X119903082Y-97146737D01*
X119714729Y-97020884D01*
X119505443Y-96934194D01*
X119283265Y-96890000D01*
X119056735Y-96890000D01*
X118834557Y-96934194D01*
X118625271Y-97020884D01*
X118436918Y-97146737D01*
X118276737Y-97306918D01*
X118150884Y-97495271D01*
X118064194Y-97704557D01*
X118020000Y-97926735D01*
X117780000Y-97926735D01*
X117735806Y-97704557D01*
X117649116Y-97495271D01*
X117523263Y-97306918D01*
X117363082Y-97146737D01*
X117174729Y-97020884D01*
X116965443Y-96934194D01*
X116743265Y-96890000D01*
X116516735Y-96890000D01*
X116294557Y-96934194D01*
X116085271Y-97020884D01*
X115896918Y-97146737D01*
X115736737Y-97306918D01*
X115610884Y-97495271D01*
X115524194Y-97704557D01*
X115480000Y-97926735D01*
X115173083Y-97926735D01*
X115211694Y-97786406D01*
X115140667Y-97572447D01*
X115029264Y-97376456D01*
X114881765Y-97205964D01*
X114703839Y-97067524D01*
X114502324Y-96966456D01*
X114343593Y-96918309D01*
X114165000Y-96967619D01*
X114015000Y-96967619D01*
X113836407Y-96918309D01*
X113677676Y-96966456D01*
X113476161Y-97067524D01*
X113298235Y-97205964D01*
X113150736Y-97376456D01*
X113039333Y-97572447D01*
X112968306Y-97786406D01*
X109651451Y-97786406D01*
X109651451Y-97025000D01*
X109640855Y-96917417D01*
X109609474Y-96813969D01*
X109558515Y-96718630D01*
X109489935Y-96635065D01*
X109406370Y-96566485D01*
X109311031Y-96515526D01*
X109207583Y-96484145D01*
X109100000Y-96473549D01*
X107900000Y-96473549D01*
X107792417Y-96484145D01*
X107688969Y-96515526D01*
X107593630Y-96566485D01*
X107510065Y-96635065D01*
X107441485Y-96718630D01*
X107390526Y-96813969D01*
X107359145Y-96917417D01*
X107348549Y-97025000D01*
X106983264Y-97025000D01*
X106960816Y-96983004D01*
X106817107Y-96807893D01*
X106641997Y-96664184D01*
X106442215Y-96557398D01*
X106225439Y-96491640D01*
X106000000Y-96469436D01*
X105774562Y-96491640D01*
X105557786Y-96557398D01*
X105358004Y-96664184D01*
X105182894Y-96807893D01*
X105039184Y-96983003D01*
X104932398Y-97182785D01*
X104866640Y-97399561D01*
X104850000Y-97568508D01*
X104650000Y-97568508D01*
X104633360Y-97399562D01*
X104567602Y-97182786D01*
X104460816Y-96983004D01*
X104317107Y-96807893D01*
X104141997Y-96664184D01*
X103942215Y-96557398D01*
X103725439Y-96491640D01*
X103500000Y-96469436D01*
X103274562Y-96491640D01*
X103057786Y-96557398D01*
X102858004Y-96664184D01*
X102682894Y-96807893D01*
X102539184Y-96983003D01*
X102432398Y-97182785D01*
X102366640Y-97399561D01*
X102350000Y-97568508D01*
X98151451Y-97568508D01*
X98151451Y-97025000D01*
X98140855Y-96917417D01*
X98109474Y-96813969D01*
X98058515Y-96718630D01*
X97989935Y-96635065D01*
X97906370Y-96566485D01*
X97811031Y-96515526D01*
X97707583Y-96484145D01*
X97600000Y-96473549D01*
X96400000Y-96473549D01*
X96292417Y-96484145D01*
X96188969Y-96515526D01*
X96093630Y-96566485D01*
X96010065Y-96635065D01*
X95941485Y-96718630D01*
X95890526Y-96813969D01*
X95859145Y-96917417D01*
X95848549Y-97025000D01*
X95483264Y-97025000D01*
X95460816Y-96983004D01*
X95317107Y-96807893D01*
X95141997Y-96664184D01*
X94942215Y-96557398D01*
X94725439Y-96491640D01*
X94500000Y-96469436D01*
X94274562Y-96491640D01*
X94057786Y-96557398D01*
X93858004Y-96664184D01*
X93682894Y-96807893D01*
X93539184Y-96983003D01*
X93432398Y-97182785D01*
X93366640Y-97399561D01*
X93350000Y-97568508D01*
X93150000Y-97568508D01*
X93133360Y-97399562D01*
X93067602Y-97182786D01*
X92960816Y-96983004D01*
X92817107Y-96807893D01*
X92641997Y-96664184D01*
X92442215Y-96557398D01*
X92225439Y-96491640D01*
X92000000Y-96469436D01*
X91774562Y-96491640D01*
X91557786Y-96557398D01*
X91358004Y-96664184D01*
X91182894Y-96807893D01*
X91039184Y-96983003D01*
X90932398Y-97182785D01*
X90866640Y-97399561D01*
X90850000Y-97568508D01*
X88800000Y-97568508D01*
X88800000Y-95386735D01*
X112940000Y-95386735D01*
X112940000Y-95613265D01*
X112984194Y-95835443D01*
X113070884Y-96044729D01*
X113196737Y-96233082D01*
X113356918Y-96393263D01*
X113545271Y-96519116D01*
X113754557Y-96605806D01*
X113976735Y-96650000D01*
X114203265Y-96650000D01*
X114425443Y-96605806D01*
X114634729Y-96519116D01*
X114823082Y-96393263D01*
X114983263Y-96233082D01*
X115109116Y-96044729D01*
X115195806Y-95835443D01*
X115240000Y-95613265D01*
X115240000Y-95386735D01*
X115480000Y-95386735D01*
X115480000Y-95613265D01*
X115524194Y-95835443D01*
X115610884Y-96044729D01*
X115736737Y-96233082D01*
X115896918Y-96393263D01*
X116085271Y-96519116D01*
X116294557Y-96605806D01*
X116516735Y-96650000D01*
X116743265Y-96650000D01*
X116965443Y-96605806D01*
X117174729Y-96519116D01*
X117363082Y-96393263D01*
X117523263Y-96233082D01*
X117649116Y-96044729D01*
X117735806Y-95835443D01*
X117780000Y-95613265D01*
X117780000Y-95386735D01*
X118020000Y-95386735D01*
X118020000Y-95613265D01*
X118064194Y-95835443D01*
X118150884Y-96044729D01*
X118276737Y-96233082D01*
X118436918Y-96393263D01*
X118625271Y-96519116D01*
X118834557Y-96605806D01*
X119056735Y-96650000D01*
X119283265Y-96650000D01*
X119505443Y-96605806D01*
X119714729Y-96519116D01*
X119903082Y-96393263D01*
X120063263Y-96233082D01*
X120189116Y-96044729D01*
X120275806Y-95835443D01*
X120320000Y-95613265D01*
X120320000Y-95386735D01*
X120560000Y-95386735D01*
X120560000Y-95613265D01*
X120604194Y-95835443D01*
X120690884Y-96044729D01*
X120816737Y-96233082D01*
X120976918Y-96393263D01*
X121165271Y-96519116D01*
X121374557Y-96605806D01*
X121596735Y-96650000D01*
X121823265Y-96650000D01*
X122045443Y-96605806D01*
X122254729Y-96519116D01*
X122443082Y-96393263D01*
X122603263Y-96233082D01*
X122729116Y-96044729D01*
X122815806Y-95835443D01*
X122860000Y-95613265D01*
X122860000Y-95386735D01*
X122815806Y-95164557D01*
X122729116Y-94955271D01*
X122603263Y-94766918D01*
X122486345Y-94650000D01*
X123098549Y-94650000D01*
X123098549Y-96350000D01*
X123104341Y-96408810D01*
X123121496Y-96465360D01*
X123149353Y-96517477D01*
X123186842Y-96563158D01*
X123232523Y-96600647D01*
X123284640Y-96628504D01*
X123341190Y-96645659D01*
X123400000Y-96651451D01*
X125100000Y-96651451D01*
X125158810Y-96645659D01*
X125215360Y-96628504D01*
X125267477Y-96600647D01*
X125313158Y-96563158D01*
X125350647Y-96517477D01*
X125378504Y-96465360D01*
X125395659Y-96408810D01*
X125401451Y-96350000D01*
X125401451Y-94650000D01*
X125395659Y-94591190D01*
X125378504Y-94534640D01*
X125350647Y-94482523D01*
X125313158Y-94436842D01*
X125267477Y-94399353D01*
X125215360Y-94371496D01*
X125158810Y-94354341D01*
X125100000Y-94348549D01*
X123400000Y-94348549D01*
X123341190Y-94354341D01*
X123284640Y-94371496D01*
X123232523Y-94399353D01*
X123186842Y-94436842D01*
X123149353Y-94482523D01*
X123121496Y-94534640D01*
X123104341Y-94591190D01*
X123098549Y-94650000D01*
X122486345Y-94650000D01*
X122443082Y-94606737D01*
X122254729Y-94480884D01*
X122045443Y-94394194D01*
X121823265Y-94350000D01*
X121596735Y-94350000D01*
X121374557Y-94394194D01*
X121165271Y-94480884D01*
X120976918Y-94606737D01*
X120816737Y-94766918D01*
X120690884Y-94955271D01*
X120604194Y-95164557D01*
X120560000Y-95386735D01*
X120320000Y-95386735D01*
X120275806Y-95164557D01*
X120189116Y-94955271D01*
X120063263Y-94766918D01*
X119903082Y-94606737D01*
X119714729Y-94480884D01*
X119505443Y-94394194D01*
X119283265Y-94350000D01*
X119056735Y-94350000D01*
X118834557Y-94394194D01*
X118625271Y-94480884D01*
X118436918Y-94606737D01*
X118276737Y-94766918D01*
X118150884Y-94955271D01*
X118064194Y-95164557D01*
X118020000Y-95386735D01*
X117780000Y-95386735D01*
X117735806Y-95164557D01*
X117649116Y-94955271D01*
X117523263Y-94766918D01*
X117363082Y-94606737D01*
X117174729Y-94480884D01*
X116965443Y-94394194D01*
X116743265Y-94350000D01*
X116516735Y-94350000D01*
X116294557Y-94394194D01*
X116085271Y-94480884D01*
X115896918Y-94606737D01*
X115736737Y-94766918D01*
X115610884Y-94955271D01*
X115524194Y-95164557D01*
X115480000Y-95386735D01*
X115240000Y-95386735D01*
X115195806Y-95164557D01*
X115109116Y-94955271D01*
X114983263Y-94766918D01*
X114823082Y-94606737D01*
X114634729Y-94480884D01*
X114425443Y-94394194D01*
X114203265Y-94350000D01*
X113976735Y-94350000D01*
X113754557Y-94394194D01*
X113545271Y-94480884D01*
X113356918Y-94606737D01*
X113196737Y-94766918D01*
X113070884Y-94955271D01*
X112984194Y-95164557D01*
X112940000Y-95386735D01*
X88800000Y-95386735D01*
X88800000Y-94550000D01*
X95500000Y-94550000D01*
X95509755Y-94549039D01*
X95519134Y-94546194D01*
X95527779Y-94541573D01*
X95535355Y-94535355D01*
X95785355Y-94285355D01*
X95791573Y-94277779D01*
X95796194Y-94269134D01*
X95799039Y-94259755D01*
X95800000Y-94250000D01*
X95800000Y-91950000D01*
X96398549Y-91950000D01*
X96398549Y-93550000D01*
X96404341Y-93608810D01*
X96421496Y-93665360D01*
X96449353Y-93717477D01*
X96486842Y-93763158D01*
X96532523Y-93800647D01*
X96584640Y-93828504D01*
X96641190Y-93845659D01*
X96700000Y-93851451D01*
X98300000Y-93851451D01*
X98358810Y-93845659D01*
X98415360Y-93828504D01*
X98467477Y-93800647D01*
X98513158Y-93763158D01*
X98550647Y-93717477D01*
X98578504Y-93665360D01*
X98595659Y-93608810D01*
X98601451Y-93550000D01*
X98601451Y-92641659D01*
X98940000Y-92641659D01*
X98940000Y-92858341D01*
X98982273Y-93070858D01*
X99065193Y-93271045D01*
X99185575Y-93451209D01*
X99338791Y-93604425D01*
X99518955Y-93724807D01*
X99719142Y-93807727D01*
X99931659Y-93850000D01*
X100148341Y-93850000D01*
X100360858Y-93807727D01*
X100561045Y-93724807D01*
X100741209Y-93604425D01*
X100894425Y-93451209D01*
X101014807Y-93271045D01*
X101097727Y-93070858D01*
X101140000Y-92858341D01*
X101140000Y-92761659D01*
X105860000Y-92761659D01*
X105860000Y-92978341D01*
X105902273Y-93190858D01*
X105985193Y-93391045D01*
X106105575Y-93571209D01*
X106258791Y-93724425D01*
X106438955Y-93844807D01*
X106639142Y-93927727D01*
X106851659Y-93970000D01*
X107068341Y-93970000D01*
X107280858Y-93927727D01*
X107481045Y-93844807D01*
X107661209Y-93724425D01*
X107814425Y-93571209D01*
X107934807Y-93391045D01*
X108017727Y-93190858D01*
X108060000Y-92978341D01*
X108060000Y-92761659D01*
X108400000Y-92761659D01*
X108400000Y-92978341D01*
X108442273Y-93190858D01*
X108525193Y-93391045D01*
X108645575Y-93571209D01*
X108798791Y-93724425D01*
X108978955Y-93844807D01*
X109179142Y-93927727D01*
X109391659Y-93970000D01*
X109608341Y-93970000D01*
X109820858Y-93927727D01*
X110021045Y-93844807D01*
X110201209Y-93724425D01*
X110354425Y-93571209D01*
X110474807Y-93391045D01*
X110557727Y-93190858D01*
X110559676Y-93181056D01*
X118800000Y-93181056D01*
X118800000Y-93318944D01*
X118826901Y-93454182D01*
X118879668Y-93581574D01*
X118956274Y-93696224D01*
X119053776Y-93793726D01*
X119168426Y-93870332D01*
X119295818Y-93923099D01*
X119431056Y-93950000D01*
X119568944Y-93950000D01*
X119704182Y-93923099D01*
X119831574Y-93870332D01*
X119946224Y-93793726D01*
X120043726Y-93696224D01*
X120120332Y-93581574D01*
X120173099Y-93454182D01*
X120200000Y-93318944D01*
X120200000Y-93181056D01*
X120173099Y-93045818D01*
X120120332Y-92918426D01*
X120043726Y-92803776D01*
X119946224Y-92706274D01*
X119831574Y-92629668D01*
X119704182Y-92576901D01*
X119568944Y-92550000D01*
X119431056Y-92550000D01*
X119295818Y-92576901D01*
X119168426Y-92629668D01*
X119053776Y-92706274D01*
X118956274Y-92803776D01*
X118879668Y-92918426D01*
X118826901Y-93045818D01*
X118800000Y-93181056D01*
X110559676Y-93181056D01*
X110600000Y-92978341D01*
X110600000Y-92761659D01*
X110557727Y-92549142D01*
X110474807Y-92348955D01*
X110354425Y-92168791D01*
X110201209Y-92015575D01*
X110021045Y-91895193D01*
X109820858Y-91812273D01*
X109608341Y-91770000D01*
X109391659Y-91770000D01*
X109179142Y-91812273D01*
X108978955Y-91895193D01*
X108798791Y-92015575D01*
X108645575Y-92168791D01*
X108525193Y-92348955D01*
X108442273Y-92549142D01*
X108400000Y-92761659D01*
X108060000Y-92761659D01*
X108017727Y-92549142D01*
X107934807Y-92348955D01*
X107814425Y-92168791D01*
X107661209Y-92015575D01*
X107481045Y-91895193D01*
X107280858Y-91812273D01*
X107068341Y-91770000D01*
X106851659Y-91770000D01*
X106639142Y-91812273D01*
X106438955Y-91895193D01*
X106258791Y-92015575D01*
X106105575Y-92168791D01*
X105985193Y-92348955D01*
X105902273Y-92549142D01*
X105860000Y-92761659D01*
X101140000Y-92761659D01*
X101140000Y-92641659D01*
X101097727Y-92429142D01*
X101014807Y-92228955D01*
X100894425Y-92048791D01*
X100741209Y-91895575D01*
X100561045Y-91775193D01*
X100360858Y-91692273D01*
X100148341Y-91650000D01*
X99931659Y-91650000D01*
X99719142Y-91692273D01*
X99518955Y-91775193D01*
X99338791Y-91895575D01*
X99185575Y-92048791D01*
X99065193Y-92228955D01*
X98982273Y-92429142D01*
X98940000Y-92641659D01*
X98601451Y-92641659D01*
X98601451Y-91950000D01*
X98595659Y-91891190D01*
X98578504Y-91834640D01*
X98550647Y-91782523D01*
X98513158Y-91736842D01*
X98467477Y-91699353D01*
X98415360Y-91671496D01*
X98358810Y-91654341D01*
X98300000Y-91648549D01*
X96700000Y-91648549D01*
X96641190Y-91654341D01*
X96584640Y-91671496D01*
X96532523Y-91699353D01*
X96486842Y-91736842D01*
X96449353Y-91782523D01*
X96421496Y-91834640D01*
X96404341Y-91891190D01*
X96398549Y-91950000D01*
X95800000Y-91950000D01*
X95800000Y-90966735D01*
X102350000Y-90966735D01*
X102350000Y-91193265D01*
X102394194Y-91415443D01*
X102480884Y-91624729D01*
X102606737Y-91813082D01*
X102766918Y-91973263D01*
X102955271Y-92099116D01*
X103164557Y-92185806D01*
X103386735Y-92230000D01*
X103613265Y-92230000D01*
X103835443Y-92185806D01*
X104044729Y-92099116D01*
X104233082Y-91973263D01*
X104393263Y-91813082D01*
X104519116Y-91624729D01*
X104605806Y-91415443D01*
X104650000Y-91193265D01*
X104650000Y-90966735D01*
X104605806Y-90744557D01*
X104519116Y-90535271D01*
X104393263Y-90346918D01*
X104233082Y-90186737D01*
X104224580Y-90181056D01*
X113050000Y-90181056D01*
X113050000Y-90318944D01*
X113076901Y-90454182D01*
X113129668Y-90581574D01*
X113206274Y-90696224D01*
X113303776Y-90793726D01*
X113418426Y-90870332D01*
X113545818Y-90923099D01*
X113681056Y-90950000D01*
X113818944Y-90950000D01*
X113954182Y-90923099D01*
X114081574Y-90870332D01*
X114196224Y-90793726D01*
X114293726Y-90696224D01*
X114370332Y-90581574D01*
X114423099Y-90454182D01*
X114427699Y-90431056D01*
X124050000Y-90431056D01*
X124050000Y-90568944D01*
X124076901Y-90704182D01*
X124129668Y-90831574D01*
X124206274Y-90946224D01*
X124303776Y-91043726D01*
X124418426Y-91120332D01*
X124545818Y-91173099D01*
X124681056Y-91200000D01*
X124818944Y-91200000D01*
X124954182Y-91173099D01*
X125081574Y-91120332D01*
X125196224Y-91043726D01*
X125293726Y-90946224D01*
X125370332Y-90831574D01*
X125423099Y-90704182D01*
X125450000Y-90568944D01*
X125450000Y-90431056D01*
X125423099Y-90295818D01*
X125370332Y-90168426D01*
X125293726Y-90053776D01*
X125196224Y-89956274D01*
X125081574Y-89879668D01*
X124954182Y-89826901D01*
X124818944Y-89800000D01*
X124681056Y-89800000D01*
X124545818Y-89826901D01*
X124418426Y-89879668D01*
X124303776Y-89956274D01*
X124206274Y-90053776D01*
X124129668Y-90168426D01*
X124076901Y-90295818D01*
X124050000Y-90431056D01*
X114427699Y-90431056D01*
X114450000Y-90318944D01*
X114450000Y-90181056D01*
X114423099Y-90045818D01*
X114370332Y-89918426D01*
X114293726Y-89803776D01*
X114196224Y-89706274D01*
X114081574Y-89629668D01*
X113954182Y-89576901D01*
X113818944Y-89550000D01*
X113681056Y-89550000D01*
X113545818Y-89576901D01*
X113418426Y-89629668D01*
X113303776Y-89706274D01*
X113206274Y-89803776D01*
X113129668Y-89918426D01*
X113076901Y-90045818D01*
X113050000Y-90181056D01*
X104224580Y-90181056D01*
X104044729Y-90060884D01*
X103835443Y-89974194D01*
X103613265Y-89930000D01*
X103386735Y-89930000D01*
X103164557Y-89974194D01*
X102955271Y-90060884D01*
X102766918Y-90186737D01*
X102606737Y-90346918D01*
X102480884Y-90535271D01*
X102394194Y-90744557D01*
X102350000Y-90966735D01*
X95800000Y-90966735D01*
X95800000Y-88426735D01*
X102350000Y-88426735D01*
X102350000Y-88653265D01*
X102394194Y-88875443D01*
X102480884Y-89084729D01*
X102606737Y-89273082D01*
X102766918Y-89433263D01*
X102955271Y-89559116D01*
X103164557Y-89645806D01*
X103386735Y-89690000D01*
X103613265Y-89690000D01*
X103835443Y-89645806D01*
X104044729Y-89559116D01*
X104233082Y-89433263D01*
X104360289Y-89306056D01*
X117550000Y-89306056D01*
X117550000Y-89443944D01*
X117576901Y-89579182D01*
X117629668Y-89706574D01*
X117706274Y-89821224D01*
X117803776Y-89918726D01*
X117918426Y-89995332D01*
X118045818Y-90048099D01*
X118181056Y-90075000D01*
X118318944Y-90075000D01*
X118454182Y-90048099D01*
X118581574Y-89995332D01*
X118696224Y-89918726D01*
X118793726Y-89821224D01*
X118870332Y-89706574D01*
X118923099Y-89579182D01*
X118950000Y-89443944D01*
X118950000Y-89306056D01*
X118925136Y-89181056D01*
X135550000Y-89181056D01*
X135550000Y-89318944D01*
X135576901Y-89454182D01*
X135629668Y-89581574D01*
X135706274Y-89696224D01*
X135803776Y-89793726D01*
X135918426Y-89870332D01*
X136045818Y-89923099D01*
X136181056Y-89950000D01*
X136318944Y-89950000D01*
X136454182Y-89923099D01*
X136581574Y-89870332D01*
X136696224Y-89793726D01*
X136793726Y-89696224D01*
X136870332Y-89581574D01*
X136923099Y-89454182D01*
X136950000Y-89318944D01*
X136950000Y-89181056D01*
X136923099Y-89045818D01*
X136870332Y-88918426D01*
X136793726Y-88803776D01*
X136696224Y-88706274D01*
X136581574Y-88629668D01*
X136454182Y-88576901D01*
X136318944Y-88550000D01*
X136181056Y-88550000D01*
X136045818Y-88576901D01*
X135918426Y-88629668D01*
X135803776Y-88706274D01*
X135706274Y-88803776D01*
X135629668Y-88918426D01*
X135576901Y-89045818D01*
X135550000Y-89181056D01*
X118925136Y-89181056D01*
X118923099Y-89170818D01*
X118870332Y-89043426D01*
X118793726Y-88928776D01*
X118696224Y-88831274D01*
X118581574Y-88754668D01*
X118454182Y-88701901D01*
X118318944Y-88675000D01*
X118181056Y-88675000D01*
X118045818Y-88701901D01*
X117918426Y-88754668D01*
X117803776Y-88831274D01*
X117706274Y-88928776D01*
X117629668Y-89043426D01*
X117576901Y-89170818D01*
X117550000Y-89306056D01*
X104360289Y-89306056D01*
X104393263Y-89273082D01*
X104519116Y-89084729D01*
X104605806Y-88875443D01*
X104650000Y-88653265D01*
X104650000Y-88426735D01*
X104605806Y-88204557D01*
X104519116Y-87995271D01*
X104393263Y-87806918D01*
X104233082Y-87646737D01*
X104044729Y-87520884D01*
X103835443Y-87434194D01*
X103613265Y-87390000D01*
X103386735Y-87390000D01*
X103164557Y-87434194D01*
X102955271Y-87520884D01*
X102766918Y-87646737D01*
X102606737Y-87806918D01*
X102480884Y-87995271D01*
X102394194Y-88204557D01*
X102350000Y-88426735D01*
X95800000Y-88426735D01*
X95800000Y-87750000D01*
X95799039Y-87740245D01*
X95796194Y-87730866D01*
X95791573Y-87722221D01*
X95785355Y-87714645D01*
X95535355Y-87464645D01*
X95527779Y-87458427D01*
X95519134Y-87453806D01*
X95509755Y-87450961D01*
X95500000Y-87450000D01*
X88800000Y-87450000D01*
X88800000Y-87181056D01*
X109050000Y-87181056D01*
X109050000Y-87318944D01*
X109076901Y-87454182D01*
X109129668Y-87581574D01*
X109206274Y-87696224D01*
X109303776Y-87793726D01*
X109418426Y-87870332D01*
X109545818Y-87923099D01*
X109681056Y-87950000D01*
X109818944Y-87950000D01*
X109914180Y-87931056D01*
X125300000Y-87931056D01*
X125300000Y-88068944D01*
X125326901Y-88204182D01*
X125379668Y-88331574D01*
X125456274Y-88446224D01*
X125553776Y-88543726D01*
X125668426Y-88620332D01*
X125795818Y-88673099D01*
X125931056Y-88700000D01*
X126068944Y-88700000D01*
X126204182Y-88673099D01*
X126331574Y-88620332D01*
X126446224Y-88543726D01*
X126543726Y-88446224D01*
X126620332Y-88331574D01*
X126673099Y-88204182D01*
X126700000Y-88068944D01*
X126700000Y-88003593D01*
X139978309Y-88003593D01*
X140008837Y-88120795D01*
X140102142Y-88326546D01*
X140233794Y-88510140D01*
X140398734Y-88664522D01*
X140590623Y-88783760D01*
X140802087Y-88863271D01*
X141025000Y-88900000D01*
X141175000Y-88900000D01*
X141175000Y-87825000D01*
X141325000Y-87825000D01*
X141325000Y-88900000D01*
X141475000Y-88900000D01*
X141697913Y-88863271D01*
X141909377Y-88783760D01*
X142101266Y-88664522D01*
X142266206Y-88510140D01*
X142397858Y-88326546D01*
X142491163Y-88120795D01*
X142521691Y-88003593D01*
X142472381Y-87825000D01*
X141325000Y-87825000D01*
X141175000Y-87825000D01*
X140027619Y-87825000D01*
X139978309Y-88003593D01*
X126700000Y-88003593D01*
X126700000Y-87931056D01*
X126673099Y-87795818D01*
X126620332Y-87668426D01*
X126543726Y-87553776D01*
X126446224Y-87456274D01*
X126331574Y-87379668D01*
X126204182Y-87326901D01*
X126068944Y-87300000D01*
X125931056Y-87300000D01*
X125795818Y-87326901D01*
X125668426Y-87379668D01*
X125553776Y-87456274D01*
X125456274Y-87553776D01*
X125379668Y-87668426D01*
X125326901Y-87795818D01*
X125300000Y-87931056D01*
X109914180Y-87931056D01*
X109954182Y-87923099D01*
X110081574Y-87870332D01*
X110196224Y-87793726D01*
X110293726Y-87696224D01*
X110370332Y-87581574D01*
X110423099Y-87454182D01*
X110450000Y-87318944D01*
X110450000Y-87181056D01*
X110423099Y-87045818D01*
X110370332Y-86918426D01*
X110293726Y-86803776D01*
X110283543Y-86793593D01*
X134878309Y-86793593D01*
X134926456Y-86952324D01*
X135027524Y-87153839D01*
X135165964Y-87331765D01*
X135336456Y-87479264D01*
X135532447Y-87590667D01*
X135746406Y-87661694D01*
X135925000Y-87612555D01*
X135925000Y-86615000D01*
X136075000Y-86615000D01*
X136075000Y-87612555D01*
X136253594Y-87661694D01*
X136467553Y-87590667D01*
X136633384Y-87496407D01*
X139978309Y-87496407D01*
X140027619Y-87675000D01*
X141175000Y-87675000D01*
X141175000Y-86600000D01*
X141325000Y-86600000D01*
X141325000Y-87675000D01*
X142472381Y-87675000D01*
X142521691Y-87496407D01*
X142491163Y-87379205D01*
X142397858Y-87173454D01*
X142266206Y-86989860D01*
X142101266Y-86835478D01*
X141909377Y-86716240D01*
X141697913Y-86636729D01*
X141475000Y-86600000D01*
X141325000Y-86600000D01*
X141175000Y-86600000D01*
X141025000Y-86600000D01*
X140802087Y-86636729D01*
X140590623Y-86716240D01*
X140398734Y-86835478D01*
X140233794Y-86989860D01*
X140102142Y-87173454D01*
X140008837Y-87379205D01*
X139978309Y-87496407D01*
X136633384Y-87496407D01*
X136663544Y-87479264D01*
X136834036Y-87331765D01*
X136972476Y-87153839D01*
X137073544Y-86952324D01*
X137121691Y-86793593D01*
X137072381Y-86615000D01*
X136075000Y-86615000D01*
X135925000Y-86615000D01*
X134927619Y-86615000D01*
X134878309Y-86793593D01*
X110283543Y-86793593D01*
X110196224Y-86706274D01*
X110081574Y-86629668D01*
X109954182Y-86576901D01*
X109818944Y-86550000D01*
X109681056Y-86550000D01*
X109545818Y-86576901D01*
X109418426Y-86629668D01*
X109303776Y-86706274D01*
X109206274Y-86803776D01*
X109129668Y-86918426D01*
X109076901Y-87045818D01*
X109050000Y-87181056D01*
X88800000Y-87181056D01*
X88800000Y-85021659D01*
X96400000Y-85021659D01*
X96400000Y-85238341D01*
X96442273Y-85450858D01*
X96525193Y-85651045D01*
X96645575Y-85831209D01*
X96798791Y-85984425D01*
X96978955Y-86104807D01*
X97179142Y-86187727D01*
X97391659Y-86230000D01*
X97608341Y-86230000D01*
X97820858Y-86187727D01*
X98021045Y-86104807D01*
X98201209Y-85984425D01*
X98354425Y-85831209D01*
X98474807Y-85651045D01*
X98557727Y-85450858D01*
X98572666Y-85375755D01*
X98967800Y-85375755D01*
X99036346Y-85580209D01*
X99143462Y-85767362D01*
X99285032Y-85930021D01*
X99455615Y-86061936D01*
X99648655Y-86158037D01*
X99794246Y-86202196D01*
X99965000Y-86152252D01*
X99965000Y-85205000D01*
X100115000Y-85205000D01*
X100115000Y-86152252D01*
X100285754Y-86202196D01*
X100431345Y-86158037D01*
X100624385Y-86061936D01*
X100794968Y-85930021D01*
X100936538Y-85767362D01*
X101043654Y-85580209D01*
X101112200Y-85375755D01*
X101062444Y-85205000D01*
X100115000Y-85205000D01*
X99965000Y-85205000D01*
X99017556Y-85205000D01*
X98967800Y-85375755D01*
X98572666Y-85375755D01*
X98600000Y-85238341D01*
X98600000Y-85150000D01*
X102348549Y-85150000D01*
X102348549Y-86850000D01*
X102354341Y-86908810D01*
X102371496Y-86965360D01*
X102399353Y-87017477D01*
X102436842Y-87063158D01*
X102482523Y-87100647D01*
X102534640Y-87128504D01*
X102591190Y-87145659D01*
X102650000Y-87151451D01*
X104350000Y-87151451D01*
X104408810Y-87145659D01*
X104465360Y-87128504D01*
X104517477Y-87100647D01*
X104563158Y-87063158D01*
X104600647Y-87017477D01*
X104628504Y-86965360D01*
X104645659Y-86908810D01*
X104651451Y-86850000D01*
X104651451Y-85495755D01*
X105887800Y-85495755D01*
X105956346Y-85700209D01*
X106063462Y-85887362D01*
X106205032Y-86050021D01*
X106375615Y-86181936D01*
X106568655Y-86278037D01*
X106714246Y-86322196D01*
X106885000Y-86272252D01*
X106885000Y-85325000D01*
X107035000Y-85325000D01*
X107035000Y-86272252D01*
X107205754Y-86322196D01*
X107351345Y-86278037D01*
X107544385Y-86181936D01*
X107714968Y-86050021D01*
X107856538Y-85887362D01*
X107963654Y-85700209D01*
X108032200Y-85495755D01*
X107982444Y-85325000D01*
X107035000Y-85325000D01*
X106885000Y-85325000D01*
X105937556Y-85325000D01*
X105887800Y-85495755D01*
X104651451Y-85495755D01*
X104651451Y-85150000D01*
X104645659Y-85091190D01*
X104628504Y-85034640D01*
X104612258Y-85004245D01*
X105887800Y-85004245D01*
X105937556Y-85175000D01*
X106885000Y-85175000D01*
X106885000Y-84227748D01*
X107035000Y-84227748D01*
X107035000Y-85175000D01*
X107982444Y-85175000D01*
X108032200Y-85004245D01*
X107963654Y-84799791D01*
X107856538Y-84612638D01*
X107714987Y-84450000D01*
X108398549Y-84450000D01*
X108398549Y-86050000D01*
X108404341Y-86108810D01*
X108421496Y-86165360D01*
X108449353Y-86217477D01*
X108486842Y-86263158D01*
X108532523Y-86300647D01*
X108584640Y-86328504D01*
X108641190Y-86345659D01*
X108700000Y-86351451D01*
X110300000Y-86351451D01*
X110358810Y-86345659D01*
X110415360Y-86328504D01*
X110467477Y-86300647D01*
X110484828Y-86286407D01*
X134878309Y-86286407D01*
X134927619Y-86465000D01*
X135925000Y-86465000D01*
X135925000Y-85467445D01*
X136075000Y-85467445D01*
X136075000Y-86465000D01*
X137072381Y-86465000D01*
X137121691Y-86286407D01*
X137073544Y-86127676D01*
X136972476Y-85926161D01*
X136834036Y-85748235D01*
X136663544Y-85600736D01*
X136467553Y-85489333D01*
X136253594Y-85418306D01*
X136075000Y-85467445D01*
X135925000Y-85467445D01*
X135746406Y-85418306D01*
X135532447Y-85489333D01*
X135336456Y-85600736D01*
X135165964Y-85748235D01*
X135027524Y-85926161D01*
X134926456Y-86127676D01*
X134878309Y-86286407D01*
X110484828Y-86286407D01*
X110513158Y-86263158D01*
X110550647Y-86217477D01*
X110578504Y-86165360D01*
X110595659Y-86108810D01*
X110601451Y-86050000D01*
X110601451Y-84450000D01*
X110595659Y-84391190D01*
X110578504Y-84334640D01*
X110550647Y-84282523D01*
X110513158Y-84236842D01*
X110467477Y-84199353D01*
X110415360Y-84171496D01*
X110358810Y-84154341D01*
X110300000Y-84148549D01*
X108700000Y-84148549D01*
X108641190Y-84154341D01*
X108584640Y-84171496D01*
X108532523Y-84199353D01*
X108486842Y-84236842D01*
X108449353Y-84282523D01*
X108421496Y-84334640D01*
X108404341Y-84391190D01*
X108398549Y-84450000D01*
X107714987Y-84450000D01*
X107714968Y-84449979D01*
X107544385Y-84318064D01*
X107351345Y-84221963D01*
X107205754Y-84177804D01*
X107035000Y-84227748D01*
X106885000Y-84227748D01*
X106714246Y-84177804D01*
X106568655Y-84221963D01*
X106375615Y-84318064D01*
X106205032Y-84449979D01*
X106063462Y-84612638D01*
X105956346Y-84799791D01*
X105887800Y-85004245D01*
X104612258Y-85004245D01*
X104600647Y-84982523D01*
X104563158Y-84936842D01*
X104517477Y-84899353D01*
X104465360Y-84871496D01*
X104408810Y-84854341D01*
X104350000Y-84848549D01*
X102650000Y-84848549D01*
X102591190Y-84854341D01*
X102534640Y-84871496D01*
X102482523Y-84899353D01*
X102436842Y-84936842D01*
X102399353Y-84982523D01*
X102371496Y-85034640D01*
X102354341Y-85091190D01*
X102348549Y-85150000D01*
X98600000Y-85150000D01*
X98600000Y-85021659D01*
X98572667Y-84884245D01*
X98967800Y-84884245D01*
X99017556Y-85055000D01*
X99965000Y-85055000D01*
X99965000Y-84107748D01*
X100115000Y-84107748D01*
X100115000Y-85055000D01*
X101062444Y-85055000D01*
X101112200Y-84884245D01*
X101043654Y-84679791D01*
X100936538Y-84492638D01*
X100794968Y-84329979D01*
X100624385Y-84198064D01*
X100431345Y-84101963D01*
X100285754Y-84057804D01*
X100115000Y-84107748D01*
X99965000Y-84107748D01*
X99794246Y-84057804D01*
X99648655Y-84101963D01*
X99455615Y-84198064D01*
X99285032Y-84329979D01*
X99143462Y-84492638D01*
X99036346Y-84679791D01*
X98967800Y-84884245D01*
X98572667Y-84884245D01*
X98557727Y-84809142D01*
X98474807Y-84608955D01*
X98354425Y-84428791D01*
X98201209Y-84275575D01*
X98021045Y-84155193D01*
X97820858Y-84072273D01*
X97608341Y-84030000D01*
X97391659Y-84030000D01*
X97179142Y-84072273D01*
X96978955Y-84155193D01*
X96798791Y-84275575D01*
X96645575Y-84428791D01*
X96525193Y-84608955D01*
X96442273Y-84809142D01*
X96400000Y-85021659D01*
X88800000Y-85021659D01*
X88800000Y-83931056D01*
X115800000Y-83931056D01*
X115800000Y-84068944D01*
X115826901Y-84204182D01*
X115879668Y-84331574D01*
X115956274Y-84446224D01*
X116053776Y-84543726D01*
X116168426Y-84620332D01*
X116295818Y-84673099D01*
X116431056Y-84700000D01*
X116568944Y-84700000D01*
X116704182Y-84673099D01*
X116831574Y-84620332D01*
X116946224Y-84543726D01*
X117043726Y-84446224D01*
X117053860Y-84431056D01*
X120050000Y-84431056D01*
X120050000Y-84568944D01*
X120076901Y-84704182D01*
X120129668Y-84831574D01*
X120206274Y-84946224D01*
X120303776Y-85043726D01*
X120418426Y-85120332D01*
X120545818Y-85173099D01*
X120681056Y-85200000D01*
X120818944Y-85200000D01*
X120954182Y-85173099D01*
X121081574Y-85120332D01*
X121196224Y-85043726D01*
X121293726Y-84946224D01*
X121370332Y-84831574D01*
X121423099Y-84704182D01*
X121450000Y-84568944D01*
X121450000Y-84431056D01*
X121423099Y-84295818D01*
X121370332Y-84168426D01*
X121293726Y-84053776D01*
X121196224Y-83956274D01*
X121081574Y-83879668D01*
X120954182Y-83826901D01*
X120818944Y-83800000D01*
X120681056Y-83800000D01*
X120545818Y-83826901D01*
X120418426Y-83879668D01*
X120303776Y-83956274D01*
X120206274Y-84053776D01*
X120129668Y-84168426D01*
X120076901Y-84295818D01*
X120050000Y-84431056D01*
X117053860Y-84431056D01*
X117120332Y-84331574D01*
X117173099Y-84204182D01*
X117200000Y-84068944D01*
X117200000Y-83931056D01*
X117173099Y-83795818D01*
X117120332Y-83668426D01*
X117043726Y-83553776D01*
X116946224Y-83456274D01*
X116831574Y-83379668D01*
X116704182Y-83326901D01*
X116568944Y-83300000D01*
X116431056Y-83300000D01*
X116295818Y-83326901D01*
X116168426Y-83379668D01*
X116053776Y-83456274D01*
X115956274Y-83553776D01*
X115879668Y-83668426D01*
X115826901Y-83795818D01*
X115800000Y-83931056D01*
X88800000Y-83931056D01*
X88800000Y-82431056D01*
X99800000Y-82431056D01*
X99800000Y-82568944D01*
X99826901Y-82704182D01*
X99879668Y-82831574D01*
X99956274Y-82946224D01*
X100053776Y-83043726D01*
X100168426Y-83120332D01*
X100295818Y-83173099D01*
X100431056Y-83200000D01*
X100568944Y-83200000D01*
X100704182Y-83173099D01*
X100759948Y-83150000D01*
X134848549Y-83150000D01*
X134848549Y-84850000D01*
X134854341Y-84908810D01*
X134871496Y-84965360D01*
X134899353Y-85017477D01*
X134936842Y-85063158D01*
X134982523Y-85100647D01*
X135034640Y-85128504D01*
X135091190Y-85145659D01*
X135150000Y-85151451D01*
X136850000Y-85151451D01*
X136908810Y-85145659D01*
X136965360Y-85128504D01*
X137017477Y-85100647D01*
X137063158Y-85063158D01*
X137100647Y-85017477D01*
X137128504Y-84965360D01*
X137145659Y-84908810D01*
X137151451Y-84850000D01*
X137151451Y-84650000D01*
X139948549Y-84650000D01*
X139948549Y-85850000D01*
X139959145Y-85957583D01*
X139990526Y-86061031D01*
X140041485Y-86156370D01*
X140110065Y-86239935D01*
X140193630Y-86308515D01*
X140288969Y-86359474D01*
X140392417Y-86390855D01*
X140500000Y-86401451D01*
X142000000Y-86401451D01*
X142107583Y-86390855D01*
X142211031Y-86359474D01*
X142306370Y-86308515D01*
X142389935Y-86239935D01*
X142458515Y-86156370D01*
X142509474Y-86061031D01*
X142540855Y-85957583D01*
X142551451Y-85850000D01*
X142551451Y-84650000D01*
X142540855Y-84542417D01*
X142509474Y-84438969D01*
X142458515Y-84343630D01*
X142389935Y-84260065D01*
X142306370Y-84191485D01*
X142211031Y-84140526D01*
X142107583Y-84109145D01*
X142000000Y-84098549D01*
X140500000Y-84098549D01*
X140392417Y-84109145D01*
X140288969Y-84140526D01*
X140193630Y-84191485D01*
X140110065Y-84260065D01*
X140041485Y-84343630D01*
X139990526Y-84438969D01*
X139959145Y-84542417D01*
X139948549Y-84650000D01*
X137151451Y-84650000D01*
X137151451Y-83150000D01*
X137145659Y-83091190D01*
X137128504Y-83034640D01*
X137100647Y-82982523D01*
X137063158Y-82936842D01*
X137017477Y-82899353D01*
X136965360Y-82871496D01*
X136908810Y-82854341D01*
X136850000Y-82848549D01*
X135150000Y-82848549D01*
X135091190Y-82854341D01*
X135034640Y-82871496D01*
X134982523Y-82899353D01*
X134936842Y-82936842D01*
X134899353Y-82982523D01*
X134871496Y-83034640D01*
X134854341Y-83091190D01*
X134848549Y-83150000D01*
X100759948Y-83150000D01*
X100831574Y-83120332D01*
X100946224Y-83043726D01*
X101043726Y-82946224D01*
X101120332Y-82831574D01*
X101173099Y-82704182D01*
X101200000Y-82568944D01*
X101200000Y-82431056D01*
X101173099Y-82295818D01*
X101125564Y-82181056D01*
X117800000Y-82181056D01*
X117800000Y-82318944D01*
X117826901Y-82454182D01*
X117879668Y-82581574D01*
X117956274Y-82696224D01*
X118053776Y-82793726D01*
X118168426Y-82870332D01*
X118295818Y-82923099D01*
X118431056Y-82950000D01*
X118568944Y-82950000D01*
X118704182Y-82923099D01*
X118831574Y-82870332D01*
X118946224Y-82793726D01*
X119043726Y-82696224D01*
X119120332Y-82581574D01*
X119173099Y-82454182D01*
X119200000Y-82318944D01*
X119200000Y-82181056D01*
X119173099Y-82045818D01*
X119125564Y-81931056D01*
X122550000Y-81931056D01*
X122550000Y-82068944D01*
X122576901Y-82204182D01*
X122629668Y-82331574D01*
X122706274Y-82446224D01*
X122803776Y-82543726D01*
X122918426Y-82620332D01*
X123045818Y-82673099D01*
X123181056Y-82700000D01*
X123318944Y-82700000D01*
X123454182Y-82673099D01*
X123581574Y-82620332D01*
X123696224Y-82543726D01*
X123793726Y-82446224D01*
X123870332Y-82331574D01*
X123923099Y-82204182D01*
X123950000Y-82068944D01*
X123950000Y-81931056D01*
X123923099Y-81795818D01*
X123870332Y-81668426D01*
X123793726Y-81553776D01*
X123696224Y-81456274D01*
X123581574Y-81379668D01*
X123454182Y-81326901D01*
X123318944Y-81300000D01*
X123181056Y-81300000D01*
X123045818Y-81326901D01*
X122918426Y-81379668D01*
X122803776Y-81456274D01*
X122706274Y-81553776D01*
X122629668Y-81668426D01*
X122576901Y-81795818D01*
X122550000Y-81931056D01*
X119125564Y-81931056D01*
X119120332Y-81918426D01*
X119043726Y-81803776D01*
X118946224Y-81706274D01*
X118831574Y-81629668D01*
X118704182Y-81576901D01*
X118568944Y-81550000D01*
X118431056Y-81550000D01*
X118295818Y-81576901D01*
X118168426Y-81629668D01*
X118053776Y-81706274D01*
X117956274Y-81803776D01*
X117879668Y-81918426D01*
X117826901Y-82045818D01*
X117800000Y-82181056D01*
X101125564Y-82181056D01*
X101120332Y-82168426D01*
X101043726Y-82053776D01*
X100946224Y-81956274D01*
X100831574Y-81879668D01*
X100704182Y-81826901D01*
X100568944Y-81800000D01*
X100431056Y-81800000D01*
X100295818Y-81826901D01*
X100168426Y-81879668D01*
X100053776Y-81956274D01*
X99956274Y-82053776D01*
X99879668Y-82168426D01*
X99826901Y-82295818D01*
X99800000Y-82431056D01*
X88800000Y-82431056D01*
X88800000Y-80107187D01*
X90770000Y-80107187D01*
X90770000Y-80392813D01*
X90825723Y-80672949D01*
X90935027Y-80936833D01*
X91093711Y-81174321D01*
X91295679Y-81376289D01*
X91533167Y-81534973D01*
X91797051Y-81644277D01*
X92077187Y-81700000D01*
X92362813Y-81700000D01*
X92642949Y-81644277D01*
X92906833Y-81534973D01*
X93144321Y-81376289D01*
X93241784Y-81278826D01*
X109077240Y-81278826D01*
X109205399Y-81471272D01*
X109458926Y-81602824D01*
X109733245Y-81682388D01*
X110017816Y-81706906D01*
X110301702Y-81675436D01*
X110573993Y-81589187D01*
X110794601Y-81471272D01*
X110922760Y-81278826D01*
X110000000Y-80356066D01*
X109077240Y-81278826D01*
X93241784Y-81278826D01*
X93346289Y-81174321D01*
X93504973Y-80936833D01*
X93614277Y-80672949D01*
X93670000Y-80392813D01*
X93670000Y-80267816D01*
X108543094Y-80267816D01*
X108574564Y-80551702D01*
X108660813Y-80823993D01*
X108778728Y-81044601D01*
X108971174Y-81172760D01*
X109893934Y-80250000D01*
X110106066Y-80250000D01*
X111028826Y-81172760D01*
X111221272Y-81044601D01*
X111280189Y-80931056D01*
X127050000Y-80931056D01*
X127050000Y-81068944D01*
X127076901Y-81204182D01*
X127129668Y-81331574D01*
X127206274Y-81446224D01*
X127303776Y-81543726D01*
X127418426Y-81620332D01*
X127545818Y-81673099D01*
X127681056Y-81700000D01*
X127818944Y-81700000D01*
X127954182Y-81673099D01*
X128081574Y-81620332D01*
X128196224Y-81543726D01*
X128293726Y-81446224D01*
X128370332Y-81331574D01*
X128423099Y-81204182D01*
X128450000Y-81068944D01*
X128450000Y-80931056D01*
X130050000Y-80931056D01*
X130050000Y-81068944D01*
X130076901Y-81204182D01*
X130129668Y-81331574D01*
X130206274Y-81446224D01*
X130303776Y-81543726D01*
X130418426Y-81620332D01*
X130545818Y-81673099D01*
X130681056Y-81700000D01*
X130818944Y-81700000D01*
X130954182Y-81673099D01*
X131081574Y-81620332D01*
X131196224Y-81543726D01*
X131293726Y-81446224D01*
X131370332Y-81331574D01*
X131423099Y-81204182D01*
X131450000Y-81068944D01*
X131450000Y-80931056D01*
X131423099Y-80795818D01*
X131370332Y-80668426D01*
X131293726Y-80553776D01*
X131196224Y-80456274D01*
X131081574Y-80379668D01*
X130954182Y-80326901D01*
X130818944Y-80300000D01*
X130681056Y-80300000D01*
X130545818Y-80326901D01*
X130418426Y-80379668D01*
X130303776Y-80456274D01*
X130206274Y-80553776D01*
X130129668Y-80668426D01*
X130076901Y-80795818D01*
X130050000Y-80931056D01*
X128450000Y-80931056D01*
X128423099Y-80795818D01*
X128370332Y-80668426D01*
X128293726Y-80553776D01*
X128196224Y-80456274D01*
X128081574Y-80379668D01*
X127954182Y-80326901D01*
X127818944Y-80300000D01*
X127681056Y-80300000D01*
X127545818Y-80326901D01*
X127418426Y-80379668D01*
X127303776Y-80456274D01*
X127206274Y-80553776D01*
X127129668Y-80668426D01*
X127076901Y-80795818D01*
X127050000Y-80931056D01*
X111280189Y-80931056D01*
X111352824Y-80791074D01*
X111432388Y-80516755D01*
X111456906Y-80232184D01*
X111425436Y-79948298D01*
X111339187Y-79676007D01*
X111320828Y-79641659D01*
X128030000Y-79641659D01*
X128030000Y-79858341D01*
X128072273Y-80070858D01*
X128155193Y-80271045D01*
X128275575Y-80451209D01*
X128428791Y-80604425D01*
X128608955Y-80724807D01*
X128809142Y-80807727D01*
X129021659Y-80850000D01*
X129238341Y-80850000D01*
X129450858Y-80807727D01*
X129651045Y-80724807D01*
X129831209Y-80604425D01*
X129984425Y-80451209D01*
X130104807Y-80271045D01*
X130187727Y-80070858D01*
X130230000Y-79858341D01*
X130230000Y-79641659D01*
X130187727Y-79429142D01*
X130104807Y-79228955D01*
X129984425Y-79048791D01*
X129885634Y-78950000D01*
X135648549Y-78950000D01*
X135648549Y-80550000D01*
X135654341Y-80608810D01*
X135671496Y-80665360D01*
X135699353Y-80717477D01*
X135736842Y-80763158D01*
X135782523Y-80800647D01*
X135834640Y-80828504D01*
X135891190Y-80845659D01*
X135950000Y-80851451D01*
X137550000Y-80851451D01*
X137608810Y-80845659D01*
X137665360Y-80828504D01*
X137717477Y-80800647D01*
X137763158Y-80763158D01*
X137800647Y-80717477D01*
X137828504Y-80665360D01*
X137845659Y-80608810D01*
X137851451Y-80550000D01*
X137851451Y-78950000D01*
X137845659Y-78891190D01*
X137828504Y-78834640D01*
X137800647Y-78782523D01*
X137763158Y-78736842D01*
X137717477Y-78699353D01*
X137665360Y-78671496D01*
X137608810Y-78654341D01*
X137550000Y-78648549D01*
X135950000Y-78648549D01*
X135891190Y-78654341D01*
X135834640Y-78671496D01*
X135782523Y-78699353D01*
X135736842Y-78736842D01*
X135699353Y-78782523D01*
X135671496Y-78834640D01*
X135654341Y-78891190D01*
X135648549Y-78950000D01*
X129885634Y-78950000D01*
X129831209Y-78895575D01*
X129651045Y-78775193D01*
X129450858Y-78692273D01*
X129238341Y-78650000D01*
X129021659Y-78650000D01*
X128809142Y-78692273D01*
X128608955Y-78775193D01*
X128428791Y-78895575D01*
X128275575Y-79048791D01*
X128155193Y-79228955D01*
X128072273Y-79429142D01*
X128030000Y-79641659D01*
X111320828Y-79641659D01*
X111221272Y-79455399D01*
X111028826Y-79327240D01*
X110106066Y-80250000D01*
X109893934Y-80250000D01*
X108971174Y-79327240D01*
X108778728Y-79455399D01*
X108647176Y-79708926D01*
X108567612Y-79983245D01*
X108543094Y-80267816D01*
X93670000Y-80267816D01*
X93670000Y-80107187D01*
X93614277Y-79827051D01*
X93504973Y-79563167D01*
X93346289Y-79325679D01*
X93241784Y-79221174D01*
X109077240Y-79221174D01*
X110000000Y-80143934D01*
X110922760Y-79221174D01*
X110794601Y-79028728D01*
X110541074Y-78897176D01*
X110266755Y-78817612D01*
X109982184Y-78793094D01*
X109698298Y-78824564D01*
X109426007Y-78910813D01*
X109205399Y-79028728D01*
X109077240Y-79221174D01*
X93241784Y-79221174D01*
X93144321Y-79123711D01*
X92906833Y-78965027D01*
X92642949Y-78855723D01*
X92362813Y-78800000D01*
X92077187Y-78800000D01*
X91797051Y-78855723D01*
X91533167Y-78965027D01*
X91295679Y-79123711D01*
X91093711Y-79325679D01*
X90935027Y-79563167D01*
X90825723Y-79827051D01*
X90770000Y-80107187D01*
X88800000Y-80107187D01*
X88800000Y-78252454D01*
X88807032Y-78181056D01*
X116050000Y-78181056D01*
X116050000Y-78318944D01*
X116076901Y-78454182D01*
X116129668Y-78581574D01*
X116206274Y-78696224D01*
X116303776Y-78793726D01*
X116418426Y-78870332D01*
X116545818Y-78923099D01*
X116681056Y-78950000D01*
X116818944Y-78950000D01*
X116954182Y-78923099D01*
X117081574Y-78870332D01*
X117196224Y-78793726D01*
X117293726Y-78696224D01*
X117370332Y-78581574D01*
X117404120Y-78500000D01*
X139944436Y-78500000D01*
X139966640Y-78725439D01*
X140032398Y-78942215D01*
X140139184Y-79141997D01*
X140282893Y-79317107D01*
X140458003Y-79460816D01*
X140657785Y-79567602D01*
X140874561Y-79633360D01*
X141043508Y-79650000D01*
X141456492Y-79650000D01*
X141625439Y-79633360D01*
X141842215Y-79567602D01*
X142041997Y-79460816D01*
X142217107Y-79317107D01*
X142360816Y-79141997D01*
X142467602Y-78942215D01*
X142533360Y-78725439D01*
X142555564Y-78500000D01*
X142533360Y-78274561D01*
X142467602Y-78057785D01*
X142360816Y-77858003D01*
X142217107Y-77682893D01*
X142041997Y-77539184D01*
X141842215Y-77432398D01*
X141625439Y-77366640D01*
X141456492Y-77350000D01*
X141043508Y-77350000D01*
X140874561Y-77366640D01*
X140657785Y-77432398D01*
X140458003Y-77539184D01*
X140282893Y-77682893D01*
X140139184Y-77858003D01*
X140032398Y-78057785D01*
X139966640Y-78274561D01*
X139944436Y-78500000D01*
X117404120Y-78500000D01*
X117423099Y-78454182D01*
X117450000Y-78318944D01*
X117450000Y-78181056D01*
X117423099Y-78045818D01*
X117370332Y-77918426D01*
X117293726Y-77803776D01*
X117196224Y-77706274D01*
X117081574Y-77629668D01*
X116954182Y-77576901D01*
X116818944Y-77550000D01*
X116681056Y-77550000D01*
X116545818Y-77576901D01*
X116418426Y-77629668D01*
X116303776Y-77706274D01*
X116206274Y-77803776D01*
X116129668Y-77918426D01*
X116076901Y-78045818D01*
X116050000Y-78181056D01*
X88807032Y-78181056D01*
X88818491Y-78064712D01*
X88872537Y-77886544D01*
X88960303Y-77722345D01*
X89078420Y-77578420D01*
X89222345Y-77460303D01*
X89230855Y-77455754D01*
X128057804Y-77455754D01*
X128101963Y-77601345D01*
X128198064Y-77794385D01*
X128329979Y-77964968D01*
X128492638Y-78106538D01*
X128679791Y-78213654D01*
X128884245Y-78282200D01*
X129055000Y-78232444D01*
X129055000Y-77285000D01*
X129205000Y-77285000D01*
X129205000Y-78232444D01*
X129375755Y-78282200D01*
X129580209Y-78213654D01*
X129767362Y-78106538D01*
X129930021Y-77964968D01*
X130061936Y-77794385D01*
X130158037Y-77601345D01*
X130202196Y-77455754D01*
X130152252Y-77285000D01*
X129205000Y-77285000D01*
X129055000Y-77285000D01*
X128107748Y-77285000D01*
X128057804Y-77455754D01*
X89230855Y-77455754D01*
X89386544Y-77372537D01*
X89564712Y-77318491D01*
X89752454Y-77300000D01*
X102835786Y-77300000D01*
X102840687Y-77299759D01*
X103035778Y-77280544D01*
X103045391Y-77278632D01*
X103232984Y-77221727D01*
X103242040Y-77217976D01*
X103414927Y-77125566D01*
X103423077Y-77120120D01*
X103574613Y-76995757D01*
X103578248Y-76992462D01*
X103606464Y-76964246D01*
X128057804Y-76964246D01*
X128107748Y-77135000D01*
X129055000Y-77135000D01*
X129055000Y-76187556D01*
X129205000Y-76187556D01*
X129205000Y-77135000D01*
X130152252Y-77135000D01*
X130162003Y-77101659D01*
X135650000Y-77101659D01*
X135650000Y-77318341D01*
X135692273Y-77530858D01*
X135775193Y-77731045D01*
X135895575Y-77911209D01*
X136048791Y-78064425D01*
X136228955Y-78184807D01*
X136429142Y-78267727D01*
X136641659Y-78310000D01*
X136858341Y-78310000D01*
X137070858Y-78267727D01*
X137271045Y-78184807D01*
X137451209Y-78064425D01*
X137604425Y-77911209D01*
X137724807Y-77731045D01*
X137807727Y-77530858D01*
X137850000Y-77318341D01*
X137850000Y-77101659D01*
X137807727Y-76889142D01*
X137724807Y-76688955D01*
X137604425Y-76508791D01*
X137451209Y-76355575D01*
X137271045Y-76235193D01*
X137070858Y-76152273D01*
X136858341Y-76110000D01*
X136641659Y-76110000D01*
X136429142Y-76152273D01*
X136228955Y-76235193D01*
X136048791Y-76355575D01*
X135895575Y-76508791D01*
X135775193Y-76688955D01*
X135692273Y-76889142D01*
X135650000Y-77101659D01*
X130162003Y-77101659D01*
X130202196Y-76964246D01*
X130158037Y-76818655D01*
X130061936Y-76625615D01*
X129930021Y-76455032D01*
X129767362Y-76313462D01*
X129580209Y-76206346D01*
X129375755Y-76137800D01*
X129205000Y-76187556D01*
X129055000Y-76187556D01*
X128884245Y-76137800D01*
X128679791Y-76206346D01*
X128492638Y-76313462D01*
X128329979Y-76455032D01*
X128198064Y-76625615D01*
X128101963Y-76818655D01*
X128057804Y-76964246D01*
X103606464Y-76964246D01*
X105543523Y-75027187D01*
X108550000Y-75027187D01*
X108550000Y-75312813D01*
X108605723Y-75592949D01*
X108715027Y-75856833D01*
X108873711Y-76094321D01*
X109075679Y-76296289D01*
X109313167Y-76454973D01*
X109577051Y-76564277D01*
X109857187Y-76620000D01*
X110142813Y-76620000D01*
X110422949Y-76564277D01*
X110686833Y-76454973D01*
X110924321Y-76296289D01*
X111039554Y-76181056D01*
X114050000Y-76181056D01*
X114050000Y-76318944D01*
X114076901Y-76454182D01*
X114129668Y-76581574D01*
X114206274Y-76696224D01*
X114303776Y-76793726D01*
X114418426Y-76870332D01*
X114545818Y-76923099D01*
X114681056Y-76950000D01*
X114818944Y-76950000D01*
X114954182Y-76923099D01*
X115081574Y-76870332D01*
X115196224Y-76793726D01*
X115293726Y-76696224D01*
X115370332Y-76581574D01*
X115423099Y-76454182D01*
X115450000Y-76318944D01*
X115450000Y-76181056D01*
X115423099Y-76045818D01*
X115370332Y-75918426D01*
X115293726Y-75803776D01*
X115196224Y-75706274D01*
X115081574Y-75629668D01*
X114954182Y-75576901D01*
X114818944Y-75550000D01*
X114681056Y-75550000D01*
X114545818Y-75576901D01*
X114418426Y-75629668D01*
X114303776Y-75706274D01*
X114206274Y-75803776D01*
X114129668Y-75918426D01*
X114076901Y-76045818D01*
X114050000Y-76181056D01*
X111039554Y-76181056D01*
X111126289Y-76094321D01*
X111284973Y-75856833D01*
X111394277Y-75592949D01*
X111432657Y-75400000D01*
X139948549Y-75400000D01*
X139948549Y-76600000D01*
X139959145Y-76707583D01*
X139990526Y-76811031D01*
X140041485Y-76906370D01*
X140110065Y-76989935D01*
X140193630Y-77058515D01*
X140288969Y-77109474D01*
X140392417Y-77140855D01*
X140500000Y-77151451D01*
X142000000Y-77151451D01*
X142107583Y-77140855D01*
X142211031Y-77109474D01*
X142306370Y-77058515D01*
X142389935Y-76989935D01*
X142458515Y-76906370D01*
X142509474Y-76811031D01*
X142540855Y-76707583D01*
X142551451Y-76600000D01*
X142551451Y-75400000D01*
X142540855Y-75292417D01*
X142509474Y-75188969D01*
X142458515Y-75093630D01*
X142389935Y-75010065D01*
X142306370Y-74941485D01*
X142211031Y-74890526D01*
X142107583Y-74859145D01*
X142000000Y-74848549D01*
X140500000Y-74848549D01*
X140392417Y-74859145D01*
X140288969Y-74890526D01*
X140193630Y-74941485D01*
X140110065Y-75010065D01*
X140041485Y-75093630D01*
X139990526Y-75188969D01*
X139959145Y-75292417D01*
X139948549Y-75400000D01*
X111432657Y-75400000D01*
X111450000Y-75312813D01*
X111450000Y-75027187D01*
X111394277Y-74747051D01*
X111284973Y-74483167D01*
X111250154Y-74431056D01*
X120550000Y-74431056D01*
X120550000Y-74568944D01*
X120576901Y-74704182D01*
X120629668Y-74831574D01*
X120706274Y-74946224D01*
X120803776Y-75043726D01*
X120918426Y-75120332D01*
X121045818Y-75173099D01*
X121181056Y-75200000D01*
X121318944Y-75200000D01*
X121454182Y-75173099D01*
X121581574Y-75120332D01*
X121696224Y-75043726D01*
X121793726Y-74946224D01*
X121870332Y-74831574D01*
X121923099Y-74704182D01*
X121950000Y-74568944D01*
X121950000Y-74431056D01*
X121923099Y-74295818D01*
X121870332Y-74168426D01*
X121793726Y-74053776D01*
X121696224Y-73956274D01*
X121581574Y-73879668D01*
X121454182Y-73826901D01*
X121318944Y-73800000D01*
X121181056Y-73800000D01*
X121045818Y-73826901D01*
X120918426Y-73879668D01*
X120803776Y-73956274D01*
X120706274Y-74053776D01*
X120629668Y-74168426D01*
X120576901Y-74295818D01*
X120550000Y-74431056D01*
X111250154Y-74431056D01*
X111126289Y-74245679D01*
X110924321Y-74043711D01*
X110686833Y-73885027D01*
X110422949Y-73775723D01*
X110142813Y-73720000D01*
X109857187Y-73720000D01*
X109577051Y-73775723D01*
X109313167Y-73885027D01*
X109075679Y-74043711D01*
X108873711Y-74245679D01*
X108715027Y-74483167D01*
X108605723Y-74747051D01*
X108550000Y-75027187D01*
X105543523Y-75027187D01*
X107920710Y-72650000D01*
X129848549Y-72650000D01*
X129848549Y-74350000D01*
X129854341Y-74408810D01*
X129871496Y-74465360D01*
X129899353Y-74517477D01*
X129936842Y-74563158D01*
X129982523Y-74600647D01*
X130034640Y-74628504D01*
X130091190Y-74645659D01*
X130150000Y-74651451D01*
X131850000Y-74651451D01*
X131908810Y-74645659D01*
X131965360Y-74628504D01*
X132017477Y-74600647D01*
X132063158Y-74563158D01*
X132100647Y-74517477D01*
X132128504Y-74465360D01*
X132145659Y-74408810D01*
X132151451Y-74350000D01*
X132151451Y-73386735D01*
X132390000Y-73386735D01*
X132390000Y-73613265D01*
X132434194Y-73835443D01*
X132520884Y-74044729D01*
X132646737Y-74233082D01*
X132806918Y-74393263D01*
X132995271Y-74519116D01*
X133204557Y-74605806D01*
X133426735Y-74650000D01*
X133653265Y-74650000D01*
X133875443Y-74605806D01*
X134084729Y-74519116D01*
X134273082Y-74393263D01*
X134433263Y-74233082D01*
X134559116Y-74044729D01*
X134645806Y-73835443D01*
X134690000Y-73613265D01*
X134690000Y-73386735D01*
X134930000Y-73386735D01*
X134930000Y-73613265D01*
X134974194Y-73835443D01*
X135060884Y-74044729D01*
X135186737Y-74233082D01*
X135346918Y-74393263D01*
X135535271Y-74519116D01*
X135744557Y-74605806D01*
X135966735Y-74650000D01*
X136193265Y-74650000D01*
X136415443Y-74605806D01*
X136624729Y-74519116D01*
X136813082Y-74393263D01*
X136973263Y-74233082D01*
X137099116Y-74044729D01*
X137185806Y-73835443D01*
X137230000Y-73613265D01*
X137230000Y-73386735D01*
X137185806Y-73164557D01*
X137099116Y-72955271D01*
X136973263Y-72766918D01*
X136813082Y-72606737D01*
X136624729Y-72480884D01*
X136415443Y-72394194D01*
X136193265Y-72350000D01*
X135966735Y-72350000D01*
X135744557Y-72394194D01*
X135535271Y-72480884D01*
X135346918Y-72606737D01*
X135186737Y-72766918D01*
X135060884Y-72955271D01*
X134974194Y-73164557D01*
X134930000Y-73386735D01*
X134690000Y-73386735D01*
X134645806Y-73164557D01*
X134559116Y-72955271D01*
X134433263Y-72766918D01*
X134273082Y-72606737D01*
X134084729Y-72480884D01*
X133875443Y-72394194D01*
X133653265Y-72350000D01*
X133426735Y-72350000D01*
X133204557Y-72394194D01*
X132995271Y-72480884D01*
X132806918Y-72606737D01*
X132646737Y-72766918D01*
X132520884Y-72955271D01*
X132434194Y-73164557D01*
X132390000Y-73386735D01*
X132151451Y-73386735D01*
X132151451Y-72650000D01*
X132145659Y-72591190D01*
X132128504Y-72534640D01*
X132100647Y-72482523D01*
X132063158Y-72436842D01*
X132017477Y-72399353D01*
X131965360Y-72371496D01*
X131908810Y-72354341D01*
X131850000Y-72348549D01*
X130150000Y-72348549D01*
X130091190Y-72354341D01*
X130034640Y-72371496D01*
X129982523Y-72399353D01*
X129936842Y-72436842D01*
X129899353Y-72482523D01*
X129871496Y-72534640D01*
X129854341Y-72591190D01*
X129848549Y-72650000D01*
X107920710Y-72650000D01*
X111320710Y-69250000D01*
X139944436Y-69250000D01*
X139966640Y-69475439D01*
X140032398Y-69692215D01*
X140139184Y-69891997D01*
X140282893Y-70067107D01*
X140458003Y-70210816D01*
X140657785Y-70317602D01*
X140874561Y-70383360D01*
X141043508Y-70400000D01*
X141456492Y-70400000D01*
X141625439Y-70383360D01*
X141842215Y-70317602D01*
X142041997Y-70210816D01*
X142217107Y-70067107D01*
X142360816Y-69891997D01*
X142467602Y-69692215D01*
X142533360Y-69475439D01*
X142555564Y-69250000D01*
X142533360Y-69024561D01*
X142467602Y-68807785D01*
X142360816Y-68608003D01*
X142217107Y-68432893D01*
X142041997Y-68289184D01*
X141842215Y-68182398D01*
X141625439Y-68116640D01*
X141456492Y-68100000D01*
X141043508Y-68100000D01*
X140874561Y-68116640D01*
X140657785Y-68182398D01*
X140458003Y-68289184D01*
X140282893Y-68432893D01*
X140139184Y-68608003D01*
X140032398Y-68807785D01*
X139966640Y-69024561D01*
X139944436Y-69250000D01*
X111320710Y-69250000D01*
X114139654Y-66431056D01*
X119800000Y-66431056D01*
X119800000Y-66568944D01*
X119826901Y-66704182D01*
X119879668Y-66831574D01*
X119956274Y-66946224D01*
X120053776Y-67043726D01*
X120168426Y-67120332D01*
X120295818Y-67173099D01*
X120431056Y-67200000D01*
X120568944Y-67200000D01*
X120704182Y-67173099D01*
X120831574Y-67120332D01*
X120946224Y-67043726D01*
X121043726Y-66946224D01*
X121120332Y-66831574D01*
X121173099Y-66704182D01*
X121200000Y-66568944D01*
X121200000Y-66431056D01*
X121173099Y-66295818D01*
X121120332Y-66168426D01*
X121043726Y-66053776D01*
X120946224Y-65956274D01*
X120831574Y-65879668D01*
X120704182Y-65826901D01*
X120568944Y-65800000D01*
X120431056Y-65800000D01*
X120295818Y-65826901D01*
X120168426Y-65879668D01*
X120053776Y-65956274D01*
X119956274Y-66053776D01*
X119879668Y-66168426D01*
X119826901Y-66295818D01*
X119800000Y-66431056D01*
X114139654Y-66431056D01*
X115448749Y-65121961D01*
X124350000Y-65121961D01*
X124350000Y-65378039D01*
X124399958Y-65629196D01*
X124497955Y-65865781D01*
X124640224Y-66078702D01*
X124821298Y-66259776D01*
X125034219Y-66402045D01*
X125270804Y-66500042D01*
X125521961Y-66550000D01*
X125778039Y-66550000D01*
X126029196Y-66500042D01*
X126265781Y-66402045D01*
X126478702Y-66259776D01*
X126659776Y-66078702D01*
X126802045Y-65865781D01*
X126900042Y-65629196D01*
X126950000Y-65378039D01*
X126950000Y-65121961D01*
X126900042Y-64870804D01*
X126802045Y-64634219D01*
X126659776Y-64421298D01*
X126488478Y-64250000D01*
X131948549Y-64250000D01*
X131948549Y-66250000D01*
X131954341Y-66308810D01*
X131971496Y-66365360D01*
X131999353Y-66417477D01*
X132036842Y-66463158D01*
X132082523Y-66500647D01*
X132134640Y-66528504D01*
X132191190Y-66545659D01*
X132250000Y-66551451D01*
X134250000Y-66551451D01*
X134308810Y-66545659D01*
X134365360Y-66528504D01*
X134417477Y-66500647D01*
X134463158Y-66463158D01*
X134500647Y-66417477D01*
X134528504Y-66365360D01*
X134545659Y-66308810D01*
X134551451Y-66250000D01*
X134551451Y-66150000D01*
X139948549Y-66150000D01*
X139948549Y-67350000D01*
X139959145Y-67457583D01*
X139990526Y-67561031D01*
X140041485Y-67656370D01*
X140110065Y-67739935D01*
X140193630Y-67808515D01*
X140288969Y-67859474D01*
X140392417Y-67890855D01*
X140500000Y-67901451D01*
X142000000Y-67901451D01*
X142107583Y-67890855D01*
X142211031Y-67859474D01*
X142306370Y-67808515D01*
X142389935Y-67739935D01*
X142458515Y-67656370D01*
X142509474Y-67561031D01*
X142540855Y-67457583D01*
X142551451Y-67350000D01*
X142551451Y-66150000D01*
X142540855Y-66042417D01*
X142509474Y-65938969D01*
X142458515Y-65843630D01*
X142389935Y-65760065D01*
X142306370Y-65691485D01*
X142211031Y-65640526D01*
X142107583Y-65609145D01*
X142000000Y-65598549D01*
X140500000Y-65598549D01*
X140392417Y-65609145D01*
X140288969Y-65640526D01*
X140193630Y-65691485D01*
X140110065Y-65760065D01*
X140041485Y-65843630D01*
X139990526Y-65938969D01*
X139959145Y-66042417D01*
X139948549Y-66150000D01*
X134551451Y-66150000D01*
X134551451Y-64250000D01*
X134545659Y-64191190D01*
X134528504Y-64134640D01*
X134500647Y-64082523D01*
X134463158Y-64036842D01*
X134417477Y-63999353D01*
X134365360Y-63971496D01*
X134308810Y-63954341D01*
X134250000Y-63948549D01*
X132250000Y-63948549D01*
X132191190Y-63954341D01*
X132134640Y-63971496D01*
X132082523Y-63999353D01*
X132036842Y-64036842D01*
X131999353Y-64082523D01*
X131971496Y-64134640D01*
X131954341Y-64191190D01*
X131948549Y-64250000D01*
X126488478Y-64250000D01*
X126478702Y-64240224D01*
X126265781Y-64097955D01*
X126029196Y-63999958D01*
X125778039Y-63950000D01*
X125521961Y-63950000D01*
X125270804Y-63999958D01*
X125034219Y-64097955D01*
X124821298Y-64240224D01*
X124640224Y-64421298D01*
X124497955Y-64634219D01*
X124399958Y-64870804D01*
X124350000Y-65121961D01*
X115448749Y-65121961D01*
X120179051Y-60391659D01*
X121270000Y-60391659D01*
X121270000Y-60608341D01*
X121312273Y-60820858D01*
X121395193Y-61021045D01*
X121515575Y-61201209D01*
X121668791Y-61354425D01*
X121848955Y-61474807D01*
X122049142Y-61557727D01*
X122261659Y-61600000D01*
X122478341Y-61600000D01*
X122690858Y-61557727D01*
X122891045Y-61474807D01*
X123071209Y-61354425D01*
X123224425Y-61201209D01*
X123344807Y-61021045D01*
X123382081Y-60931056D01*
X133300000Y-60931056D01*
X133300000Y-61068944D01*
X133326901Y-61204182D01*
X133379668Y-61331574D01*
X133456274Y-61446224D01*
X133553776Y-61543726D01*
X133668426Y-61620332D01*
X133795818Y-61673099D01*
X133931056Y-61700000D01*
X134068944Y-61700000D01*
X134204182Y-61673099D01*
X134331574Y-61620332D01*
X134446224Y-61543726D01*
X134543726Y-61446224D01*
X134620332Y-61331574D01*
X134673099Y-61204182D01*
X134677699Y-61181056D01*
X135300000Y-61181056D01*
X135300000Y-61318944D01*
X135326901Y-61454182D01*
X135379668Y-61581574D01*
X135456274Y-61696224D01*
X135553776Y-61793726D01*
X135668426Y-61870332D01*
X135795818Y-61923099D01*
X135931056Y-61950000D01*
X136068944Y-61950000D01*
X136204182Y-61923099D01*
X136331574Y-61870332D01*
X136446224Y-61793726D01*
X136543726Y-61696224D01*
X136620332Y-61581574D01*
X136673099Y-61454182D01*
X136700000Y-61318944D01*
X136700000Y-61181056D01*
X136673099Y-61045818D01*
X136620332Y-60918426D01*
X136543726Y-60803776D01*
X136446224Y-60706274D01*
X136331574Y-60629668D01*
X136204182Y-60576901D01*
X136068944Y-60550000D01*
X135931056Y-60550000D01*
X135795818Y-60576901D01*
X135668426Y-60629668D01*
X135553776Y-60706274D01*
X135456274Y-60803776D01*
X135379668Y-60918426D01*
X135326901Y-61045818D01*
X135300000Y-61181056D01*
X134677699Y-61181056D01*
X134700000Y-61068944D01*
X134700000Y-60931056D01*
X134673099Y-60795818D01*
X134620332Y-60668426D01*
X134543726Y-60553776D01*
X134446224Y-60456274D01*
X134331574Y-60379668D01*
X134204182Y-60326901D01*
X134068944Y-60300000D01*
X133931056Y-60300000D01*
X133795818Y-60326901D01*
X133668426Y-60379668D01*
X133553776Y-60456274D01*
X133456274Y-60553776D01*
X133379668Y-60668426D01*
X133326901Y-60795818D01*
X133300000Y-60931056D01*
X123382081Y-60931056D01*
X123427727Y-60820858D01*
X123470000Y-60608341D01*
X123470000Y-60391659D01*
X123427727Y-60179142D01*
X123344807Y-59978955D01*
X123224425Y-59798791D01*
X123071209Y-59645575D01*
X122891045Y-59525193D01*
X122690858Y-59442273D01*
X122478341Y-59400000D01*
X122261659Y-59400000D01*
X122049142Y-59442273D01*
X121848955Y-59525193D01*
X121668791Y-59645575D01*
X121515575Y-59798791D01*
X121395193Y-59978955D01*
X121312273Y-60179142D01*
X121270000Y-60391659D01*
X120179051Y-60391659D01*
X120990723Y-59579987D01*
X121136555Y-59460305D01*
X121300757Y-59372537D01*
X121457467Y-59325000D01*
X122515961Y-59325000D01*
X122532206Y-59323400D01*
X122538694Y-59323400D01*
X122543207Y-59322926D01*
X122640182Y-59312049D01*
X122668983Y-59305927D01*
X122697891Y-59300203D01*
X122698547Y-59300000D01*
X140186786Y-59300000D01*
X140139184Y-59358003D01*
G37*
X140139184Y-59358003D02*
X140032398Y-59557785D01*
X139966640Y-59774561D01*
X139944436Y-60000000D01*
X139966640Y-60225439D01*
X140032398Y-60442215D01*
X140139184Y-60641997D01*
X140282893Y-60817107D01*
X140458003Y-60960816D01*
X140657785Y-61067602D01*
X140874561Y-61133360D01*
X141043508Y-61150000D01*
X141456492Y-61150000D01*
X141625439Y-61133360D01*
X141842215Y-61067602D01*
X142041997Y-60960816D01*
X142217107Y-60817107D01*
X142360816Y-60641997D01*
X142467602Y-60442215D01*
X142533360Y-60225439D01*
X142555564Y-60000000D01*
X142533360Y-59774561D01*
X142467602Y-59557785D01*
X142360816Y-59358003D01*
X142318989Y-59307037D01*
X142435288Y-59318491D01*
X142613456Y-59372537D01*
X142777655Y-59460303D01*
X142921580Y-59578420D01*
X143039697Y-59722345D01*
X143127463Y-59886544D01*
X143181509Y-60064712D01*
X143200000Y-60252454D01*
X143200000Y-98997546D01*
X143181509Y-99185288D01*
X143127463Y-99363456D01*
X143039697Y-99527655D01*
X142921580Y-99671580D01*
X142777655Y-99789697D01*
X142613456Y-99877463D01*
X142435288Y-99931509D01*
X142247546Y-99950000D01*
X133800000Y-99950000D01*
X133800000Y-97253593D01*
X139978309Y-97253593D01*
X140008837Y-97370795D01*
X140102142Y-97576546D01*
X140233794Y-97760140D01*
X140398734Y-97914522D01*
X140590623Y-98033760D01*
X140802087Y-98113271D01*
X141025000Y-98150000D01*
X141175000Y-98150000D01*
X141175000Y-97075000D01*
X141325000Y-97075000D01*
X141325000Y-98150000D01*
X141475000Y-98150000D01*
X141697913Y-98113271D01*
X141909377Y-98033760D01*
X142101266Y-97914522D01*
X142266206Y-97760140D01*
X142397858Y-97576546D01*
X142491163Y-97370795D01*
X142521691Y-97253593D01*
X142472381Y-97075000D01*
X141325000Y-97075000D01*
X141175000Y-97075000D01*
X140027619Y-97075000D01*
X139978309Y-97253593D01*
X133800000Y-97253593D01*
X133800000Y-96746407D01*
X139978309Y-96746407D01*
X140027619Y-96925000D01*
X141175000Y-96925000D01*
X141175000Y-95850000D01*
X141325000Y-95850000D01*
X141325000Y-96925000D01*
X142472381Y-96925000D01*
X142521691Y-96746407D01*
X142491163Y-96629205D01*
X142397858Y-96423454D01*
X142266206Y-96239860D01*
X142101266Y-96085478D01*
X141909377Y-95966240D01*
X141697913Y-95886729D01*
X141475000Y-95850000D01*
X141325000Y-95850000D01*
X141175000Y-95850000D01*
X141025000Y-95850000D01*
X140802087Y-95886729D01*
X140590623Y-95966240D01*
X140398734Y-96085478D01*
X140233794Y-96239860D01*
X140102142Y-96423454D01*
X140008837Y-96629205D01*
X139978309Y-96746407D01*
X133800000Y-96746407D01*
X133800000Y-93900000D01*
X139948549Y-93900000D01*
X139948549Y-95100000D01*
X139959145Y-95207583D01*
X139990526Y-95311031D01*
X140041485Y-95406370D01*
X140110065Y-95489935D01*
X140193630Y-95558515D01*
X140288969Y-95609474D01*
X140392417Y-95640855D01*
X140500000Y-95651451D01*
X142000000Y-95651451D01*
X142107583Y-95640855D01*
X142211031Y-95609474D01*
X142306370Y-95558515D01*
X142389935Y-95489935D01*
X142458515Y-95406370D01*
X142509474Y-95311031D01*
X142540855Y-95207583D01*
X142551451Y-95100000D01*
X142551451Y-93900000D01*
X142540855Y-93792417D01*
X142509474Y-93688969D01*
X142458515Y-93593630D01*
X142389935Y-93510065D01*
X142306370Y-93441485D01*
X142211031Y-93390526D01*
X142107583Y-93359145D01*
X142000000Y-93348549D01*
X140500000Y-93348549D01*
X140392417Y-93359145D01*
X140288969Y-93390526D01*
X140193630Y-93441485D01*
X140110065Y-93510065D01*
X140041485Y-93593630D01*
X139990526Y-93688969D01*
X139959145Y-93792417D01*
X139948549Y-93900000D01*
X133800000Y-93900000D01*
X133800000Y-93250000D01*
X133799039Y-93240245D01*
X133796194Y-93230866D01*
X133791573Y-93222221D01*
X133785355Y-93214645D01*
X133535355Y-92964645D01*
X133527779Y-92958427D01*
X133519134Y-92953806D01*
X133509755Y-92950961D01*
X133500000Y-92950000D01*
X127000000Y-92950000D01*
X126990245Y-92950961D01*
X126980866Y-92953806D01*
X126972221Y-92958427D01*
X126964645Y-92964645D01*
X126714645Y-93214645D01*
X126708427Y-93222221D01*
X126703806Y-93230866D01*
X126700961Y-93240245D01*
X126700000Y-93250000D01*
X126700000Y-99950000D01*
X89752454Y-99950000D01*
X89564712Y-99931509D01*
X89386544Y-99877463D01*
X89222345Y-99789697D01*
X89078420Y-99671580D01*
X88960303Y-99527655D01*
X88872537Y-99363456D01*
X88818491Y-99185288D01*
X88800000Y-98997546D01*
X88800000Y-97568508D01*
X90850000Y-97568508D01*
X90850000Y-97931491D01*
X90866640Y-98100438D01*
X90932398Y-98317214D01*
X91039184Y-98516996D01*
X91182893Y-98692107D01*
X91358003Y-98835816D01*
X91557785Y-98942602D01*
X91774561Y-99008360D01*
X92000000Y-99030564D01*
X92225438Y-99008360D01*
X92442214Y-98942602D01*
X92641996Y-98835816D01*
X92817107Y-98692107D01*
X92960816Y-98516997D01*
X93067602Y-98317215D01*
X93133360Y-98100439D01*
X93150000Y-97931492D01*
X93150000Y-97568509D01*
X93150000Y-97568508D01*
X93350000Y-97568508D01*
X93350000Y-97931491D01*
X93366640Y-98100438D01*
X93432398Y-98317214D01*
X93539184Y-98516996D01*
X93682893Y-98692107D01*
X93858003Y-98835816D01*
X94057785Y-98942602D01*
X94274561Y-99008360D01*
X94500000Y-99030564D01*
X94725438Y-99008360D01*
X94942214Y-98942602D01*
X95141996Y-98835816D01*
X95317107Y-98692107D01*
X95460816Y-98516997D01*
X95567602Y-98317215D01*
X95633360Y-98100439D01*
X95650000Y-97931492D01*
X95650000Y-97568509D01*
X95633360Y-97399562D01*
X95567602Y-97182786D01*
X95483264Y-97025000D01*
X95848549Y-97025000D01*
X95848549Y-98475000D01*
X95859145Y-98582583D01*
X95890526Y-98686031D01*
X95941485Y-98781370D01*
X96010065Y-98864935D01*
X96093630Y-98933515D01*
X96188969Y-98984474D01*
X96292417Y-99015855D01*
X96400000Y-99026451D01*
X97600000Y-99026451D01*
X97707583Y-99015855D01*
X97811031Y-98984474D01*
X97906370Y-98933515D01*
X97989935Y-98864935D01*
X98058515Y-98781370D01*
X98109474Y-98686031D01*
X98140855Y-98582583D01*
X98151451Y-98475000D01*
X98151451Y-97568508D01*
X102350000Y-97568508D01*
X102350000Y-97931491D01*
X102366640Y-98100438D01*
X102432398Y-98317214D01*
X102539184Y-98516996D01*
X102682893Y-98692107D01*
X102858003Y-98835816D01*
X103057785Y-98942602D01*
X103274561Y-99008360D01*
X103500000Y-99030564D01*
X103725438Y-99008360D01*
X103942214Y-98942602D01*
X104141996Y-98835816D01*
X104317107Y-98692107D01*
X104460816Y-98516997D01*
X104567602Y-98317215D01*
X104633360Y-98100439D01*
X104650000Y-97931492D01*
X104650000Y-97568509D01*
X104650000Y-97568508D01*
X104850000Y-97568508D01*
X104850000Y-97931491D01*
X104866640Y-98100438D01*
X104932398Y-98317214D01*
X105039184Y-98516996D01*
X105182893Y-98692107D01*
X105358003Y-98835816D01*
X105557785Y-98942602D01*
X105774561Y-99008360D01*
X106000000Y-99030564D01*
X106225438Y-99008360D01*
X106442214Y-98942602D01*
X106641996Y-98835816D01*
X106817107Y-98692107D01*
X106960816Y-98516997D01*
X107067602Y-98317215D01*
X107133360Y-98100439D01*
X107150000Y-97931492D01*
X107150000Y-97568509D01*
X107133360Y-97399562D01*
X107067602Y-97182786D01*
X106983264Y-97025000D01*
X107348549Y-97025000D01*
X107348549Y-98475000D01*
X107359145Y-98582583D01*
X107390526Y-98686031D01*
X107441485Y-98781370D01*
X107510065Y-98864935D01*
X107593630Y-98933515D01*
X107688969Y-98984474D01*
X107792417Y-99015855D01*
X107900000Y-99026451D01*
X109100000Y-99026451D01*
X109207583Y-99015855D01*
X109311031Y-98984474D01*
X109406370Y-98933515D01*
X109489935Y-98864935D01*
X109558515Y-98781370D01*
X109609474Y-98686031D01*
X109640855Y-98582583D01*
X109651451Y-98475000D01*
X109651451Y-98293594D01*
X112968306Y-98293594D01*
X113039333Y-98507553D01*
X113150736Y-98703544D01*
X113298235Y-98874036D01*
X113476161Y-99012476D01*
X113677676Y-99113544D01*
X113836407Y-99161691D01*
X114015000Y-99112381D01*
X114015000Y-98115000D01*
X114165000Y-98115000D01*
X114165000Y-99112381D01*
X114343593Y-99161691D01*
X114502324Y-99113544D01*
X114703839Y-99012476D01*
X114881765Y-98874036D01*
X115029264Y-98703544D01*
X115140667Y-98507553D01*
X115211694Y-98293594D01*
X115162555Y-98115000D01*
X114165000Y-98115000D01*
X114015000Y-98115000D01*
X113017445Y-98115000D01*
X112968306Y-98293594D01*
X109651451Y-98293594D01*
X109651451Y-97786406D01*
X112968306Y-97786406D01*
X113017445Y-97965000D01*
X114015000Y-97965000D01*
X114015000Y-96967619D01*
X114165000Y-96967619D01*
X114165000Y-97965000D01*
X115162555Y-97965000D01*
X115173083Y-97926735D01*
X115480000Y-97926735D01*
X115480000Y-98153265D01*
X115524194Y-98375443D01*
X115610884Y-98584729D01*
X115736737Y-98773082D01*
X115896918Y-98933263D01*
X116085271Y-99059116D01*
X116294557Y-99145806D01*
X116516735Y-99190000D01*
X116743265Y-99190000D01*
X116965443Y-99145806D01*
X117174729Y-99059116D01*
X117363082Y-98933263D01*
X117523263Y-98773082D01*
X117649116Y-98584729D01*
X117735806Y-98375443D01*
X117780000Y-98153265D01*
X117780000Y-97926735D01*
X118020000Y-97926735D01*
X118020000Y-98153265D01*
X118064194Y-98375443D01*
X118150884Y-98584729D01*
X118276737Y-98773082D01*
X118436918Y-98933263D01*
X118625271Y-99059116D01*
X118834557Y-99145806D01*
X119056735Y-99190000D01*
X119283265Y-99190000D01*
X119505443Y-99145806D01*
X119714729Y-99059116D01*
X119903082Y-98933263D01*
X120063263Y-98773082D01*
X120189116Y-98584729D01*
X120275806Y-98375443D01*
X120320000Y-98153265D01*
X120320000Y-97926735D01*
X120560000Y-97926735D01*
X120560000Y-98153265D01*
X120604194Y-98375443D01*
X120690884Y-98584729D01*
X120816737Y-98773082D01*
X120976918Y-98933263D01*
X121165271Y-99059116D01*
X121374557Y-99145806D01*
X121596735Y-99190000D01*
X121823265Y-99190000D01*
X122045443Y-99145806D01*
X122254729Y-99059116D01*
X122443082Y-98933263D01*
X122603263Y-98773082D01*
X122729116Y-98584729D01*
X122815806Y-98375443D01*
X122832086Y-98293594D01*
X123128306Y-98293594D01*
X123199333Y-98507553D01*
X123310736Y-98703544D01*
X123458235Y-98874036D01*
X123636161Y-99012476D01*
X123837676Y-99113544D01*
X123996407Y-99161691D01*
X124175000Y-99112381D01*
X124175000Y-98115000D01*
X124325000Y-98115000D01*
X124325000Y-99112381D01*
X124503593Y-99161691D01*
X124662324Y-99113544D01*
X124863839Y-99012476D01*
X125041765Y-98874036D01*
X125189264Y-98703544D01*
X125300667Y-98507553D01*
X125371694Y-98293594D01*
X125322555Y-98115000D01*
X124325000Y-98115000D01*
X124175000Y-98115000D01*
X123177445Y-98115000D01*
X123128306Y-98293594D01*
X122832086Y-98293594D01*
X122860000Y-98153265D01*
X122860000Y-97926735D01*
X122832087Y-97786406D01*
X123128306Y-97786406D01*
X123177445Y-97965000D01*
X124175000Y-97965000D01*
X124175000Y-96967619D01*
X124325000Y-96967619D01*
X124325000Y-97965000D01*
X125322555Y-97965000D01*
X125371694Y-97786406D01*
X125300667Y-97572447D01*
X125189264Y-97376456D01*
X125041765Y-97205964D01*
X124863839Y-97067524D01*
X124662324Y-96966456D01*
X124503593Y-96918309D01*
X124325000Y-96967619D01*
X124175000Y-96967619D01*
X123996407Y-96918309D01*
X123837676Y-96966456D01*
X123636161Y-97067524D01*
X123458235Y-97205964D01*
X123310736Y-97376456D01*
X123199333Y-97572447D01*
X123128306Y-97786406D01*
X122832087Y-97786406D01*
X122815806Y-97704557D01*
X122729116Y-97495271D01*
X122603263Y-97306918D01*
X122443082Y-97146737D01*
X122254729Y-97020884D01*
X122045443Y-96934194D01*
X121823265Y-96890000D01*
X121596735Y-96890000D01*
X121374557Y-96934194D01*
X121165271Y-97020884D01*
X120976918Y-97146737D01*
X120816737Y-97306918D01*
X120690884Y-97495271D01*
X120604194Y-97704557D01*
X120560000Y-97926735D01*
X120320000Y-97926735D01*
X120275806Y-97704557D01*
X120189116Y-97495271D01*
X120063263Y-97306918D01*
X119903082Y-97146737D01*
X119714729Y-97020884D01*
X119505443Y-96934194D01*
X119283265Y-96890000D01*
X119056735Y-96890000D01*
X118834557Y-96934194D01*
X118625271Y-97020884D01*
X118436918Y-97146737D01*
X118276737Y-97306918D01*
X118150884Y-97495271D01*
X118064194Y-97704557D01*
X118020000Y-97926735D01*
X117780000Y-97926735D01*
X117735806Y-97704557D01*
X117649116Y-97495271D01*
X117523263Y-97306918D01*
X117363082Y-97146737D01*
X117174729Y-97020884D01*
X116965443Y-96934194D01*
X116743265Y-96890000D01*
X116516735Y-96890000D01*
X116294557Y-96934194D01*
X116085271Y-97020884D01*
X115896918Y-97146737D01*
X115736737Y-97306918D01*
X115610884Y-97495271D01*
X115524194Y-97704557D01*
X115480000Y-97926735D01*
X115173083Y-97926735D01*
X115211694Y-97786406D01*
X115140667Y-97572447D01*
X115029264Y-97376456D01*
X114881765Y-97205964D01*
X114703839Y-97067524D01*
X114502324Y-96966456D01*
X114343593Y-96918309D01*
X114165000Y-96967619D01*
X114015000Y-96967619D01*
X113836407Y-96918309D01*
X113677676Y-96966456D01*
X113476161Y-97067524D01*
X113298235Y-97205964D01*
X113150736Y-97376456D01*
X113039333Y-97572447D01*
X112968306Y-97786406D01*
X109651451Y-97786406D01*
X109651451Y-97025000D01*
X109640855Y-96917417D01*
X109609474Y-96813969D01*
X109558515Y-96718630D01*
X109489935Y-96635065D01*
X109406370Y-96566485D01*
X109311031Y-96515526D01*
X109207583Y-96484145D01*
X109100000Y-96473549D01*
X107900000Y-96473549D01*
X107792417Y-96484145D01*
X107688969Y-96515526D01*
X107593630Y-96566485D01*
X107510065Y-96635065D01*
X107441485Y-96718630D01*
X107390526Y-96813969D01*
X107359145Y-96917417D01*
X107348549Y-97025000D01*
X106983264Y-97025000D01*
X106960816Y-96983004D01*
X106817107Y-96807893D01*
X106641997Y-96664184D01*
X106442215Y-96557398D01*
X106225439Y-96491640D01*
X106000000Y-96469436D01*
X105774562Y-96491640D01*
X105557786Y-96557398D01*
X105358004Y-96664184D01*
X105182894Y-96807893D01*
X105039184Y-96983003D01*
X104932398Y-97182785D01*
X104866640Y-97399561D01*
X104850000Y-97568508D01*
X104650000Y-97568508D01*
X104633360Y-97399562D01*
X104567602Y-97182786D01*
X104460816Y-96983004D01*
X104317107Y-96807893D01*
X104141997Y-96664184D01*
X103942215Y-96557398D01*
X103725439Y-96491640D01*
X103500000Y-96469436D01*
X103274562Y-96491640D01*
X103057786Y-96557398D01*
X102858004Y-96664184D01*
X102682894Y-96807893D01*
X102539184Y-96983003D01*
X102432398Y-97182785D01*
X102366640Y-97399561D01*
X102350000Y-97568508D01*
X98151451Y-97568508D01*
X98151451Y-97025000D01*
X98140855Y-96917417D01*
X98109474Y-96813969D01*
X98058515Y-96718630D01*
X97989935Y-96635065D01*
X97906370Y-96566485D01*
X97811031Y-96515526D01*
X97707583Y-96484145D01*
X97600000Y-96473549D01*
X96400000Y-96473549D01*
X96292417Y-96484145D01*
X96188969Y-96515526D01*
X96093630Y-96566485D01*
X96010065Y-96635065D01*
X95941485Y-96718630D01*
X95890526Y-96813969D01*
X95859145Y-96917417D01*
X95848549Y-97025000D01*
X95483264Y-97025000D01*
X95460816Y-96983004D01*
X95317107Y-96807893D01*
X95141997Y-96664184D01*
X94942215Y-96557398D01*
X94725439Y-96491640D01*
X94500000Y-96469436D01*
X94274562Y-96491640D01*
X94057786Y-96557398D01*
X93858004Y-96664184D01*
X93682894Y-96807893D01*
X93539184Y-96983003D01*
X93432398Y-97182785D01*
X93366640Y-97399561D01*
X93350000Y-97568508D01*
X93150000Y-97568508D01*
X93133360Y-97399562D01*
X93067602Y-97182786D01*
X92960816Y-96983004D01*
X92817107Y-96807893D01*
X92641997Y-96664184D01*
X92442215Y-96557398D01*
X92225439Y-96491640D01*
X92000000Y-96469436D01*
X91774562Y-96491640D01*
X91557786Y-96557398D01*
X91358004Y-96664184D01*
X91182894Y-96807893D01*
X91039184Y-96983003D01*
X90932398Y-97182785D01*
X90866640Y-97399561D01*
X90850000Y-97568508D01*
X88800000Y-97568508D01*
X88800000Y-95386735D01*
X112940000Y-95386735D01*
X112940000Y-95613265D01*
X112984194Y-95835443D01*
X113070884Y-96044729D01*
X113196737Y-96233082D01*
X113356918Y-96393263D01*
X113545271Y-96519116D01*
X113754557Y-96605806D01*
X113976735Y-96650000D01*
X114203265Y-96650000D01*
X114425443Y-96605806D01*
X114634729Y-96519116D01*
X114823082Y-96393263D01*
X114983263Y-96233082D01*
X115109116Y-96044729D01*
X115195806Y-95835443D01*
X115240000Y-95613265D01*
X115240000Y-95386735D01*
X115480000Y-95386735D01*
X115480000Y-95613265D01*
X115524194Y-95835443D01*
X115610884Y-96044729D01*
X115736737Y-96233082D01*
X115896918Y-96393263D01*
X116085271Y-96519116D01*
X116294557Y-96605806D01*
X116516735Y-96650000D01*
X116743265Y-96650000D01*
X116965443Y-96605806D01*
X117174729Y-96519116D01*
X117363082Y-96393263D01*
X117523263Y-96233082D01*
X117649116Y-96044729D01*
X117735806Y-95835443D01*
X117780000Y-95613265D01*
X117780000Y-95386735D01*
X118020000Y-95386735D01*
X118020000Y-95613265D01*
X118064194Y-95835443D01*
X118150884Y-96044729D01*
X118276737Y-96233082D01*
X118436918Y-96393263D01*
X118625271Y-96519116D01*
X118834557Y-96605806D01*
X119056735Y-96650000D01*
X119283265Y-96650000D01*
X119505443Y-96605806D01*
X119714729Y-96519116D01*
X119903082Y-96393263D01*
X120063263Y-96233082D01*
X120189116Y-96044729D01*
X120275806Y-95835443D01*
X120320000Y-95613265D01*
X120320000Y-95386735D01*
X120560000Y-95386735D01*
X120560000Y-95613265D01*
X120604194Y-95835443D01*
X120690884Y-96044729D01*
X120816737Y-96233082D01*
X120976918Y-96393263D01*
X121165271Y-96519116D01*
X121374557Y-96605806D01*
X121596735Y-96650000D01*
X121823265Y-96650000D01*
X122045443Y-96605806D01*
X122254729Y-96519116D01*
X122443082Y-96393263D01*
X122603263Y-96233082D01*
X122729116Y-96044729D01*
X122815806Y-95835443D01*
X122860000Y-95613265D01*
X122860000Y-95386735D01*
X122815806Y-95164557D01*
X122729116Y-94955271D01*
X122603263Y-94766918D01*
X122486345Y-94650000D01*
X123098549Y-94650000D01*
X123098549Y-96350000D01*
X123104341Y-96408810D01*
X123121496Y-96465360D01*
X123149353Y-96517477D01*
X123186842Y-96563158D01*
X123232523Y-96600647D01*
X123284640Y-96628504D01*
X123341190Y-96645659D01*
X123400000Y-96651451D01*
X125100000Y-96651451D01*
X125158810Y-96645659D01*
X125215360Y-96628504D01*
X125267477Y-96600647D01*
X125313158Y-96563158D01*
X125350647Y-96517477D01*
X125378504Y-96465360D01*
X125395659Y-96408810D01*
X125401451Y-96350000D01*
X125401451Y-94650000D01*
X125395659Y-94591190D01*
X125378504Y-94534640D01*
X125350647Y-94482523D01*
X125313158Y-94436842D01*
X125267477Y-94399353D01*
X125215360Y-94371496D01*
X125158810Y-94354341D01*
X125100000Y-94348549D01*
X123400000Y-94348549D01*
X123341190Y-94354341D01*
X123284640Y-94371496D01*
X123232523Y-94399353D01*
X123186842Y-94436842D01*
X123149353Y-94482523D01*
X123121496Y-94534640D01*
X123104341Y-94591190D01*
X123098549Y-94650000D01*
X122486345Y-94650000D01*
X122443082Y-94606737D01*
X122254729Y-94480884D01*
X122045443Y-94394194D01*
X121823265Y-94350000D01*
X121596735Y-94350000D01*
X121374557Y-94394194D01*
X121165271Y-94480884D01*
X120976918Y-94606737D01*
X120816737Y-94766918D01*
X120690884Y-94955271D01*
X120604194Y-95164557D01*
X120560000Y-95386735D01*
X120320000Y-95386735D01*
X120275806Y-95164557D01*
X120189116Y-94955271D01*
X120063263Y-94766918D01*
X119903082Y-94606737D01*
X119714729Y-94480884D01*
X119505443Y-94394194D01*
X119283265Y-94350000D01*
X119056735Y-94350000D01*
X118834557Y-94394194D01*
X118625271Y-94480884D01*
X118436918Y-94606737D01*
X118276737Y-94766918D01*
X118150884Y-94955271D01*
X118064194Y-95164557D01*
X118020000Y-95386735D01*
X117780000Y-95386735D01*
X117735806Y-95164557D01*
X117649116Y-94955271D01*
X117523263Y-94766918D01*
X117363082Y-94606737D01*
X117174729Y-94480884D01*
X116965443Y-94394194D01*
X116743265Y-94350000D01*
X116516735Y-94350000D01*
X116294557Y-94394194D01*
X116085271Y-94480884D01*
X115896918Y-94606737D01*
X115736737Y-94766918D01*
X115610884Y-94955271D01*
X115524194Y-95164557D01*
X115480000Y-95386735D01*
X115240000Y-95386735D01*
X115195806Y-95164557D01*
X115109116Y-94955271D01*
X114983263Y-94766918D01*
X114823082Y-94606737D01*
X114634729Y-94480884D01*
X114425443Y-94394194D01*
X114203265Y-94350000D01*
X113976735Y-94350000D01*
X113754557Y-94394194D01*
X113545271Y-94480884D01*
X113356918Y-94606737D01*
X113196737Y-94766918D01*
X113070884Y-94955271D01*
X112984194Y-95164557D01*
X112940000Y-95386735D01*
X88800000Y-95386735D01*
X88800000Y-94550000D01*
X95500000Y-94550000D01*
X95509755Y-94549039D01*
X95519134Y-94546194D01*
X95527779Y-94541573D01*
X95535355Y-94535355D01*
X95785355Y-94285355D01*
X95791573Y-94277779D01*
X95796194Y-94269134D01*
X95799039Y-94259755D01*
X95800000Y-94250000D01*
X95800000Y-91950000D01*
X96398549Y-91950000D01*
X96398549Y-93550000D01*
X96404341Y-93608810D01*
X96421496Y-93665360D01*
X96449353Y-93717477D01*
X96486842Y-93763158D01*
X96532523Y-93800647D01*
X96584640Y-93828504D01*
X96641190Y-93845659D01*
X96700000Y-93851451D01*
X98300000Y-93851451D01*
X98358810Y-93845659D01*
X98415360Y-93828504D01*
X98467477Y-93800647D01*
X98513158Y-93763158D01*
X98550647Y-93717477D01*
X98578504Y-93665360D01*
X98595659Y-93608810D01*
X98601451Y-93550000D01*
X98601451Y-92641659D01*
X98940000Y-92641659D01*
X98940000Y-92858341D01*
X98982273Y-93070858D01*
X99065193Y-93271045D01*
X99185575Y-93451209D01*
X99338791Y-93604425D01*
X99518955Y-93724807D01*
X99719142Y-93807727D01*
X99931659Y-93850000D01*
X100148341Y-93850000D01*
X100360858Y-93807727D01*
X100561045Y-93724807D01*
X100741209Y-93604425D01*
X100894425Y-93451209D01*
X101014807Y-93271045D01*
X101097727Y-93070858D01*
X101140000Y-92858341D01*
X101140000Y-92761659D01*
X105860000Y-92761659D01*
X105860000Y-92978341D01*
X105902273Y-93190858D01*
X105985193Y-93391045D01*
X106105575Y-93571209D01*
X106258791Y-93724425D01*
X106438955Y-93844807D01*
X106639142Y-93927727D01*
X106851659Y-93970000D01*
X107068341Y-93970000D01*
X107280858Y-93927727D01*
X107481045Y-93844807D01*
X107661209Y-93724425D01*
X107814425Y-93571209D01*
X107934807Y-93391045D01*
X108017727Y-93190858D01*
X108060000Y-92978341D01*
X108060000Y-92761659D01*
X108400000Y-92761659D01*
X108400000Y-92978341D01*
X108442273Y-93190858D01*
X108525193Y-93391045D01*
X108645575Y-93571209D01*
X108798791Y-93724425D01*
X108978955Y-93844807D01*
X109179142Y-93927727D01*
X109391659Y-93970000D01*
X109608341Y-93970000D01*
X109820858Y-93927727D01*
X110021045Y-93844807D01*
X110201209Y-93724425D01*
X110354425Y-93571209D01*
X110474807Y-93391045D01*
X110557727Y-93190858D01*
X110559676Y-93181056D01*
X118800000Y-93181056D01*
X118800000Y-93318944D01*
X118826901Y-93454182D01*
X118879668Y-93581574D01*
X118956274Y-93696224D01*
X119053776Y-93793726D01*
X119168426Y-93870332D01*
X119295818Y-93923099D01*
X119431056Y-93950000D01*
X119568944Y-93950000D01*
X119704182Y-93923099D01*
X119831574Y-93870332D01*
X119946224Y-93793726D01*
X120043726Y-93696224D01*
X120120332Y-93581574D01*
X120173099Y-93454182D01*
X120200000Y-93318944D01*
X120200000Y-93181056D01*
X120173099Y-93045818D01*
X120120332Y-92918426D01*
X120043726Y-92803776D01*
X119946224Y-92706274D01*
X119831574Y-92629668D01*
X119704182Y-92576901D01*
X119568944Y-92550000D01*
X119431056Y-92550000D01*
X119295818Y-92576901D01*
X119168426Y-92629668D01*
X119053776Y-92706274D01*
X118956274Y-92803776D01*
X118879668Y-92918426D01*
X118826901Y-93045818D01*
X118800000Y-93181056D01*
X110559676Y-93181056D01*
X110600000Y-92978341D01*
X110600000Y-92761659D01*
X110557727Y-92549142D01*
X110474807Y-92348955D01*
X110354425Y-92168791D01*
X110201209Y-92015575D01*
X110021045Y-91895193D01*
X109820858Y-91812273D01*
X109608341Y-91770000D01*
X109391659Y-91770000D01*
X109179142Y-91812273D01*
X108978955Y-91895193D01*
X108798791Y-92015575D01*
X108645575Y-92168791D01*
X108525193Y-92348955D01*
X108442273Y-92549142D01*
X108400000Y-92761659D01*
X108060000Y-92761659D01*
X108017727Y-92549142D01*
X107934807Y-92348955D01*
X107814425Y-92168791D01*
X107661209Y-92015575D01*
X107481045Y-91895193D01*
X107280858Y-91812273D01*
X107068341Y-91770000D01*
X106851659Y-91770000D01*
X106639142Y-91812273D01*
X106438955Y-91895193D01*
X106258791Y-92015575D01*
X106105575Y-92168791D01*
X105985193Y-92348955D01*
X105902273Y-92549142D01*
X105860000Y-92761659D01*
X101140000Y-92761659D01*
X101140000Y-92641659D01*
X101097727Y-92429142D01*
X101014807Y-92228955D01*
X100894425Y-92048791D01*
X100741209Y-91895575D01*
X100561045Y-91775193D01*
X100360858Y-91692273D01*
X100148341Y-91650000D01*
X99931659Y-91650000D01*
X99719142Y-91692273D01*
X99518955Y-91775193D01*
X99338791Y-91895575D01*
X99185575Y-92048791D01*
X99065193Y-92228955D01*
X98982273Y-92429142D01*
X98940000Y-92641659D01*
X98601451Y-92641659D01*
X98601451Y-91950000D01*
X98595659Y-91891190D01*
X98578504Y-91834640D01*
X98550647Y-91782523D01*
X98513158Y-91736842D01*
X98467477Y-91699353D01*
X98415360Y-91671496D01*
X98358810Y-91654341D01*
X98300000Y-91648549D01*
X96700000Y-91648549D01*
X96641190Y-91654341D01*
X96584640Y-91671496D01*
X96532523Y-91699353D01*
X96486842Y-91736842D01*
X96449353Y-91782523D01*
X96421496Y-91834640D01*
X96404341Y-91891190D01*
X96398549Y-91950000D01*
X95800000Y-91950000D01*
X95800000Y-90966735D01*
X102350000Y-90966735D01*
X102350000Y-91193265D01*
X102394194Y-91415443D01*
X102480884Y-91624729D01*
X102606737Y-91813082D01*
X102766918Y-91973263D01*
X102955271Y-92099116D01*
X103164557Y-92185806D01*
X103386735Y-92230000D01*
X103613265Y-92230000D01*
X103835443Y-92185806D01*
X104044729Y-92099116D01*
X104233082Y-91973263D01*
X104393263Y-91813082D01*
X104519116Y-91624729D01*
X104605806Y-91415443D01*
X104650000Y-91193265D01*
X104650000Y-90966735D01*
X104605806Y-90744557D01*
X104519116Y-90535271D01*
X104393263Y-90346918D01*
X104233082Y-90186737D01*
X104224580Y-90181056D01*
X113050000Y-90181056D01*
X113050000Y-90318944D01*
X113076901Y-90454182D01*
X113129668Y-90581574D01*
X113206274Y-90696224D01*
X113303776Y-90793726D01*
X113418426Y-90870332D01*
X113545818Y-90923099D01*
X113681056Y-90950000D01*
X113818944Y-90950000D01*
X113954182Y-90923099D01*
X114081574Y-90870332D01*
X114196224Y-90793726D01*
X114293726Y-90696224D01*
X114370332Y-90581574D01*
X114423099Y-90454182D01*
X114427699Y-90431056D01*
X124050000Y-90431056D01*
X124050000Y-90568944D01*
X124076901Y-90704182D01*
X124129668Y-90831574D01*
X124206274Y-90946224D01*
X124303776Y-91043726D01*
X124418426Y-91120332D01*
X124545818Y-91173099D01*
X124681056Y-91200000D01*
X124818944Y-91200000D01*
X124954182Y-91173099D01*
X125081574Y-91120332D01*
X125196224Y-91043726D01*
X125293726Y-90946224D01*
X125370332Y-90831574D01*
X125423099Y-90704182D01*
X125450000Y-90568944D01*
X125450000Y-90431056D01*
X125423099Y-90295818D01*
X125370332Y-90168426D01*
X125293726Y-90053776D01*
X125196224Y-89956274D01*
X125081574Y-89879668D01*
X124954182Y-89826901D01*
X124818944Y-89800000D01*
X124681056Y-89800000D01*
X124545818Y-89826901D01*
X124418426Y-89879668D01*
X124303776Y-89956274D01*
X124206274Y-90053776D01*
X124129668Y-90168426D01*
X124076901Y-90295818D01*
X124050000Y-90431056D01*
X114427699Y-90431056D01*
X114450000Y-90318944D01*
X114450000Y-90181056D01*
X114423099Y-90045818D01*
X114370332Y-89918426D01*
X114293726Y-89803776D01*
X114196224Y-89706274D01*
X114081574Y-89629668D01*
X113954182Y-89576901D01*
X113818944Y-89550000D01*
X113681056Y-89550000D01*
X113545818Y-89576901D01*
X113418426Y-89629668D01*
X113303776Y-89706274D01*
X113206274Y-89803776D01*
X113129668Y-89918426D01*
X113076901Y-90045818D01*
X113050000Y-90181056D01*
X104224580Y-90181056D01*
X104044729Y-90060884D01*
X103835443Y-89974194D01*
X103613265Y-89930000D01*
X103386735Y-89930000D01*
X103164557Y-89974194D01*
X102955271Y-90060884D01*
X102766918Y-90186737D01*
X102606737Y-90346918D01*
X102480884Y-90535271D01*
X102394194Y-90744557D01*
X102350000Y-90966735D01*
X95800000Y-90966735D01*
X95800000Y-88426735D01*
X102350000Y-88426735D01*
X102350000Y-88653265D01*
X102394194Y-88875443D01*
X102480884Y-89084729D01*
X102606737Y-89273082D01*
X102766918Y-89433263D01*
X102955271Y-89559116D01*
X103164557Y-89645806D01*
X103386735Y-89690000D01*
X103613265Y-89690000D01*
X103835443Y-89645806D01*
X104044729Y-89559116D01*
X104233082Y-89433263D01*
X104360289Y-89306056D01*
X117550000Y-89306056D01*
X117550000Y-89443944D01*
X117576901Y-89579182D01*
X117629668Y-89706574D01*
X117706274Y-89821224D01*
X117803776Y-89918726D01*
X117918426Y-89995332D01*
X118045818Y-90048099D01*
X118181056Y-90075000D01*
X118318944Y-90075000D01*
X118454182Y-90048099D01*
X118581574Y-89995332D01*
X118696224Y-89918726D01*
X118793726Y-89821224D01*
X118870332Y-89706574D01*
X118923099Y-89579182D01*
X118950000Y-89443944D01*
X118950000Y-89306056D01*
X118925136Y-89181056D01*
X135550000Y-89181056D01*
X135550000Y-89318944D01*
X135576901Y-89454182D01*
X135629668Y-89581574D01*
X135706274Y-89696224D01*
X135803776Y-89793726D01*
X135918426Y-89870332D01*
X136045818Y-89923099D01*
X136181056Y-89950000D01*
X136318944Y-89950000D01*
X136454182Y-89923099D01*
X136581574Y-89870332D01*
X136696224Y-89793726D01*
X136793726Y-89696224D01*
X136870332Y-89581574D01*
X136923099Y-89454182D01*
X136950000Y-89318944D01*
X136950000Y-89181056D01*
X136923099Y-89045818D01*
X136870332Y-88918426D01*
X136793726Y-88803776D01*
X136696224Y-88706274D01*
X136581574Y-88629668D01*
X136454182Y-88576901D01*
X136318944Y-88550000D01*
X136181056Y-88550000D01*
X136045818Y-88576901D01*
X135918426Y-88629668D01*
X135803776Y-88706274D01*
X135706274Y-88803776D01*
X135629668Y-88918426D01*
X135576901Y-89045818D01*
X135550000Y-89181056D01*
X118925136Y-89181056D01*
X118923099Y-89170818D01*
X118870332Y-89043426D01*
X118793726Y-88928776D01*
X118696224Y-88831274D01*
X118581574Y-88754668D01*
X118454182Y-88701901D01*
X118318944Y-88675000D01*
X118181056Y-88675000D01*
X118045818Y-88701901D01*
X117918426Y-88754668D01*
X117803776Y-88831274D01*
X117706274Y-88928776D01*
X117629668Y-89043426D01*
X117576901Y-89170818D01*
X117550000Y-89306056D01*
X104360289Y-89306056D01*
X104393263Y-89273082D01*
X104519116Y-89084729D01*
X104605806Y-88875443D01*
X104650000Y-88653265D01*
X104650000Y-88426735D01*
X104605806Y-88204557D01*
X104519116Y-87995271D01*
X104393263Y-87806918D01*
X104233082Y-87646737D01*
X104044729Y-87520884D01*
X103835443Y-87434194D01*
X103613265Y-87390000D01*
X103386735Y-87390000D01*
X103164557Y-87434194D01*
X102955271Y-87520884D01*
X102766918Y-87646737D01*
X102606737Y-87806918D01*
X102480884Y-87995271D01*
X102394194Y-88204557D01*
X102350000Y-88426735D01*
X95800000Y-88426735D01*
X95800000Y-87750000D01*
X95799039Y-87740245D01*
X95796194Y-87730866D01*
X95791573Y-87722221D01*
X95785355Y-87714645D01*
X95535355Y-87464645D01*
X95527779Y-87458427D01*
X95519134Y-87453806D01*
X95509755Y-87450961D01*
X95500000Y-87450000D01*
X88800000Y-87450000D01*
X88800000Y-87181056D01*
X109050000Y-87181056D01*
X109050000Y-87318944D01*
X109076901Y-87454182D01*
X109129668Y-87581574D01*
X109206274Y-87696224D01*
X109303776Y-87793726D01*
X109418426Y-87870332D01*
X109545818Y-87923099D01*
X109681056Y-87950000D01*
X109818944Y-87950000D01*
X109914180Y-87931056D01*
X125300000Y-87931056D01*
X125300000Y-88068944D01*
X125326901Y-88204182D01*
X125379668Y-88331574D01*
X125456274Y-88446224D01*
X125553776Y-88543726D01*
X125668426Y-88620332D01*
X125795818Y-88673099D01*
X125931056Y-88700000D01*
X126068944Y-88700000D01*
X126204182Y-88673099D01*
X126331574Y-88620332D01*
X126446224Y-88543726D01*
X126543726Y-88446224D01*
X126620332Y-88331574D01*
X126673099Y-88204182D01*
X126700000Y-88068944D01*
X126700000Y-88003593D01*
X139978309Y-88003593D01*
X140008837Y-88120795D01*
X140102142Y-88326546D01*
X140233794Y-88510140D01*
X140398734Y-88664522D01*
X140590623Y-88783760D01*
X140802087Y-88863271D01*
X141025000Y-88900000D01*
X141175000Y-88900000D01*
X141175000Y-87825000D01*
X141325000Y-87825000D01*
X141325000Y-88900000D01*
X141475000Y-88900000D01*
X141697913Y-88863271D01*
X141909377Y-88783760D01*
X142101266Y-88664522D01*
X142266206Y-88510140D01*
X142397858Y-88326546D01*
X142491163Y-88120795D01*
X142521691Y-88003593D01*
X142472381Y-87825000D01*
X141325000Y-87825000D01*
X141175000Y-87825000D01*
X140027619Y-87825000D01*
X139978309Y-88003593D01*
X126700000Y-88003593D01*
X126700000Y-87931056D01*
X126673099Y-87795818D01*
X126620332Y-87668426D01*
X126543726Y-87553776D01*
X126446224Y-87456274D01*
X126331574Y-87379668D01*
X126204182Y-87326901D01*
X126068944Y-87300000D01*
X125931056Y-87300000D01*
X125795818Y-87326901D01*
X125668426Y-87379668D01*
X125553776Y-87456274D01*
X125456274Y-87553776D01*
X125379668Y-87668426D01*
X125326901Y-87795818D01*
X125300000Y-87931056D01*
X109914180Y-87931056D01*
X109954182Y-87923099D01*
X110081574Y-87870332D01*
X110196224Y-87793726D01*
X110293726Y-87696224D01*
X110370332Y-87581574D01*
X110423099Y-87454182D01*
X110450000Y-87318944D01*
X110450000Y-87181056D01*
X110423099Y-87045818D01*
X110370332Y-86918426D01*
X110293726Y-86803776D01*
X110283543Y-86793593D01*
X134878309Y-86793593D01*
X134926456Y-86952324D01*
X135027524Y-87153839D01*
X135165964Y-87331765D01*
X135336456Y-87479264D01*
X135532447Y-87590667D01*
X135746406Y-87661694D01*
X135925000Y-87612555D01*
X135925000Y-86615000D01*
X136075000Y-86615000D01*
X136075000Y-87612555D01*
X136253594Y-87661694D01*
X136467553Y-87590667D01*
X136633384Y-87496407D01*
X139978309Y-87496407D01*
X140027619Y-87675000D01*
X141175000Y-87675000D01*
X141175000Y-86600000D01*
X141325000Y-86600000D01*
X141325000Y-87675000D01*
X142472381Y-87675000D01*
X142521691Y-87496407D01*
X142491163Y-87379205D01*
X142397858Y-87173454D01*
X142266206Y-86989860D01*
X142101266Y-86835478D01*
X141909377Y-86716240D01*
X141697913Y-86636729D01*
X141475000Y-86600000D01*
X141325000Y-86600000D01*
X141175000Y-86600000D01*
X141025000Y-86600000D01*
X140802087Y-86636729D01*
X140590623Y-86716240D01*
X140398734Y-86835478D01*
X140233794Y-86989860D01*
X140102142Y-87173454D01*
X140008837Y-87379205D01*
X139978309Y-87496407D01*
X136633384Y-87496407D01*
X136663544Y-87479264D01*
X136834036Y-87331765D01*
X136972476Y-87153839D01*
X137073544Y-86952324D01*
X137121691Y-86793593D01*
X137072381Y-86615000D01*
X136075000Y-86615000D01*
X135925000Y-86615000D01*
X134927619Y-86615000D01*
X134878309Y-86793593D01*
X110283543Y-86793593D01*
X110196224Y-86706274D01*
X110081574Y-86629668D01*
X109954182Y-86576901D01*
X109818944Y-86550000D01*
X109681056Y-86550000D01*
X109545818Y-86576901D01*
X109418426Y-86629668D01*
X109303776Y-86706274D01*
X109206274Y-86803776D01*
X109129668Y-86918426D01*
X109076901Y-87045818D01*
X109050000Y-87181056D01*
X88800000Y-87181056D01*
X88800000Y-85021659D01*
X96400000Y-85021659D01*
X96400000Y-85238341D01*
X96442273Y-85450858D01*
X96525193Y-85651045D01*
X96645575Y-85831209D01*
X96798791Y-85984425D01*
X96978955Y-86104807D01*
X97179142Y-86187727D01*
X97391659Y-86230000D01*
X97608341Y-86230000D01*
X97820858Y-86187727D01*
X98021045Y-86104807D01*
X98201209Y-85984425D01*
X98354425Y-85831209D01*
X98474807Y-85651045D01*
X98557727Y-85450858D01*
X98572666Y-85375755D01*
X98967800Y-85375755D01*
X99036346Y-85580209D01*
X99143462Y-85767362D01*
X99285032Y-85930021D01*
X99455615Y-86061936D01*
X99648655Y-86158037D01*
X99794246Y-86202196D01*
X99965000Y-86152252D01*
X99965000Y-85205000D01*
X100115000Y-85205000D01*
X100115000Y-86152252D01*
X100285754Y-86202196D01*
X100431345Y-86158037D01*
X100624385Y-86061936D01*
X100794968Y-85930021D01*
X100936538Y-85767362D01*
X101043654Y-85580209D01*
X101112200Y-85375755D01*
X101062444Y-85205000D01*
X100115000Y-85205000D01*
X99965000Y-85205000D01*
X99017556Y-85205000D01*
X98967800Y-85375755D01*
X98572666Y-85375755D01*
X98600000Y-85238341D01*
X98600000Y-85150000D01*
X102348549Y-85150000D01*
X102348549Y-86850000D01*
X102354341Y-86908810D01*
X102371496Y-86965360D01*
X102399353Y-87017477D01*
X102436842Y-87063158D01*
X102482523Y-87100647D01*
X102534640Y-87128504D01*
X102591190Y-87145659D01*
X102650000Y-87151451D01*
X104350000Y-87151451D01*
X104408810Y-87145659D01*
X104465360Y-87128504D01*
X104517477Y-87100647D01*
X104563158Y-87063158D01*
X104600647Y-87017477D01*
X104628504Y-86965360D01*
X104645659Y-86908810D01*
X104651451Y-86850000D01*
X104651451Y-85495755D01*
X105887800Y-85495755D01*
X105956346Y-85700209D01*
X106063462Y-85887362D01*
X106205032Y-86050021D01*
X106375615Y-86181936D01*
X106568655Y-86278037D01*
X106714246Y-86322196D01*
X106885000Y-86272252D01*
X106885000Y-85325000D01*
X107035000Y-85325000D01*
X107035000Y-86272252D01*
X107205754Y-86322196D01*
X107351345Y-86278037D01*
X107544385Y-86181936D01*
X107714968Y-86050021D01*
X107856538Y-85887362D01*
X107963654Y-85700209D01*
X108032200Y-85495755D01*
X107982444Y-85325000D01*
X107035000Y-85325000D01*
X106885000Y-85325000D01*
X105937556Y-85325000D01*
X105887800Y-85495755D01*
X104651451Y-85495755D01*
X104651451Y-85150000D01*
X104645659Y-85091190D01*
X104628504Y-85034640D01*
X104612258Y-85004245D01*
X105887800Y-85004245D01*
X105937556Y-85175000D01*
X106885000Y-85175000D01*
X106885000Y-84227748D01*
X107035000Y-84227748D01*
X107035000Y-85175000D01*
X107982444Y-85175000D01*
X108032200Y-85004245D01*
X107963654Y-84799791D01*
X107856538Y-84612638D01*
X107714987Y-84450000D01*
X108398549Y-84450000D01*
X108398549Y-86050000D01*
X108404341Y-86108810D01*
X108421496Y-86165360D01*
X108449353Y-86217477D01*
X108486842Y-86263158D01*
X108532523Y-86300647D01*
X108584640Y-86328504D01*
X108641190Y-86345659D01*
X108700000Y-86351451D01*
X110300000Y-86351451D01*
X110358810Y-86345659D01*
X110415360Y-86328504D01*
X110467477Y-86300647D01*
X110484828Y-86286407D01*
X134878309Y-86286407D01*
X134927619Y-86465000D01*
X135925000Y-86465000D01*
X135925000Y-85467445D01*
X136075000Y-85467445D01*
X136075000Y-86465000D01*
X137072381Y-86465000D01*
X137121691Y-86286407D01*
X137073544Y-86127676D01*
X136972476Y-85926161D01*
X136834036Y-85748235D01*
X136663544Y-85600736D01*
X136467553Y-85489333D01*
X136253594Y-85418306D01*
X136075000Y-85467445D01*
X135925000Y-85467445D01*
X135746406Y-85418306D01*
X135532447Y-85489333D01*
X135336456Y-85600736D01*
X135165964Y-85748235D01*
X135027524Y-85926161D01*
X134926456Y-86127676D01*
X134878309Y-86286407D01*
X110484828Y-86286407D01*
X110513158Y-86263158D01*
X110550647Y-86217477D01*
X110578504Y-86165360D01*
X110595659Y-86108810D01*
X110601451Y-86050000D01*
X110601451Y-84450000D01*
X110595659Y-84391190D01*
X110578504Y-84334640D01*
X110550647Y-84282523D01*
X110513158Y-84236842D01*
X110467477Y-84199353D01*
X110415360Y-84171496D01*
X110358810Y-84154341D01*
X110300000Y-84148549D01*
X108700000Y-84148549D01*
X108641190Y-84154341D01*
X108584640Y-84171496D01*
X108532523Y-84199353D01*
X108486842Y-84236842D01*
X108449353Y-84282523D01*
X108421496Y-84334640D01*
X108404341Y-84391190D01*
X108398549Y-84450000D01*
X107714987Y-84450000D01*
X107714968Y-84449979D01*
X107544385Y-84318064D01*
X107351345Y-84221963D01*
X107205754Y-84177804D01*
X107035000Y-84227748D01*
X106885000Y-84227748D01*
X106714246Y-84177804D01*
X106568655Y-84221963D01*
X106375615Y-84318064D01*
X106205032Y-84449979D01*
X106063462Y-84612638D01*
X105956346Y-84799791D01*
X105887800Y-85004245D01*
X104612258Y-85004245D01*
X104600647Y-84982523D01*
X104563158Y-84936842D01*
X104517477Y-84899353D01*
X104465360Y-84871496D01*
X104408810Y-84854341D01*
X104350000Y-84848549D01*
X102650000Y-84848549D01*
X102591190Y-84854341D01*
X102534640Y-84871496D01*
X102482523Y-84899353D01*
X102436842Y-84936842D01*
X102399353Y-84982523D01*
X102371496Y-85034640D01*
X102354341Y-85091190D01*
X102348549Y-85150000D01*
X98600000Y-85150000D01*
X98600000Y-85021659D01*
X98572667Y-84884245D01*
X98967800Y-84884245D01*
X99017556Y-85055000D01*
X99965000Y-85055000D01*
X99965000Y-84107748D01*
X100115000Y-84107748D01*
X100115000Y-85055000D01*
X101062444Y-85055000D01*
X101112200Y-84884245D01*
X101043654Y-84679791D01*
X100936538Y-84492638D01*
X100794968Y-84329979D01*
X100624385Y-84198064D01*
X100431345Y-84101963D01*
X100285754Y-84057804D01*
X100115000Y-84107748D01*
X99965000Y-84107748D01*
X99794246Y-84057804D01*
X99648655Y-84101963D01*
X99455615Y-84198064D01*
X99285032Y-84329979D01*
X99143462Y-84492638D01*
X99036346Y-84679791D01*
X98967800Y-84884245D01*
X98572667Y-84884245D01*
X98557727Y-84809142D01*
X98474807Y-84608955D01*
X98354425Y-84428791D01*
X98201209Y-84275575D01*
X98021045Y-84155193D01*
X97820858Y-84072273D01*
X97608341Y-84030000D01*
X97391659Y-84030000D01*
X97179142Y-84072273D01*
X96978955Y-84155193D01*
X96798791Y-84275575D01*
X96645575Y-84428791D01*
X96525193Y-84608955D01*
X96442273Y-84809142D01*
X96400000Y-85021659D01*
X88800000Y-85021659D01*
X88800000Y-83931056D01*
X115800000Y-83931056D01*
X115800000Y-84068944D01*
X115826901Y-84204182D01*
X115879668Y-84331574D01*
X115956274Y-84446224D01*
X116053776Y-84543726D01*
X116168426Y-84620332D01*
X116295818Y-84673099D01*
X116431056Y-84700000D01*
X116568944Y-84700000D01*
X116704182Y-84673099D01*
X116831574Y-84620332D01*
X116946224Y-84543726D01*
X117043726Y-84446224D01*
X117053860Y-84431056D01*
X120050000Y-84431056D01*
X120050000Y-84568944D01*
X120076901Y-84704182D01*
X120129668Y-84831574D01*
X120206274Y-84946224D01*
X120303776Y-85043726D01*
X120418426Y-85120332D01*
X120545818Y-85173099D01*
X120681056Y-85200000D01*
X120818944Y-85200000D01*
X120954182Y-85173099D01*
X121081574Y-85120332D01*
X121196224Y-85043726D01*
X121293726Y-84946224D01*
X121370332Y-84831574D01*
X121423099Y-84704182D01*
X121450000Y-84568944D01*
X121450000Y-84431056D01*
X121423099Y-84295818D01*
X121370332Y-84168426D01*
X121293726Y-84053776D01*
X121196224Y-83956274D01*
X121081574Y-83879668D01*
X120954182Y-83826901D01*
X120818944Y-83800000D01*
X120681056Y-83800000D01*
X120545818Y-83826901D01*
X120418426Y-83879668D01*
X120303776Y-83956274D01*
X120206274Y-84053776D01*
X120129668Y-84168426D01*
X120076901Y-84295818D01*
X120050000Y-84431056D01*
X117053860Y-84431056D01*
X117120332Y-84331574D01*
X117173099Y-84204182D01*
X117200000Y-84068944D01*
X117200000Y-83931056D01*
X117173099Y-83795818D01*
X117120332Y-83668426D01*
X117043726Y-83553776D01*
X116946224Y-83456274D01*
X116831574Y-83379668D01*
X116704182Y-83326901D01*
X116568944Y-83300000D01*
X116431056Y-83300000D01*
X116295818Y-83326901D01*
X116168426Y-83379668D01*
X116053776Y-83456274D01*
X115956274Y-83553776D01*
X115879668Y-83668426D01*
X115826901Y-83795818D01*
X115800000Y-83931056D01*
X88800000Y-83931056D01*
X88800000Y-82431056D01*
X99800000Y-82431056D01*
X99800000Y-82568944D01*
X99826901Y-82704182D01*
X99879668Y-82831574D01*
X99956274Y-82946224D01*
X100053776Y-83043726D01*
X100168426Y-83120332D01*
X100295818Y-83173099D01*
X100431056Y-83200000D01*
X100568944Y-83200000D01*
X100704182Y-83173099D01*
X100759948Y-83150000D01*
X134848549Y-83150000D01*
X134848549Y-84850000D01*
X134854341Y-84908810D01*
X134871496Y-84965360D01*
X134899353Y-85017477D01*
X134936842Y-85063158D01*
X134982523Y-85100647D01*
X135034640Y-85128504D01*
X135091190Y-85145659D01*
X135150000Y-85151451D01*
X136850000Y-85151451D01*
X136908810Y-85145659D01*
X136965360Y-85128504D01*
X137017477Y-85100647D01*
X137063158Y-85063158D01*
X137100647Y-85017477D01*
X137128504Y-84965360D01*
X137145659Y-84908810D01*
X137151451Y-84850000D01*
X137151451Y-84650000D01*
X139948549Y-84650000D01*
X139948549Y-85850000D01*
X139959145Y-85957583D01*
X139990526Y-86061031D01*
X140041485Y-86156370D01*
X140110065Y-86239935D01*
X140193630Y-86308515D01*
X140288969Y-86359474D01*
X140392417Y-86390855D01*
X140500000Y-86401451D01*
X142000000Y-86401451D01*
X142107583Y-86390855D01*
X142211031Y-86359474D01*
X142306370Y-86308515D01*
X142389935Y-86239935D01*
X142458515Y-86156370D01*
X142509474Y-86061031D01*
X142540855Y-85957583D01*
X142551451Y-85850000D01*
X142551451Y-84650000D01*
X142540855Y-84542417D01*
X142509474Y-84438969D01*
X142458515Y-84343630D01*
X142389935Y-84260065D01*
X142306370Y-84191485D01*
X142211031Y-84140526D01*
X142107583Y-84109145D01*
X142000000Y-84098549D01*
X140500000Y-84098549D01*
X140392417Y-84109145D01*
X140288969Y-84140526D01*
X140193630Y-84191485D01*
X140110065Y-84260065D01*
X140041485Y-84343630D01*
X139990526Y-84438969D01*
X139959145Y-84542417D01*
X139948549Y-84650000D01*
X137151451Y-84650000D01*
X137151451Y-83150000D01*
X137145659Y-83091190D01*
X137128504Y-83034640D01*
X137100647Y-82982523D01*
X137063158Y-82936842D01*
X137017477Y-82899353D01*
X136965360Y-82871496D01*
X136908810Y-82854341D01*
X136850000Y-82848549D01*
X135150000Y-82848549D01*
X135091190Y-82854341D01*
X135034640Y-82871496D01*
X134982523Y-82899353D01*
X134936842Y-82936842D01*
X134899353Y-82982523D01*
X134871496Y-83034640D01*
X134854341Y-83091190D01*
X134848549Y-83150000D01*
X100759948Y-83150000D01*
X100831574Y-83120332D01*
X100946224Y-83043726D01*
X101043726Y-82946224D01*
X101120332Y-82831574D01*
X101173099Y-82704182D01*
X101200000Y-82568944D01*
X101200000Y-82431056D01*
X101173099Y-82295818D01*
X101125564Y-82181056D01*
X117800000Y-82181056D01*
X117800000Y-82318944D01*
X117826901Y-82454182D01*
X117879668Y-82581574D01*
X117956274Y-82696224D01*
X118053776Y-82793726D01*
X118168426Y-82870332D01*
X118295818Y-82923099D01*
X118431056Y-82950000D01*
X118568944Y-82950000D01*
X118704182Y-82923099D01*
X118831574Y-82870332D01*
X118946224Y-82793726D01*
X119043726Y-82696224D01*
X119120332Y-82581574D01*
X119173099Y-82454182D01*
X119200000Y-82318944D01*
X119200000Y-82181056D01*
X119173099Y-82045818D01*
X119125564Y-81931056D01*
X122550000Y-81931056D01*
X122550000Y-82068944D01*
X122576901Y-82204182D01*
X122629668Y-82331574D01*
X122706274Y-82446224D01*
X122803776Y-82543726D01*
X122918426Y-82620332D01*
X123045818Y-82673099D01*
X123181056Y-82700000D01*
X123318944Y-82700000D01*
X123454182Y-82673099D01*
X123581574Y-82620332D01*
X123696224Y-82543726D01*
X123793726Y-82446224D01*
X123870332Y-82331574D01*
X123923099Y-82204182D01*
X123950000Y-82068944D01*
X123950000Y-81931056D01*
X123923099Y-81795818D01*
X123870332Y-81668426D01*
X123793726Y-81553776D01*
X123696224Y-81456274D01*
X123581574Y-81379668D01*
X123454182Y-81326901D01*
X123318944Y-81300000D01*
X123181056Y-81300000D01*
X123045818Y-81326901D01*
X122918426Y-81379668D01*
X122803776Y-81456274D01*
X122706274Y-81553776D01*
X122629668Y-81668426D01*
X122576901Y-81795818D01*
X122550000Y-81931056D01*
X119125564Y-81931056D01*
X119120332Y-81918426D01*
X119043726Y-81803776D01*
X118946224Y-81706274D01*
X118831574Y-81629668D01*
X118704182Y-81576901D01*
X118568944Y-81550000D01*
X118431056Y-81550000D01*
X118295818Y-81576901D01*
X118168426Y-81629668D01*
X118053776Y-81706274D01*
X117956274Y-81803776D01*
X117879668Y-81918426D01*
X117826901Y-82045818D01*
X117800000Y-82181056D01*
X101125564Y-82181056D01*
X101120332Y-82168426D01*
X101043726Y-82053776D01*
X100946224Y-81956274D01*
X100831574Y-81879668D01*
X100704182Y-81826901D01*
X100568944Y-81800000D01*
X100431056Y-81800000D01*
X100295818Y-81826901D01*
X100168426Y-81879668D01*
X100053776Y-81956274D01*
X99956274Y-82053776D01*
X99879668Y-82168426D01*
X99826901Y-82295818D01*
X99800000Y-82431056D01*
X88800000Y-82431056D01*
X88800000Y-80107187D01*
X90770000Y-80107187D01*
X90770000Y-80392813D01*
X90825723Y-80672949D01*
X90935027Y-80936833D01*
X91093711Y-81174321D01*
X91295679Y-81376289D01*
X91533167Y-81534973D01*
X91797051Y-81644277D01*
X92077187Y-81700000D01*
X92362813Y-81700000D01*
X92642949Y-81644277D01*
X92906833Y-81534973D01*
X93144321Y-81376289D01*
X93241784Y-81278826D01*
X109077240Y-81278826D01*
X109205399Y-81471272D01*
X109458926Y-81602824D01*
X109733245Y-81682388D01*
X110017816Y-81706906D01*
X110301702Y-81675436D01*
X110573993Y-81589187D01*
X110794601Y-81471272D01*
X110922760Y-81278826D01*
X110000000Y-80356066D01*
X109077240Y-81278826D01*
X93241784Y-81278826D01*
X93346289Y-81174321D01*
X93504973Y-80936833D01*
X93614277Y-80672949D01*
X93670000Y-80392813D01*
X93670000Y-80267816D01*
X108543094Y-80267816D01*
X108574564Y-80551702D01*
X108660813Y-80823993D01*
X108778728Y-81044601D01*
X108971174Y-81172760D01*
X109893934Y-80250000D01*
X110106066Y-80250000D01*
X111028826Y-81172760D01*
X111221272Y-81044601D01*
X111280189Y-80931056D01*
X127050000Y-80931056D01*
X127050000Y-81068944D01*
X127076901Y-81204182D01*
X127129668Y-81331574D01*
X127206274Y-81446224D01*
X127303776Y-81543726D01*
X127418426Y-81620332D01*
X127545818Y-81673099D01*
X127681056Y-81700000D01*
X127818944Y-81700000D01*
X127954182Y-81673099D01*
X128081574Y-81620332D01*
X128196224Y-81543726D01*
X128293726Y-81446224D01*
X128370332Y-81331574D01*
X128423099Y-81204182D01*
X128450000Y-81068944D01*
X128450000Y-80931056D01*
X130050000Y-80931056D01*
X130050000Y-81068944D01*
X130076901Y-81204182D01*
X130129668Y-81331574D01*
X130206274Y-81446224D01*
X130303776Y-81543726D01*
X130418426Y-81620332D01*
X130545818Y-81673099D01*
X130681056Y-81700000D01*
X130818944Y-81700000D01*
X130954182Y-81673099D01*
X131081574Y-81620332D01*
X131196224Y-81543726D01*
X131293726Y-81446224D01*
X131370332Y-81331574D01*
X131423099Y-81204182D01*
X131450000Y-81068944D01*
X131450000Y-80931056D01*
X131423099Y-80795818D01*
X131370332Y-80668426D01*
X131293726Y-80553776D01*
X131196224Y-80456274D01*
X131081574Y-80379668D01*
X130954182Y-80326901D01*
X130818944Y-80300000D01*
X130681056Y-80300000D01*
X130545818Y-80326901D01*
X130418426Y-80379668D01*
X130303776Y-80456274D01*
X130206274Y-80553776D01*
X130129668Y-80668426D01*
X130076901Y-80795818D01*
X130050000Y-80931056D01*
X128450000Y-80931056D01*
X128423099Y-80795818D01*
X128370332Y-80668426D01*
X128293726Y-80553776D01*
X128196224Y-80456274D01*
X128081574Y-80379668D01*
X127954182Y-80326901D01*
X127818944Y-80300000D01*
X127681056Y-80300000D01*
X127545818Y-80326901D01*
X127418426Y-80379668D01*
X127303776Y-80456274D01*
X127206274Y-80553776D01*
X127129668Y-80668426D01*
X127076901Y-80795818D01*
X127050000Y-80931056D01*
X111280189Y-80931056D01*
X111352824Y-80791074D01*
X111432388Y-80516755D01*
X111456906Y-80232184D01*
X111425436Y-79948298D01*
X111339187Y-79676007D01*
X111320828Y-79641659D01*
X128030000Y-79641659D01*
X128030000Y-79858341D01*
X128072273Y-80070858D01*
X128155193Y-80271045D01*
X128275575Y-80451209D01*
X128428791Y-80604425D01*
X128608955Y-80724807D01*
X128809142Y-80807727D01*
X129021659Y-80850000D01*
X129238341Y-80850000D01*
X129450858Y-80807727D01*
X129651045Y-80724807D01*
X129831209Y-80604425D01*
X129984425Y-80451209D01*
X130104807Y-80271045D01*
X130187727Y-80070858D01*
X130230000Y-79858341D01*
X130230000Y-79641659D01*
X130187727Y-79429142D01*
X130104807Y-79228955D01*
X129984425Y-79048791D01*
X129885634Y-78950000D01*
X135648549Y-78950000D01*
X135648549Y-80550000D01*
X135654341Y-80608810D01*
X135671496Y-80665360D01*
X135699353Y-80717477D01*
X135736842Y-80763158D01*
X135782523Y-80800647D01*
X135834640Y-80828504D01*
X135891190Y-80845659D01*
X135950000Y-80851451D01*
X137550000Y-80851451D01*
X137608810Y-80845659D01*
X137665360Y-80828504D01*
X137717477Y-80800647D01*
X137763158Y-80763158D01*
X137800647Y-80717477D01*
X137828504Y-80665360D01*
X137845659Y-80608810D01*
X137851451Y-80550000D01*
X137851451Y-78950000D01*
X137845659Y-78891190D01*
X137828504Y-78834640D01*
X137800647Y-78782523D01*
X137763158Y-78736842D01*
X137717477Y-78699353D01*
X137665360Y-78671496D01*
X137608810Y-78654341D01*
X137550000Y-78648549D01*
X135950000Y-78648549D01*
X135891190Y-78654341D01*
X135834640Y-78671496D01*
X135782523Y-78699353D01*
X135736842Y-78736842D01*
X135699353Y-78782523D01*
X135671496Y-78834640D01*
X135654341Y-78891190D01*
X135648549Y-78950000D01*
X129885634Y-78950000D01*
X129831209Y-78895575D01*
X129651045Y-78775193D01*
X129450858Y-78692273D01*
X129238341Y-78650000D01*
X129021659Y-78650000D01*
X128809142Y-78692273D01*
X128608955Y-78775193D01*
X128428791Y-78895575D01*
X128275575Y-79048791D01*
X128155193Y-79228955D01*
X128072273Y-79429142D01*
X128030000Y-79641659D01*
X111320828Y-79641659D01*
X111221272Y-79455399D01*
X111028826Y-79327240D01*
X110106066Y-80250000D01*
X109893934Y-80250000D01*
X108971174Y-79327240D01*
X108778728Y-79455399D01*
X108647176Y-79708926D01*
X108567612Y-79983245D01*
X108543094Y-80267816D01*
X93670000Y-80267816D01*
X93670000Y-80107187D01*
X93614277Y-79827051D01*
X93504973Y-79563167D01*
X93346289Y-79325679D01*
X93241784Y-79221174D01*
X109077240Y-79221174D01*
X110000000Y-80143934D01*
X110922760Y-79221174D01*
X110794601Y-79028728D01*
X110541074Y-78897176D01*
X110266755Y-78817612D01*
X109982184Y-78793094D01*
X109698298Y-78824564D01*
X109426007Y-78910813D01*
X109205399Y-79028728D01*
X109077240Y-79221174D01*
X93241784Y-79221174D01*
X93144321Y-79123711D01*
X92906833Y-78965027D01*
X92642949Y-78855723D01*
X92362813Y-78800000D01*
X92077187Y-78800000D01*
X91797051Y-78855723D01*
X91533167Y-78965027D01*
X91295679Y-79123711D01*
X91093711Y-79325679D01*
X90935027Y-79563167D01*
X90825723Y-79827051D01*
X90770000Y-80107187D01*
X88800000Y-80107187D01*
X88800000Y-78252454D01*
X88807032Y-78181056D01*
X116050000Y-78181056D01*
X116050000Y-78318944D01*
X116076901Y-78454182D01*
X116129668Y-78581574D01*
X116206274Y-78696224D01*
X116303776Y-78793726D01*
X116418426Y-78870332D01*
X116545818Y-78923099D01*
X116681056Y-78950000D01*
X116818944Y-78950000D01*
X116954182Y-78923099D01*
X117081574Y-78870332D01*
X117196224Y-78793726D01*
X117293726Y-78696224D01*
X117370332Y-78581574D01*
X117404120Y-78500000D01*
X139944436Y-78500000D01*
X139966640Y-78725439D01*
X140032398Y-78942215D01*
X140139184Y-79141997D01*
X140282893Y-79317107D01*
X140458003Y-79460816D01*
X140657785Y-79567602D01*
X140874561Y-79633360D01*
X141043508Y-79650000D01*
X141456492Y-79650000D01*
X141625439Y-79633360D01*
X141842215Y-79567602D01*
X142041997Y-79460816D01*
X142217107Y-79317107D01*
X142360816Y-79141997D01*
X142467602Y-78942215D01*
X142533360Y-78725439D01*
X142555564Y-78500000D01*
X142533360Y-78274561D01*
X142467602Y-78057785D01*
X142360816Y-77858003D01*
X142217107Y-77682893D01*
X142041997Y-77539184D01*
X141842215Y-77432398D01*
X141625439Y-77366640D01*
X141456492Y-77350000D01*
X141043508Y-77350000D01*
X140874561Y-77366640D01*
X140657785Y-77432398D01*
X140458003Y-77539184D01*
X140282893Y-77682893D01*
X140139184Y-77858003D01*
X140032398Y-78057785D01*
X139966640Y-78274561D01*
X139944436Y-78500000D01*
X117404120Y-78500000D01*
X117423099Y-78454182D01*
X117450000Y-78318944D01*
X117450000Y-78181056D01*
X117423099Y-78045818D01*
X117370332Y-77918426D01*
X117293726Y-77803776D01*
X117196224Y-77706274D01*
X117081574Y-77629668D01*
X116954182Y-77576901D01*
X116818944Y-77550000D01*
X116681056Y-77550000D01*
X116545818Y-77576901D01*
X116418426Y-77629668D01*
X116303776Y-77706274D01*
X116206274Y-77803776D01*
X116129668Y-77918426D01*
X116076901Y-78045818D01*
X116050000Y-78181056D01*
X88807032Y-78181056D01*
X88818491Y-78064712D01*
X88872537Y-77886544D01*
X88960303Y-77722345D01*
X89078420Y-77578420D01*
X89222345Y-77460303D01*
X89230855Y-77455754D01*
X128057804Y-77455754D01*
X128101963Y-77601345D01*
X128198064Y-77794385D01*
X128329979Y-77964968D01*
X128492638Y-78106538D01*
X128679791Y-78213654D01*
X128884245Y-78282200D01*
X129055000Y-78232444D01*
X129055000Y-77285000D01*
X129205000Y-77285000D01*
X129205000Y-78232444D01*
X129375755Y-78282200D01*
X129580209Y-78213654D01*
X129767362Y-78106538D01*
X129930021Y-77964968D01*
X130061936Y-77794385D01*
X130158037Y-77601345D01*
X130202196Y-77455754D01*
X130152252Y-77285000D01*
X129205000Y-77285000D01*
X129055000Y-77285000D01*
X128107748Y-77285000D01*
X128057804Y-77455754D01*
X89230855Y-77455754D01*
X89386544Y-77372537D01*
X89564712Y-77318491D01*
X89752454Y-77300000D01*
X102835786Y-77300000D01*
X102840687Y-77299759D01*
X103035778Y-77280544D01*
X103045391Y-77278632D01*
X103232984Y-77221727D01*
X103242040Y-77217976D01*
X103414927Y-77125566D01*
X103423077Y-77120120D01*
X103574613Y-76995757D01*
X103578248Y-76992462D01*
X103606464Y-76964246D01*
X128057804Y-76964246D01*
X128107748Y-77135000D01*
X129055000Y-77135000D01*
X129055000Y-76187556D01*
X129205000Y-76187556D01*
X129205000Y-77135000D01*
X130152252Y-77135000D01*
X130162003Y-77101659D01*
X135650000Y-77101659D01*
X135650000Y-77318341D01*
X135692273Y-77530858D01*
X135775193Y-77731045D01*
X135895575Y-77911209D01*
X136048791Y-78064425D01*
X136228955Y-78184807D01*
X136429142Y-78267727D01*
X136641659Y-78310000D01*
X136858341Y-78310000D01*
X137070858Y-78267727D01*
X137271045Y-78184807D01*
X137451209Y-78064425D01*
X137604425Y-77911209D01*
X137724807Y-77731045D01*
X137807727Y-77530858D01*
X137850000Y-77318341D01*
X137850000Y-77101659D01*
X137807727Y-76889142D01*
X137724807Y-76688955D01*
X137604425Y-76508791D01*
X137451209Y-76355575D01*
X137271045Y-76235193D01*
X137070858Y-76152273D01*
X136858341Y-76110000D01*
X136641659Y-76110000D01*
X136429142Y-76152273D01*
X136228955Y-76235193D01*
X136048791Y-76355575D01*
X135895575Y-76508791D01*
X135775193Y-76688955D01*
X135692273Y-76889142D01*
X135650000Y-77101659D01*
X130162003Y-77101659D01*
X130202196Y-76964246D01*
X130158037Y-76818655D01*
X130061936Y-76625615D01*
X129930021Y-76455032D01*
X129767362Y-76313462D01*
X129580209Y-76206346D01*
X129375755Y-76137800D01*
X129205000Y-76187556D01*
X129055000Y-76187556D01*
X128884245Y-76137800D01*
X128679791Y-76206346D01*
X128492638Y-76313462D01*
X128329979Y-76455032D01*
X128198064Y-76625615D01*
X128101963Y-76818655D01*
X128057804Y-76964246D01*
X103606464Y-76964246D01*
X105543523Y-75027187D01*
X108550000Y-75027187D01*
X108550000Y-75312813D01*
X108605723Y-75592949D01*
X108715027Y-75856833D01*
X108873711Y-76094321D01*
X109075679Y-76296289D01*
X109313167Y-76454973D01*
X109577051Y-76564277D01*
X109857187Y-76620000D01*
X110142813Y-76620000D01*
X110422949Y-76564277D01*
X110686833Y-76454973D01*
X110924321Y-76296289D01*
X111039554Y-76181056D01*
X114050000Y-76181056D01*
X114050000Y-76318944D01*
X114076901Y-76454182D01*
X114129668Y-76581574D01*
X114206274Y-76696224D01*
X114303776Y-76793726D01*
X114418426Y-76870332D01*
X114545818Y-76923099D01*
X114681056Y-76950000D01*
X114818944Y-76950000D01*
X114954182Y-76923099D01*
X115081574Y-76870332D01*
X115196224Y-76793726D01*
X115293726Y-76696224D01*
X115370332Y-76581574D01*
X115423099Y-76454182D01*
X115450000Y-76318944D01*
X115450000Y-76181056D01*
X115423099Y-76045818D01*
X115370332Y-75918426D01*
X115293726Y-75803776D01*
X115196224Y-75706274D01*
X115081574Y-75629668D01*
X114954182Y-75576901D01*
X114818944Y-75550000D01*
X114681056Y-75550000D01*
X114545818Y-75576901D01*
X114418426Y-75629668D01*
X114303776Y-75706274D01*
X114206274Y-75803776D01*
X114129668Y-75918426D01*
X114076901Y-76045818D01*
X114050000Y-76181056D01*
X111039554Y-76181056D01*
X111126289Y-76094321D01*
X111284973Y-75856833D01*
X111394277Y-75592949D01*
X111432657Y-75400000D01*
X139948549Y-75400000D01*
X139948549Y-76600000D01*
X139959145Y-76707583D01*
X139990526Y-76811031D01*
X140041485Y-76906370D01*
X140110065Y-76989935D01*
X140193630Y-77058515D01*
X140288969Y-77109474D01*
X140392417Y-77140855D01*
X140500000Y-77151451D01*
X142000000Y-77151451D01*
X142107583Y-77140855D01*
X142211031Y-77109474D01*
X142306370Y-77058515D01*
X142389935Y-76989935D01*
X142458515Y-76906370D01*
X142509474Y-76811031D01*
X142540855Y-76707583D01*
X142551451Y-76600000D01*
X142551451Y-75400000D01*
X142540855Y-75292417D01*
X142509474Y-75188969D01*
X142458515Y-75093630D01*
X142389935Y-75010065D01*
X142306370Y-74941485D01*
X142211031Y-74890526D01*
X142107583Y-74859145D01*
X142000000Y-74848549D01*
X140500000Y-74848549D01*
X140392417Y-74859145D01*
X140288969Y-74890526D01*
X140193630Y-74941485D01*
X140110065Y-75010065D01*
X140041485Y-75093630D01*
X139990526Y-75188969D01*
X139959145Y-75292417D01*
X139948549Y-75400000D01*
X111432657Y-75400000D01*
X111450000Y-75312813D01*
X111450000Y-75027187D01*
X111394277Y-74747051D01*
X111284973Y-74483167D01*
X111250154Y-74431056D01*
X120550000Y-74431056D01*
X120550000Y-74568944D01*
X120576901Y-74704182D01*
X120629668Y-74831574D01*
X120706274Y-74946224D01*
X120803776Y-75043726D01*
X120918426Y-75120332D01*
X121045818Y-75173099D01*
X121181056Y-75200000D01*
X121318944Y-75200000D01*
X121454182Y-75173099D01*
X121581574Y-75120332D01*
X121696224Y-75043726D01*
X121793726Y-74946224D01*
X121870332Y-74831574D01*
X121923099Y-74704182D01*
X121950000Y-74568944D01*
X121950000Y-74431056D01*
X121923099Y-74295818D01*
X121870332Y-74168426D01*
X121793726Y-74053776D01*
X121696224Y-73956274D01*
X121581574Y-73879668D01*
X121454182Y-73826901D01*
X121318944Y-73800000D01*
X121181056Y-73800000D01*
X121045818Y-73826901D01*
X120918426Y-73879668D01*
X120803776Y-73956274D01*
X120706274Y-74053776D01*
X120629668Y-74168426D01*
X120576901Y-74295818D01*
X120550000Y-74431056D01*
X111250154Y-74431056D01*
X111126289Y-74245679D01*
X110924321Y-74043711D01*
X110686833Y-73885027D01*
X110422949Y-73775723D01*
X110142813Y-73720000D01*
X109857187Y-73720000D01*
X109577051Y-73775723D01*
X109313167Y-73885027D01*
X109075679Y-74043711D01*
X108873711Y-74245679D01*
X108715027Y-74483167D01*
X108605723Y-74747051D01*
X108550000Y-75027187D01*
X105543523Y-75027187D01*
X107920710Y-72650000D01*
X129848549Y-72650000D01*
X129848549Y-74350000D01*
X129854341Y-74408810D01*
X129871496Y-74465360D01*
X129899353Y-74517477D01*
X129936842Y-74563158D01*
X129982523Y-74600647D01*
X130034640Y-74628504D01*
X130091190Y-74645659D01*
X130150000Y-74651451D01*
X131850000Y-74651451D01*
X131908810Y-74645659D01*
X131965360Y-74628504D01*
X132017477Y-74600647D01*
X132063158Y-74563158D01*
X132100647Y-74517477D01*
X132128504Y-74465360D01*
X132145659Y-74408810D01*
X132151451Y-74350000D01*
X132151451Y-73386735D01*
X132390000Y-73386735D01*
X132390000Y-73613265D01*
X132434194Y-73835443D01*
X132520884Y-74044729D01*
X132646737Y-74233082D01*
X132806918Y-74393263D01*
X132995271Y-74519116D01*
X133204557Y-74605806D01*
X133426735Y-74650000D01*
X133653265Y-74650000D01*
X133875443Y-74605806D01*
X134084729Y-74519116D01*
X134273082Y-74393263D01*
X134433263Y-74233082D01*
X134559116Y-74044729D01*
X134645806Y-73835443D01*
X134690000Y-73613265D01*
X134690000Y-73386735D01*
X134930000Y-73386735D01*
X134930000Y-73613265D01*
X134974194Y-73835443D01*
X135060884Y-74044729D01*
X135186737Y-74233082D01*
X135346918Y-74393263D01*
X135535271Y-74519116D01*
X135744557Y-74605806D01*
X135966735Y-74650000D01*
X136193265Y-74650000D01*
X136415443Y-74605806D01*
X136624729Y-74519116D01*
X136813082Y-74393263D01*
X136973263Y-74233082D01*
X137099116Y-74044729D01*
X137185806Y-73835443D01*
X137230000Y-73613265D01*
X137230000Y-73386735D01*
X137185806Y-73164557D01*
X137099116Y-72955271D01*
X136973263Y-72766918D01*
X136813082Y-72606737D01*
X136624729Y-72480884D01*
X136415443Y-72394194D01*
X136193265Y-72350000D01*
X135966735Y-72350000D01*
X135744557Y-72394194D01*
X135535271Y-72480884D01*
X135346918Y-72606737D01*
X135186737Y-72766918D01*
X135060884Y-72955271D01*
X134974194Y-73164557D01*
X134930000Y-73386735D01*
X134690000Y-73386735D01*
X134645806Y-73164557D01*
X134559116Y-72955271D01*
X134433263Y-72766918D01*
X134273082Y-72606737D01*
X134084729Y-72480884D01*
X133875443Y-72394194D01*
X133653265Y-72350000D01*
X133426735Y-72350000D01*
X133204557Y-72394194D01*
X132995271Y-72480884D01*
X132806918Y-72606737D01*
X132646737Y-72766918D01*
X132520884Y-72955271D01*
X132434194Y-73164557D01*
X132390000Y-73386735D01*
X132151451Y-73386735D01*
X132151451Y-72650000D01*
X132145659Y-72591190D01*
X132128504Y-72534640D01*
X132100647Y-72482523D01*
X132063158Y-72436842D01*
X132017477Y-72399353D01*
X131965360Y-72371496D01*
X131908810Y-72354341D01*
X131850000Y-72348549D01*
X130150000Y-72348549D01*
X130091190Y-72354341D01*
X130034640Y-72371496D01*
X129982523Y-72399353D01*
X129936842Y-72436842D01*
X129899353Y-72482523D01*
X129871496Y-72534640D01*
X129854341Y-72591190D01*
X129848549Y-72650000D01*
X107920710Y-72650000D01*
X111320710Y-69250000D01*
X139944436Y-69250000D01*
X139966640Y-69475439D01*
X140032398Y-69692215D01*
X140139184Y-69891997D01*
X140282893Y-70067107D01*
X140458003Y-70210816D01*
X140657785Y-70317602D01*
X140874561Y-70383360D01*
X141043508Y-70400000D01*
X141456492Y-70400000D01*
X141625439Y-70383360D01*
X141842215Y-70317602D01*
X142041997Y-70210816D01*
X142217107Y-70067107D01*
X142360816Y-69891997D01*
X142467602Y-69692215D01*
X142533360Y-69475439D01*
X142555564Y-69250000D01*
X142533360Y-69024561D01*
X142467602Y-68807785D01*
X142360816Y-68608003D01*
X142217107Y-68432893D01*
X142041997Y-68289184D01*
X141842215Y-68182398D01*
X141625439Y-68116640D01*
X141456492Y-68100000D01*
X141043508Y-68100000D01*
X140874561Y-68116640D01*
X140657785Y-68182398D01*
X140458003Y-68289184D01*
X140282893Y-68432893D01*
X140139184Y-68608003D01*
X140032398Y-68807785D01*
X139966640Y-69024561D01*
X139944436Y-69250000D01*
X111320710Y-69250000D01*
X114139654Y-66431056D01*
X119800000Y-66431056D01*
X119800000Y-66568944D01*
X119826901Y-66704182D01*
X119879668Y-66831574D01*
X119956274Y-66946224D01*
X120053776Y-67043726D01*
X120168426Y-67120332D01*
X120295818Y-67173099D01*
X120431056Y-67200000D01*
X120568944Y-67200000D01*
X120704182Y-67173099D01*
X120831574Y-67120332D01*
X120946224Y-67043726D01*
X121043726Y-66946224D01*
X121120332Y-66831574D01*
X121173099Y-66704182D01*
X121200000Y-66568944D01*
X121200000Y-66431056D01*
X121173099Y-66295818D01*
X121120332Y-66168426D01*
X121043726Y-66053776D01*
X120946224Y-65956274D01*
X120831574Y-65879668D01*
X120704182Y-65826901D01*
X120568944Y-65800000D01*
X120431056Y-65800000D01*
X120295818Y-65826901D01*
X120168426Y-65879668D01*
X120053776Y-65956274D01*
X119956274Y-66053776D01*
X119879668Y-66168426D01*
X119826901Y-66295818D01*
X119800000Y-66431056D01*
X114139654Y-66431056D01*
X115448749Y-65121961D01*
X124350000Y-65121961D01*
X124350000Y-65378039D01*
X124399958Y-65629196D01*
X124497955Y-65865781D01*
X124640224Y-66078702D01*
X124821298Y-66259776D01*
X125034219Y-66402045D01*
X125270804Y-66500042D01*
X125521961Y-66550000D01*
X125778039Y-66550000D01*
X126029196Y-66500042D01*
X126265781Y-66402045D01*
X126478702Y-66259776D01*
X126659776Y-66078702D01*
X126802045Y-65865781D01*
X126900042Y-65629196D01*
X126950000Y-65378039D01*
X126950000Y-65121961D01*
X126900042Y-64870804D01*
X126802045Y-64634219D01*
X126659776Y-64421298D01*
X126488478Y-64250000D01*
X131948549Y-64250000D01*
X131948549Y-66250000D01*
X131954341Y-66308810D01*
X131971496Y-66365360D01*
X131999353Y-66417477D01*
X132036842Y-66463158D01*
X132082523Y-66500647D01*
X132134640Y-66528504D01*
X132191190Y-66545659D01*
X132250000Y-66551451D01*
X134250000Y-66551451D01*
X134308810Y-66545659D01*
X134365360Y-66528504D01*
X134417477Y-66500647D01*
X134463158Y-66463158D01*
X134500647Y-66417477D01*
X134528504Y-66365360D01*
X134545659Y-66308810D01*
X134551451Y-66250000D01*
X134551451Y-66150000D01*
X139948549Y-66150000D01*
X139948549Y-67350000D01*
X139959145Y-67457583D01*
X139990526Y-67561031D01*
X140041485Y-67656370D01*
X140110065Y-67739935D01*
X140193630Y-67808515D01*
X140288969Y-67859474D01*
X140392417Y-67890855D01*
X140500000Y-67901451D01*
X142000000Y-67901451D01*
X142107583Y-67890855D01*
X142211031Y-67859474D01*
X142306370Y-67808515D01*
X142389935Y-67739935D01*
X142458515Y-67656370D01*
X142509474Y-67561031D01*
X142540855Y-67457583D01*
X142551451Y-67350000D01*
X142551451Y-66150000D01*
X142540855Y-66042417D01*
X142509474Y-65938969D01*
X142458515Y-65843630D01*
X142389935Y-65760065D01*
X142306370Y-65691485D01*
X142211031Y-65640526D01*
X142107583Y-65609145D01*
X142000000Y-65598549D01*
X140500000Y-65598549D01*
X140392417Y-65609145D01*
X140288969Y-65640526D01*
X140193630Y-65691485D01*
X140110065Y-65760065D01*
X140041485Y-65843630D01*
X139990526Y-65938969D01*
X139959145Y-66042417D01*
X139948549Y-66150000D01*
X134551451Y-66150000D01*
X134551451Y-64250000D01*
X134545659Y-64191190D01*
X134528504Y-64134640D01*
X134500647Y-64082523D01*
X134463158Y-64036842D01*
X134417477Y-63999353D01*
X134365360Y-63971496D01*
X134308810Y-63954341D01*
X134250000Y-63948549D01*
X132250000Y-63948549D01*
X132191190Y-63954341D01*
X132134640Y-63971496D01*
X132082523Y-63999353D01*
X132036842Y-64036842D01*
X131999353Y-64082523D01*
X131971496Y-64134640D01*
X131954341Y-64191190D01*
X131948549Y-64250000D01*
X126488478Y-64250000D01*
X126478702Y-64240224D01*
X126265781Y-64097955D01*
X126029196Y-63999958D01*
X125778039Y-63950000D01*
X125521961Y-63950000D01*
X125270804Y-63999958D01*
X125034219Y-64097955D01*
X124821298Y-64240224D01*
X124640224Y-64421298D01*
X124497955Y-64634219D01*
X124399958Y-64870804D01*
X124350000Y-65121961D01*
X115448749Y-65121961D01*
X120179051Y-60391659D01*
X121270000Y-60391659D01*
X121270000Y-60608341D01*
X121312273Y-60820858D01*
X121395193Y-61021045D01*
X121515575Y-61201209D01*
X121668791Y-61354425D01*
X121848955Y-61474807D01*
X122049142Y-61557727D01*
X122261659Y-61600000D01*
X122478341Y-61600000D01*
X122690858Y-61557727D01*
X122891045Y-61474807D01*
X123071209Y-61354425D01*
X123224425Y-61201209D01*
X123344807Y-61021045D01*
X123382081Y-60931056D01*
X133300000Y-60931056D01*
X133300000Y-61068944D01*
X133326901Y-61204182D01*
X133379668Y-61331574D01*
X133456274Y-61446224D01*
X133553776Y-61543726D01*
X133668426Y-61620332D01*
X133795818Y-61673099D01*
X133931056Y-61700000D01*
X134068944Y-61700000D01*
X134204182Y-61673099D01*
X134331574Y-61620332D01*
X134446224Y-61543726D01*
X134543726Y-61446224D01*
X134620332Y-61331574D01*
X134673099Y-61204182D01*
X134677699Y-61181056D01*
X135300000Y-61181056D01*
X135300000Y-61318944D01*
X135326901Y-61454182D01*
X135379668Y-61581574D01*
X135456274Y-61696224D01*
X135553776Y-61793726D01*
X135668426Y-61870332D01*
X135795818Y-61923099D01*
X135931056Y-61950000D01*
X136068944Y-61950000D01*
X136204182Y-61923099D01*
X136331574Y-61870332D01*
X136446224Y-61793726D01*
X136543726Y-61696224D01*
X136620332Y-61581574D01*
X136673099Y-61454182D01*
X136700000Y-61318944D01*
X136700000Y-61181056D01*
X136673099Y-61045818D01*
X136620332Y-60918426D01*
X136543726Y-60803776D01*
X136446224Y-60706274D01*
X136331574Y-60629668D01*
X136204182Y-60576901D01*
X136068944Y-60550000D01*
X135931056Y-60550000D01*
X135795818Y-60576901D01*
X135668426Y-60629668D01*
X135553776Y-60706274D01*
X135456274Y-60803776D01*
X135379668Y-60918426D01*
X135326901Y-61045818D01*
X135300000Y-61181056D01*
X134677699Y-61181056D01*
X134700000Y-61068944D01*
X134700000Y-60931056D01*
X134673099Y-60795818D01*
X134620332Y-60668426D01*
X134543726Y-60553776D01*
X134446224Y-60456274D01*
X134331574Y-60379668D01*
X134204182Y-60326901D01*
X134068944Y-60300000D01*
X133931056Y-60300000D01*
X133795818Y-60326901D01*
X133668426Y-60379668D01*
X133553776Y-60456274D01*
X133456274Y-60553776D01*
X133379668Y-60668426D01*
X133326901Y-60795818D01*
X133300000Y-60931056D01*
X123382081Y-60931056D01*
X123427727Y-60820858D01*
X123470000Y-60608341D01*
X123470000Y-60391659D01*
X123427727Y-60179142D01*
X123344807Y-59978955D01*
X123224425Y-59798791D01*
X123071209Y-59645575D01*
X122891045Y-59525193D01*
X122690858Y-59442273D01*
X122478341Y-59400000D01*
X122261659Y-59400000D01*
X122049142Y-59442273D01*
X121848955Y-59525193D01*
X121668791Y-59645575D01*
X121515575Y-59798791D01*
X121395193Y-59978955D01*
X121312273Y-60179142D01*
X121270000Y-60391659D01*
X120179051Y-60391659D01*
X120990723Y-59579987D01*
X121136555Y-59460305D01*
X121300757Y-59372537D01*
X121457467Y-59325000D01*
X122515961Y-59325000D01*
X122532206Y-59323400D01*
X122538694Y-59323400D01*
X122543207Y-59322926D01*
X122640182Y-59312049D01*
X122668983Y-59305927D01*
X122697891Y-59300203D01*
X122698547Y-59300000D01*
X140186786Y-59300000D01*
X140139184Y-59358003D01*
M02*
