M48
; DRILL file {KiCad (5.1.6)-1} date 05/04/21 19:37:41
; FORMAT={-:-/ absolute / metric / decimal}
; #@! TF.CreationDate,2021-05-04T19:37:41+03:00
; #@! TF.GenerationSoftware,Kicad,Pcbnew,(5.1.6)-1
; #@! TF.FileFunction,Plated,1,4,PTH
FMAT,2
METRIC
T1C0.450
T2C0.760
T3C0.800
T4C0.950
T5C1.000
T6C1.300
%
G90
G05
T1
X100.5Y-82.5
X106.5Y-87.25
X106.5Y-88.5
X106.5Y-90.0
X107.5Y-77.5
X107.5Y-78.75
X107.5Y-80.0
X107.5Y-81.25
X108.0Y-87.25
X108.0Y-88.5
X108.0Y-90.0
X108.75Y-77.5
X109.75Y-87.25
X109.75Y-88.5
X110.0Y-77.5
X110.75Y-46.75
X111.25Y-77.5
X113.25Y-72.0
X113.25Y-73.25
X113.25Y-74.5
X113.75Y-90.25
X114.0Y-70.5
X114.5Y-72.0
X114.5Y-73.25
X114.5Y-74.5
X114.5Y-87.75
X114.75Y-76.25
X115.5Y-94.0
X115.75Y-72.0
X115.75Y-73.25
X115.75Y-74.5
X116.5Y-80.0
X116.5Y-81.25
X116.5Y-82.5
X116.5Y-84.0
X116.75Y-78.25
X116.75Y-85.75
X117.5Y-83.25
X118.0Y-85.75
X118.0Y-94.0
X118.25Y-84.5
X118.25Y-89.375
X118.5Y-82.25
X118.75Y-68.75
X119.5Y-84.5
X119.5Y-93.25
X120.5Y-66.5
X120.75Y-84.5
X121.25Y-74.5
X123.0Y-70.0
X123.0Y-71.25
X123.25Y-78.25
X123.25Y-82.0
X123.75Y-92.0
X124.0Y-83.0
X124.75Y-90.5
X126.0Y-88.0
X126.25Y-72.0
X126.25Y-73.25
X126.25Y-74.5
X126.25Y-77.0
X127.75Y-81.0
X128.75Y-75.25
X129.25Y-91.25
X129.25Y-92.5
X130.75Y-81.0
X130.75Y-92.5
X131.25Y-88.75
X132.25Y-92.5
X132.5Y-81.0
X133.0Y-90.5
X134.0Y-61.0
X134.0Y-81.0
X134.25Y-90.5
X134.5Y-93.75
X134.5Y-95.0
X134.5Y-96.5
X134.5Y-97.75
X134.75Y-88.75
X134.75Y-98.75
X135.5Y-81.75
X136.0Y-61.25
X136.25Y-89.25
X136.25Y-98.75
X137.5Y-81.75
X137.75Y-89.25
X137.75Y-98.75
T2
X92.22Y-80.25
X110.0Y-75.17
X110.0Y-80.25
T3
X114.75Y-60.5
X122.37Y-60.5
X97.5Y-85.13
X97.5Y-92.75
X100.04Y-85.13
X100.04Y-92.75
X129.13Y-77.21
X129.13Y-79.75
X136.75Y-77.21
X136.75Y-79.75
X92.22Y-49.77
X92.22Y-54.85
X106.96Y-85.25
X106.96Y-92.87
X109.5Y-85.25
X109.5Y-92.87
T4
X92.0Y-97.75
X94.5Y-97.75
X97.0Y-97.75
X103.5Y-97.75
X106.0Y-97.75
X108.5Y-97.75
T5
X141.25Y-66.75
X141.25Y-69.25
X125.65Y-65.25
X133.25Y-65.25
X114.09Y-95.5
X114.09Y-98.04
X116.63Y-95.5
X116.63Y-98.04
X119.17Y-95.5
X119.17Y-98.04
X121.71Y-95.5
X121.71Y-98.04
X124.25Y-95.5
X124.25Y-98.04
X103.5Y-86.0
X103.5Y-88.54
X103.5Y-91.08
X141.25Y-85.25
X141.25Y-87.75
X141.25Y-76.0
X141.25Y-78.5
X131.0Y-73.5
X133.54Y-73.5
X136.08Y-73.5
X141.25Y-57.5
X141.25Y-60.0
X141.25Y-94.5
X141.25Y-97.0
X136.0Y-84.0
X136.0Y-86.54
T6
X100.75Y-37.0
X105.75Y-37.0
X110.75Y-37.0
X117.5Y-37.0
X122.5Y-37.0
X127.5Y-37.0
X119.55Y-44.25
X119.55Y-56.25
X131.75Y-44.25
X131.75Y-56.25
X133.75Y-50.25
T0
M30
