G04 #@! TF.GenerationSoftware,KiCad,Pcbnew,(5.1.6)-1*
G04 #@! TF.CreationDate,2020-11-03T09:51:37+03:00*
G04 #@! TF.ProjectId,UlTi_driver_ext_board,556c5469-5f64-4726-9976-65725f657874,rev?*
G04 #@! TF.SameCoordinates,Original*
G04 #@! TF.FileFunction,Copper,L1,Top*
G04 #@! TF.FilePolarity,Positive*
%FSLAX46Y46*%
G04 Gerber Fmt 4.6, Leading zero omitted, Abs format (unit mm)*
G04 Created by KiCad (PCBNEW (5.1.6)-1) date 2020-11-03 09:51:37*
%MOMM*%
%LPD*%
G01*
G04 APERTURE LIST*
G04 #@! TA.AperFunction,ComponentPad*
%ADD10O,2.000000X1.700000*%
G04 #@! TD*
G04 #@! TA.AperFunction,ComponentPad*
%ADD11R,1.700000X1.700000*%
G04 #@! TD*
G04 #@! TA.AperFunction,ViaPad*
%ADD12C,0.800000*%
G04 #@! TD*
G04 #@! TA.AperFunction,Conductor*
%ADD13C,0.300000*%
G04 #@! TD*
G04 #@! TA.AperFunction,Conductor*
%ADD14C,0.254000*%
G04 #@! TD*
G04 APERTURE END LIST*
D10*
X155829000Y-98846000D03*
G04 #@! TA.AperFunction,ComponentPad*
G36*
G01*
X156579000Y-102196000D02*
X155079000Y-102196000D01*
G75*
G02*
X154829000Y-101946000I0J250000D01*
G01*
X154829000Y-100746000D01*
G75*
G02*
X155079000Y-100496000I250000J0D01*
G01*
X156579000Y-100496000D01*
G75*
G02*
X156829000Y-100746000I0J-250000D01*
G01*
X156829000Y-101946000D01*
G75*
G02*
X156579000Y-102196000I-250000J0D01*
G01*
G37*
G04 #@! TD.AperFunction*
X148717000Y-98846000D03*
G04 #@! TA.AperFunction,ComponentPad*
G36*
G01*
X149467000Y-102196000D02*
X147967000Y-102196000D01*
G75*
G02*
X147717000Y-101946000I0J250000D01*
G01*
X147717000Y-100746000D01*
G75*
G02*
X147967000Y-100496000I250000J0D01*
G01*
X149467000Y-100496000D01*
G75*
G02*
X149717000Y-100746000I0J-250000D01*
G01*
X149717000Y-101946000D01*
G75*
G02*
X149467000Y-102196000I-250000J0D01*
G01*
G37*
G04 #@! TD.AperFunction*
X141605000Y-98846000D03*
G04 #@! TA.AperFunction,ComponentPad*
G36*
G01*
X142355000Y-102196000D02*
X140855000Y-102196000D01*
G75*
G02*
X140605000Y-101946000I0J250000D01*
G01*
X140605000Y-100746000D01*
G75*
G02*
X140855000Y-100496000I250000J0D01*
G01*
X142355000Y-100496000D01*
G75*
G02*
X142605000Y-100746000I0J-250000D01*
G01*
X142605000Y-101946000D01*
G75*
G02*
X142355000Y-102196000I-250000J0D01*
G01*
G37*
G04 #@! TD.AperFunction*
D11*
X140335000Y-93980000D03*
X158115000Y-93980000D03*
X142875000Y-93980000D03*
X158115000Y-106680000D03*
X155575000Y-106680000D03*
X140335000Y-106680000D03*
G04 #@! TA.AperFunction,SMDPad,CuDef*
G36*
G01*
X150238750Y-106776000D02*
X150751250Y-106776000D01*
G75*
G02*
X150970000Y-106994750I0J-218750D01*
G01*
X150970000Y-107432250D01*
G75*
G02*
X150751250Y-107651000I-218750J0D01*
G01*
X150238750Y-107651000D01*
G75*
G02*
X150020000Y-107432250I0J218750D01*
G01*
X150020000Y-106994750D01*
G75*
G02*
X150238750Y-106776000I218750J0D01*
G01*
G37*
G04 #@! TD.AperFunction*
G04 #@! TA.AperFunction,SMDPad,CuDef*
G36*
G01*
X150238750Y-105201000D02*
X150751250Y-105201000D01*
G75*
G02*
X150970000Y-105419750I0J-218750D01*
G01*
X150970000Y-105857250D01*
G75*
G02*
X150751250Y-106076000I-218750J0D01*
G01*
X150238750Y-106076000D01*
G75*
G02*
X150020000Y-105857250I0J218750D01*
G01*
X150020000Y-105419750D01*
G75*
G02*
X150238750Y-105201000I218750J0D01*
G01*
G37*
G04 #@! TD.AperFunction*
G04 #@! TA.AperFunction,SMDPad,CuDef*
G36*
G01*
X146174750Y-106776000D02*
X146687250Y-106776000D01*
G75*
G02*
X146906000Y-106994750I0J-218750D01*
G01*
X146906000Y-107432250D01*
G75*
G02*
X146687250Y-107651000I-218750J0D01*
G01*
X146174750Y-107651000D01*
G75*
G02*
X145956000Y-107432250I0J218750D01*
G01*
X145956000Y-106994750D01*
G75*
G02*
X146174750Y-106776000I218750J0D01*
G01*
G37*
G04 #@! TD.AperFunction*
G04 #@! TA.AperFunction,SMDPad,CuDef*
G36*
G01*
X146174750Y-105201000D02*
X146687250Y-105201000D01*
G75*
G02*
X146906000Y-105419750I0J-218750D01*
G01*
X146906000Y-105857250D01*
G75*
G02*
X146687250Y-106076000I-218750J0D01*
G01*
X146174750Y-106076000D01*
G75*
G02*
X145956000Y-105857250I0J218750D01*
G01*
X145956000Y-105419750D01*
G75*
G02*
X146174750Y-105201000I218750J0D01*
G01*
G37*
G04 #@! TD.AperFunction*
G04 #@! TA.AperFunction,SMDPad,CuDef*
G36*
G01*
X142999750Y-106903000D02*
X143512250Y-106903000D01*
G75*
G02*
X143731000Y-107121750I0J-218750D01*
G01*
X143731000Y-107559250D01*
G75*
G02*
X143512250Y-107778000I-218750J0D01*
G01*
X142999750Y-107778000D01*
G75*
G02*
X142781000Y-107559250I0J218750D01*
G01*
X142781000Y-107121750D01*
G75*
G02*
X142999750Y-106903000I218750J0D01*
G01*
G37*
G04 #@! TD.AperFunction*
G04 #@! TA.AperFunction,SMDPad,CuDef*
G36*
G01*
X142999750Y-105328000D02*
X143512250Y-105328000D01*
G75*
G02*
X143731000Y-105546750I0J-218750D01*
G01*
X143731000Y-105984250D01*
G75*
G02*
X143512250Y-106203000I-218750J0D01*
G01*
X142999750Y-106203000D01*
G75*
G02*
X142781000Y-105984250I0J218750D01*
G01*
X142781000Y-105546750D01*
G75*
G02*
X142999750Y-105328000I218750J0D01*
G01*
G37*
G04 #@! TD.AperFunction*
D12*
X141414500Y-96647000D03*
X146431000Y-99885500D03*
X153606500Y-99822000D03*
X148145500Y-107188000D03*
D13*
X141414500Y-96647000D02*
X142430500Y-96647000D01*
X142430500Y-96647000D02*
X143256000Y-97472500D01*
X143256000Y-97472500D02*
X143256000Y-105765500D01*
X146431000Y-105638500D02*
X146431000Y-99885500D01*
X150495000Y-105638500D02*
X151663500Y-105638500D01*
X153606500Y-103695500D02*
X153606500Y-99822000D01*
X151663500Y-105638500D02*
X153606500Y-103695500D01*
X143256000Y-107340500D02*
X142519500Y-107340500D01*
X141859000Y-106680000D02*
X140335000Y-106680000D01*
X142519500Y-107340500D02*
X141859000Y-106680000D01*
X146431000Y-107213500D02*
X147929500Y-107213500D01*
X147929500Y-107213500D02*
X147955000Y-107188000D01*
X147955000Y-107188000D02*
X148145500Y-107188000D01*
X150495000Y-107213500D02*
X151866500Y-107213500D01*
X151866500Y-107213500D02*
X154114500Y-104965500D01*
X154114500Y-104965500D02*
X157543500Y-104965500D01*
X158115000Y-105537000D02*
X158115000Y-106680000D01*
X157543500Y-104965500D02*
X158115000Y-105537000D01*
D14*
G36*
X159233000Y-92475381D02*
G01*
X159233000Y-92553230D01*
X159209180Y-92540498D01*
X159089482Y-92504188D01*
X158965000Y-92491928D01*
X158400750Y-92495000D01*
X158242000Y-92653750D01*
X158242000Y-93853000D01*
X158262000Y-93853000D01*
X158262000Y-94107000D01*
X158242000Y-94107000D01*
X158242000Y-95306250D01*
X158400750Y-95465000D01*
X158965000Y-95468072D01*
X159089482Y-95455812D01*
X159209180Y-95419502D01*
X159233000Y-95406770D01*
X159233001Y-105253231D01*
X159209180Y-105240498D01*
X159089482Y-105204188D01*
X158965000Y-105191928D01*
X158820657Y-105191928D01*
X158770862Y-105098767D01*
X158672764Y-104979236D01*
X158642816Y-104954658D01*
X158125846Y-104437689D01*
X158101264Y-104407736D01*
X157981733Y-104309638D01*
X157845360Y-104236746D01*
X157697387Y-104191859D01*
X157582061Y-104180500D01*
X157582053Y-104180500D01*
X157543500Y-104176703D01*
X157504947Y-104180500D01*
X154223981Y-104180500D01*
X154262362Y-104133733D01*
X154335254Y-103997360D01*
X154335254Y-103997359D01*
X154380142Y-103849387D01*
X154387520Y-103774474D01*
X154391500Y-103734061D01*
X154391500Y-103734056D01*
X154395297Y-103695500D01*
X154391500Y-103656945D01*
X154391500Y-102501414D01*
X154451038Y-102573962D01*
X154585614Y-102684405D01*
X154739150Y-102766472D01*
X154905746Y-102817008D01*
X155079000Y-102834072D01*
X156579000Y-102834072D01*
X156752254Y-102817008D01*
X156918850Y-102766472D01*
X157072386Y-102684405D01*
X157206962Y-102573962D01*
X157317405Y-102439386D01*
X157399472Y-102285850D01*
X157450008Y-102119254D01*
X157467072Y-101946000D01*
X157467072Y-100746000D01*
X157450008Y-100572746D01*
X157399472Y-100406150D01*
X157317405Y-100252614D01*
X157206962Y-100118038D01*
X157072386Y-100007595D01*
X156970663Y-99953223D01*
X157034134Y-99901134D01*
X157219706Y-99675014D01*
X157357599Y-99417034D01*
X157442513Y-99137111D01*
X157471185Y-98846000D01*
X157442513Y-98554889D01*
X157357599Y-98274966D01*
X157219706Y-98016986D01*
X157034134Y-97790866D01*
X156808014Y-97605294D01*
X156550034Y-97467401D01*
X156270111Y-97382487D01*
X156051950Y-97361000D01*
X155606050Y-97361000D01*
X155387889Y-97382487D01*
X155107966Y-97467401D01*
X154849986Y-97605294D01*
X154623866Y-97790866D01*
X154438294Y-98016986D01*
X154300401Y-98274966D01*
X154215487Y-98554889D01*
X154186815Y-98846000D01*
X154199358Y-98973351D01*
X154096756Y-98904795D01*
X153908398Y-98826774D01*
X153708439Y-98787000D01*
X153504561Y-98787000D01*
X153304602Y-98826774D01*
X153116244Y-98904795D01*
X152946726Y-99018063D01*
X152802563Y-99162226D01*
X152689295Y-99331744D01*
X152611274Y-99520102D01*
X152571500Y-99720061D01*
X152571500Y-99923939D01*
X152611274Y-100123898D01*
X152689295Y-100312256D01*
X152802563Y-100481774D01*
X152821501Y-100500712D01*
X152821500Y-103370342D01*
X151366510Y-104825333D01*
X151357115Y-104813885D01*
X151227275Y-104707329D01*
X151079142Y-104628150D01*
X150918408Y-104579392D01*
X150751250Y-104562928D01*
X150238750Y-104562928D01*
X150071592Y-104579392D01*
X149910858Y-104628150D01*
X149762725Y-104707329D01*
X149632885Y-104813885D01*
X149526329Y-104943725D01*
X149447150Y-105091858D01*
X149398392Y-105252592D01*
X149381928Y-105419750D01*
X149381928Y-105857250D01*
X149398392Y-106024408D01*
X149447150Y-106185142D01*
X149526329Y-106333275D01*
X149602426Y-106426000D01*
X149526329Y-106518725D01*
X149447150Y-106666858D01*
X149398392Y-106827592D01*
X149381928Y-106994750D01*
X149381928Y-107432250D01*
X149398392Y-107599408D01*
X149447150Y-107760142D01*
X149526329Y-107908275D01*
X149632885Y-108038115D01*
X149762725Y-108144671D01*
X149910858Y-108223850D01*
X150071592Y-108272608D01*
X150238750Y-108289072D01*
X150751250Y-108289072D01*
X150918408Y-108272608D01*
X151079142Y-108223850D01*
X151227275Y-108144671D01*
X151357115Y-108038115D01*
X151389626Y-107998500D01*
X151827947Y-107998500D01*
X151866500Y-108002297D01*
X151905053Y-107998500D01*
X151905061Y-107998500D01*
X152020387Y-107987141D01*
X152168360Y-107942254D01*
X152304733Y-107869362D01*
X152424264Y-107771264D01*
X152448847Y-107741310D01*
X154086928Y-106103230D01*
X154086928Y-107530000D01*
X154099188Y-107654482D01*
X154135498Y-107774180D01*
X154194463Y-107884494D01*
X154273815Y-107981185D01*
X154370506Y-108060537D01*
X154480820Y-108119502D01*
X154600518Y-108155812D01*
X154725000Y-108168072D01*
X156425000Y-108168072D01*
X156549482Y-108155812D01*
X156669180Y-108119502D01*
X156779494Y-108060537D01*
X156845000Y-108006778D01*
X156910506Y-108060537D01*
X157020820Y-108119502D01*
X157140518Y-108155812D01*
X157265000Y-108168072D01*
X158965000Y-108168072D01*
X159089482Y-108155812D01*
X159209180Y-108119502D01*
X159233001Y-108106769D01*
X159233001Y-108184618D01*
X159111620Y-108306000D01*
X143924050Y-108306000D01*
X143988275Y-108271671D01*
X144118115Y-108165115D01*
X144224671Y-108035275D01*
X144303850Y-107887142D01*
X144352608Y-107726408D01*
X144369072Y-107559250D01*
X144369072Y-107121750D01*
X144352608Y-106954592D01*
X144303850Y-106793858D01*
X144224671Y-106645725D01*
X144148574Y-106553000D01*
X144224671Y-106460275D01*
X144303850Y-106312142D01*
X144352608Y-106151408D01*
X144369072Y-105984250D01*
X144369072Y-105546750D01*
X144356564Y-105419750D01*
X145317928Y-105419750D01*
X145317928Y-105857250D01*
X145334392Y-106024408D01*
X145383150Y-106185142D01*
X145462329Y-106333275D01*
X145538426Y-106426000D01*
X145462329Y-106518725D01*
X145383150Y-106666858D01*
X145334392Y-106827592D01*
X145317928Y-106994750D01*
X145317928Y-107432250D01*
X145334392Y-107599408D01*
X145383150Y-107760142D01*
X145462329Y-107908275D01*
X145568885Y-108038115D01*
X145698725Y-108144671D01*
X145846858Y-108223850D01*
X146007592Y-108272608D01*
X146174750Y-108289072D01*
X146687250Y-108289072D01*
X146854408Y-108272608D01*
X147015142Y-108223850D01*
X147163275Y-108144671D01*
X147293115Y-108038115D01*
X147325626Y-107998500D01*
X147495548Y-107998500D01*
X147655244Y-108105205D01*
X147843602Y-108183226D01*
X148043561Y-108223000D01*
X148247439Y-108223000D01*
X148447398Y-108183226D01*
X148635756Y-108105205D01*
X148805274Y-107991937D01*
X148949437Y-107847774D01*
X149062705Y-107678256D01*
X149140726Y-107489898D01*
X149180500Y-107289939D01*
X149180500Y-107086061D01*
X149140726Y-106886102D01*
X149062705Y-106697744D01*
X148949437Y-106528226D01*
X148805274Y-106384063D01*
X148635756Y-106270795D01*
X148447398Y-106192774D01*
X148247439Y-106153000D01*
X148043561Y-106153000D01*
X147843602Y-106192774D01*
X147655244Y-106270795D01*
X147485726Y-106384063D01*
X147441289Y-106428500D01*
X147325626Y-106428500D01*
X147323574Y-106426000D01*
X147399671Y-106333275D01*
X147478850Y-106185142D01*
X147527608Y-106024408D01*
X147544072Y-105857250D01*
X147544072Y-105419750D01*
X147527608Y-105252592D01*
X147478850Y-105091858D01*
X147399671Y-104943725D01*
X147293115Y-104813885D01*
X147216000Y-104750599D01*
X147216000Y-102415822D01*
X147228595Y-102439386D01*
X147339038Y-102573962D01*
X147473614Y-102684405D01*
X147627150Y-102766472D01*
X147793746Y-102817008D01*
X147967000Y-102834072D01*
X149467000Y-102834072D01*
X149640254Y-102817008D01*
X149806850Y-102766472D01*
X149960386Y-102684405D01*
X150094962Y-102573962D01*
X150205405Y-102439386D01*
X150287472Y-102285850D01*
X150338008Y-102119254D01*
X150355072Y-101946000D01*
X150355072Y-100746000D01*
X150338008Y-100572746D01*
X150287472Y-100406150D01*
X150205405Y-100252614D01*
X150094962Y-100118038D01*
X149960386Y-100007595D01*
X149858663Y-99953223D01*
X149922134Y-99901134D01*
X150107706Y-99675014D01*
X150245599Y-99417034D01*
X150330513Y-99137111D01*
X150359185Y-98846000D01*
X150330513Y-98554889D01*
X150245599Y-98274966D01*
X150107706Y-98016986D01*
X149922134Y-97790866D01*
X149696014Y-97605294D01*
X149438034Y-97467401D01*
X149158111Y-97382487D01*
X148939950Y-97361000D01*
X148494050Y-97361000D01*
X148275889Y-97382487D01*
X147995966Y-97467401D01*
X147737986Y-97605294D01*
X147511866Y-97790866D01*
X147326294Y-98016986D01*
X147188401Y-98274966D01*
X147103487Y-98554889D01*
X147074815Y-98846000D01*
X147098807Y-99089596D01*
X147090774Y-99081563D01*
X146921256Y-98968295D01*
X146732898Y-98890274D01*
X146532939Y-98850500D01*
X146329061Y-98850500D01*
X146129102Y-98890274D01*
X145940744Y-98968295D01*
X145771226Y-99081563D01*
X145627063Y-99225726D01*
X145513795Y-99395244D01*
X145435774Y-99583602D01*
X145396000Y-99783561D01*
X145396000Y-99987439D01*
X145435774Y-100187398D01*
X145513795Y-100375756D01*
X145627063Y-100545274D01*
X145646001Y-100564212D01*
X145646000Y-104750599D01*
X145568885Y-104813885D01*
X145462329Y-104943725D01*
X145383150Y-105091858D01*
X145334392Y-105252592D01*
X145317928Y-105419750D01*
X144356564Y-105419750D01*
X144352608Y-105379592D01*
X144303850Y-105218858D01*
X144224671Y-105070725D01*
X144118115Y-104940885D01*
X144041000Y-104877599D01*
X144041000Y-97511052D01*
X144044797Y-97472499D01*
X144041000Y-97433946D01*
X144041000Y-97433939D01*
X144029641Y-97318613D01*
X143984754Y-97170640D01*
X143911862Y-97034267D01*
X143862450Y-96974059D01*
X143838345Y-96944687D01*
X143838342Y-96944684D01*
X143813764Y-96914736D01*
X143783817Y-96890159D01*
X143012847Y-96119190D01*
X142988264Y-96089236D01*
X142868733Y-95991138D01*
X142732360Y-95918246D01*
X142584387Y-95873359D01*
X142469061Y-95862000D01*
X142469053Y-95862000D01*
X142430500Y-95858203D01*
X142391947Y-95862000D01*
X142093211Y-95862000D01*
X142074274Y-95843063D01*
X141904756Y-95729795D01*
X141716398Y-95651774D01*
X141516439Y-95612000D01*
X141312561Y-95612000D01*
X141112602Y-95651774D01*
X140924244Y-95729795D01*
X140754726Y-95843063D01*
X140610563Y-95987226D01*
X140497295Y-96156744D01*
X140419274Y-96345102D01*
X140379500Y-96545061D01*
X140379500Y-96748939D01*
X140419274Y-96948898D01*
X140497295Y-97137256D01*
X140610563Y-97306774D01*
X140754726Y-97450937D01*
X140825853Y-97498463D01*
X140625986Y-97605294D01*
X140399866Y-97790866D01*
X140214294Y-98016986D01*
X140076401Y-98274966D01*
X139991487Y-98554889D01*
X139962815Y-98846000D01*
X139991487Y-99137111D01*
X140076401Y-99417034D01*
X140214294Y-99675014D01*
X140399866Y-99901134D01*
X140463337Y-99953223D01*
X140361614Y-100007595D01*
X140227038Y-100118038D01*
X140116595Y-100252614D01*
X140034528Y-100406150D01*
X139983992Y-100572746D01*
X139966928Y-100746000D01*
X139966928Y-101946000D01*
X139983992Y-102119254D01*
X140034528Y-102285850D01*
X140116595Y-102439386D01*
X140227038Y-102573962D01*
X140361614Y-102684405D01*
X140515150Y-102766472D01*
X140681746Y-102817008D01*
X140855000Y-102834072D01*
X142355000Y-102834072D01*
X142471001Y-102822647D01*
X142471001Y-104877598D01*
X142393885Y-104940885D01*
X142287329Y-105070725D01*
X142208150Y-105218858D01*
X142159392Y-105379592D01*
X142142928Y-105546750D01*
X142142928Y-105945806D01*
X142012887Y-105906359D01*
X141897561Y-105895000D01*
X141897553Y-105895000D01*
X141859000Y-105891203D01*
X141823072Y-105894741D01*
X141823072Y-105830000D01*
X141810812Y-105705518D01*
X141774502Y-105585820D01*
X141715537Y-105475506D01*
X141636185Y-105378815D01*
X141539494Y-105299463D01*
X141429180Y-105240498D01*
X141309482Y-105204188D01*
X141185000Y-105191928D01*
X139485000Y-105191928D01*
X139360518Y-105204188D01*
X139240820Y-105240498D01*
X139217000Y-105253230D01*
X139217000Y-95406770D01*
X139240820Y-95419502D01*
X139360518Y-95455812D01*
X139485000Y-95468072D01*
X141185000Y-95468072D01*
X141309482Y-95455812D01*
X141429180Y-95419502D01*
X141539494Y-95360537D01*
X141605000Y-95306778D01*
X141670506Y-95360537D01*
X141780820Y-95419502D01*
X141900518Y-95455812D01*
X142025000Y-95468072D01*
X142589250Y-95465000D01*
X142748000Y-95306250D01*
X142748000Y-94107000D01*
X143002000Y-94107000D01*
X143002000Y-95306250D01*
X143160750Y-95465000D01*
X143725000Y-95468072D01*
X143849482Y-95455812D01*
X143969180Y-95419502D01*
X144079494Y-95360537D01*
X144176185Y-95281185D01*
X144255537Y-95184494D01*
X144314502Y-95074180D01*
X144350812Y-94954482D01*
X144363072Y-94830000D01*
X156626928Y-94830000D01*
X156639188Y-94954482D01*
X156675498Y-95074180D01*
X156734463Y-95184494D01*
X156813815Y-95281185D01*
X156910506Y-95360537D01*
X157020820Y-95419502D01*
X157140518Y-95455812D01*
X157265000Y-95468072D01*
X157829250Y-95465000D01*
X157988000Y-95306250D01*
X157988000Y-94107000D01*
X156788750Y-94107000D01*
X156630000Y-94265750D01*
X156626928Y-94830000D01*
X144363072Y-94830000D01*
X144360000Y-94265750D01*
X144201250Y-94107000D01*
X143002000Y-94107000D01*
X142748000Y-94107000D01*
X142728000Y-94107000D01*
X142728000Y-93853000D01*
X142748000Y-93853000D01*
X142748000Y-92653750D01*
X143002000Y-92653750D01*
X143002000Y-93853000D01*
X144201250Y-93853000D01*
X144360000Y-93694250D01*
X144363072Y-93130000D01*
X156626928Y-93130000D01*
X156630000Y-93694250D01*
X156788750Y-93853000D01*
X157988000Y-93853000D01*
X157988000Y-92653750D01*
X157829250Y-92495000D01*
X157265000Y-92491928D01*
X157140518Y-92504188D01*
X157020820Y-92540498D01*
X156910506Y-92599463D01*
X156813815Y-92678815D01*
X156734463Y-92775506D01*
X156675498Y-92885820D01*
X156639188Y-93005518D01*
X156626928Y-93130000D01*
X144363072Y-93130000D01*
X144350812Y-93005518D01*
X144314502Y-92885820D01*
X144255537Y-92775506D01*
X144176185Y-92678815D01*
X144079494Y-92599463D01*
X143969180Y-92540498D01*
X143849482Y-92504188D01*
X143725000Y-92491928D01*
X143160750Y-92495000D01*
X143002000Y-92653750D01*
X142748000Y-92653750D01*
X142589250Y-92495000D01*
X142025000Y-92491928D01*
X141900518Y-92504188D01*
X141780820Y-92540498D01*
X141670506Y-92599463D01*
X141605000Y-92653222D01*
X141539494Y-92599463D01*
X141429180Y-92540498D01*
X141309482Y-92504188D01*
X141185000Y-92491928D01*
X139485000Y-92491928D01*
X139360518Y-92504188D01*
X139240820Y-92540498D01*
X139217000Y-92553230D01*
X139217000Y-92475380D01*
X139338381Y-92354000D01*
X159111620Y-92354000D01*
X159233000Y-92475381D01*
G37*
X159233000Y-92475381D02*
X159233000Y-92553230D01*
X159209180Y-92540498D01*
X159089482Y-92504188D01*
X158965000Y-92491928D01*
X158400750Y-92495000D01*
X158242000Y-92653750D01*
X158242000Y-93853000D01*
X158262000Y-93853000D01*
X158262000Y-94107000D01*
X158242000Y-94107000D01*
X158242000Y-95306250D01*
X158400750Y-95465000D01*
X158965000Y-95468072D01*
X159089482Y-95455812D01*
X159209180Y-95419502D01*
X159233000Y-95406770D01*
X159233001Y-105253231D01*
X159209180Y-105240498D01*
X159089482Y-105204188D01*
X158965000Y-105191928D01*
X158820657Y-105191928D01*
X158770862Y-105098767D01*
X158672764Y-104979236D01*
X158642816Y-104954658D01*
X158125846Y-104437689D01*
X158101264Y-104407736D01*
X157981733Y-104309638D01*
X157845360Y-104236746D01*
X157697387Y-104191859D01*
X157582061Y-104180500D01*
X157582053Y-104180500D01*
X157543500Y-104176703D01*
X157504947Y-104180500D01*
X154223981Y-104180500D01*
X154262362Y-104133733D01*
X154335254Y-103997360D01*
X154335254Y-103997359D01*
X154380142Y-103849387D01*
X154387520Y-103774474D01*
X154391500Y-103734061D01*
X154391500Y-103734056D01*
X154395297Y-103695500D01*
X154391500Y-103656945D01*
X154391500Y-102501414D01*
X154451038Y-102573962D01*
X154585614Y-102684405D01*
X154739150Y-102766472D01*
X154905746Y-102817008D01*
X155079000Y-102834072D01*
X156579000Y-102834072D01*
X156752254Y-102817008D01*
X156918850Y-102766472D01*
X157072386Y-102684405D01*
X157206962Y-102573962D01*
X157317405Y-102439386D01*
X157399472Y-102285850D01*
X157450008Y-102119254D01*
X157467072Y-101946000D01*
X157467072Y-100746000D01*
X157450008Y-100572746D01*
X157399472Y-100406150D01*
X157317405Y-100252614D01*
X157206962Y-100118038D01*
X157072386Y-100007595D01*
X156970663Y-99953223D01*
X157034134Y-99901134D01*
X157219706Y-99675014D01*
X157357599Y-99417034D01*
X157442513Y-99137111D01*
X157471185Y-98846000D01*
X157442513Y-98554889D01*
X157357599Y-98274966D01*
X157219706Y-98016986D01*
X157034134Y-97790866D01*
X156808014Y-97605294D01*
X156550034Y-97467401D01*
X156270111Y-97382487D01*
X156051950Y-97361000D01*
X155606050Y-97361000D01*
X155387889Y-97382487D01*
X155107966Y-97467401D01*
X154849986Y-97605294D01*
X154623866Y-97790866D01*
X154438294Y-98016986D01*
X154300401Y-98274966D01*
X154215487Y-98554889D01*
X154186815Y-98846000D01*
X154199358Y-98973351D01*
X154096756Y-98904795D01*
X153908398Y-98826774D01*
X153708439Y-98787000D01*
X153504561Y-98787000D01*
X153304602Y-98826774D01*
X153116244Y-98904795D01*
X152946726Y-99018063D01*
X152802563Y-99162226D01*
X152689295Y-99331744D01*
X152611274Y-99520102D01*
X152571500Y-99720061D01*
X152571500Y-99923939D01*
X152611274Y-100123898D01*
X152689295Y-100312256D01*
X152802563Y-100481774D01*
X152821501Y-100500712D01*
X152821500Y-103370342D01*
X151366510Y-104825333D01*
X151357115Y-104813885D01*
X151227275Y-104707329D01*
X151079142Y-104628150D01*
X150918408Y-104579392D01*
X150751250Y-104562928D01*
X150238750Y-104562928D01*
X150071592Y-104579392D01*
X149910858Y-104628150D01*
X149762725Y-104707329D01*
X149632885Y-104813885D01*
X149526329Y-104943725D01*
X149447150Y-105091858D01*
X149398392Y-105252592D01*
X149381928Y-105419750D01*
X149381928Y-105857250D01*
X149398392Y-106024408D01*
X149447150Y-106185142D01*
X149526329Y-106333275D01*
X149602426Y-106426000D01*
X149526329Y-106518725D01*
X149447150Y-106666858D01*
X149398392Y-106827592D01*
X149381928Y-106994750D01*
X149381928Y-107432250D01*
X149398392Y-107599408D01*
X149447150Y-107760142D01*
X149526329Y-107908275D01*
X149632885Y-108038115D01*
X149762725Y-108144671D01*
X149910858Y-108223850D01*
X150071592Y-108272608D01*
X150238750Y-108289072D01*
X150751250Y-108289072D01*
X150918408Y-108272608D01*
X151079142Y-108223850D01*
X151227275Y-108144671D01*
X151357115Y-108038115D01*
X151389626Y-107998500D01*
X151827947Y-107998500D01*
X151866500Y-108002297D01*
X151905053Y-107998500D01*
X151905061Y-107998500D01*
X152020387Y-107987141D01*
X152168360Y-107942254D01*
X152304733Y-107869362D01*
X152424264Y-107771264D01*
X152448847Y-107741310D01*
X154086928Y-106103230D01*
X154086928Y-107530000D01*
X154099188Y-107654482D01*
X154135498Y-107774180D01*
X154194463Y-107884494D01*
X154273815Y-107981185D01*
X154370506Y-108060537D01*
X154480820Y-108119502D01*
X154600518Y-108155812D01*
X154725000Y-108168072D01*
X156425000Y-108168072D01*
X156549482Y-108155812D01*
X156669180Y-108119502D01*
X156779494Y-108060537D01*
X156845000Y-108006778D01*
X156910506Y-108060537D01*
X157020820Y-108119502D01*
X157140518Y-108155812D01*
X157265000Y-108168072D01*
X158965000Y-108168072D01*
X159089482Y-108155812D01*
X159209180Y-108119502D01*
X159233001Y-108106769D01*
X159233001Y-108184618D01*
X159111620Y-108306000D01*
X143924050Y-108306000D01*
X143988275Y-108271671D01*
X144118115Y-108165115D01*
X144224671Y-108035275D01*
X144303850Y-107887142D01*
X144352608Y-107726408D01*
X144369072Y-107559250D01*
X144369072Y-107121750D01*
X144352608Y-106954592D01*
X144303850Y-106793858D01*
X144224671Y-106645725D01*
X144148574Y-106553000D01*
X144224671Y-106460275D01*
X144303850Y-106312142D01*
X144352608Y-106151408D01*
X144369072Y-105984250D01*
X144369072Y-105546750D01*
X144356564Y-105419750D01*
X145317928Y-105419750D01*
X145317928Y-105857250D01*
X145334392Y-106024408D01*
X145383150Y-106185142D01*
X145462329Y-106333275D01*
X145538426Y-106426000D01*
X145462329Y-106518725D01*
X145383150Y-106666858D01*
X145334392Y-106827592D01*
X145317928Y-106994750D01*
X145317928Y-107432250D01*
X145334392Y-107599408D01*
X145383150Y-107760142D01*
X145462329Y-107908275D01*
X145568885Y-108038115D01*
X145698725Y-108144671D01*
X145846858Y-108223850D01*
X146007592Y-108272608D01*
X146174750Y-108289072D01*
X146687250Y-108289072D01*
X146854408Y-108272608D01*
X147015142Y-108223850D01*
X147163275Y-108144671D01*
X147293115Y-108038115D01*
X147325626Y-107998500D01*
X147495548Y-107998500D01*
X147655244Y-108105205D01*
X147843602Y-108183226D01*
X148043561Y-108223000D01*
X148247439Y-108223000D01*
X148447398Y-108183226D01*
X148635756Y-108105205D01*
X148805274Y-107991937D01*
X148949437Y-107847774D01*
X149062705Y-107678256D01*
X149140726Y-107489898D01*
X149180500Y-107289939D01*
X149180500Y-107086061D01*
X149140726Y-106886102D01*
X149062705Y-106697744D01*
X148949437Y-106528226D01*
X148805274Y-106384063D01*
X148635756Y-106270795D01*
X148447398Y-106192774D01*
X148247439Y-106153000D01*
X148043561Y-106153000D01*
X147843602Y-106192774D01*
X147655244Y-106270795D01*
X147485726Y-106384063D01*
X147441289Y-106428500D01*
X147325626Y-106428500D01*
X147323574Y-106426000D01*
X147399671Y-106333275D01*
X147478850Y-106185142D01*
X147527608Y-106024408D01*
X147544072Y-105857250D01*
X147544072Y-105419750D01*
X147527608Y-105252592D01*
X147478850Y-105091858D01*
X147399671Y-104943725D01*
X147293115Y-104813885D01*
X147216000Y-104750599D01*
X147216000Y-102415822D01*
X147228595Y-102439386D01*
X147339038Y-102573962D01*
X147473614Y-102684405D01*
X147627150Y-102766472D01*
X147793746Y-102817008D01*
X147967000Y-102834072D01*
X149467000Y-102834072D01*
X149640254Y-102817008D01*
X149806850Y-102766472D01*
X149960386Y-102684405D01*
X150094962Y-102573962D01*
X150205405Y-102439386D01*
X150287472Y-102285850D01*
X150338008Y-102119254D01*
X150355072Y-101946000D01*
X150355072Y-100746000D01*
X150338008Y-100572746D01*
X150287472Y-100406150D01*
X150205405Y-100252614D01*
X150094962Y-100118038D01*
X149960386Y-100007595D01*
X149858663Y-99953223D01*
X149922134Y-99901134D01*
X150107706Y-99675014D01*
X150245599Y-99417034D01*
X150330513Y-99137111D01*
X150359185Y-98846000D01*
X150330513Y-98554889D01*
X150245599Y-98274966D01*
X150107706Y-98016986D01*
X149922134Y-97790866D01*
X149696014Y-97605294D01*
X149438034Y-97467401D01*
X149158111Y-97382487D01*
X148939950Y-97361000D01*
X148494050Y-97361000D01*
X148275889Y-97382487D01*
X147995966Y-97467401D01*
X147737986Y-97605294D01*
X147511866Y-97790866D01*
X147326294Y-98016986D01*
X147188401Y-98274966D01*
X147103487Y-98554889D01*
X147074815Y-98846000D01*
X147098807Y-99089596D01*
X147090774Y-99081563D01*
X146921256Y-98968295D01*
X146732898Y-98890274D01*
X146532939Y-98850500D01*
X146329061Y-98850500D01*
X146129102Y-98890274D01*
X145940744Y-98968295D01*
X145771226Y-99081563D01*
X145627063Y-99225726D01*
X145513795Y-99395244D01*
X145435774Y-99583602D01*
X145396000Y-99783561D01*
X145396000Y-99987439D01*
X145435774Y-100187398D01*
X145513795Y-100375756D01*
X145627063Y-100545274D01*
X145646001Y-100564212D01*
X145646000Y-104750599D01*
X145568885Y-104813885D01*
X145462329Y-104943725D01*
X145383150Y-105091858D01*
X145334392Y-105252592D01*
X145317928Y-105419750D01*
X144356564Y-105419750D01*
X144352608Y-105379592D01*
X144303850Y-105218858D01*
X144224671Y-105070725D01*
X144118115Y-104940885D01*
X144041000Y-104877599D01*
X144041000Y-97511052D01*
X144044797Y-97472499D01*
X144041000Y-97433946D01*
X144041000Y-97433939D01*
X144029641Y-97318613D01*
X143984754Y-97170640D01*
X143911862Y-97034267D01*
X143862450Y-96974059D01*
X143838345Y-96944687D01*
X143838342Y-96944684D01*
X143813764Y-96914736D01*
X143783817Y-96890159D01*
X143012847Y-96119190D01*
X142988264Y-96089236D01*
X142868733Y-95991138D01*
X142732360Y-95918246D01*
X142584387Y-95873359D01*
X142469061Y-95862000D01*
X142469053Y-95862000D01*
X142430500Y-95858203D01*
X142391947Y-95862000D01*
X142093211Y-95862000D01*
X142074274Y-95843063D01*
X141904756Y-95729795D01*
X141716398Y-95651774D01*
X141516439Y-95612000D01*
X141312561Y-95612000D01*
X141112602Y-95651774D01*
X140924244Y-95729795D01*
X140754726Y-95843063D01*
X140610563Y-95987226D01*
X140497295Y-96156744D01*
X140419274Y-96345102D01*
X140379500Y-96545061D01*
X140379500Y-96748939D01*
X140419274Y-96948898D01*
X140497295Y-97137256D01*
X140610563Y-97306774D01*
X140754726Y-97450937D01*
X140825853Y-97498463D01*
X140625986Y-97605294D01*
X140399866Y-97790866D01*
X140214294Y-98016986D01*
X140076401Y-98274966D01*
X139991487Y-98554889D01*
X139962815Y-98846000D01*
X139991487Y-99137111D01*
X140076401Y-99417034D01*
X140214294Y-99675014D01*
X140399866Y-99901134D01*
X140463337Y-99953223D01*
X140361614Y-100007595D01*
X140227038Y-100118038D01*
X140116595Y-100252614D01*
X140034528Y-100406150D01*
X139983992Y-100572746D01*
X139966928Y-100746000D01*
X139966928Y-101946000D01*
X139983992Y-102119254D01*
X140034528Y-102285850D01*
X140116595Y-102439386D01*
X140227038Y-102573962D01*
X140361614Y-102684405D01*
X140515150Y-102766472D01*
X140681746Y-102817008D01*
X140855000Y-102834072D01*
X142355000Y-102834072D01*
X142471001Y-102822647D01*
X142471001Y-104877598D01*
X142393885Y-104940885D01*
X142287329Y-105070725D01*
X142208150Y-105218858D01*
X142159392Y-105379592D01*
X142142928Y-105546750D01*
X142142928Y-105945806D01*
X142012887Y-105906359D01*
X141897561Y-105895000D01*
X141897553Y-105895000D01*
X141859000Y-105891203D01*
X141823072Y-105894741D01*
X141823072Y-105830000D01*
X141810812Y-105705518D01*
X141774502Y-105585820D01*
X141715537Y-105475506D01*
X141636185Y-105378815D01*
X141539494Y-105299463D01*
X141429180Y-105240498D01*
X141309482Y-105204188D01*
X141185000Y-105191928D01*
X139485000Y-105191928D01*
X139360518Y-105204188D01*
X139240820Y-105240498D01*
X139217000Y-105253230D01*
X139217000Y-95406770D01*
X139240820Y-95419502D01*
X139360518Y-95455812D01*
X139485000Y-95468072D01*
X141185000Y-95468072D01*
X141309482Y-95455812D01*
X141429180Y-95419502D01*
X141539494Y-95360537D01*
X141605000Y-95306778D01*
X141670506Y-95360537D01*
X141780820Y-95419502D01*
X141900518Y-95455812D01*
X142025000Y-95468072D01*
X142589250Y-95465000D01*
X142748000Y-95306250D01*
X142748000Y-94107000D01*
X143002000Y-94107000D01*
X143002000Y-95306250D01*
X143160750Y-95465000D01*
X143725000Y-95468072D01*
X143849482Y-95455812D01*
X143969180Y-95419502D01*
X144079494Y-95360537D01*
X144176185Y-95281185D01*
X144255537Y-95184494D01*
X144314502Y-95074180D01*
X144350812Y-94954482D01*
X144363072Y-94830000D01*
X156626928Y-94830000D01*
X156639188Y-94954482D01*
X156675498Y-95074180D01*
X156734463Y-95184494D01*
X156813815Y-95281185D01*
X156910506Y-95360537D01*
X157020820Y-95419502D01*
X157140518Y-95455812D01*
X157265000Y-95468072D01*
X157829250Y-95465000D01*
X157988000Y-95306250D01*
X157988000Y-94107000D01*
X156788750Y-94107000D01*
X156630000Y-94265750D01*
X156626928Y-94830000D01*
X144363072Y-94830000D01*
X144360000Y-94265750D01*
X144201250Y-94107000D01*
X143002000Y-94107000D01*
X142748000Y-94107000D01*
X142728000Y-94107000D01*
X142728000Y-93853000D01*
X142748000Y-93853000D01*
X142748000Y-92653750D01*
X143002000Y-92653750D01*
X143002000Y-93853000D01*
X144201250Y-93853000D01*
X144360000Y-93694250D01*
X144363072Y-93130000D01*
X156626928Y-93130000D01*
X156630000Y-93694250D01*
X156788750Y-93853000D01*
X157988000Y-93853000D01*
X157988000Y-92653750D01*
X157829250Y-92495000D01*
X157265000Y-92491928D01*
X157140518Y-92504188D01*
X157020820Y-92540498D01*
X156910506Y-92599463D01*
X156813815Y-92678815D01*
X156734463Y-92775506D01*
X156675498Y-92885820D01*
X156639188Y-93005518D01*
X156626928Y-93130000D01*
X144363072Y-93130000D01*
X144350812Y-93005518D01*
X144314502Y-92885820D01*
X144255537Y-92775506D01*
X144176185Y-92678815D01*
X144079494Y-92599463D01*
X143969180Y-92540498D01*
X143849482Y-92504188D01*
X143725000Y-92491928D01*
X143160750Y-92495000D01*
X143002000Y-92653750D01*
X142748000Y-92653750D01*
X142589250Y-92495000D01*
X142025000Y-92491928D01*
X141900518Y-92504188D01*
X141780820Y-92540498D01*
X141670506Y-92599463D01*
X141605000Y-92653222D01*
X141539494Y-92599463D01*
X141429180Y-92540498D01*
X141309482Y-92504188D01*
X141185000Y-92491928D01*
X139485000Y-92491928D01*
X139360518Y-92504188D01*
X139240820Y-92540498D01*
X139217000Y-92553230D01*
X139217000Y-92475380D01*
X139338381Y-92354000D01*
X159111620Y-92354000D01*
X159233000Y-92475381D01*
M02*
