G04 #@! TF.GenerationSoftware,KiCad,Pcbnew,(5.1.6)-1*
G04 #@! TF.CreationDate,2020-11-03T09:51:37+03:00*
G04 #@! TF.ProjectId,UlTi_driver_ext_board,556c5469-5f64-4726-9976-65725f657874,rev?*
G04 #@! TF.SameCoordinates,Original*
G04 #@! TF.FileFunction,Legend,Bot*
G04 #@! TF.FilePolarity,Positive*
%FSLAX46Y46*%
G04 Gerber Fmt 4.6, Leading zero omitted, Abs format (unit mm)*
G04 Created by KiCad (PCBNEW (5.1.6)-1) date 2020-11-03 09:51:37*
%MOMM*%
%LPD*%
G01*
G04 APERTURE LIST*
%ADD10C,0.120000*%
%ADD11C,0.150000*%
G04 APERTURE END LIST*
D10*
X159533000Y-101378936D02*
X159533000Y-102583064D01*
X157713000Y-101378936D02*
X157713000Y-102583064D01*
X152421000Y-101378936D02*
X152421000Y-102583064D01*
X150601000Y-101378936D02*
X150601000Y-102583064D01*
X145309000Y-101378936D02*
X145309000Y-102583064D01*
X143489000Y-101378936D02*
X143489000Y-102583064D01*
X139005000Y-95310000D02*
X140335000Y-95310000D01*
X139005000Y-93980000D02*
X139005000Y-95310000D01*
X139005000Y-92710000D02*
X141665000Y-92710000D01*
X141665000Y-92710000D02*
X141665000Y-92650000D01*
X139005000Y-92710000D02*
X139005000Y-92650000D01*
X139005000Y-92650000D02*
X141665000Y-92650000D01*
X156785000Y-95310000D02*
X158115000Y-95310000D01*
X156785000Y-93980000D02*
X156785000Y-95310000D01*
X156785000Y-92710000D02*
X159445000Y-92710000D01*
X159445000Y-92710000D02*
X159445000Y-92650000D01*
X156785000Y-92710000D02*
X156785000Y-92650000D01*
X156785000Y-92650000D02*
X159445000Y-92650000D01*
X141545000Y-95310000D02*
X142875000Y-95310000D01*
X141545000Y-93980000D02*
X141545000Y-95310000D01*
X141545000Y-92710000D02*
X144205000Y-92710000D01*
X144205000Y-92710000D02*
X144205000Y-92650000D01*
X141545000Y-92710000D02*
X141545000Y-92650000D01*
X141545000Y-92650000D02*
X144205000Y-92650000D01*
X156785000Y-108010000D02*
X158115000Y-108010000D01*
X156785000Y-106680000D02*
X156785000Y-108010000D01*
X156785000Y-105410000D02*
X159445000Y-105410000D01*
X159445000Y-105410000D02*
X159445000Y-105350000D01*
X156785000Y-105410000D02*
X156785000Y-105350000D01*
X156785000Y-105350000D02*
X159445000Y-105350000D01*
X154245000Y-108010000D02*
X155575000Y-108010000D01*
X154245000Y-106680000D02*
X154245000Y-108010000D01*
X154245000Y-105410000D02*
X156905000Y-105410000D01*
X156905000Y-105410000D02*
X156905000Y-105350000D01*
X154245000Y-105410000D02*
X154245000Y-105350000D01*
X154245000Y-105350000D02*
X156905000Y-105350000D01*
X139005000Y-108010000D02*
X140335000Y-108010000D01*
X139005000Y-106680000D02*
X139005000Y-108010000D01*
X139005000Y-105410000D02*
X141665000Y-105410000D01*
X141665000Y-105410000D02*
X141665000Y-105350000D01*
X139005000Y-105410000D02*
X139005000Y-105350000D01*
X139005000Y-105350000D02*
X141665000Y-105350000D01*
X153096500Y-96936779D02*
X153096500Y-96611221D01*
X154116500Y-96936779D02*
X154116500Y-96611221D01*
X145921000Y-96962279D02*
X145921000Y-96636721D01*
X146941000Y-96962279D02*
X146941000Y-96636721D01*
X159568000Y-97788000D02*
X159568000Y-96328000D01*
X156408000Y-97788000D02*
X156408000Y-95628000D01*
X156408000Y-97788000D02*
X157338000Y-97788000D01*
X159568000Y-97788000D02*
X158638000Y-97788000D01*
X152395000Y-97772000D02*
X152395000Y-96312000D01*
X149235000Y-97772000D02*
X149235000Y-95612000D01*
X149235000Y-97772000D02*
X150165000Y-97772000D01*
X152395000Y-97772000D02*
X151465000Y-97772000D01*
X145283000Y-97772000D02*
X145283000Y-96312000D01*
X142123000Y-97772000D02*
X142123000Y-95612000D01*
X142123000Y-97772000D02*
X143053000Y-97772000D01*
X145283000Y-97772000D02*
X144353000Y-97772000D01*
D11*
X156376666Y-103989142D02*
X156424285Y-104036761D01*
X156567142Y-104084380D01*
X156662380Y-104084380D01*
X156805238Y-104036761D01*
X156900476Y-103941523D01*
X156948095Y-103846285D01*
X156995714Y-103655809D01*
X156995714Y-103512952D01*
X156948095Y-103322476D01*
X156900476Y-103227238D01*
X156805238Y-103132000D01*
X156662380Y-103084380D01*
X156567142Y-103084380D01*
X156424285Y-103132000D01*
X156376666Y-103179619D01*
X156043333Y-103084380D02*
X155424285Y-103084380D01*
X155757619Y-103465333D01*
X155614761Y-103465333D01*
X155519523Y-103512952D01*
X155471904Y-103560571D01*
X155424285Y-103655809D01*
X155424285Y-103893904D01*
X155471904Y-103989142D01*
X155519523Y-104036761D01*
X155614761Y-104084380D01*
X155900476Y-104084380D01*
X155995714Y-104036761D01*
X156043333Y-103989142D01*
X149391666Y-103862142D02*
X149439285Y-103909761D01*
X149582142Y-103957380D01*
X149677380Y-103957380D01*
X149820238Y-103909761D01*
X149915476Y-103814523D01*
X149963095Y-103719285D01*
X150010714Y-103528809D01*
X150010714Y-103385952D01*
X149963095Y-103195476D01*
X149915476Y-103100238D01*
X149820238Y-103005000D01*
X149677380Y-102957380D01*
X149582142Y-102957380D01*
X149439285Y-103005000D01*
X149391666Y-103052619D01*
X149010714Y-103052619D02*
X148963095Y-103005000D01*
X148867857Y-102957380D01*
X148629761Y-102957380D01*
X148534523Y-103005000D01*
X148486904Y-103052619D01*
X148439285Y-103147857D01*
X148439285Y-103243095D01*
X148486904Y-103385952D01*
X149058333Y-103957380D01*
X148439285Y-103957380D01*
X142216166Y-103862142D02*
X142263785Y-103909761D01*
X142406642Y-103957380D01*
X142501880Y-103957380D01*
X142644738Y-103909761D01*
X142739976Y-103814523D01*
X142787595Y-103719285D01*
X142835214Y-103528809D01*
X142835214Y-103385952D01*
X142787595Y-103195476D01*
X142739976Y-103100238D01*
X142644738Y-103005000D01*
X142501880Y-102957380D01*
X142406642Y-102957380D01*
X142263785Y-103005000D01*
X142216166Y-103052619D01*
X141263785Y-103957380D02*
X141835214Y-103957380D01*
X141549500Y-103957380D02*
X141549500Y-102957380D01*
X141644738Y-103100238D01*
X141739976Y-103195476D01*
X141835214Y-103243095D01*
X154122380Y-93813333D02*
X153646190Y-93480000D01*
X154122380Y-93241904D02*
X153122380Y-93241904D01*
X153122380Y-93622857D01*
X153170000Y-93718095D01*
X153217619Y-93765714D01*
X153312857Y-93813333D01*
X153455714Y-93813333D01*
X153550952Y-93765714D01*
X153598571Y-93718095D01*
X153646190Y-93622857D01*
X153646190Y-93241904D01*
X153122380Y-94718095D02*
X153122380Y-94241904D01*
X153598571Y-94194285D01*
X153550952Y-94241904D01*
X153503333Y-94337142D01*
X153503333Y-94575238D01*
X153550952Y-94670476D01*
X153598571Y-94718095D01*
X153693809Y-94765714D01*
X153931904Y-94765714D01*
X154027142Y-94718095D01*
X154074761Y-94670476D01*
X154122380Y-94575238D01*
X154122380Y-94337142D01*
X154074761Y-94241904D01*
X154027142Y-94194285D01*
X146946880Y-93813333D02*
X146470690Y-93480000D01*
X146946880Y-93241904D02*
X145946880Y-93241904D01*
X145946880Y-93622857D01*
X145994500Y-93718095D01*
X146042119Y-93765714D01*
X146137357Y-93813333D01*
X146280214Y-93813333D01*
X146375452Y-93765714D01*
X146423071Y-93718095D01*
X146470690Y-93622857D01*
X146470690Y-93241904D01*
X146280214Y-94670476D02*
X146946880Y-94670476D01*
X145899261Y-94432380D02*
X146613547Y-94194285D01*
X146613547Y-94813333D01*
X155932119Y-93884761D02*
X155884500Y-93789523D01*
X155789261Y-93694285D01*
X155646404Y-93551428D01*
X155598785Y-93456190D01*
X155598785Y-93360952D01*
X155836880Y-93408571D02*
X155789261Y-93313333D01*
X155694023Y-93218095D01*
X155503547Y-93170476D01*
X155170214Y-93170476D01*
X154979738Y-93218095D01*
X154884500Y-93313333D01*
X154836880Y-93408571D01*
X154836880Y-93599047D01*
X154884500Y-93694285D01*
X154979738Y-93789523D01*
X155170214Y-93837142D01*
X155503547Y-93837142D01*
X155694023Y-93789523D01*
X155789261Y-93694285D01*
X155836880Y-93599047D01*
X155836880Y-93408571D01*
X154836880Y-94170476D02*
X154836880Y-94789523D01*
X155217833Y-94456190D01*
X155217833Y-94599047D01*
X155265452Y-94694285D01*
X155313071Y-94741904D01*
X155408309Y-94789523D01*
X155646404Y-94789523D01*
X155741642Y-94741904D01*
X155789261Y-94694285D01*
X155836880Y-94599047D01*
X155836880Y-94313333D01*
X155789261Y-94218095D01*
X155741642Y-94170476D01*
X150783238Y-95146619D02*
X150878476Y-95099000D01*
X150973714Y-95003761D01*
X151116571Y-94860904D01*
X151211809Y-94813285D01*
X151307047Y-94813285D01*
X151259428Y-95051380D02*
X151354666Y-95003761D01*
X151449904Y-94908523D01*
X151497523Y-94718047D01*
X151497523Y-94384714D01*
X151449904Y-94194238D01*
X151354666Y-94099000D01*
X151259428Y-94051380D01*
X151068952Y-94051380D01*
X150973714Y-94099000D01*
X150878476Y-94194238D01*
X150830857Y-94384714D01*
X150830857Y-94718047D01*
X150878476Y-94908523D01*
X150973714Y-95003761D01*
X151068952Y-95051380D01*
X151259428Y-95051380D01*
X150449904Y-94146619D02*
X150402285Y-94099000D01*
X150307047Y-94051380D01*
X150068952Y-94051380D01*
X149973714Y-94099000D01*
X149926095Y-94146619D01*
X149878476Y-94241857D01*
X149878476Y-94337095D01*
X149926095Y-94479952D01*
X150497523Y-95051380D01*
X149878476Y-95051380D01*
X140049238Y-97829619D02*
X140144476Y-97782000D01*
X140239714Y-97686761D01*
X140382571Y-97543904D01*
X140477809Y-97496285D01*
X140573047Y-97496285D01*
X140525428Y-97734380D02*
X140620666Y-97686761D01*
X140715904Y-97591523D01*
X140763523Y-97401047D01*
X140763523Y-97067714D01*
X140715904Y-96877238D01*
X140620666Y-96782000D01*
X140525428Y-96734380D01*
X140334952Y-96734380D01*
X140239714Y-96782000D01*
X140144476Y-96877238D01*
X140096857Y-97067714D01*
X140096857Y-97401047D01*
X140144476Y-97591523D01*
X140239714Y-97686761D01*
X140334952Y-97734380D01*
X140525428Y-97734380D01*
X139144476Y-97734380D02*
X139715904Y-97734380D01*
X139430190Y-97734380D02*
X139430190Y-96734380D01*
X139525428Y-96877238D01*
X139620666Y-96972476D01*
X139715904Y-97020095D01*
M02*
