G04 #@! TF.GenerationSoftware,KiCad,Pcbnew,(5.1.6)-1*
G04 #@! TF.CreationDate,2020-11-03T09:51:37+03:00*
G04 #@! TF.ProjectId,UlTi_driver_ext_board,556c5469-5f64-4726-9976-65725f657874,rev?*
G04 #@! TF.SameCoordinates,Original*
G04 #@! TF.FileFunction,Copper,L2,Bot*
G04 #@! TF.FilePolarity,Positive*
%FSLAX46Y46*%
G04 Gerber Fmt 4.6, Leading zero omitted, Abs format (unit mm)*
G04 Created by KiCad (PCBNEW (5.1.6)-1) date 2020-11-03 09:51:37*
%MOMM*%
%LPD*%
G01*
G04 APERTURE LIST*
G04 #@! TA.AperFunction,ComponentPad*
%ADD10O,2.000000X1.700000*%
G04 #@! TD*
G04 #@! TA.AperFunction,ComponentPad*
%ADD11R,1.700000X1.700000*%
G04 #@! TD*
G04 #@! TA.AperFunction,SMDPad,CuDef*
%ADD12R,0.800000X0.900000*%
G04 #@! TD*
G04 #@! TA.AperFunction,ViaPad*
%ADD13C,0.800000*%
G04 #@! TD*
G04 #@! TA.AperFunction,Conductor*
%ADD14C,0.300000*%
G04 #@! TD*
G04 #@! TA.AperFunction,Conductor*
%ADD15C,0.600000*%
G04 #@! TD*
G04 #@! TA.AperFunction,Conductor*
%ADD16C,0.254000*%
G04 #@! TD*
G04 APERTURE END LIST*
G04 #@! TA.AperFunction,SMDPad,CuDef*
G36*
G01*
X157998000Y-102756000D02*
X159248000Y-102756000D01*
G75*
G02*
X159498000Y-103006000I0J-250000D01*
G01*
X159498000Y-103756000D01*
G75*
G02*
X159248000Y-104006000I-250000J0D01*
G01*
X157998000Y-104006000D01*
G75*
G02*
X157748000Y-103756000I0J250000D01*
G01*
X157748000Y-103006000D01*
G75*
G02*
X157998000Y-102756000I250000J0D01*
G01*
G37*
G04 #@! TD.AperFunction*
G04 #@! TA.AperFunction,SMDPad,CuDef*
G36*
G01*
X157998000Y-99956000D02*
X159248000Y-99956000D01*
G75*
G02*
X159498000Y-100206000I0J-250000D01*
G01*
X159498000Y-100956000D01*
G75*
G02*
X159248000Y-101206000I-250000J0D01*
G01*
X157998000Y-101206000D01*
G75*
G02*
X157748000Y-100956000I0J250000D01*
G01*
X157748000Y-100206000D01*
G75*
G02*
X157998000Y-99956000I250000J0D01*
G01*
G37*
G04 #@! TD.AperFunction*
G04 #@! TA.AperFunction,SMDPad,CuDef*
G36*
G01*
X150886000Y-102756000D02*
X152136000Y-102756000D01*
G75*
G02*
X152386000Y-103006000I0J-250000D01*
G01*
X152386000Y-103756000D01*
G75*
G02*
X152136000Y-104006000I-250000J0D01*
G01*
X150886000Y-104006000D01*
G75*
G02*
X150636000Y-103756000I0J250000D01*
G01*
X150636000Y-103006000D01*
G75*
G02*
X150886000Y-102756000I250000J0D01*
G01*
G37*
G04 #@! TD.AperFunction*
G04 #@! TA.AperFunction,SMDPad,CuDef*
G36*
G01*
X150886000Y-99956000D02*
X152136000Y-99956000D01*
G75*
G02*
X152386000Y-100206000I0J-250000D01*
G01*
X152386000Y-100956000D01*
G75*
G02*
X152136000Y-101206000I-250000J0D01*
G01*
X150886000Y-101206000D01*
G75*
G02*
X150636000Y-100956000I0J250000D01*
G01*
X150636000Y-100206000D01*
G75*
G02*
X150886000Y-99956000I250000J0D01*
G01*
G37*
G04 #@! TD.AperFunction*
G04 #@! TA.AperFunction,SMDPad,CuDef*
G36*
G01*
X143774000Y-102756000D02*
X145024000Y-102756000D01*
G75*
G02*
X145274000Y-103006000I0J-250000D01*
G01*
X145274000Y-103756000D01*
G75*
G02*
X145024000Y-104006000I-250000J0D01*
G01*
X143774000Y-104006000D01*
G75*
G02*
X143524000Y-103756000I0J250000D01*
G01*
X143524000Y-103006000D01*
G75*
G02*
X143774000Y-102756000I250000J0D01*
G01*
G37*
G04 #@! TD.AperFunction*
G04 #@! TA.AperFunction,SMDPad,CuDef*
G36*
G01*
X143774000Y-99956000D02*
X145024000Y-99956000D01*
G75*
G02*
X145274000Y-100206000I0J-250000D01*
G01*
X145274000Y-100956000D01*
G75*
G02*
X145024000Y-101206000I-250000J0D01*
G01*
X143774000Y-101206000D01*
G75*
G02*
X143524000Y-100956000I0J250000D01*
G01*
X143524000Y-100206000D01*
G75*
G02*
X143774000Y-99956000I250000J0D01*
G01*
G37*
G04 #@! TD.AperFunction*
D10*
X155829000Y-98846000D03*
G04 #@! TA.AperFunction,ComponentPad*
G36*
G01*
X156579000Y-102196000D02*
X155079000Y-102196000D01*
G75*
G02*
X154829000Y-101946000I0J250000D01*
G01*
X154829000Y-100746000D01*
G75*
G02*
X155079000Y-100496000I250000J0D01*
G01*
X156579000Y-100496000D01*
G75*
G02*
X156829000Y-100746000I0J-250000D01*
G01*
X156829000Y-101946000D01*
G75*
G02*
X156579000Y-102196000I-250000J0D01*
G01*
G37*
G04 #@! TD.AperFunction*
X148717000Y-98846000D03*
G04 #@! TA.AperFunction,ComponentPad*
G36*
G01*
X149467000Y-102196000D02*
X147967000Y-102196000D01*
G75*
G02*
X147717000Y-101946000I0J250000D01*
G01*
X147717000Y-100746000D01*
G75*
G02*
X147967000Y-100496000I250000J0D01*
G01*
X149467000Y-100496000D01*
G75*
G02*
X149717000Y-100746000I0J-250000D01*
G01*
X149717000Y-101946000D01*
G75*
G02*
X149467000Y-102196000I-250000J0D01*
G01*
G37*
G04 #@! TD.AperFunction*
X141605000Y-98846000D03*
G04 #@! TA.AperFunction,ComponentPad*
G36*
G01*
X142355000Y-102196000D02*
X140855000Y-102196000D01*
G75*
G02*
X140605000Y-101946000I0J250000D01*
G01*
X140605000Y-100746000D01*
G75*
G02*
X140855000Y-100496000I250000J0D01*
G01*
X142355000Y-100496000D01*
G75*
G02*
X142605000Y-100746000I0J-250000D01*
G01*
X142605000Y-101946000D01*
G75*
G02*
X142355000Y-102196000I-250000J0D01*
G01*
G37*
G04 #@! TD.AperFunction*
D11*
X140335000Y-93980000D03*
X158115000Y-93980000D03*
X142875000Y-93980000D03*
X158115000Y-106680000D03*
X155575000Y-106680000D03*
X140335000Y-106680000D03*
G04 #@! TA.AperFunction,SMDPad,CuDef*
G36*
G01*
X153862750Y-96424000D02*
X153350250Y-96424000D01*
G75*
G02*
X153131500Y-96205250I0J218750D01*
G01*
X153131500Y-95767750D01*
G75*
G02*
X153350250Y-95549000I218750J0D01*
G01*
X153862750Y-95549000D01*
G75*
G02*
X154081500Y-95767750I0J-218750D01*
G01*
X154081500Y-96205250D01*
G75*
G02*
X153862750Y-96424000I-218750J0D01*
G01*
G37*
G04 #@! TD.AperFunction*
G04 #@! TA.AperFunction,SMDPad,CuDef*
G36*
G01*
X153862750Y-97999000D02*
X153350250Y-97999000D01*
G75*
G02*
X153131500Y-97780250I0J218750D01*
G01*
X153131500Y-97342750D01*
G75*
G02*
X153350250Y-97124000I218750J0D01*
G01*
X153862750Y-97124000D01*
G75*
G02*
X154081500Y-97342750I0J-218750D01*
G01*
X154081500Y-97780250D01*
G75*
G02*
X153862750Y-97999000I-218750J0D01*
G01*
G37*
G04 #@! TD.AperFunction*
G04 #@! TA.AperFunction,SMDPad,CuDef*
G36*
G01*
X146687250Y-96449500D02*
X146174750Y-96449500D01*
G75*
G02*
X145956000Y-96230750I0J218750D01*
G01*
X145956000Y-95793250D01*
G75*
G02*
X146174750Y-95574500I218750J0D01*
G01*
X146687250Y-95574500D01*
G75*
G02*
X146906000Y-95793250I0J-218750D01*
G01*
X146906000Y-96230750D01*
G75*
G02*
X146687250Y-96449500I-218750J0D01*
G01*
G37*
G04 #@! TD.AperFunction*
G04 #@! TA.AperFunction,SMDPad,CuDef*
G36*
G01*
X146687250Y-98024500D02*
X146174750Y-98024500D01*
G75*
G02*
X145956000Y-97805750I0J218750D01*
G01*
X145956000Y-97368250D01*
G75*
G02*
X146174750Y-97149500I218750J0D01*
G01*
X146687250Y-97149500D01*
G75*
G02*
X146906000Y-97368250I0J-218750D01*
G01*
X146906000Y-97805750D01*
G75*
G02*
X146687250Y-98024500I-218750J0D01*
G01*
G37*
G04 #@! TD.AperFunction*
D12*
X157988000Y-98028000D03*
X158938000Y-96028000D03*
X157038000Y-96028000D03*
X150815000Y-98012000D03*
X151765000Y-96012000D03*
X149865000Y-96012000D03*
X143703000Y-98012000D03*
X144653000Y-96012000D03*
X142753000Y-96012000D03*
D13*
X141414500Y-96647000D03*
X146431000Y-99885500D03*
X153606500Y-99822000D03*
X148145500Y-107188000D03*
D14*
X144653000Y-96012000D02*
X144653000Y-93980000D01*
X146431000Y-96012000D02*
X146431000Y-93980000D01*
X151765000Y-96012000D02*
X151765000Y-93980000D01*
X153606500Y-95986500D02*
X153606500Y-93980000D01*
D15*
X158938000Y-94803000D02*
X158115000Y-93980000D01*
X158938000Y-96028000D02*
X158938000Y-94803000D01*
X142875000Y-93980000D02*
X144653000Y-93980000D01*
X144653000Y-93980000D02*
X146431000Y-93980000D01*
X146431000Y-93980000D02*
X151765000Y-93980000D01*
X151765000Y-93980000D02*
X153606500Y-93980000D01*
X153606500Y-93980000D02*
X158115000Y-93980000D01*
X140211000Y-103381000D02*
X139446000Y-102616000D01*
X139446000Y-102616000D02*
X139446000Y-96901000D01*
X140335000Y-96012000D02*
X140335000Y-93980000D01*
X139446000Y-96901000D02*
X140335000Y-96012000D01*
X141605000Y-101346000D02*
X141605000Y-102997000D01*
X141605000Y-102997000D02*
X141221000Y-103381000D01*
X144399000Y-103381000D02*
X141221000Y-103381000D01*
X141221000Y-103381000D02*
X140211000Y-103381000D01*
X148717000Y-103257000D02*
X148593000Y-103381000D01*
X151511000Y-103381000D02*
X148593000Y-103381000D01*
X148717000Y-101346000D02*
X148717000Y-103257000D01*
X148593000Y-103381000D02*
X144399000Y-103381000D01*
X155829000Y-101346000D02*
X155829000Y-103378000D01*
X158623000Y-103381000D02*
X155826000Y-103381000D01*
X155829000Y-103378000D02*
X155826000Y-103381000D01*
X155826000Y-103381000D02*
X151511000Y-103381000D01*
D14*
X142753000Y-96012000D02*
X142240000Y-96012000D01*
X142240000Y-96012000D02*
X141605000Y-96647000D01*
X141605000Y-96647000D02*
X141414500Y-96647000D01*
X149865000Y-96012000D02*
X148907500Y-96012000D01*
X147332500Y-97587000D02*
X146431000Y-97587000D01*
X148907500Y-96012000D02*
X147332500Y-97587000D01*
X146431000Y-97587000D02*
X146431000Y-99885500D01*
X157038000Y-96028000D02*
X155940000Y-96028000D01*
X154406500Y-97561500D02*
X153606500Y-97561500D01*
X155940000Y-96028000D02*
X154406500Y-97561500D01*
X153606500Y-97561500D02*
X153606500Y-99822000D01*
X148145500Y-107188000D02*
X153098500Y-107188000D01*
X153606500Y-106680000D02*
X155575000Y-106680000D01*
X153098500Y-107188000D02*
X153606500Y-106680000D01*
D15*
X141605000Y-98846000D02*
X141645000Y-98846000D01*
X143380000Y-100581000D02*
X144399000Y-100581000D01*
X141645000Y-98846000D02*
X143380000Y-100581000D01*
X144399000Y-98708000D02*
X143703000Y-98012000D01*
X144399000Y-100581000D02*
X144399000Y-98708000D01*
X148717000Y-98846000D02*
X148757000Y-98846000D01*
X150492000Y-100581000D02*
X151511000Y-100581000D01*
X148757000Y-98846000D02*
X150492000Y-100581000D01*
X151511000Y-98708000D02*
X150815000Y-98012000D01*
X151511000Y-100581000D02*
X151511000Y-98708000D01*
X155829000Y-98846000D02*
X155829000Y-98933000D01*
X157477000Y-100581000D02*
X158623000Y-100581000D01*
X155829000Y-98933000D02*
X157477000Y-100581000D01*
X158623000Y-98663000D02*
X157988000Y-98028000D01*
X158623000Y-100581000D02*
X158623000Y-98663000D01*
D16*
G36*
X159233000Y-92475381D02*
G01*
X159233000Y-92553230D01*
X159209180Y-92540498D01*
X159089482Y-92504188D01*
X158965000Y-92491928D01*
X158400750Y-92495000D01*
X158242000Y-92653750D01*
X158242000Y-93853000D01*
X158262000Y-93853000D01*
X158262000Y-94107000D01*
X158242000Y-94107000D01*
X158242000Y-94127000D01*
X157988000Y-94127000D01*
X157988000Y-94107000D01*
X156788750Y-94107000D01*
X156630000Y-94265750D01*
X156626928Y-94830000D01*
X156637757Y-94939952D01*
X156513518Y-94952188D01*
X156393820Y-94988498D01*
X156283506Y-95047463D01*
X156186815Y-95126815D01*
X156107463Y-95223506D01*
X156097043Y-95243000D01*
X155978552Y-95243000D01*
X155939999Y-95239203D01*
X155901446Y-95243000D01*
X155901439Y-95243000D01*
X155800490Y-95252943D01*
X155786112Y-95254359D01*
X155751672Y-95264806D01*
X155638140Y-95299246D01*
X155501767Y-95372138D01*
X155444055Y-95419502D01*
X155412187Y-95445655D01*
X155412184Y-95445658D01*
X155382236Y-95470236D01*
X155357658Y-95500184D01*
X154651046Y-96206796D01*
X154557750Y-96113500D01*
X153733500Y-96113500D01*
X153733500Y-96133500D01*
X153479500Y-96133500D01*
X153479500Y-96113500D01*
X152655250Y-96113500D01*
X152629750Y-96139000D01*
X151892000Y-96139000D01*
X151892000Y-96938250D01*
X152050750Y-97097000D01*
X152165000Y-97100072D01*
X152289482Y-97087812D01*
X152409180Y-97051502D01*
X152519494Y-96992537D01*
X152610503Y-96917848D01*
X152558650Y-97014858D01*
X152509892Y-97175592D01*
X152493428Y-97342750D01*
X152493428Y-97780250D01*
X152509892Y-97947408D01*
X152558650Y-98108142D01*
X152637829Y-98256275D01*
X152744385Y-98386115D01*
X152821500Y-98449401D01*
X152821501Y-99143288D01*
X152802563Y-99162226D01*
X152689295Y-99331744D01*
X152632101Y-99469823D01*
X152629386Y-99467595D01*
X152475850Y-99385528D01*
X152446000Y-99376473D01*
X152446000Y-98753935D01*
X152450524Y-98708000D01*
X152432472Y-98524708D01*
X152379007Y-98348459D01*
X152348765Y-98291880D01*
X152292186Y-98186028D01*
X152175344Y-98043656D01*
X152139659Y-98014370D01*
X151853072Y-97727783D01*
X151853072Y-97562000D01*
X151840812Y-97437518D01*
X151804502Y-97317820D01*
X151745537Y-97207506D01*
X151666185Y-97110815D01*
X151569494Y-97031463D01*
X151553393Y-97022857D01*
X151638000Y-96938250D01*
X151638000Y-96139000D01*
X151618000Y-96139000D01*
X151618000Y-95885000D01*
X151638000Y-95885000D01*
X151638000Y-95085750D01*
X151892000Y-95085750D01*
X151892000Y-95885000D01*
X152641250Y-95885000D01*
X152666750Y-95859500D01*
X153479500Y-95859500D01*
X153479500Y-95072750D01*
X153733500Y-95072750D01*
X153733500Y-95859500D01*
X154557750Y-95859500D01*
X154716500Y-95700750D01*
X154719572Y-95549000D01*
X154707312Y-95424518D01*
X154671002Y-95304820D01*
X154612037Y-95194506D01*
X154532685Y-95097815D01*
X154435994Y-95018463D01*
X154325680Y-94959498D01*
X154205982Y-94923188D01*
X154081500Y-94910928D01*
X153892250Y-94914000D01*
X153733500Y-95072750D01*
X153479500Y-95072750D01*
X153320750Y-94914000D01*
X153131500Y-94910928D01*
X153007018Y-94923188D01*
X152887320Y-94959498D01*
X152777006Y-95018463D01*
X152680315Y-95097815D01*
X152642916Y-95143386D01*
X152616185Y-95110815D01*
X152519494Y-95031463D01*
X152409180Y-94972498D01*
X152289482Y-94936188D01*
X152165000Y-94923928D01*
X152050750Y-94927000D01*
X151892000Y-95085750D01*
X151638000Y-95085750D01*
X151479250Y-94927000D01*
X151365000Y-94923928D01*
X151240518Y-94936188D01*
X151120820Y-94972498D01*
X151010506Y-95031463D01*
X150913815Y-95110815D01*
X150834463Y-95207506D01*
X150815000Y-95243918D01*
X150795537Y-95207506D01*
X150716185Y-95110815D01*
X150619494Y-95031463D01*
X150509180Y-94972498D01*
X150389482Y-94936188D01*
X150265000Y-94923928D01*
X149465000Y-94923928D01*
X149340518Y-94936188D01*
X149220820Y-94972498D01*
X149110506Y-95031463D01*
X149013815Y-95110815D01*
X148934463Y-95207506D01*
X148925144Y-95224941D01*
X148907499Y-95223203D01*
X148868946Y-95227000D01*
X148868939Y-95227000D01*
X148767990Y-95236943D01*
X148753612Y-95238359D01*
X148719172Y-95248806D01*
X148605640Y-95283246D01*
X148469267Y-95356138D01*
X148409059Y-95405550D01*
X148379687Y-95429655D01*
X148379684Y-95429658D01*
X148349736Y-95454236D01*
X148325158Y-95484184D01*
X147526296Y-96283046D01*
X147382250Y-96139000D01*
X146558000Y-96139000D01*
X146558000Y-96159000D01*
X146304000Y-96159000D01*
X146304000Y-96139000D01*
X144780000Y-96139000D01*
X144780000Y-96938250D01*
X144938750Y-97097000D01*
X145053000Y-97100072D01*
X145177482Y-97087812D01*
X145297180Y-97051502D01*
X145407494Y-96992537D01*
X145409662Y-96990758D01*
X145383150Y-97040358D01*
X145334392Y-97201092D01*
X145317928Y-97368250D01*
X145317928Y-97805750D01*
X145334392Y-97972908D01*
X145383150Y-98133642D01*
X145462329Y-98281775D01*
X145568885Y-98411615D01*
X145646000Y-98474901D01*
X145646001Y-99206788D01*
X145627063Y-99225726D01*
X145513795Y-99395244D01*
X145489909Y-99452908D01*
X145363850Y-99385528D01*
X145334000Y-99376473D01*
X145334000Y-98753935D01*
X145338524Y-98708000D01*
X145320472Y-98524708D01*
X145267007Y-98348459D01*
X145236765Y-98291880D01*
X145180186Y-98186028D01*
X145063344Y-98043656D01*
X145027659Y-98014370D01*
X144741072Y-97727783D01*
X144741072Y-97562000D01*
X144728812Y-97437518D01*
X144692502Y-97317820D01*
X144633537Y-97207506D01*
X144554185Y-97110815D01*
X144457494Y-97031463D01*
X144441393Y-97022857D01*
X144526000Y-96938250D01*
X144526000Y-96139000D01*
X144506000Y-96139000D01*
X144506000Y-95885000D01*
X144526000Y-95885000D01*
X144526000Y-95085750D01*
X144780000Y-95085750D01*
X144780000Y-95885000D01*
X146304000Y-95885000D01*
X146304000Y-95098250D01*
X146558000Y-95098250D01*
X146558000Y-95885000D01*
X147382250Y-95885000D01*
X147541000Y-95726250D01*
X147544072Y-95574500D01*
X147531812Y-95450018D01*
X147495502Y-95330320D01*
X147436537Y-95220006D01*
X147357185Y-95123315D01*
X147260494Y-95043963D01*
X147150180Y-94984998D01*
X147030482Y-94948688D01*
X146906000Y-94936428D01*
X146716750Y-94939500D01*
X146558000Y-95098250D01*
X146304000Y-95098250D01*
X146145250Y-94939500D01*
X145956000Y-94936428D01*
X145831518Y-94948688D01*
X145711820Y-94984998D01*
X145601506Y-95043963D01*
X145510568Y-95118593D01*
X145504185Y-95110815D01*
X145407494Y-95031463D01*
X145297180Y-94972498D01*
X145177482Y-94936188D01*
X145053000Y-94923928D01*
X144938750Y-94927000D01*
X144780000Y-95085750D01*
X144526000Y-95085750D01*
X144367250Y-94927000D01*
X144353555Y-94926632D01*
X144363072Y-94830000D01*
X144360000Y-94265750D01*
X144201250Y-94107000D01*
X143002000Y-94107000D01*
X143002000Y-94127000D01*
X142748000Y-94127000D01*
X142748000Y-94107000D01*
X142728000Y-94107000D01*
X142728000Y-93853000D01*
X142748000Y-93853000D01*
X142748000Y-92653750D01*
X143002000Y-92653750D01*
X143002000Y-93853000D01*
X144201250Y-93853000D01*
X144360000Y-93694250D01*
X144363072Y-93130000D01*
X156626928Y-93130000D01*
X156630000Y-93694250D01*
X156788750Y-93853000D01*
X157988000Y-93853000D01*
X157988000Y-92653750D01*
X157829250Y-92495000D01*
X157265000Y-92491928D01*
X157140518Y-92504188D01*
X157020820Y-92540498D01*
X156910506Y-92599463D01*
X156813815Y-92678815D01*
X156734463Y-92775506D01*
X156675498Y-92885820D01*
X156639188Y-93005518D01*
X156626928Y-93130000D01*
X144363072Y-93130000D01*
X144350812Y-93005518D01*
X144314502Y-92885820D01*
X144255537Y-92775506D01*
X144176185Y-92678815D01*
X144079494Y-92599463D01*
X143969180Y-92540498D01*
X143849482Y-92504188D01*
X143725000Y-92491928D01*
X143160750Y-92495000D01*
X143002000Y-92653750D01*
X142748000Y-92653750D01*
X142589250Y-92495000D01*
X142025000Y-92491928D01*
X141900518Y-92504188D01*
X141780820Y-92540498D01*
X141670506Y-92599463D01*
X141605000Y-92653222D01*
X141539494Y-92599463D01*
X141429180Y-92540498D01*
X141309482Y-92504188D01*
X141185000Y-92491928D01*
X139485000Y-92491928D01*
X139360518Y-92504188D01*
X139240820Y-92540498D01*
X139217000Y-92553230D01*
X139217000Y-92475380D01*
X139338381Y-92354000D01*
X159111620Y-92354000D01*
X159233000Y-92475381D01*
G37*
X159233000Y-92475381D02*
X159233000Y-92553230D01*
X159209180Y-92540498D01*
X159089482Y-92504188D01*
X158965000Y-92491928D01*
X158400750Y-92495000D01*
X158242000Y-92653750D01*
X158242000Y-93853000D01*
X158262000Y-93853000D01*
X158262000Y-94107000D01*
X158242000Y-94107000D01*
X158242000Y-94127000D01*
X157988000Y-94127000D01*
X157988000Y-94107000D01*
X156788750Y-94107000D01*
X156630000Y-94265750D01*
X156626928Y-94830000D01*
X156637757Y-94939952D01*
X156513518Y-94952188D01*
X156393820Y-94988498D01*
X156283506Y-95047463D01*
X156186815Y-95126815D01*
X156107463Y-95223506D01*
X156097043Y-95243000D01*
X155978552Y-95243000D01*
X155939999Y-95239203D01*
X155901446Y-95243000D01*
X155901439Y-95243000D01*
X155800490Y-95252943D01*
X155786112Y-95254359D01*
X155751672Y-95264806D01*
X155638140Y-95299246D01*
X155501767Y-95372138D01*
X155444055Y-95419502D01*
X155412187Y-95445655D01*
X155412184Y-95445658D01*
X155382236Y-95470236D01*
X155357658Y-95500184D01*
X154651046Y-96206796D01*
X154557750Y-96113500D01*
X153733500Y-96113500D01*
X153733500Y-96133500D01*
X153479500Y-96133500D01*
X153479500Y-96113500D01*
X152655250Y-96113500D01*
X152629750Y-96139000D01*
X151892000Y-96139000D01*
X151892000Y-96938250D01*
X152050750Y-97097000D01*
X152165000Y-97100072D01*
X152289482Y-97087812D01*
X152409180Y-97051502D01*
X152519494Y-96992537D01*
X152610503Y-96917848D01*
X152558650Y-97014858D01*
X152509892Y-97175592D01*
X152493428Y-97342750D01*
X152493428Y-97780250D01*
X152509892Y-97947408D01*
X152558650Y-98108142D01*
X152637829Y-98256275D01*
X152744385Y-98386115D01*
X152821500Y-98449401D01*
X152821501Y-99143288D01*
X152802563Y-99162226D01*
X152689295Y-99331744D01*
X152632101Y-99469823D01*
X152629386Y-99467595D01*
X152475850Y-99385528D01*
X152446000Y-99376473D01*
X152446000Y-98753935D01*
X152450524Y-98708000D01*
X152432472Y-98524708D01*
X152379007Y-98348459D01*
X152348765Y-98291880D01*
X152292186Y-98186028D01*
X152175344Y-98043656D01*
X152139659Y-98014370D01*
X151853072Y-97727783D01*
X151853072Y-97562000D01*
X151840812Y-97437518D01*
X151804502Y-97317820D01*
X151745537Y-97207506D01*
X151666185Y-97110815D01*
X151569494Y-97031463D01*
X151553393Y-97022857D01*
X151638000Y-96938250D01*
X151638000Y-96139000D01*
X151618000Y-96139000D01*
X151618000Y-95885000D01*
X151638000Y-95885000D01*
X151638000Y-95085750D01*
X151892000Y-95085750D01*
X151892000Y-95885000D01*
X152641250Y-95885000D01*
X152666750Y-95859500D01*
X153479500Y-95859500D01*
X153479500Y-95072750D01*
X153733500Y-95072750D01*
X153733500Y-95859500D01*
X154557750Y-95859500D01*
X154716500Y-95700750D01*
X154719572Y-95549000D01*
X154707312Y-95424518D01*
X154671002Y-95304820D01*
X154612037Y-95194506D01*
X154532685Y-95097815D01*
X154435994Y-95018463D01*
X154325680Y-94959498D01*
X154205982Y-94923188D01*
X154081500Y-94910928D01*
X153892250Y-94914000D01*
X153733500Y-95072750D01*
X153479500Y-95072750D01*
X153320750Y-94914000D01*
X153131500Y-94910928D01*
X153007018Y-94923188D01*
X152887320Y-94959498D01*
X152777006Y-95018463D01*
X152680315Y-95097815D01*
X152642916Y-95143386D01*
X152616185Y-95110815D01*
X152519494Y-95031463D01*
X152409180Y-94972498D01*
X152289482Y-94936188D01*
X152165000Y-94923928D01*
X152050750Y-94927000D01*
X151892000Y-95085750D01*
X151638000Y-95085750D01*
X151479250Y-94927000D01*
X151365000Y-94923928D01*
X151240518Y-94936188D01*
X151120820Y-94972498D01*
X151010506Y-95031463D01*
X150913815Y-95110815D01*
X150834463Y-95207506D01*
X150815000Y-95243918D01*
X150795537Y-95207506D01*
X150716185Y-95110815D01*
X150619494Y-95031463D01*
X150509180Y-94972498D01*
X150389482Y-94936188D01*
X150265000Y-94923928D01*
X149465000Y-94923928D01*
X149340518Y-94936188D01*
X149220820Y-94972498D01*
X149110506Y-95031463D01*
X149013815Y-95110815D01*
X148934463Y-95207506D01*
X148925144Y-95224941D01*
X148907499Y-95223203D01*
X148868946Y-95227000D01*
X148868939Y-95227000D01*
X148767990Y-95236943D01*
X148753612Y-95238359D01*
X148719172Y-95248806D01*
X148605640Y-95283246D01*
X148469267Y-95356138D01*
X148409059Y-95405550D01*
X148379687Y-95429655D01*
X148379684Y-95429658D01*
X148349736Y-95454236D01*
X148325158Y-95484184D01*
X147526296Y-96283046D01*
X147382250Y-96139000D01*
X146558000Y-96139000D01*
X146558000Y-96159000D01*
X146304000Y-96159000D01*
X146304000Y-96139000D01*
X144780000Y-96139000D01*
X144780000Y-96938250D01*
X144938750Y-97097000D01*
X145053000Y-97100072D01*
X145177482Y-97087812D01*
X145297180Y-97051502D01*
X145407494Y-96992537D01*
X145409662Y-96990758D01*
X145383150Y-97040358D01*
X145334392Y-97201092D01*
X145317928Y-97368250D01*
X145317928Y-97805750D01*
X145334392Y-97972908D01*
X145383150Y-98133642D01*
X145462329Y-98281775D01*
X145568885Y-98411615D01*
X145646000Y-98474901D01*
X145646001Y-99206788D01*
X145627063Y-99225726D01*
X145513795Y-99395244D01*
X145489909Y-99452908D01*
X145363850Y-99385528D01*
X145334000Y-99376473D01*
X145334000Y-98753935D01*
X145338524Y-98708000D01*
X145320472Y-98524708D01*
X145267007Y-98348459D01*
X145236765Y-98291880D01*
X145180186Y-98186028D01*
X145063344Y-98043656D01*
X145027659Y-98014370D01*
X144741072Y-97727783D01*
X144741072Y-97562000D01*
X144728812Y-97437518D01*
X144692502Y-97317820D01*
X144633537Y-97207506D01*
X144554185Y-97110815D01*
X144457494Y-97031463D01*
X144441393Y-97022857D01*
X144526000Y-96938250D01*
X144526000Y-96139000D01*
X144506000Y-96139000D01*
X144506000Y-95885000D01*
X144526000Y-95885000D01*
X144526000Y-95085750D01*
X144780000Y-95085750D01*
X144780000Y-95885000D01*
X146304000Y-95885000D01*
X146304000Y-95098250D01*
X146558000Y-95098250D01*
X146558000Y-95885000D01*
X147382250Y-95885000D01*
X147541000Y-95726250D01*
X147544072Y-95574500D01*
X147531812Y-95450018D01*
X147495502Y-95330320D01*
X147436537Y-95220006D01*
X147357185Y-95123315D01*
X147260494Y-95043963D01*
X147150180Y-94984998D01*
X147030482Y-94948688D01*
X146906000Y-94936428D01*
X146716750Y-94939500D01*
X146558000Y-95098250D01*
X146304000Y-95098250D01*
X146145250Y-94939500D01*
X145956000Y-94936428D01*
X145831518Y-94948688D01*
X145711820Y-94984998D01*
X145601506Y-95043963D01*
X145510568Y-95118593D01*
X145504185Y-95110815D01*
X145407494Y-95031463D01*
X145297180Y-94972498D01*
X145177482Y-94936188D01*
X145053000Y-94923928D01*
X144938750Y-94927000D01*
X144780000Y-95085750D01*
X144526000Y-95085750D01*
X144367250Y-94927000D01*
X144353555Y-94926632D01*
X144363072Y-94830000D01*
X144360000Y-94265750D01*
X144201250Y-94107000D01*
X143002000Y-94107000D01*
X143002000Y-94127000D01*
X142748000Y-94127000D01*
X142748000Y-94107000D01*
X142728000Y-94107000D01*
X142728000Y-93853000D01*
X142748000Y-93853000D01*
X142748000Y-92653750D01*
X143002000Y-92653750D01*
X143002000Y-93853000D01*
X144201250Y-93853000D01*
X144360000Y-93694250D01*
X144363072Y-93130000D01*
X156626928Y-93130000D01*
X156630000Y-93694250D01*
X156788750Y-93853000D01*
X157988000Y-93853000D01*
X157988000Y-92653750D01*
X157829250Y-92495000D01*
X157265000Y-92491928D01*
X157140518Y-92504188D01*
X157020820Y-92540498D01*
X156910506Y-92599463D01*
X156813815Y-92678815D01*
X156734463Y-92775506D01*
X156675498Y-92885820D01*
X156639188Y-93005518D01*
X156626928Y-93130000D01*
X144363072Y-93130000D01*
X144350812Y-93005518D01*
X144314502Y-92885820D01*
X144255537Y-92775506D01*
X144176185Y-92678815D01*
X144079494Y-92599463D01*
X143969180Y-92540498D01*
X143849482Y-92504188D01*
X143725000Y-92491928D01*
X143160750Y-92495000D01*
X143002000Y-92653750D01*
X142748000Y-92653750D01*
X142589250Y-92495000D01*
X142025000Y-92491928D01*
X141900518Y-92504188D01*
X141780820Y-92540498D01*
X141670506Y-92599463D01*
X141605000Y-92653222D01*
X141539494Y-92599463D01*
X141429180Y-92540498D01*
X141309482Y-92504188D01*
X141185000Y-92491928D01*
X139485000Y-92491928D01*
X139360518Y-92504188D01*
X139240820Y-92540498D01*
X139217000Y-92553230D01*
X139217000Y-92475380D01*
X139338381Y-92354000D01*
X159111620Y-92354000D01*
X159233000Y-92475381D01*
G36*
X159065000Y-95901000D02*
G01*
X159085000Y-95901000D01*
X159085000Y-96155000D01*
X159065000Y-96155000D01*
X159065000Y-96954250D01*
X159223750Y-97113000D01*
X159233000Y-97113249D01*
X159233000Y-97950711D01*
X159026072Y-97743783D01*
X159026072Y-97578000D01*
X159013812Y-97453518D01*
X158977502Y-97333820D01*
X158918537Y-97223506D01*
X158839185Y-97126815D01*
X158742494Y-97047463D01*
X158726393Y-97038857D01*
X158811000Y-96954250D01*
X158811000Y-96155000D01*
X158791000Y-96155000D01*
X158791000Y-95901000D01*
X158811000Y-95901000D01*
X158811000Y-95881000D01*
X159065000Y-95881000D01*
X159065000Y-95901000D01*
G37*
X159065000Y-95901000D02*
X159085000Y-95901000D01*
X159085000Y-96155000D01*
X159065000Y-96155000D01*
X159065000Y-96954250D01*
X159223750Y-97113000D01*
X159233000Y-97113249D01*
X159233000Y-97950711D01*
X159026072Y-97743783D01*
X159026072Y-97578000D01*
X159013812Y-97453518D01*
X158977502Y-97333820D01*
X158918537Y-97223506D01*
X158839185Y-97126815D01*
X158742494Y-97047463D01*
X158726393Y-97038857D01*
X158811000Y-96954250D01*
X158811000Y-96155000D01*
X158791000Y-96155000D01*
X158791000Y-95901000D01*
X158811000Y-95901000D01*
X158811000Y-95881000D01*
X159065000Y-95881000D01*
X159065000Y-95901000D01*
M02*
