G04 #@! TF.GenerationSoftware,KiCad,Pcbnew,(5.1.6)-1*
G04 #@! TF.CreationDate,2020-11-03T23:41:07+03:00*
G04 #@! TF.ProjectId,UlTi_head_connector,556c5469-5f68-4656-9164-5f636f6e6e65,rev?*
G04 #@! TF.SameCoordinates,Original*
G04 #@! TF.FileFunction,Copper,L1,Top*
G04 #@! TF.FilePolarity,Positive*
%FSLAX46Y46*%
G04 Gerber Fmt 4.6, Leading zero omitted, Abs format (unit mm)*
G04 Created by KiCad (PCBNEW (5.1.6)-1) date 2020-11-03 23:41:07*
%MOMM*%
%LPD*%
G01*
G04 APERTURE LIST*
G04 #@! TA.AperFunction,ComponentPad*
%ADD10O,2.000000X1.700000*%
G04 #@! TD*
G04 #@! TA.AperFunction,ComponentPad*
%ADD11C,4.000000*%
G04 #@! TD*
G04 #@! TA.AperFunction,ComponentPad*
%ADD12R,3.800000X3.800000*%
G04 #@! TD*
G04 #@! TA.AperFunction,ViaPad*
%ADD13C,5.000000*%
G04 #@! TD*
G04 #@! TA.AperFunction,Conductor*
%ADD14C,0.600000*%
G04 #@! TD*
G04 #@! TA.AperFunction,Conductor*
%ADD15C,2.500000*%
G04 #@! TD*
G04 APERTURE END LIST*
G04 #@! TA.AperFunction,ComponentPad*
G36*
G01*
X122648000Y-67094000D02*
X122648000Y-65494000D01*
G75*
G02*
X122898000Y-65244000I250000J0D01*
G01*
X124498000Y-65244000D01*
G75*
G02*
X124748000Y-65494000I0J-250000D01*
G01*
X124748000Y-67094000D01*
G75*
G02*
X124498000Y-67344000I-250000J0D01*
G01*
X122898000Y-67344000D01*
G75*
G02*
X122648000Y-67094000I0J250000D01*
G01*
G37*
G04 #@! TD.AperFunction*
G04 #@! TA.AperFunction,ComponentPad*
G36*
G01*
X119346000Y-67094000D02*
X119346000Y-65494000D01*
G75*
G02*
X119596000Y-65244000I250000J0D01*
G01*
X121196000Y-65244000D01*
G75*
G02*
X121446000Y-65494000I0J-250000D01*
G01*
X121446000Y-67094000D01*
G75*
G02*
X121196000Y-67344000I-250000J0D01*
G01*
X119596000Y-67344000D01*
G75*
G02*
X119346000Y-67094000I0J250000D01*
G01*
G37*
G04 #@! TD.AperFunction*
G04 #@! TA.AperFunction,ComponentPad*
G36*
G01*
X113582660Y-75186792D02*
X113794792Y-74974660D01*
G75*
G02*
X114996874Y-74974660I601041J-601041D01*
G01*
X114996874Y-74974660D01*
G75*
G02*
X114996874Y-76176742I-601041J-601041D01*
G01*
X114784742Y-76388874D01*
G75*
G02*
X113582660Y-76388874I-601041J601041D01*
G01*
X113582660Y-76388874D01*
G75*
G02*
X113582660Y-75186792I601041J601041D01*
G01*
G37*
G04 #@! TD.AperFunction*
G04 #@! TA.AperFunction,ComponentPad*
G36*
G01*
X111390629Y-73843289D02*
X112451289Y-72782629D01*
G75*
G02*
X112804843Y-72782629I176777J-176777D01*
G01*
X113653371Y-73631157D01*
G75*
G02*
X113653371Y-73984711I-176777J-176777D01*
G01*
X112592711Y-75045371D01*
G75*
G02*
X112239157Y-75045371I-176777J176777D01*
G01*
X111390629Y-74196843D01*
G75*
G02*
X111390629Y-73843289I176777J176777D01*
G01*
G37*
G04 #@! TD.AperFunction*
D10*
X104648000Y-46188000D03*
G04 #@! TA.AperFunction,ComponentPad*
G36*
G01*
X103898000Y-42838000D02*
X105398000Y-42838000D01*
G75*
G02*
X105648000Y-43088000I0J-250000D01*
G01*
X105648000Y-44288000D01*
G75*
G02*
X105398000Y-44538000I-250000J0D01*
G01*
X103898000Y-44538000D01*
G75*
G02*
X103648000Y-44288000I0J250000D01*
G01*
X103648000Y-43088000D01*
G75*
G02*
X103898000Y-42838000I250000J0D01*
G01*
G37*
G04 #@! TD.AperFunction*
G04 #@! TA.AperFunction,ComponentPad*
G36*
G01*
X133606792Y-68789340D02*
X133394660Y-68577208D01*
G75*
G02*
X133394660Y-67375126I601041J601041D01*
G01*
X133394660Y-67375126D01*
G75*
G02*
X134596742Y-67375126I601041J-601041D01*
G01*
X134808874Y-67587258D01*
G75*
G02*
X134808874Y-68789340I-601041J-601041D01*
G01*
X134808874Y-68789340D01*
G75*
G02*
X133606792Y-68789340I-601041J601041D01*
G01*
G37*
G04 #@! TD.AperFunction*
G04 #@! TA.AperFunction,ComponentPad*
G36*
G01*
X132263289Y-70981371D02*
X131202629Y-69920711D01*
G75*
G02*
X131202629Y-69567157I176777J176777D01*
G01*
X132051157Y-68718629D01*
G75*
G02*
X132404711Y-68718629I176777J-176777D01*
G01*
X133465371Y-69779289D01*
G75*
G02*
X133465371Y-70132843I-176777J-176777D01*
G01*
X132616843Y-70981371D01*
G75*
G02*
X132263289Y-70981371I-176777J176777D01*
G01*
G37*
G04 #@! TD.AperFunction*
G04 #@! TA.AperFunction,ComponentPad*
G36*
G01*
X107486660Y-69090792D02*
X107698792Y-68878660D01*
G75*
G02*
X108900874Y-68878660I601041J-601041D01*
G01*
X108900874Y-68878660D01*
G75*
G02*
X108900874Y-70080742I-601041J-601041D01*
G01*
X108688742Y-70292874D01*
G75*
G02*
X107486660Y-70292874I-601041J601041D01*
G01*
X107486660Y-70292874D01*
G75*
G02*
X107486660Y-69090792I601041J601041D01*
G01*
G37*
G04 #@! TD.AperFunction*
G04 #@! TA.AperFunction,ComponentPad*
G36*
G01*
X105294629Y-67747289D02*
X106355289Y-66686629D01*
G75*
G02*
X106708843Y-66686629I176777J-176777D01*
G01*
X107557371Y-67535157D01*
G75*
G02*
X107557371Y-67888711I-176777J-176777D01*
G01*
X106496711Y-68949371D01*
G75*
G02*
X106143157Y-68949371I-176777J176777D01*
G01*
X105294629Y-68100843D01*
G75*
G02*
X105294629Y-67747289I176777J176777D01*
G01*
G37*
G04 #@! TD.AperFunction*
D11*
X111760000Y-40974000D03*
D12*
X111760000Y-45974000D03*
G04 #@! TA.AperFunction,ComponentPad*
G36*
G01*
X114593000Y-69942000D02*
X114593000Y-68742000D01*
G75*
G02*
X114843000Y-68492000I250000J0D01*
G01*
X116043000Y-68492000D01*
G75*
G02*
X116293000Y-68742000I0J-250000D01*
G01*
X116293000Y-69942000D01*
G75*
G02*
X116043000Y-70192000I-250000J0D01*
G01*
X114843000Y-70192000D01*
G75*
G02*
X114593000Y-69942000I0J250000D01*
G01*
G37*
G04 #@! TD.AperFunction*
G04 #@! TA.AperFunction,ComponentPad*
G36*
G01*
X116244000Y-66894000D02*
X116244000Y-65694000D01*
G75*
G02*
X116494000Y-65444000I250000J0D01*
G01*
X117694000Y-65444000D01*
G75*
G02*
X117944000Y-65694000I0J-250000D01*
G01*
X117944000Y-66894000D01*
G75*
G02*
X117694000Y-67144000I-250000J0D01*
G01*
X116494000Y-67144000D01*
G75*
G02*
X116244000Y-66894000I0J250000D01*
G01*
G37*
G04 #@! TD.AperFunction*
G04 #@! TA.AperFunction,ComponentPad*
G36*
G01*
X121197000Y-69942000D02*
X121197000Y-68742000D01*
G75*
G02*
X121447000Y-68492000I250000J0D01*
G01*
X122647000Y-68492000D01*
G75*
G02*
X122897000Y-68742000I0J-250000D01*
G01*
X122897000Y-69942000D01*
G75*
G02*
X122647000Y-70192000I-250000J0D01*
G01*
X121447000Y-70192000D01*
G75*
G02*
X121197000Y-69942000I0J250000D01*
G01*
G37*
G04 #@! TD.AperFunction*
G04 #@! TA.AperFunction,ComponentPad*
G36*
G01*
X117895000Y-69942000D02*
X117895000Y-68742000D01*
G75*
G02*
X118145000Y-68492000I250000J0D01*
G01*
X119345000Y-68492000D01*
G75*
G02*
X119595000Y-68742000I0J-250000D01*
G01*
X119595000Y-69942000D01*
G75*
G02*
X119345000Y-70192000I-250000J0D01*
G01*
X118145000Y-70192000D01*
G75*
G02*
X117895000Y-69942000I0J250000D01*
G01*
G37*
G04 #@! TD.AperFunction*
D13*
X108204000Y-53492400D03*
X132207000Y-53505100D03*
D14*
X120396000Y-66294000D02*
X120396000Y-73914000D01*
X120396000Y-73914000D02*
X112522000Y-73914000D01*
X108547336Y-67818000D02*
X106426000Y-67818000D01*
X112522000Y-71792664D02*
X108547336Y-67818000D01*
X112522000Y-73914000D02*
X112522000Y-71792664D01*
X128270000Y-73914000D02*
X132334000Y-69850000D01*
X120396000Y-73914000D02*
X128270000Y-73914000D01*
D15*
X117348000Y-59190390D02*
X117348000Y-51562000D01*
X120396000Y-66294000D02*
X120396000Y-62238390D01*
X120396000Y-62238390D02*
X117348000Y-59190390D01*
X117348000Y-51562000D02*
X111760000Y-45974000D01*
X120142000Y-58166000D02*
X123698000Y-61722000D01*
X113712000Y-40974000D02*
X115062000Y-39624000D01*
X123698000Y-61722000D02*
X123698000Y-66294000D01*
X111760000Y-40974000D02*
X113712000Y-40974000D01*
X115062000Y-39624000D02*
X119126000Y-39624000D01*
X119126000Y-39624000D02*
X120142000Y-40640000D01*
X120142000Y-40640000D02*
X120142000Y-58166000D01*
M02*
