G04 #@! TF.GenerationSoftware,KiCad,Pcbnew,(5.1.6)-1*
G04 #@! TF.CreationDate,2020-11-03T23:41:07+03:00*
G04 #@! TF.ProjectId,UlTi_head_connector,556c5469-5f68-4656-9164-5f636f6e6e65,rev?*
G04 #@! TF.SameCoordinates,Original*
G04 #@! TF.FileFunction,Legend,Top*
G04 #@! TF.FilePolarity,Positive*
%FSLAX46Y46*%
G04 Gerber Fmt 4.6, Leading zero omitted, Abs format (unit mm)*
G04 Created by KiCad (PCBNEW (5.1.6)-1) date 2020-11-03 23:41:07*
%MOMM*%
%LPD*%
G01*
G04 APERTURE LIST*
%ADD10C,0.120000*%
%ADD11C,0.150000*%
G04 APERTURE END LIST*
D10*
X123190000Y-63500000D02*
X123190000Y-64770000D01*
X117475000Y-60960000D02*
X117475000Y-64770000D01*
X122555000Y-60960000D02*
X117475000Y-60960000D01*
X120650000Y-62230000D02*
X120650000Y-64770000D01*
X122555000Y-62230000D02*
X120650000Y-62230000D01*
X120015000Y-74930000D02*
X122555000Y-74930000D01*
X116205000Y-71120000D02*
X120015000Y-74930000D01*
X121285000Y-73660000D02*
X118745000Y-71120000D01*
X122555000Y-73660000D02*
X121285000Y-73660000D01*
X121920000Y-72390000D02*
X121920000Y-71120000D01*
X122555000Y-72390000D02*
X121920000Y-72390000D01*
X114219056Y-72641208D02*
X113582660Y-72853340D01*
X113794792Y-72216944D02*
X114219056Y-72641208D01*
X113582660Y-72853340D02*
X113794792Y-72216944D01*
X112203802Y-78121285D02*
X111850249Y-77767732D01*
X108314715Y-82010373D02*
X112203802Y-78121285D01*
X107961161Y-81656819D02*
X108314715Y-82010373D01*
X111850249Y-77767732D02*
X107961161Y-81656819D01*
X110436035Y-76353518D02*
X110082482Y-75999965D01*
X106546948Y-80242606D02*
X110436035Y-76353518D01*
X106193394Y-79889052D02*
X106546948Y-80242606D01*
X110082482Y-75999965D02*
X106193394Y-79889052D01*
X113618016Y-77965722D02*
X111928030Y-76275737D01*
X116799996Y-74783741D02*
X113618016Y-77965722D01*
X117804088Y-75787833D02*
X116799996Y-74783741D01*
X109516796Y-84075124D02*
X117804088Y-75787833D01*
X106822719Y-81381048D02*
X109516796Y-84075124D01*
X110238045Y-74585751D02*
X111928030Y-76275737D01*
X113420026Y-71403771D02*
X110238045Y-74585751D01*
X112415934Y-70399679D02*
X113420026Y-71403771D01*
X104128643Y-78686971D02*
X112415934Y-70399679D01*
X106822719Y-81381048D02*
X104128643Y-78686971D01*
X131061208Y-68152944D02*
X131273340Y-68789340D01*
X130636944Y-68577208D02*
X131061208Y-68152944D01*
X131273340Y-68789340D02*
X130636944Y-68577208D01*
X136541285Y-70168198D02*
X136187732Y-70521751D01*
X140430373Y-74057285D02*
X136541285Y-70168198D01*
X140076819Y-74410839D02*
X140430373Y-74057285D01*
X136187732Y-70521751D02*
X140076819Y-74410839D01*
X134773518Y-71935965D02*
X134419965Y-72289518D01*
X138662606Y-75825052D02*
X134773518Y-71935965D01*
X138309052Y-76178606D02*
X138662606Y-75825052D01*
X134419965Y-72289518D02*
X138309052Y-76178606D01*
X136385722Y-68753984D02*
X134695737Y-70443970D01*
X133203741Y-65572004D02*
X136385722Y-68753984D01*
X134207833Y-64567912D02*
X133203741Y-65572004D01*
X142495124Y-72855204D02*
X134207833Y-64567912D01*
X139801048Y-75549281D02*
X142495124Y-72855204D01*
X133005751Y-72133955D02*
X134695737Y-70443970D01*
X129823771Y-68951974D02*
X133005751Y-72133955D01*
X128819679Y-69956066D02*
X129823771Y-68951974D01*
X137106971Y-78243357D02*
X128819679Y-69956066D01*
X139801048Y-75549281D02*
X137106971Y-78243357D01*
X108123056Y-66545208D02*
X107486660Y-66757340D01*
X107698792Y-66120944D02*
X108123056Y-66545208D01*
X107486660Y-66757340D02*
X107698792Y-66120944D01*
X106107802Y-72025285D02*
X105754249Y-71671732D01*
X102218715Y-75914373D02*
X106107802Y-72025285D01*
X101865161Y-75560819D02*
X102218715Y-75914373D01*
X105754249Y-71671732D02*
X101865161Y-75560819D01*
X104340035Y-70257518D02*
X103986482Y-69903965D01*
X100450948Y-74146606D02*
X104340035Y-70257518D01*
X100097394Y-73793052D02*
X100450948Y-74146606D01*
X103986482Y-69903965D02*
X100097394Y-73793052D01*
X107522016Y-71869722D02*
X105832030Y-70179737D01*
X110703996Y-68687741D02*
X107522016Y-71869722D01*
X111708088Y-69691833D02*
X110703996Y-68687741D01*
X103420796Y-77979124D02*
X111708088Y-69691833D01*
X100726719Y-75285048D02*
X103420796Y-77979124D01*
X104142045Y-68489751D02*
X105832030Y-70179737D01*
X107324026Y-65307771D02*
X104142045Y-68489751D01*
X106319934Y-64303679D02*
X107324026Y-65307771D01*
X98032643Y-72590971D02*
X106319934Y-64303679D01*
X100726719Y-75285048D02*
X98032643Y-72590971D01*
D11*
X123721904Y-63952380D02*
X123721904Y-62952380D01*
X123721904Y-63428571D02*
X124293333Y-63428571D01*
X124293333Y-63952380D02*
X124293333Y-62952380D01*
X124769523Y-63428571D02*
X125102857Y-63428571D01*
X125245714Y-63952380D02*
X124769523Y-63952380D01*
X124769523Y-62952380D01*
X125245714Y-62952380D01*
X123126666Y-62301428D02*
X123888571Y-62301428D01*
X123507619Y-62682380D02*
X123507619Y-61920476D01*
X124888571Y-62682380D02*
X124317142Y-62682380D01*
X124602857Y-62682380D02*
X124602857Y-61682380D01*
X124507619Y-61825238D01*
X124412380Y-61920476D01*
X124317142Y-61968095D01*
X125269523Y-61777619D02*
X125317142Y-61730000D01*
X125412380Y-61682380D01*
X125650476Y-61682380D01*
X125745714Y-61730000D01*
X125793333Y-61777619D01*
X125840952Y-61872857D01*
X125840952Y-61968095D01*
X125793333Y-62110952D01*
X125221904Y-62682380D01*
X125840952Y-62682380D01*
X113759436Y-70841452D02*
X114466543Y-70134346D01*
X114197169Y-70875124D01*
X114937947Y-70605750D01*
X114230841Y-71312857D01*
X114567558Y-71649574D02*
X115274665Y-70942468D01*
X115443024Y-71110826D01*
X115510367Y-71245513D01*
X115510367Y-71380200D01*
X115476695Y-71481216D01*
X115375680Y-71649574D01*
X115274665Y-71750590D01*
X115106306Y-71851605D01*
X115005291Y-71885277D01*
X114870604Y-71885277D01*
X114735917Y-71817933D01*
X114567558Y-71649574D01*
X115038963Y-72255666D02*
X115577711Y-72794414D01*
X116419505Y-72760742D02*
X116183802Y-72525040D01*
X115813413Y-72895429D02*
X116520520Y-72188322D01*
X116857237Y-72525040D01*
X116722550Y-73804567D02*
X117092940Y-73434177D01*
X117126611Y-73333162D01*
X117092940Y-73232147D01*
X116958253Y-73097460D01*
X116857237Y-73063788D01*
X116756222Y-73770895D02*
X116655207Y-73737223D01*
X116486848Y-73568864D01*
X116453176Y-73467849D01*
X116486848Y-73366834D01*
X116554192Y-73299490D01*
X116655207Y-73265819D01*
X116756222Y-73299490D01*
X116924581Y-73467849D01*
X117025596Y-73501521D01*
X117530672Y-73669880D02*
X117059268Y-74141284D01*
X117463329Y-73737223D02*
X117530672Y-73737223D01*
X117631688Y-73770895D01*
X117732703Y-73871910D01*
X117766375Y-73972925D01*
X117732703Y-74073941D01*
X117362314Y-74444330D01*
X129261452Y-68612563D02*
X128554346Y-67905456D01*
X129295124Y-68174830D01*
X129025750Y-67434052D01*
X129732857Y-68141158D01*
X130069574Y-67804441D02*
X129362468Y-67097334D01*
X129530826Y-66928975D01*
X129665513Y-66861632D01*
X129800200Y-66861632D01*
X129901216Y-66895304D01*
X130069574Y-66996319D01*
X130170590Y-67097334D01*
X130271605Y-67265693D01*
X130305277Y-67366708D01*
X130305277Y-67501395D01*
X130237933Y-67636082D01*
X130069574Y-67804441D01*
X130675666Y-67333036D02*
X131214414Y-66794288D01*
X131180742Y-65952494D02*
X130945040Y-66188197D01*
X131315429Y-66558586D02*
X130608322Y-65851479D01*
X130945040Y-65514762D01*
X132224567Y-65649449D02*
X131854177Y-65279059D01*
X131753162Y-65245388D01*
X131652147Y-65279059D01*
X131517460Y-65413746D01*
X131483788Y-65514762D01*
X132190895Y-65615777D02*
X132157223Y-65716792D01*
X131988864Y-65885151D01*
X131887849Y-65918823D01*
X131786834Y-65885151D01*
X131719490Y-65817807D01*
X131685819Y-65716792D01*
X131719490Y-65615777D01*
X131887849Y-65447418D01*
X131921521Y-65346403D01*
X132089880Y-64841327D02*
X132561284Y-65312731D01*
X132157223Y-64908670D02*
X132157223Y-64841327D01*
X132190895Y-64740311D01*
X132291910Y-64639296D01*
X132392925Y-64605624D01*
X132493941Y-64639296D01*
X132864330Y-65009685D01*
X107730780Y-64812796D02*
X108437886Y-64105689D01*
X108101169Y-64442407D02*
X108505230Y-64846468D01*
X108134841Y-65216857D02*
X108841947Y-64509750D01*
X108841947Y-65183185D02*
X109077650Y-65418887D01*
X108808276Y-65890292D02*
X108471558Y-65553574D01*
X109178665Y-64846468D01*
X109515382Y-65183185D01*
X108875619Y-66092322D02*
X109414367Y-66631071D01*
X110256161Y-66597399D02*
X110020459Y-66361697D01*
X109650069Y-66732086D02*
X110357176Y-66024979D01*
X110693894Y-66361697D01*
X110559207Y-67641223D02*
X110929596Y-67270834D01*
X110963268Y-67169819D01*
X110929596Y-67068803D01*
X110794909Y-66934116D01*
X110693894Y-66900445D01*
X110592879Y-67607551D02*
X110491863Y-67573880D01*
X110323505Y-67405521D01*
X110289833Y-67304506D01*
X110323505Y-67203490D01*
X110390848Y-67136147D01*
X110491863Y-67102475D01*
X110592879Y-67136147D01*
X110761237Y-67304506D01*
X110862253Y-67338177D01*
X111367329Y-67506536D02*
X110895924Y-67977941D01*
X111299985Y-67573880D02*
X111367329Y-67573880D01*
X111468344Y-67607551D01*
X111569359Y-67708567D01*
X111603031Y-67809582D01*
X111569359Y-67910597D01*
X111198970Y-68280986D01*
X123031428Y-74382380D02*
X123602857Y-74382380D01*
X123317142Y-75382380D02*
X123317142Y-74382380D01*
X123936190Y-75382380D02*
X123936190Y-74382380D01*
X123936190Y-74858571D02*
X124507619Y-74858571D01*
X124507619Y-75382380D02*
X124507619Y-74382380D01*
X124983809Y-75001428D02*
X125745714Y-75001428D01*
X123031428Y-60412380D02*
X123602857Y-60412380D01*
X123317142Y-61412380D02*
X123317142Y-60412380D01*
X123936190Y-61412380D02*
X123936190Y-60412380D01*
X123936190Y-60888571D02*
X124507619Y-60888571D01*
X124507619Y-61412380D02*
X124507619Y-60412380D01*
X124983809Y-61031428D02*
X125745714Y-61031428D01*
X125364761Y-61412380D02*
X125364761Y-60650476D01*
X123182380Y-72842380D02*
X123182380Y-71842380D01*
X123515714Y-72556666D01*
X123849047Y-71842380D01*
X123849047Y-72842380D01*
X124325238Y-72842380D02*
X124325238Y-71842380D01*
X124563333Y-71842380D01*
X124706190Y-71890000D01*
X124801428Y-71985238D01*
X124849047Y-72080476D01*
X124896666Y-72270952D01*
X124896666Y-72413809D01*
X124849047Y-72604285D01*
X124801428Y-72699523D01*
X124706190Y-72794761D01*
X124563333Y-72842380D01*
X124325238Y-72842380D01*
X125087142Y-72937619D02*
X125849047Y-72937619D01*
X126420476Y-72318571D02*
X126087142Y-72318571D01*
X126087142Y-72842380D02*
X126087142Y-71842380D01*
X126563333Y-71842380D01*
X127372857Y-72842380D02*
X127372857Y-72318571D01*
X127325238Y-72223333D01*
X127230000Y-72175714D01*
X127039523Y-72175714D01*
X126944285Y-72223333D01*
X127372857Y-72794761D02*
X127277619Y-72842380D01*
X127039523Y-72842380D01*
X126944285Y-72794761D01*
X126896666Y-72699523D01*
X126896666Y-72604285D01*
X126944285Y-72509047D01*
X127039523Y-72461428D01*
X127277619Y-72461428D01*
X127372857Y-72413809D01*
X127849047Y-72175714D02*
X127849047Y-72842380D01*
X127849047Y-72270952D02*
X127896666Y-72223333D01*
X127991904Y-72175714D01*
X128134761Y-72175714D01*
X128230000Y-72223333D01*
X128277619Y-72318571D01*
X128277619Y-72842380D01*
X123277619Y-74112380D02*
X123277619Y-73112380D01*
X123277619Y-73588571D02*
X123849047Y-73588571D01*
X123849047Y-74112380D02*
X123849047Y-73112380D01*
X124325238Y-73588571D02*
X124658571Y-73588571D01*
X124801428Y-74112380D02*
X124325238Y-74112380D01*
X124325238Y-73112380D01*
X124801428Y-73112380D01*
X124991904Y-74207619D02*
X125753809Y-74207619D01*
X126325238Y-73588571D02*
X125991904Y-73588571D01*
X125991904Y-74112380D02*
X125991904Y-73112380D01*
X126468095Y-73112380D01*
X127277619Y-74112380D02*
X127277619Y-73588571D01*
X127230000Y-73493333D01*
X127134761Y-73445714D01*
X126944285Y-73445714D01*
X126849047Y-73493333D01*
X127277619Y-74064761D02*
X127182380Y-74112380D01*
X126944285Y-74112380D01*
X126849047Y-74064761D01*
X126801428Y-73969523D01*
X126801428Y-73874285D01*
X126849047Y-73779047D01*
X126944285Y-73731428D01*
X127182380Y-73731428D01*
X127277619Y-73683809D01*
X127753809Y-73445714D02*
X127753809Y-74112380D01*
X127753809Y-73540952D02*
X127801428Y-73493333D01*
X127896666Y-73445714D01*
X128039523Y-73445714D01*
X128134761Y-73493333D01*
X128182380Y-73588571D01*
X128182380Y-74112380D01*
M02*
