G04 #@! TF.GenerationSoftware,KiCad,Pcbnew,(5.1.6)-1*
G04 #@! TF.CreationDate,2020-11-03T23:41:07+03:00*
G04 #@! TF.ProjectId,UlTi_head_connector,556c5469-5f68-4656-9164-5f636f6e6e65,rev?*
G04 #@! TF.SameCoordinates,Original*
G04 #@! TF.FileFunction,Profile,NP*
%FSLAX46Y46*%
G04 Gerber Fmt 4.6, Leading zero omitted, Abs format (unit mm)*
G04 Created by KiCad (PCBNEW (5.1.6)-1) date 2020-11-03 23:41:07*
%MOMM*%
%LPD*%
G01*
G04 APERTURE LIST*
G04 #@! TA.AperFunction,Profile*
%ADD10C,0.200000*%
G04 #@! TD*
G04 APERTURE END LIST*
D10*
X101488895Y-35248201D02*
X111224388Y-35248201D01*
X117946001Y-44244001D02*
X117946001Y-42744336D01*
X103903108Y-55154206D02*
G75*
G02*
X104196001Y-55861313I-707107J-707107D01*
G01*
X115446001Y-42744336D02*
X115446001Y-44244001D01*
X122446001Y-42744336D02*
X122446001Y-44244001D01*
X100488895Y-36248201D02*
G75*
G02*
X101488895Y-35248201I1000000J0D01*
G01*
X123140445Y-45363759D02*
G75*
G02*
X123696001Y-46259565I-444444J-895806D01*
G01*
X142520480Y-71755305D02*
G75*
G02*
X142520481Y-73169518I-707106J-707107D01*
G01*
X114552815Y-37748201D02*
X122696001Y-37748201D01*
X123696001Y-40728771D02*
G75*
G02*
X123140446Y-41624578I-1000000J-1D01*
G01*
X123696001Y-49494001D02*
X123696001Y-46259565D01*
X115446001Y-42744336D02*
G75*
G02*
X116696001Y-41494336I1250000J0D01*
G01*
X130488895Y-85201107D02*
G75*
G02*
X129781788Y-85494000I-707107J707107D01*
G01*
X129781788Y-85494000D02*
X110610215Y-85494000D01*
X97871519Y-71755307D02*
X103903108Y-65723718D01*
X109903108Y-85201106D02*
X97871519Y-73169521D01*
X124696001Y-50494001D02*
G75*
G02*
X123696001Y-49494001I0J1000000D01*
G01*
X122696001Y-37748201D02*
G75*
G02*
X123696001Y-38748201I0J-1000000D01*
G01*
X123696001Y-40728772D02*
X123696001Y-38748201D01*
X136196000Y-53594000D02*
X136196000Y-65016611D01*
X116696001Y-41494336D02*
G75*
G02*
X117946001Y-42744336I0J-1250000D01*
G01*
X110610214Y-85494000D02*
G75*
G02*
X109903108Y-85201106I1J1000000D01*
G01*
X142520481Y-73169518D02*
X130488895Y-85201106D01*
X104196001Y-65016611D02*
G75*
G02*
X103903108Y-65723718I-1000000J0D01*
G01*
X122446001Y-42744336D02*
G75*
G02*
X123140446Y-41624578I1250000J0D01*
G01*
X129167615Y-50494001D02*
X133096000Y-50494001D01*
X117946001Y-44244001D02*
G75*
G02*
X116696001Y-45494001I-1250000J0D01*
G01*
X97871519Y-73169521D02*
G75*
G02*
X97871519Y-71755307I707107J707107D01*
G01*
X103903108Y-55154206D02*
X100781788Y-52032887D01*
X111224388Y-35248201D02*
G75*
G02*
X111931495Y-35541094I0J-1000000D01*
G01*
X116696001Y-45494001D02*
G75*
G02*
X115446001Y-44244001I0J1250000D01*
G01*
X104196001Y-65016611D02*
X104196001Y-55861313D01*
X123140445Y-45363759D02*
G75*
G02*
X122446001Y-44244001I555556J1119758D01*
G01*
X100781788Y-52032887D02*
G75*
G02*
X100488895Y-51325780I707107J707107D01*
G01*
X114552814Y-37748201D02*
G75*
G02*
X113845708Y-37455307I1J1000000D01*
G01*
X136488893Y-65723718D02*
X142520481Y-71755305D01*
X100488895Y-51325780D02*
X100488895Y-36248201D01*
X111931495Y-35541094D02*
X113845708Y-37455307D01*
X124696001Y-50494001D02*
X129167615Y-50494001D01*
X136488893Y-65723718D02*
G75*
G02*
X136196000Y-65016611I707107J707107D01*
G01*
X133096000Y-50494000D02*
G75*
G02*
X136196000Y-53594000I0J-3100000D01*
G01*
M02*
