G04 #@! TF.GenerationSoftware,KiCad,Pcbnew,(5.1.6)-1*
G04 #@! TF.CreationDate,2020-11-03T23:41:07+03:00*
G04 #@! TF.ProjectId,UlTi_head_connector,556c5469-5f68-4656-9164-5f636f6e6e65,rev?*
G04 #@! TF.SameCoordinates,Original*
G04 #@! TF.FileFunction,Legend,Bot*
G04 #@! TF.FilePolarity,Positive*
%FSLAX46Y46*%
G04 Gerber Fmt 4.6, Leading zero omitted, Abs format (unit mm)*
G04 Created by KiCad (PCBNEW (5.1.6)-1) date 2020-11-03 23:41:07*
%MOMM*%
%LPD*%
G01*
G04 APERTURE LIST*
%ADD10C,0.120000*%
%ADD11C,0.150000*%
G04 APERTURE END LIST*
D10*
X101898000Y-40838000D02*
X103148000Y-40838000D01*
X101898000Y-42088000D02*
X101898000Y-40838000D01*
X107398000Y-47988000D02*
X107398000Y-44938000D01*
X104448000Y-47988000D02*
X107398000Y-47988000D01*
X104448000Y-48738000D02*
X104448000Y-47988000D01*
X107398000Y-41888000D02*
X107398000Y-44938000D01*
X104448000Y-41888000D02*
X107398000Y-41888000D01*
X104448000Y-41138000D02*
X104448000Y-41888000D01*
X102198000Y-48738000D02*
X102198000Y-46938000D01*
X102948000Y-48738000D02*
X102198000Y-48738000D01*
X102948000Y-46938000D02*
X102948000Y-48738000D01*
X102198000Y-46938000D02*
X102948000Y-46938000D01*
X102198000Y-42938000D02*
X102198000Y-41138000D01*
X102948000Y-42938000D02*
X102198000Y-42938000D01*
X102948000Y-41138000D02*
X102948000Y-42938000D01*
X102198000Y-41138000D02*
X102948000Y-41138000D01*
X102198000Y-45438000D02*
X102198000Y-44438000D01*
X102948000Y-45438000D02*
X102198000Y-45438000D01*
X102948000Y-44438000D02*
X102948000Y-45438000D01*
X102198000Y-44438000D02*
X102948000Y-44438000D01*
X102188000Y-48748000D02*
X102188000Y-41128000D01*
X108158000Y-48748000D02*
X102188000Y-48748000D01*
X108158000Y-41128000D02*
X108158000Y-48748000D01*
X102188000Y-41128000D02*
X108158000Y-41128000D01*
X113170000Y-48684000D02*
X110350000Y-48684000D01*
X110350000Y-48684000D02*
X109050000Y-46984000D01*
X113170000Y-48684000D02*
X114470000Y-46984000D01*
X109050000Y-46984000D02*
X109050000Y-38264000D01*
X114470000Y-38264000D02*
X109050000Y-38264000D01*
X114470000Y-46984000D02*
X114470000Y-38264000D01*
D11*
X108608333Y-38822380D02*
X108036904Y-38822380D01*
X108322619Y-39822380D02*
X108322619Y-38822380D01*
X107703571Y-39822380D02*
X107703571Y-38822380D01*
X107275000Y-39822380D02*
X107275000Y-39298571D01*
X107322619Y-39203333D01*
X107417857Y-39155714D01*
X107560714Y-39155714D01*
X107655952Y-39203333D01*
X107703571Y-39250952D01*
X106417857Y-39774761D02*
X106513095Y-39822380D01*
X106703571Y-39822380D01*
X106798809Y-39774761D01*
X106846428Y-39679523D01*
X106846428Y-39298571D01*
X106798809Y-39203333D01*
X106703571Y-39155714D01*
X106513095Y-39155714D01*
X106417857Y-39203333D01*
X106370238Y-39298571D01*
X106370238Y-39393809D01*
X106846428Y-39489047D01*
X105941666Y-39822380D02*
X105941666Y-39155714D01*
X105941666Y-39346190D02*
X105894047Y-39250952D01*
X105846428Y-39203333D01*
X105751190Y-39155714D01*
X105655952Y-39155714D01*
X105322619Y-39822380D02*
X105322619Y-39155714D01*
X105322619Y-39250952D02*
X105275000Y-39203333D01*
X105179761Y-39155714D01*
X105036904Y-39155714D01*
X104941666Y-39203333D01*
X104894047Y-39298571D01*
X104894047Y-39822380D01*
X104894047Y-39298571D02*
X104846428Y-39203333D01*
X104751190Y-39155714D01*
X104608333Y-39155714D01*
X104513095Y-39203333D01*
X104465476Y-39298571D01*
X104465476Y-39822380D01*
X103989285Y-39822380D02*
X103989285Y-39155714D01*
X103989285Y-38822380D02*
X104036904Y-38870000D01*
X103989285Y-38917619D01*
X103941666Y-38870000D01*
X103989285Y-38822380D01*
X103989285Y-38917619D01*
X103560714Y-39774761D02*
X103465476Y-39822380D01*
X103275000Y-39822380D01*
X103179761Y-39774761D01*
X103132142Y-39679523D01*
X103132142Y-39631904D01*
X103179761Y-39536666D01*
X103275000Y-39489047D01*
X103417857Y-39489047D01*
X103513095Y-39441428D01*
X103560714Y-39346190D01*
X103560714Y-39298571D01*
X103513095Y-39203333D01*
X103417857Y-39155714D01*
X103275000Y-39155714D01*
X103179761Y-39203333D01*
X102846428Y-39155714D02*
X102465476Y-39155714D01*
X102703571Y-38822380D02*
X102703571Y-39679523D01*
X102655952Y-39774761D01*
X102560714Y-39822380D01*
X102465476Y-39822380D01*
X101989285Y-39822380D02*
X102084523Y-39774761D01*
X102132142Y-39727142D01*
X102179761Y-39631904D01*
X102179761Y-39346190D01*
X102132142Y-39250952D01*
X102084523Y-39203333D01*
X101989285Y-39155714D01*
X101846428Y-39155714D01*
X101751190Y-39203333D01*
X101703571Y-39250952D01*
X101655952Y-39346190D01*
X101655952Y-39631904D01*
X101703571Y-39727142D01*
X101751190Y-39774761D01*
X101846428Y-39822380D01*
X101989285Y-39822380D01*
X101227380Y-39822380D02*
X101227380Y-39155714D01*
X101227380Y-39346190D02*
X101179761Y-39250952D01*
X101132142Y-39203333D01*
X101036904Y-39155714D01*
X100941666Y-39155714D01*
X112566176Y-37917380D02*
X112566176Y-36917380D01*
X112566176Y-37393571D02*
X111994747Y-37393571D01*
X111994747Y-37917380D02*
X111994747Y-36917380D01*
X111137604Y-37869761D02*
X111232842Y-37917380D01*
X111423319Y-37917380D01*
X111518557Y-37869761D01*
X111566176Y-37774523D01*
X111566176Y-37393571D01*
X111518557Y-37298333D01*
X111423319Y-37250714D01*
X111232842Y-37250714D01*
X111137604Y-37298333D01*
X111089985Y-37393571D01*
X111089985Y-37488809D01*
X111566176Y-37584047D01*
X110232842Y-37917380D02*
X110232842Y-37393571D01*
X110280461Y-37298333D01*
X110375700Y-37250714D01*
X110566176Y-37250714D01*
X110661414Y-37298333D01*
X110232842Y-37869761D02*
X110328080Y-37917380D01*
X110566176Y-37917380D01*
X110661414Y-37869761D01*
X110709033Y-37774523D01*
X110709033Y-37679285D01*
X110661414Y-37584047D01*
X110566176Y-37536428D01*
X110328080Y-37536428D01*
X110232842Y-37488809D01*
X109899509Y-37250714D02*
X109518557Y-37250714D01*
X109756652Y-36917380D02*
X109756652Y-37774523D01*
X109709033Y-37869761D01*
X109613795Y-37917380D01*
X109518557Y-37917380D01*
X108804271Y-37869761D02*
X108899509Y-37917380D01*
X109089985Y-37917380D01*
X109185223Y-37869761D01*
X109232842Y-37774523D01*
X109232842Y-37393571D01*
X109185223Y-37298333D01*
X109089985Y-37250714D01*
X108899509Y-37250714D01*
X108804271Y-37298333D01*
X108756652Y-37393571D01*
X108756652Y-37488809D01*
X109232842Y-37584047D01*
X108328080Y-37917380D02*
X108328080Y-37250714D01*
X108328080Y-37441190D02*
X108280461Y-37345952D01*
X108232842Y-37298333D01*
X108137604Y-37250714D01*
X108042366Y-37250714D01*
M02*
